<svg width="107" height="131" viewBox="0 0 107 131" fill="none" xmlns="http://www.w3.org/2000/svg">
<path d="M76 99.75H0V0H52.25L76 23.75V99.75Z" fill="#90CAF9"/>
<path d="M72.4375 26.125H49.875V3.5625L72.4375 26.125Z" fill="#E1F5FE"/>
<path d="M38 64.125H65.1696V67.3214H38V64.125ZM38 70.5179H58.7768V73.7143H38V70.5179ZM38 76.9107H65.1696V80.1071H38V76.9107ZM38 83.3036H58.7768V86.5H38V83.3036Z" fill="#1976D2"/>
<path d="M89.3906 101.734C87.2344 99.5781 84.7786 98.9193 82.0234 99.7578L76.2734 94.0078C81.4245 87.6589 84 80.5312 84 72.625C84 63.0417 80.6458 54.8958 73.9375 48.1875C67.2292 41.4792 59.0833 38.125 49.5 38.125C39.9167 38.125 31.7708 41.4792 25.0625 48.1875C18.3542 54.8958 15 63.0417 15 72.625C15 82.2083 18.3542 90.3542 25.0625 97.0625C31.7708 103.771 39.9167 107.125 49.5 107.125C57.8854 107.125 65.013 104.549 70.8828 99.3984L76.6328 105.148C75.9141 108.023 76.5729 110.479 78.6094 112.516L93.8828 127.789C95.4401 129.346 97.237 130.125 99.2734 130.125C101.43 130.125 103.227 129.346 104.664 127.789C106.221 126.232 107 124.435 107 122.398C107 120.362 106.221 118.565 104.664 117.008L89.3906 101.734ZM49.5 99.3984C42.0729 99.3984 35.7539 96.793 30.543 91.582C25.332 86.3711 22.7266 80.0521 22.7266 72.625C22.7266 65.1979 25.332 58.8789 30.543 53.668C35.7539 48.457 42.0729 45.8516 49.5 45.8516C56.9271 45.8516 63.2461 48.457 68.457 53.668C73.668 58.8789 76.2734 65.1979 76.2734 72.625C76.2734 80.0521 73.668 86.3711 68.457 91.582C63.2461 96.793 56.9271 99.3984 49.5 99.3984Z" fill="#3D3C3C"/>
</svg>
