<svg width="136" height="136" viewBox="0 0 136 136" fill="none" xmlns="http://www.w3.org/2000/svg">
<circle cx="68" cy="68" r="68" fill="#055459"/>
<path d="M101 40.5H73.5V35C73.5 33.5413 72.9205 32.1424 71.8891 31.1109C70.8576 30.0795 69.4587 29.5 68 29.5H35C33.5413 29.5 32.1424 30.0795 31.1109 31.1109C30.0795 32.1424 29.5 33.5413 29.5 35V90C29.5 91.4587 30.0795 92.8576 31.1109 93.8891C32.1424 94.9205 33.5413 95.5 35 95.5H62.5V101C62.5 102.459 63.0795 103.858 64.1109 104.889C65.1424 105.921 66.5413 106.5 68 106.5H101C102.459 106.5 103.858 105.921 104.889 104.889C105.921 103.858 106.5 102.459 106.5 101V46C106.5 44.5413 105.921 43.1424 104.889 42.1109C103.858 41.0795 102.459 40.5 101 40.5V40.5ZM35 65.25H51.9675L44.8725 72.3725L48.75 76.25L62.5 62.5L48.75 48.75L44.8725 52.6275L51.9675 59.75H35V35H68V90H35V65.25ZM68 101V95.5C69.4587 95.5 70.8576 94.9205 71.8891 93.8891C72.9205 92.8576 73.5 91.4587 73.5 90V46H101V70.75H84.0325L91.1275 63.6275L87.25 59.75L73.5 73.5L87.25 87.25L91.1275 83.3725L84.0325 76.25H101V101H68Z" fill="white"/>
<circle cx="68.5006" cy="99.5006" r="15.4167" fill="white"/>
<path fill-rule="evenodd" clip-rule="evenodd" d="M51.541 99.4993C51.541 90.1337 59.1337 82.541 68.4993 82.541C77.865 82.541 85.4577 90.1337 85.4577 99.4993C85.4577 108.865 77.865 116.458 68.4993 116.458C59.1337 116.458 51.541 108.865 51.541 99.4993ZM62.3327 90.2493C61.9238 90.2493 61.5317 90.4118 61.2426 90.7009C60.9534 90.99 60.791 91.3821 60.791 91.791C60.791 92.1999 60.9534 92.592 61.2426 92.8811C61.5317 93.1703 61.9238 93.3327 62.3327 93.3327H66.9577C67.4818 93.3327 68.302 93.5023 68.9464 93.9678C69.2393 94.1775 69.5199 94.4627 69.725 94.8743H62.3281C61.9192 94.8743 61.5271 95.0368 61.2379 95.3259C60.9488 95.615 60.7864 96.0071 60.7864 96.416C60.7864 96.8249 60.9488 97.217 61.2379 97.5061C61.5271 97.7953 61.9192 97.9577 62.3281 97.9577H69.725C69.5452 98.3196 69.2782 98.6312 68.948 98.8642C68.3612 99.2666 67.6691 99.4875 66.9577 99.4993H62.3281C62.0085 99.4992 61.6968 99.5983 61.4361 99.7831C61.1753 99.9678 60.9785 100.229 60.8726 100.531C60.7668 100.832 60.7573 101.159 60.8454 101.466C60.9336 101.773 61.115 102.045 61.3645 102.245L69.0775 108.412C69.2356 108.538 69.4171 108.632 69.6116 108.689C69.8061 108.745 70.0098 108.763 70.2111 108.74C70.4124 108.718 70.6073 108.656 70.7847 108.559C70.9621 108.461 71.1185 108.329 71.2451 108.171C71.3716 108.013 71.4657 107.832 71.5221 107.637C71.5785 107.443 71.5961 107.239 71.5737 107.038C71.5514 106.836 71.4896 106.641 71.392 106.464C71.2943 106.287 71.1627 106.13 71.0046 106.004L66.7233 102.583H66.9546C67.9736 102.583 69.466 102.29 70.7471 101.366C71.8883 100.549 72.6798 99.3322 72.964 97.9577H74.666C75.0749 97.9577 75.467 97.7953 75.7561 97.5061C76.0453 97.217 76.2077 96.8249 76.2077 96.416C76.2077 96.0071 76.0453 95.615 75.7561 95.3259C75.467 95.0368 75.0749 94.8743 74.666 94.8743H72.964C72.8485 94.3365 72.6581 93.8175 72.3982 93.3327H74.666C75.0749 93.3327 75.467 93.1703 75.7561 92.8811C76.0453 92.592 76.2077 92.1999 76.2077 91.791C76.2077 91.3821 76.0453 90.99 75.7561 90.7009C75.467 90.4118 75.0749 90.2493 74.666 90.2493H62.3327Z" fill="#2CBF81"/>
</svg>
