<svg width="13" height="13" viewBox="0 0 13 13" fill="none" xmlns="http://www.w3.org/2000/svg">
<path d="M12.285 8.94111C11.3967 8.94111 10.5372 8.79667 9.73555 8.53667C9.48278 8.45 9.20111 8.515 9.00611 8.71L7.87222 10.1328C5.82833 9.15778 3.91444 7.31611 2.89611 5.2L4.30444 4.00111C4.49944 3.79889 4.55722 3.51722 4.47778 3.26444C4.21056 2.46278 4.07333 1.60333 4.07333 0.715C4.07333 0.325 3.74833 0 3.35833 0H0.859444C0.469444 0 0 0.173333 0 0.715C0 7.42444 5.58278 13 12.285 13C12.7978 13 13 12.545 13 12.1478V9.65611C13 9.26611 12.675 8.94111 12.285 8.94111Z" fill="white"/>
</svg>
