<svg width="188" height="26" viewBox="0 0 188 26" fill="none" xmlns="http://www.w3.org/2000/svg">
<path d="M2.95203 5.12C4.05603 5.12 4.92003 4.256 4.92003 3.152C4.92003 2.048 4.05603 1.184 2.95203 1.184C1.84803 1.184 0.984031 2.048 0.984031 3.152C0.984031 4.256 1.84803 5.12 2.95203 5.12ZM4.87203 20V6.128H1.03203V20H4.87203ZM14.3117 20C18.3437 20 22.6157 17.504 22.6157 11.264C22.6157 5.768 19.5437 3.152 14.4797 3.152H7.71172V20H14.3117ZM11.5517 3.632H13.4717C16.5677 3.608 18.7757 5.528 18.7757 11.264C18.7757 17.888 16.3037 19.544 12.8717 19.544H11.5517V3.632ZM32.7349 20.36C34.7749 20.36 36.8869 19.712 38.6629 18.368L37.8709 15.968C35.9269 18.608 33.9829 19.904 32.3749 19.904C30.1429 19.904 28.5109 17.528 28.4149 13.112H38.5189C38.6869 12.488 38.7589 11.888 38.7589 11.336C38.7589 7.592 35.5909 5.72 32.2549 5.72C28.5109 5.72 24.5749 8.072 24.5749 12.752C24.5749 17.552 28.4869 20.36 32.7349 20.36ZM28.4149 12.704C28.4869 8.432 30.4549 6.2 32.2549 6.2C33.7909 6.2 35.2069 7.808 35.2069 11.168C35.2069 11.672 35.1589 12.176 35.0629 12.704H28.4149ZM45.8824 20.408C49.0504 20.408 52.2664 19.376 52.3144 16.496C52.3144 12.368 42.7864 9.848 42.7864 7.76C42.7864 6.8 43.7224 6.344 45.0424 6.344C46.8664 6.344 49.7704 7.4 51.4984 8.696L51.8824 6.296C50.3464 5.936 48.6664 5.768 47.0584 5.768C43.3864 5.768 39.7864 6.728 39.7864 9.032C39.7864 12.776 49.5304 15.056 49.5304 18.368C49.4824 19.136 48.5944 19.736 47.1064 19.736C45.7144 19.736 43.3864 19.28 40.6264 17.072L40.0264 19.472C41.8744 20.024 43.9384 20.408 45.8824 20.408ZM56.1786 5.12C57.2826 5.12 58.1466 4.256 58.1466 3.152C58.1466 2.048 57.2826 1.184 56.1786 1.184C55.0746 1.184 54.2106 2.048 54.2106 3.152C54.2106 4.256 55.0746 5.12 56.1786 5.12ZM58.0986 20V6.128H54.2586V20H58.0986ZM63.9964 25.88C69.6844 25.88 73.5964 22.616 73.5964 17.432V6.128H69.7564V6.752C68.6284 6.104 67.4764 5.792 66.3964 5.792C62.9404 5.792 60.0604 8.648 60.0604 13.208C60.0604 18.392 62.7964 20.36 65.4124 20.36C67.1884 20.36 68.8924 19.4 69.7084 17.72H69.7564V19.952C69.7564 23.072 68.5804 25.328 66.1084 25.328C64.8124 25.328 63.1084 24.632 60.9244 23.048L60.2044 25.448C61.5484 25.736 62.7964 25.88 63.9964 25.88ZM66.8044 19.232C64.9084 19.232 63.6604 16.52 63.6604 13.112C63.6604 9.8 64.9564 6.512 67.4764 6.512C68.1484 6.512 68.9164 6.728 69.7564 7.28V16.472C69.2044 18.32 67.9804 19.232 66.8044 19.232ZM86.5155 5.72C84.4275 5.72 82.0275 7.016 80.0115 10.064V6.152H76.1715V20H80.0115V10.76C81.4035 8.504 83.2995 6.944 84.6435 6.944C85.6275 6.944 86.2995 7.76 86.2995 9.704V20H90.1395V9.488C90.1395 6.8 88.1955 5.72 86.5155 5.72ZM94.0669 20.384C95.1469 20.384 96.0109 19.52 96.0109 18.44C96.0109 17.336 95.1469 16.472 94.0669 16.472C92.9629 16.472 92.0989 17.336 92.0989 18.44C92.0989 19.52 92.9629 20.384 94.0669 20.384ZM99.1707 20C98.8827 17.96 98.9547 16.16 99.2187 13.64L100.203 3.968L105.747 20H107.955L111.987 7.232L113.763 20H117.603L115.227 3.152H112.803L108.483 16.808L103.755 3.152H99.9147L98.8107 13.616C98.5707 15.848 97.9467 17.888 97.0827 20H99.1707ZM123.948 20.36C125.82 20.36 127.668 19.136 128.82 17.768V20H132.66V9.968C132.66 6.872 130.188 5.672 127.092 5.672C125.076 5.672 122.796 6.176 120.78 6.992L121.5 9.752C122.988 7.52 124.98 6.08 126.78 6.08C128.1 6.08 128.82 7.064 128.82 8.912C124.356 10.232 119.244 11.96 119.244 16.328C119.244 18.392 120.732 20.36 123.948 20.36ZM125.748 19.016C124.236 19.016 123.084 17.648 123.084 15.488C123.084 12.344 124.812 10.544 128.82 9.32V17.36C127.884 18.296 126.756 19.016 125.748 19.016ZM139.074 20V13.928C140.202 9.224 142.458 6.968 145.866 8.528L146.274 6.128C143.106 4.736 140.202 7.976 139.098 12.752H139.074V6.128H135.234V20H139.074ZM151.496 20V11.648C152.48 11.288 153.32 11.384 153.752 12.344L157.088 20H160.928L157.616 12.224C156.944 10.592 154.856 10.112 152.744 10.856V10.784C154.256 9.896 158 8.312 160.112 8.648V6.272L151.496 11.096V3.152H147.656V20H151.496ZM169.165 20.36C171.205 20.36 173.317 19.712 175.093 18.368L174.301 15.968C172.357 18.608 170.413 19.904 168.805 19.904C166.573 19.904 164.941 17.528 164.845 13.112H174.949C175.117 12.488 175.189 11.888 175.189 11.336C175.189 7.592 172.021 5.72 168.685 5.72C164.941 5.72 161.005 8.072 161.005 12.752C161.005 17.552 164.917 20.36 169.165 20.36ZM164.845 12.704C164.917 8.432 166.885 6.2 168.685 6.2C170.221 6.2 171.637 7.808 171.637 11.168C171.637 11.672 171.589 12.176 171.493 12.704H164.845ZM183.119 20.456C184.751 20.456 186.431 19.76 187.559 18.32L186.719 16.016C185.495 18.464 183.935 20.048 182.663 20.048C181.823 20.048 181.175 19.28 181.175 17.648V6.536H184.655V6.128H181.175V0.751999H180.743C180.743 2.6 179.759 5.096 178.031 6.128H175.895V6.536H177.335V15.248C177.335 18.464 180.215 20.456 183.119 20.456Z" fill="black"/>
</svg>
