<svg width="16" height="16" viewBox="0 0 16 16" fill="none" xmlns="http://www.w3.org/2000/svg">
<path d="M3.71598 1.38263C3.80085 1.42344 3.87248 1.48739 3.9226 1.56712C3.97273 1.64685 3.99932 1.73912 3.99931 1.8333C3.99931 2.38663 4.20731 2.7053 4.46798 3.0933L4.48731 3.1213C4.70864 3.45063 4.99931 3.88197 4.99931 4.49997C4.99931 5.13063 4.68131 5.68663 4.19664 6.01663C4.32398 6.1233 4.43664 6.25463 4.53398 6.41196C4.85131 6.9253 4.99931 7.70996 4.99931 8.83663C4.99931 9.97796 4.84598 11.3486 4.59598 12.4433C4.47198 12.9873 4.31798 13.4893 4.13464 13.866C4.04331 14.0533 3.93198 14.236 3.79464 14.3793C3.65731 14.52 3.44598 14.67 3.16598 14.67C2.88598 14.67 2.67464 14.52 2.53798 14.3793C2.39878 14.2268 2.28409 14.0536 2.19798 13.866C2.01398 13.4886 1.85998 12.9873 1.73598 12.4426C1.47594 11.2578 1.34076 10.049 1.33264 8.83596C1.33264 7.7093 1.48064 6.9253 1.79798 6.41196C1.88851 6.26296 2.0024 6.12948 2.13531 6.01663C1.88782 5.84861 1.68527 5.62252 1.54534 5.35813C1.40542 5.09374 1.33239 4.7991 1.33264 4.49997C1.33264 4.25463 1.33264 3.83263 1.58798 3.28797C1.83798 2.75463 2.31331 2.14197 3.18664 1.44263C3.26025 1.38375 3.349 1.34688 3.44265 1.33627C3.53631 1.32565 3.63106 1.34172 3.71598 1.38263ZM2.33264 4.4993V4.49997C2.33264 4.72098 2.42044 4.93294 2.57672 5.08922C2.733 5.2455 2.94496 5.3333 3.16598 5.3333C3.38699 5.3333 3.59895 5.2455 3.75523 5.08922C3.91151 4.93294 3.99931 4.72098 3.99931 4.49997C3.99931 4.2073 3.87598 4.00463 3.63798 3.65063L3.62998 3.63863C3.47731 3.41197 3.29664 3.1433 3.16864 2.79863C2.80664 3.16663 2.60664 3.47197 2.49398 3.71197C2.33264 4.05596 2.33264 4.30063 2.33264 4.49863V4.4993ZM2.64864 6.9373C2.48331 7.2053 2.33264 7.75463 2.33264 8.83663C2.33264 9.90396 2.47798 11.2 2.71064 12.2206C2.82798 12.734 2.96131 13.1506 3.09664 13.428C3.12131 13.4793 3.14464 13.522 3.16598 13.558C3.18731 13.522 3.21064 13.4793 3.23531 13.428C3.37064 13.1506 3.50398 12.7333 3.62131 12.2206C3.85464 11.2006 3.99931 9.90463 3.99931 8.83663C3.99931 7.75463 3.84864 7.2053 3.68331 6.9373C3.63345 6.84707 3.55808 6.77356 3.46664 6.72596C3.37197 6.68473 3.26915 6.66558 3.16598 6.66996C3.03264 6.66996 2.93731 6.69063 2.86531 6.72596C2.77387 6.77356 2.6985 6.84707 2.64864 6.9373ZM6.66598 9.9453C6.31278 9.88605 5.96922 9.77931 5.64464 9.62796C5.66415 9.24985 5.66971 8.87115 5.66131 8.49263C5.96198 8.69463 6.30131 8.8433 6.66598 8.92596V6.99996C6.66598 6.73475 6.77133 6.48039 6.95887 6.29286C7.14641 6.10532 7.40076 5.99997 7.66598 5.99997H10.3326C10.3326 5.44043 10.1761 4.89205 9.88078 4.41679C9.58547 3.94153 9.16313 3.55833 8.66148 3.31048C8.15982 3.06264 7.59886 2.96003 7.04195 3.01425C6.48505 3.06846 5.9544 3.27735 5.50998 3.6173C5.37664 3.24863 5.18664 2.96663 5.05464 2.77063L5.02798 2.73063C5.62695 2.3084 6.3304 2.05882 7.06156 2.00916C7.79271 1.95949 8.52345 2.11164 9.17402 2.449C9.82459 2.78636 10.37 3.29595 10.7506 3.92216C11.1313 4.54837 11.3326 5.26713 11.3326 5.99997H13.666C13.9312 5.99997 14.1855 6.10532 14.3731 6.29286C14.5606 6.48039 14.666 6.73475 14.666 6.99996V13C14.666 13.2652 14.5606 13.5195 14.3731 13.7071C14.1855 13.8946 13.9312 14 13.666 14H7.66598C7.40076 14 7.14641 13.8946 6.95887 13.7071C6.77133 13.5195 6.66598 13.2652 6.66598 13V9.94463V9.9453ZM7.66598 9.9873V13.0006H13.666V7.00063H11.206C10.9983 7.80398 10.546 8.52292 9.91184 9.05799C9.27764 9.59306 8.49282 9.9178 7.66598 9.9873ZM10.162 7.00063H7.66598V8.98263C8.22611 8.91983 8.75725 8.70064 9.19865 8.35014C9.64006 7.99963 9.97389 7.53196 10.162 7.00063Z" fill="#3B5998"/>
</svg>
