<svg width="12" height="10" viewBox="0 0 12 10" fill="none" xmlns="http://www.w3.org/2000/svg">
<path d="M6.46851 0.498141C6.25976 0.166066 5.74024 0.166065 5.5315 0.498141L4.06138 2.8368C3.95826 3.00084 3.78003 3.11278 3.57687 3.14111L0.821784 3.52522C0.359048 3.58974 0.196732 4.12904 0.557106 4.40464L2.60953 5.97425C2.79952 6.11954 2.88885 6.34873 2.8427 6.57245L2.30581 9.17502C2.22094 9.58643 2.68883 9.90609 3.09028 9.71096L5.68455 8.45005C5.882 8.35408 6.118 8.35408 6.31546 8.45005L8.90972 9.71096C9.31118 9.90609 9.77906 9.58643 9.69419 9.17502L9.15731 6.57245C9.11116 6.34873 9.20049 6.11954 9.39047 5.97425L11.4429 4.40464C11.8033 4.12904 11.641 3.58974 11.1782 3.52522L8.42313 3.14111C8.21997 3.11278 8.04174 3.00084 7.93862 2.8368L6.46851 0.498141Z" fill="#FFEA29"/>
</svg>
