<svg width="19" height="19" viewBox="0 0 19 19" fill="none" xmlns="http://www.w3.org/2000/svg">
<path fill-rule="evenodd" clip-rule="evenodd" d="M5.20743 1.97327C5.94717 1.91421 6.64943 1.62325 7.21418 1.14182C7.85204 0.598555 8.66252 0.300186 9.50038 0.300186C10.3382 0.300186 11.1487 0.598555 11.7866 1.14182C12.3513 1.62325 13.0536 1.91421 13.7933 1.97327C14.6287 2.04004 15.413 2.40218 16.0056 2.99478C16.5982 3.58738 16.9604 4.37168 17.0271 5.20708C17.0858 5.94653 17.3767 6.64918 17.8586 7.21383C18.4018 7.85169 18.7002 8.66217 18.7002 9.50003C18.7002 10.3379 18.4018 11.1484 17.8586 11.7862C17.3772 12.351 17.0862 13.0532 17.0271 13.793C16.9604 14.6284 16.5982 15.4127 16.0056 16.0053C15.413 16.5979 14.6287 16.96 13.7933 17.0268C13.0536 17.0858 12.3513 17.3768 11.7866 17.8582C11.1487 18.4015 10.3382 18.6999 9.50038 18.6999C8.66252 18.6999 7.85204 18.4015 7.21418 17.8582C6.64943 17.3768 5.94717 17.0858 5.20743 17.0268C4.37203 16.96 3.58773 16.5979 2.99513 16.0053C2.40253 15.4127 2.04039 14.6284 1.97363 13.793C1.91456 13.0532 1.6236 12.351 1.14218 11.7862C0.598906 11.1484 0.300537 10.3379 0.300537 9.50003C0.300537 8.66217 0.598906 7.85169 1.14218 7.21383C1.6236 6.64908 1.91456 5.94682 1.97363 5.20708C2.04039 4.37168 2.40253 3.58738 2.99513 2.99478C3.58773 2.40218 4.37203 2.04004 5.20743 1.97327ZM13.7634 8.01308C13.9729 7.79618 14.0888 7.50569 14.0862 7.20416C14.0836 6.90264 13.9626 6.6142 13.7494 6.40098C13.5362 6.18776 13.2478 6.06682 12.9462 6.0642C12.6447 6.06158 12.3542 6.17749 12.1373 6.38698L8.35038 10.1739L6.86343 8.68698C6.64653 8.47749 6.35604 8.36158 6.05451 8.3642C5.75299 8.36682 5.46455 8.48777 5.25134 8.70098C5.03812 8.9142 4.91717 9.20264 4.91455 9.50416C4.91193 9.80569 5.02784 10.0962 5.23733 10.3131L7.53733 12.6131C7.75298 12.8287 8.04544 12.9498 8.35038 12.9498C8.65532 12.9498 8.94777 12.8287 9.16343 12.6131L13.7634 8.01308Z" fill="#2CBF81"/>
</svg>
