<svg width="11" height="8" viewBox="0 0 11 8" fill="none" xmlns="http://www.w3.org/2000/svg">
<path d="M1.00442 3.7813H8.12812L5.94776 1.48982C5.84581 1.38249 5.79676 1.24412 5.8114 1.10514C5.82605 0.966168 5.90319 0.837976 6.02585 0.748767C6.14851 0.659557 6.30665 0.616639 6.46548 0.629452C6.62431 0.642265 6.77081 0.709761 6.87276 0.817091L9.87601 3.9705C9.89622 3.99558 9.91428 4.02193 9.93007 4.04934C9.93007 4.07561 9.93007 4.09138 9.97211 4.11766C9.99934 4.17792 10.0136 4.24207 10.0142 4.30686C10.0136 4.37166 9.99934 4.43581 9.97211 4.49607C9.97211 4.52235 9.97211 4.53811 9.93007 4.56439C9.91428 4.59179 9.89622 4.61814 9.87601 4.64323L6.87276 7.79664C6.81629 7.85596 6.74557 7.90367 6.66563 7.93638C6.5857 7.96908 6.49851 7.98597 6.41026 7.98584C6.26992 7.98608 6.13391 7.94331 6.02585 7.86496C5.96503 7.82084 5.91475 7.76665 5.8779 7.7055C5.84105 7.64436 5.81835 7.57745 5.81109 7.50861C5.80384 7.43977 5.81218 7.37036 5.83563 7.30435C5.85908 7.23833 5.89719 7.17702 5.94776 7.12391L8.12812 4.83243H1.00442C0.845118 4.83243 0.69234 4.77706 0.579696 4.6785C0.467052 4.57993 0.40377 4.44625 0.40377 4.30686C0.40377 4.16747 0.467052 4.03379 0.579696 3.93523C0.69234 3.83667 0.845118 3.7813 1.00442 3.7813Z" fill="#2CBF81"/>
</svg>
