<svg width="27" height="26" viewBox="0 0 27 26" fill="none" xmlns="http://www.w3.org/2000/svg">
<path d="M14.6172 0.994963C14.1194 0.109428 12.8806 0.109425 12.3828 0.994962L8.87713 7.23137C8.63123 7.66882 8.20621 7.96734 7.72175 8.04287L1.15193 9.06717C0.04848 9.23921 -0.33858 10.6774 0.520772 11.4123L5.41501 15.5979C5.86806 15.9854 6.08108 16.5965 5.97103 17.1931L4.69077 24.1333C4.48838 25.2304 5.60411 26.0828 6.56143 25.5625L12.7477 22.2001C13.2186 21.9441 13.7814 21.9441 14.2522 22.2001L20.4385 25.5625C21.3959 26.0828 22.5116 25.2304 22.3092 24.1333L21.0289 17.1931C20.9189 16.5965 21.1319 15.9854 21.585 15.5979L26.4792 11.4123C27.3385 10.6774 26.9515 9.23921 25.848 9.06717L19.2782 8.04287C18.7938 7.96734 18.3687 7.66882 18.1228 7.23137L14.6172 0.994963Z" fill="#E4D441"/>
</svg>
