<svg width="11" height="8" viewBox="0 0 11 8" fill="none" xmlns="http://www.w3.org/2000/svg">
<path d="M9.4116 4.83223H2.28789L4.46825 7.12371C4.57021 7.23104 4.61926 7.36941 4.60461 7.50838C4.58997 7.64736 4.51283 7.77555 4.39017 7.86476C4.2675 7.95397 4.10937 7.99689 3.95054 7.98407C3.79171 7.97126 3.6452 7.90376 3.54325 7.79643L0.540005 4.64303C0.519799 4.61794 0.501731 4.59159 0.485946 4.56419C0.485946 4.53791 0.485946 4.52215 0.443901 4.49587C0.416676 4.43561 0.402421 4.37146 0.401855 4.30666C0.402421 4.24187 0.416676 4.17772 0.443901 4.11746C0.443901 4.09118 0.443901 4.07541 0.485946 4.04913C0.501731 4.02173 0.519799 3.99538 0.540005 3.9703L3.54325 0.81689C3.59973 0.757562 3.67045 0.709851 3.75038 0.677149C3.83032 0.644448 3.91751 0.62756 4.00575 0.627685C4.14609 0.627445 4.2821 0.670213 4.39017 0.748565C4.45099 0.792686 4.50126 0.846873 4.53811 0.908022C4.57497 0.96917 4.59767 1.03608 4.60492 1.10492C4.61217 1.17375 4.60384 1.24317 4.58038 1.30918C4.55693 1.37519 4.51883 1.43651 4.46825 1.48962L2.28789 3.78109H9.4116C9.5709 3.78109 9.72368 3.83647 9.83632 3.93503C9.94896 4.03359 10.0122 4.16727 10.0122 4.30666C10.0122 4.44605 9.94896 4.57973 9.83632 4.67829C9.72368 4.77686 9.5709 4.83223 9.4116 4.83223Z" fill="#717171"/>
</svg>
