<svg width="14" height="14" viewBox="0 0 14 14" fill="none" xmlns="http://www.w3.org/2000/svg">
<path d="M14 3.5C13.9727 4.44792 13.6195 5.26823 12.9404 5.96094C12.2614 6.65365 11.4479 7 10.5 7C10.2357 7 9.96224 6.96354 9.67969 6.89062C9.7526 7.17318 9.90527 7.40788 10.1377 7.59473C10.3701 7.78158 10.6367 7.875 10.9375 7.875L12.25 9.1875L13.3711 10.3496C13.7904 10.7689 14 11.2725 14 11.8604C14 12.4482 13.7904 12.9495 13.3711 13.3643C12.9518 13.779 12.4482 13.9863 11.8604 13.9863C11.2725 13.9863 10.7689 13.7812 10.3496 13.3711L9.1875 12.25L7.875 10.9375C7.875 10.5729 7.7474 10.263 7.49219 10.0078C7.23698 9.7526 6.92708 9.625 6.5625 9.625L6.4668 9.5293V9.51562L3.08984 13.877C2.9987 13.959 2.60449 14 1.90723 14C1.20996 14 0.820312 13.959 0.738281 13.877L0.123047 13.2754C0.0410156 13.1842 0 12.79 0 12.0928C0 11.3955 0.0410156 11.0013 0.123047 10.9102L5.86523 6.4668L2.91211 3.5H1.3125L0 0.875L0.875 0L3.5 1.3125V2.89844L6.53516 5.94727L7.4375 5.25C7.4375 5.24089 7.44206 5.23633 7.45117 5.23633H7.46484C7.15495 4.68945 7 4.11068 7 3.5C7 2.55208 7.34408 1.73633 8.03223 1.05273C8.72038 0.369141 9.54297 0.0182292 10.5 0V0.519531L9.37891 1.58594C8.95964 2.00521 8.75 2.50879 8.75 3.09668C8.75 3.68457 8.95964 4.18815 9.37891 4.60742C9.79818 5.02669 10.304 5.23633 10.8965 5.23633C11.4889 5.23633 11.9948 5.02669 12.4141 4.60742L13.4668 3.5H14ZM1.75 11.375C1.50391 11.375 1.29655 11.4593 1.12793 11.6279C0.95931 11.7965 0.875 12.0016 0.875 12.2432C0.875 12.4847 0.95931 12.6921 1.12793 12.8652C1.29655 13.0384 1.50391 13.125 1.75 13.125C1.99609 13.125 2.20345 13.0384 2.37207 12.8652C2.54069 12.6921 2.625 12.4847 2.625 12.2432C2.625 12.0016 2.54069 11.7965 2.37207 11.6279C2.20345 11.4593 1.99609 11.375 1.75 11.375Z" fill="white"/>
</svg>
