<svg width="15" height="13" viewBox="0 0 15 13" fill="none" xmlns="http://www.w3.org/2000/svg">
<path d="M10.875 0C9.57 0 8.3175 0.573842 7.5 1.48065C6.6825 0.573842 5.43 0 4.125 0C1.815 0 0 1.71444 0 3.89646C0 6.57439 2.55 8.7564 6.4125 12.0719L7.5 13L8.5875 12.0649C12.45 8.7564 15 6.57439 15 3.89646C15 1.71444 13.185 0 10.875 0ZM7.575 11.0163L7.5 11.0872L7.425 11.0163C3.855 7.96294 1.5 5.94387 1.5 3.89646C1.5 2.47956 2.625 1.41689 4.125 1.41689C5.28 1.41689 6.405 2.11826 6.8025 3.08883H8.205C8.595 2.11826 9.72 1.41689 10.875 1.41689C12.375 1.41689 13.5 2.47956 13.5 3.89646C13.5 5.94387 11.145 7.96294 7.575 11.0163Z" fill="black"/>
</svg>
