<svg width="8" height="8" viewBox="0 0 8 8" fill="none" xmlns="http://www.w3.org/2000/svg">
<path d="M7.83278 0.167257C7.75778 0.0922121 7.66337 0.0395271 7.56013 0.0151034C7.45688 -0.00932029 7.34888 -0.00451843 7.24821 0.0289714L2.10535 1.74326C2.02112 1.77134 1.94459 1.81864 1.8818 1.88143C1.81902 1.94421 1.77172 2.02074 1.74363 2.10497L0.0293491 7.24783C-0.00422781 7.34851 -0.00910028 7.45656 0.0152772 7.55985C0.0396547 7.66315 0.092319 7.75762 0.167368 7.83267C0.242416 7.90772 0.336883 7.96038 0.440181 7.98476C0.543478 8.00914 0.651523 8.00426 0.752206 7.97069L5.89506 6.2564C5.97929 6.22832 6.05583 6.18101 6.11861 6.11823C6.18139 6.05545 6.22869 5.97891 6.25678 5.89469L7.97106 0.751829C8.00455 0.651158 8.00935 0.543151 7.98493 0.439906C7.96051 0.33666 7.90782 0.242253 7.83278 0.167257ZM1.47506 6.52554L2.73792 2.73811L5.26306 5.26326L1.47506 6.52554Z" fill="#545454"/>
</svg>
