<svg width="16" height="16" viewBox="0 0 16 16" fill="none" xmlns="http://www.w3.org/2000/svg">
<path d="M3.7161 1.38263C3.80097 1.42344 3.8726 1.48739 3.92273 1.56712C3.97285 1.64685 3.99944 1.73912 3.99943 1.8333C3.99943 2.38663 4.20743 2.7053 4.4681 3.0933L4.48743 3.1213C4.70876 3.45063 4.99943 3.88197 4.99943 4.49997C4.99943 5.13063 4.68143 5.68663 4.19676 6.01663C4.3241 6.1233 4.43676 6.25463 4.5341 6.41196C4.85143 6.9253 4.99943 7.70996 4.99943 8.83663C4.99943 9.97796 4.8461 11.3486 4.5961 12.4433C4.4721 12.9873 4.3181 13.4893 4.13476 13.866C4.04343 14.0533 3.9321 14.236 3.79476 14.3793C3.65743 14.52 3.4461 14.67 3.1661 14.67C2.8861 14.67 2.67476 14.52 2.5381 14.3793C2.3989 14.2268 2.28421 14.0536 2.1981 13.866C2.0141 13.4886 1.8601 12.9873 1.7361 12.4426C1.47606 11.2578 1.34088 10.049 1.33276 8.83596C1.33276 7.7093 1.48076 6.9253 1.7981 6.41196C1.88863 6.26296 2.00253 6.12948 2.13543 6.01663C1.88795 5.84861 1.68539 5.62252 1.54547 5.35813C1.40554 5.09374 1.33251 4.7991 1.33276 4.49997C1.33276 4.25463 1.33276 3.83263 1.5881 3.28797C1.8381 2.75463 2.31343 2.14197 3.18676 1.44263C3.26037 1.38375 3.34912 1.34688 3.44277 1.33627C3.53643 1.32565 3.63118 1.34172 3.7161 1.38263ZM2.33276 4.4993V4.49997C2.33276 4.72098 2.42056 4.93294 2.57684 5.08922C2.73312 5.2455 2.94508 5.3333 3.1661 5.3333C3.38711 5.3333 3.59907 5.2455 3.75535 5.08922C3.91163 4.93294 3.99943 4.72098 3.99943 4.49997C3.99943 4.2073 3.8761 4.00463 3.6381 3.65063L3.6301 3.63863C3.47743 3.41197 3.29676 3.1433 3.16876 2.79863C2.80676 3.16663 2.60676 3.47197 2.4941 3.71197C2.33276 4.05596 2.33276 4.30063 2.33276 4.49863V4.4993ZM2.64876 6.9373C2.48343 7.2053 2.33276 7.75463 2.33276 8.83663C2.33276 9.90396 2.4781 11.2 2.71076 12.2206C2.8281 12.734 2.96143 13.1506 3.09676 13.428C3.12143 13.4793 3.14476 13.522 3.1661 13.558C3.18743 13.522 3.21076 13.4793 3.23543 13.428C3.37076 13.1506 3.5041 12.7333 3.62143 12.2206C3.85476 11.2006 3.99943 9.90463 3.99943 8.83663C3.99943 7.75463 3.84876 7.2053 3.68343 6.9373C3.63357 6.84707 3.5582 6.77356 3.46676 6.72596C3.37209 6.68473 3.26927 6.66558 3.1661 6.66996C3.03276 6.66996 2.93743 6.69063 2.86543 6.72596C2.77399 6.77356 2.69863 6.84707 2.64876 6.9373ZM6.6661 9.9453C6.3129 9.88605 5.96934 9.77931 5.64476 9.62796C5.66428 9.24985 5.66984 8.87115 5.66143 8.49263C5.9621 8.69463 6.30143 8.8433 6.6661 8.92596V6.99996C6.6661 6.73475 6.77145 6.48039 6.95899 6.29286C7.14653 6.10532 7.40088 5.99997 7.6661 5.99997H10.3328C10.3327 5.44043 10.1762 4.89205 9.88091 4.41679C9.58559 3.94153 9.16325 3.55833 8.6616 3.31048C8.15995 3.06264 7.59898 2.96003 7.04207 3.01425C6.48517 3.06846 5.95453 3.27735 5.5101 3.6173C5.37676 3.24863 5.18676 2.96663 5.05476 2.77063L5.0281 2.73063C5.62707 2.3084 6.33053 2.05882 7.06168 2.00916C7.79283 1.95949 8.52357 2.11164 9.17414 2.449C9.82471 2.78636 10.3701 3.29595 10.7508 3.92216C11.1314 4.54837 11.3328 5.26713 11.3328 5.99997H13.6661C13.9313 5.99997 14.1857 6.10532 14.3732 6.29286C14.5607 6.48039 14.6661 6.73475 14.6661 6.99996V13C14.6661 13.2652 14.5607 13.5195 14.3732 13.7071C14.1857 13.8946 13.9313 14 13.6661 14H7.6661C7.40088 14 7.14653 13.8946 6.95899 13.7071C6.77145 13.5195 6.6661 13.2652 6.6661 13V9.94463V9.9453ZM7.6661 9.9873V13.0006H13.6661V7.00063H11.2061C10.9984 7.80398 10.5462 8.52292 9.91196 9.05799C9.27776 9.59306 8.49295 9.9178 7.6661 9.9873ZM10.1621 7.00063H7.6661V8.98263C8.22623 8.91983 8.75737 8.70064 9.19878 8.35014C9.64018 7.99963 9.97402 7.53196 10.1621 7.00063Z" fill="#F8F8F8"/>
</svg>
