<svg width="113" height="91" viewBox="0 0 113 91" fill="none" xmlns="http://www.w3.org/2000/svg">
<path d="M129 32.25C128.748 40.9844 125.494 48.543 119.237 54.9258C112.98 61.3086 105.484 64.5 96.75 64.5C94.3145 64.5 91.7949 64.1641 89.1914 63.4922C89.8633 66.0957 91.27 68.2583 93.4116 69.98C95.5532 71.7017 98.0098 72.5625 100.781 72.5625L112.875 84.6562L123.205 95.3643C127.068 99.2275 129 103.868 129 109.285C129 114.702 127.068 119.321 123.205 123.142C119.342 126.963 114.702 128.874 109.285 128.874C103.868 128.874 99.2275 126.984 95.3643 123.205L84.6562 112.875L72.5625 100.781C72.5625 97.4219 71.3867 94.5664 69.0352 92.2148C66.6836 89.8633 63.8281 88.6875 60.4688 88.6875L59.5869 87.8057V87.6797L28.4707 127.866C27.6309 128.622 23.9985 129 17.5737 129C11.1489 129 7.55859 128.622 6.80273 127.866L1.13379 122.323C0.37793 121.483 0 117.851 0 111.426C0 105.001 0.37793 101.369 1.13379 100.529L54.0439 59.5869L26.833 32.25H12.0938L0 8.0625L8.0625 0L32.25 12.0938V26.707L60.2168 54.7998L68.5312 48.375C68.5312 48.291 68.5732 48.249 68.6572 48.249H68.7832C65.9277 43.21 64.5 37.877 64.5 32.25C64.5 23.5156 67.6704 15.999 74.0112 9.7002C80.3521 3.40137 87.9316 0.167969 96.75 0V4.78711L86.4199 14.6133C82.5566 18.4766 80.625 23.1167 80.625 28.5337C80.625 33.9507 82.5566 38.5908 86.4199 42.4541C90.2832 46.3174 94.9443 48.249 100.403 48.249C105.862 48.249 110.523 46.3174 114.387 42.4541L124.087 32.25H129ZM16.125 104.812C13.8574 104.812 11.9468 105.589 10.3931 107.143C8.83936 108.697 8.0625 110.586 8.0625 112.812C8.0625 115.038 8.83936 116.948 10.3931 118.544C11.9468 120.14 13.8574 120.938 16.125 120.938C18.3926 120.938 20.3032 120.14 21.8569 118.544C23.4106 116.948 24.1875 115.038 24.1875 112.812C24.1875 110.586 23.4106 108.697 21.8569 107.143C20.3032 105.589 18.3926 104.812 16.125 104.812Z" fill="white" fill-opacity="0.18"/>
</svg>
