<svg width="103" height="115" viewBox="0 0 103 115" fill="none" xmlns="http://www.w3.org/2000/svg">
<path d="M31.46 0.654031C32.5804 1.19273 33.5258 2.0369 34.1875 3.08933C34.8492 4.14177 35.2001 5.35968 35.2 6.60283C35.2 13.9068 37.9456 18.1132 41.3864 23.2348L41.6416 23.6044C44.5632 27.9516 48.4 33.6452 48.4 41.8028C48.4 50.1276 44.2024 57.4668 37.8048 61.8228C39.4856 63.2308 40.9728 64.9644 42.2576 67.0412C46.4464 73.8172 48.4 84.1748 48.4 99.0468C48.4 114.112 46.376 132.205 43.076 146.655C41.4392 153.836 39.4064 160.462 36.9864 165.434C35.7808 167.907 34.3112 170.318 32.4984 172.21C30.6856 174.067 27.896 176.047 24.2 176.047C20.504 176.047 17.7144 174.067 15.9104 172.21C14.0731 170.197 12.5591 167.911 11.4224 165.434C8.99361 160.453 6.96081 153.836 5.32401 146.646C1.89154 131.006 0.10713 115.05 8.47883e-06 99.038C8.47883e-06 84.166 1.95361 73.8172 6.14241 67.0412C7.33742 65.0744 8.84087 63.3124 10.5952 61.8228C7.32841 59.6049 4.65465 56.6205 2.80767 53.1306C0.960679 49.6406 -0.00329829 45.7514 8.47883e-06 41.8028C8.47883e-06 38.5644 7.60555e-06 32.994 3.37041 25.8044C6.67041 18.7644 12.9448 10.6772 24.4728 1.44603C25.4444 0.668852 26.6159 0.18213 27.8521 0.0419988C29.0884 -0.0981323 30.3391 0.114034 31.46 0.654031ZM13.2 41.794V41.8028C13.2 44.7202 14.3589 47.5181 16.4218 49.581C18.4847 51.6439 21.2826 52.8028 24.2 52.8028C27.1174 52.8028 29.9153 51.6439 31.9782 49.581C34.0411 47.5181 35.2 44.7202 35.2 41.8028C35.2 37.9396 33.572 35.2644 30.4304 30.5916L30.3248 30.4332C28.3096 27.4412 25.9248 23.8948 24.2352 19.3452C19.4568 24.2028 16.8168 28.2332 15.3296 31.4012C13.2 35.942 13.2 39.1716 13.2 41.7852V41.794ZM17.3712 73.9756C15.1888 77.5132 13.2 84.7644 13.2 99.0468C13.2 113.136 15.1184 130.243 18.1896 143.716C19.7384 150.492 21.4984 155.992 23.2848 159.652C23.6104 160.33 23.9184 160.893 24.2 161.368C24.4816 160.893 24.7896 160.33 25.1152 159.652C26.9016 155.992 28.6616 150.483 30.2104 143.716C33.2904 130.252 35.2 113.144 35.2 99.0468C35.2 84.7644 33.2112 77.5132 31.0288 73.9756C30.3706 72.7847 29.3758 71.8143 28.1688 71.186C26.9191 70.6417 25.5619 70.389 24.2 70.4468C22.44 70.4468 21.1816 70.7196 20.2312 71.186C19.0242 71.8143 18.0294 72.7847 17.3712 73.9756ZM70.4 113.681C65.7378 112.899 61.2028 111.49 56.9184 109.492C57.176 104.501 57.2493 99.5025 57.1384 94.506C61.1072 97.1724 65.5864 99.1348 70.4 100.226V74.8028C70.4 71.302 71.7907 67.9445 74.2662 65.469C76.7417 62.9935 80.0991 61.6028 83.6 61.6028H118.8C118.8 54.2169 116.734 46.9783 112.835 40.7049C108.937 34.4315 103.362 29.3732 96.7406 26.1017C90.1188 22.8301 82.714 21.4757 75.3629 22.1913C68.0117 22.907 61.0072 25.6643 55.1408 30.1516C53.3808 25.2852 50.8728 21.5628 49.1304 18.9756L48.7784 18.4476C56.6848 12.8741 65.9705 9.57975 75.6217 8.92417C85.2729 8.26858 94.9187 10.277 103.506 14.7301C112.094 19.1832 119.293 25.9099 124.318 34.1759C129.343 42.4418 132 51.9294 132 61.6028H162.8C166.301 61.6028 169.658 62.9935 172.134 65.469C174.609 67.9445 176 71.302 176 74.8028V154.003C176 157.504 174.609 160.861 172.134 163.337C169.658 165.812 166.301 167.203 162.8 167.203H83.6C80.0991 167.203 76.7417 165.812 74.2662 163.337C71.7907 160.861 70.4 157.504 70.4 154.003V113.672V113.681ZM83.6 114.236V154.012H162.8V74.8116H130.328C127.586 85.4158 121.617 94.9058 113.245 101.969C104.874 109.032 94.5144 113.318 83.6 114.236ZM116.547 74.8116H83.6V100.974C90.9937 100.145 98.0048 97.2517 103.831 92.6251C109.658 87.9984 114.065 81.8252 116.547 74.8116Z" fill="#F8F8F8" fill-opacity="0.33"/>
</svg>
