<svg width="14" height="11" viewBox="0 0 14 11" fill="none" xmlns="http://www.w3.org/2000/svg">
<path d="M9.62079 1.95716e-05C9.73285 -0.000377145 9.84358 0.0253673 9.94484 0.0753618C10.0461 0.125356 10.1353 0.19833 10.2059 0.288921L13.8291 4.9738C13.9394 5.11351 13.9998 5.28876 13.9998 5.46961C13.9998 5.65047 13.9394 5.82571 13.8291 5.96543L10.0784 10.6503C9.95105 10.8098 9.76808 10.91 9.56972 10.9291C9.37136 10.9481 9.17386 10.8843 9.02067 10.7518C8.86748 10.6193 8.77114 10.4288 8.75285 10.2224C8.73456 10.0159 8.79582 9.81032 8.92315 9.65086L12.2763 5.46571L9.03567 1.28055C8.94394 1.16594 8.88567 1.02638 8.86776 0.878375C8.84985 0.730374 8.87304 0.580126 8.93459 0.445414C8.99615 0.310703 9.09348 0.197164 9.21509 0.118231C9.3367 0.0392985 9.47748 -0.00172376 9.62079 1.95716e-05Z" fill="#2CBF81"/>
<path d="M5.24676 1.95716e-05C5.35883 -0.000377145 5.46956 0.0253673 5.57081 0.0753618C5.67207 0.125356 5.76127 0.19833 5.83188 0.288921L9.45508 4.9738C9.56542 5.11351 9.62573 5.28876 9.62573 5.46961C9.62573 5.65047 9.56542 5.82571 9.45508 5.96543L5.70435 10.6503C5.57702 10.8098 5.39405 10.91 5.19569 10.9291C4.99734 10.9481 4.79984 10.8843 4.64664 10.7518C4.49345 10.6193 4.39712 10.4288 4.37883 10.2224C4.36054 10.0159 4.4218 9.81032 4.54912 9.65086L7.90228 5.46571L4.66165 1.28055C4.56992 1.16594 4.51165 1.02638 4.49374 0.878375C4.47582 0.730374 4.49901 0.580126 4.56057 0.445414C4.62212 0.310703 4.71946 0.197164 4.84107 0.118231C4.96267 0.0392985 5.10346 -0.00172376 5.24676 1.95716e-05Z" fill="#2CBF81" fill-opacity="0.75"/>
<path d="M0.87103 1.95716e-05C0.983098 -0.000377145 1.09383 0.0253673 1.19508 0.0753618C1.29634 0.125356 1.38554 0.19833 1.45614 0.288921L5.07935 4.9738C5.18968 5.11351 5.25 5.28876 5.25 5.46961C5.25 5.65047 5.18968 5.82571 5.07935 5.96543L1.32862 10.6503C1.20129 10.8098 1.01832 10.91 0.819962 10.9291C0.621603 10.9481 0.424104 10.8843 0.270912 10.7518C0.117719 10.6193 0.0213828 10.4288 0.00309425 10.2224C-0.0151939 10.0159 0.046064 9.81032 0.173392 9.65086L3.52655 5.46571L0.285916 1.28055C0.194185 1.16594 0.135916 1.02638 0.118003 0.878375C0.10009 0.730374 0.123282 0.580126 0.184836 0.445414C0.24639 0.310703 0.343729 0.197164 0.465335 0.118231C0.586942 0.0392985 0.727726 -0.00172376 0.87103 1.95716e-05Z" fill="#2CBF81" fill-opacity="0.5"/>
</svg>
