<svg width="20" height="18" viewBox="0 0 20 18" fill="none" xmlns="http://www.w3.org/2000/svg">
<path d="M17.2239 2.41286C16.7944 1.96494 16.2844 1.60962 15.723 1.3672C15.1617 1.12478 14.56 1 13.9524 1C13.3448 1 12.7432 1.12478 12.1818 1.3672C11.6205 1.60962 11.1105 1.96494 10.681 2.41286L9.78949 3.34202L8.89804 2.41286C8.03039 1.50852 6.85361 1.00047 5.62656 1.00047C4.39952 1.00047 3.22274 1.50852 2.35509 2.41286C1.48744 3.3172 1 4.54375 1 5.82269C1 7.10162 1.48744 8.32817 2.35509 9.23251L3.24654 10.1617L9.78949 16.9813L16.3324 10.1617L17.2239 9.23251C17.6536 8.7848 17.9945 8.25323 18.2271 7.66816C18.4597 7.08309 18.5794 6.45599 18.5794 5.82269C18.5794 5.18938 18.4597 4.56228 18.2271 3.97721C17.9945 3.39215 17.6536 2.86057 17.2239 2.41286V2.41286Z" stroke="#272727" stroke-width="1.59813" stroke-linecap="round" stroke-linejoin="round"/>
</svg>
