<svg width="98" height="29" viewBox="0 0 98 29" fill="none" xmlns="http://www.w3.org/2000/svg">
<path d="M1.996 3.29951C2.864 3.29951 3.564 2.59951 3.564 1.73151C3.564 0.863511 2.864 0.163512 1.996 0.163512C1.128 0.163512 0.428 0.863511 0.428 1.73151C0.428 2.59951 1.128 3.29951 1.996 3.29951ZM3.396 21.2195V5.03551H0.596V21.2195H3.396ZM13.8251 21.2195C18.7251 21.2195 23.2891 18.3075 23.2891 11.0275C23.2891 4.61551 19.8731 1.56351 14.3291 1.56351H7.27313V21.2195H13.8251ZM10.0731 1.98351H13.0411C18.1371 1.95551 20.4891 4.69951 20.4891 11.0275C20.4891 18.6995 17.3531 20.7995 12.5651 20.7995H10.0731V1.98351ZM34.6906 21.6115C36.8746 21.6115 39.1986 20.8555 41.3266 19.1755L40.7386 17.2155C38.5826 19.9595 36.3706 21.2475 34.4386 21.2475C31.3306 21.2475 28.9226 18.1955 28.8106 13.2675H41.1026C41.2706 12.5675 41.3546 11.9235 41.3546 11.3075C41.3546 6.77151 37.9106 4.55951 34.2986 4.55951C30.2666 4.55951 26.0106 7.33151 26.0106 12.7635C26.0106 18.1395 30.0146 21.6115 34.6906 21.6115ZM28.8106 12.8755C28.8386 7.63951 31.6946 4.95151 34.3266 4.95151C36.6786 4.95151 38.8346 6.96751 38.8346 11.1115C38.8346 11.6995 38.7786 12.2595 38.6666 12.8755H28.8106ZM49.3477 21.6675C52.9037 21.6675 56.5157 20.4355 56.6277 17.1595C56.6277 12.0915 45.1197 10.2715 45.1197 7.41551C45.1197 5.87551 46.7997 5.11951 49.0117 5.11951C51.0557 5.11951 53.8277 5.95951 55.8157 7.19151L56.1237 5.23151C54.4157 4.78351 52.5117 4.55951 50.7197 4.55951C46.8277 4.55951 43.1597 5.67951 43.1597 8.45151C43.1597 12.5395 54.8637 14.3875 54.8637 18.3915C54.7517 19.9875 52.9317 20.9955 50.5237 20.9955C48.7877 20.9955 46.4357 20.4915 43.9157 18.6715L43.4397 20.6315C45.1757 21.2755 47.3037 21.6675 49.3477 21.6675ZM60.8944 3.29951C61.7624 3.29951 62.4624 2.59951 62.4624 1.73151C62.4624 0.863511 61.7624 0.163512 60.8944 0.163512C60.0264 0.163512 59.3264 0.863511 59.3264 1.73151C59.3264 2.59951 60.0264 3.29951 60.8944 3.29951ZM62.2944 21.2195V5.03551H59.4944V21.2195H62.2944ZM69.0648 28.0795C75.0848 28.0795 79.2008 24.2715 79.2008 18.2235V5.03551H76.4008V6.15551C74.8608 5.06351 73.3208 4.58751 71.9488 4.58751C68.0847 4.58751 65.0888 8.17151 65.0888 13.2395C65.0888 19.2595 68.1968 21.6955 71.2208 21.6955C73.3488 21.6955 75.3648 20.3235 76.3168 17.8875H76.4008V19.7915C76.4008 24.2995 74.4688 27.5755 70.8288 27.5755C69.4008 27.5755 67.6088 26.9875 65.4808 25.6155L65.0608 27.5755C66.4608 27.9115 67.8048 28.0795 69.0648 28.0795ZM72.0048 20.8555C69.6528 20.8555 67.7488 17.9715 67.7488 13.1835C67.7488 9.09551 69.5408 5.20351 72.7888 5.20351C73.8248 5.20351 75.0568 5.65151 76.4008 6.63151V15.9275C75.9528 19.1475 73.9368 20.8555 72.0048 20.8555ZM93.458 4.55951C90.966 4.55951 87.83 6.40751 85.478 10.4675V5.03551H82.678V21.2195H85.478V11.1675C87.326 7.66751 90.182 5.48351 92.198 5.48351C93.458 5.48351 94.382 6.40751 94.382 8.56351V21.2195H97.182V8.64751C97.182 5.79151 95.39 4.55951 93.458 4.55951Z" fill="black"/>
</svg>
