<svg width="18" height="18" viewBox="0 0 18 18" fill="none" xmlns="http://www.w3.org/2000/svg">
<path d="M0.899103 15.23H17.1009C17.3303 15.2303 17.551 15.3476 17.7178 15.558C17.8846 15.7683 17.985 16.0557 17.9985 16.3616C18.0119 16.6675 17.9374 16.9686 17.7901 17.2036C17.6429 17.4385 17.434 17.5895 17.2062 17.6257L17.1009 17.6341H0.899103C0.669685 17.6338 0.449024 17.5165 0.282203 17.3062C0.115382 17.0958 0.0149931 16.8084 0.0015482 16.5025C-0.0118967 16.1966 0.062617 15.8955 0.209865 15.6605C0.357112 15.4256 0.565979 15.2746 0.793791 15.2384L0.899103 15.23H17.1009H0.899103ZM0.899103 8.01742L17.1009 8.01502C17.3303 8.01536 17.551 8.13268 17.7178 8.34301C17.8846 8.55334 17.985 8.8408 17.9985 9.14666C18.0119 9.45252 17.9374 9.7537 17.7901 9.98865C17.6429 10.2236 17.434 10.3746 17.2062 10.4108L17.1009 10.4192L0.899103 10.4216C0.669685 10.4213 0.449024 10.3039 0.282203 10.0936C0.115382 9.88329 0.0149931 9.59582 0.0015482 9.28996C-0.0118967 8.9841 0.062617 8.68292 0.209865 8.44797C0.357112 8.21302 0.565979 8.06202 0.793791 8.02584L0.899103 8.01742L17.1009 8.01502L0.899103 8.01742ZM0.899103 0.804878H17.1009C17.3303 0.805218 17.551 0.922538 17.7178 1.13287C17.8846 1.3432 17.985 1.63066 17.9985 1.93652C18.0119 2.24238 17.9374 2.54356 17.7901 2.77851C17.6429 3.01346 17.434 3.16446 17.2062 3.20064L17.1009 3.20906H0.899103C0.669685 3.20872 0.449024 3.0914 0.282203 2.88107C0.115382 2.67074 0.0149931 2.38328 0.0015482 2.07742C-0.0118967 1.77156 0.062617 1.47038 0.209865 1.23543C0.357112 1.00048 0.565979 0.84948 0.793791 0.813293L0.899103 0.804878H17.1009H0.899103Z" fill="black"/>
</svg>
