<svg width="10" height="8" viewBox="0 0 10 8" fill="none" xmlns="http://www.w3.org/2000/svg">
<path d="M5.36035 0.248441C5.19978 -0.0282884 4.80015 -0.0282895 4.63957 0.248441L3.50872 2.19732C3.4294 2.33402 3.29229 2.42731 3.13602 2.45091L1.01672 2.77101C0.660768 2.82477 0.53591 3.27419 0.813121 3.50386L2.39191 4.81187C2.53805 4.93294 2.60677 5.12393 2.57127 5.31036L2.15828 7.47917C2.093 7.82202 2.45291 8.08839 2.76172 7.92579L4.75731 6.87503C4.90919 6.79506 5.09073 6.79506 5.24262 6.87503L7.23821 7.92579C7.54702 8.08839 7.90693 7.82202 7.84165 7.47917L7.42866 5.31036C7.39316 5.12393 7.46188 4.93294 7.60802 4.81187L9.18681 3.50386C9.46402 3.27419 9.33916 2.82477 8.98321 2.77101L6.86391 2.45091C6.70763 2.42731 6.57053 2.33402 6.49121 2.19732L5.36035 0.248441Z" fill="#E4D441"/>
</svg>
