<svg width="15" height="15" viewBox="0 0 15 15" fill="none" xmlns="http://www.w3.org/2000/svg">
<path fill-rule="evenodd" clip-rule="evenodd" d="M4.32654 1.93676C4.87331 1.89311 5.39236 1.67805 5.80979 1.32222C6.28125 0.920668 6.8803 0.700134 7.49959 0.700134C8.11888 0.700134 8.71793 0.920668 9.18939 1.32222C9.60681 1.67805 10.1259 1.89311 10.6726 1.93676C11.2901 1.98611 11.8698 2.25378 12.3078 2.69179C12.7458 3.1298 13.0135 3.7095 13.0628 4.32697C13.1062 4.87352 13.3212 5.39287 13.6774 5.81022C14.0789 6.28168 14.2995 6.88073 14.2995 7.50002C14.2995 8.1193 14.0789 8.71835 13.6774 9.18982C13.3216 9.60724 13.1065 10.1263 13.0628 10.6731C13.0135 11.2905 12.7458 11.8702 12.3078 12.3082C11.8698 12.7462 11.2901 13.0139 10.6726 13.0633C10.1259 13.1069 9.60681 13.322 9.18939 13.6778C8.71793 14.0794 8.11888 14.2999 7.49959 14.2999C6.8803 14.2999 6.28125 14.0794 5.80979 13.6778C5.39236 13.322 4.87331 13.1069 4.32654 13.0633C3.70907 13.0139 3.12937 12.7462 2.69136 12.3082C2.25336 11.8702 1.98569 11.2905 1.93634 10.6731C1.89268 10.1263 1.67762 9.60724 1.32179 9.18982C0.92024 8.71835 0.699707 8.1193 0.699707 7.50002C0.699707 6.88073 0.92024 6.28168 1.32179 5.81022C1.67762 5.39279 1.89268 4.87373 1.93634 4.32697C1.98569 3.7095 2.25336 3.1298 2.69136 2.69179C3.12937 2.25378 3.70907 1.98611 4.32654 1.93676ZM10.6505 6.40097C10.8054 6.24065 10.891 6.02594 10.8891 5.80307C10.8872 5.58021 10.7978 5.36702 10.6402 5.20942C10.4826 5.05182 10.2694 4.96243 10.0465 4.96049C9.82366 4.95856 9.60895 5.04423 9.44864 5.19907L6.64959 7.99812L5.55054 6.89907C5.39023 6.74423 5.17551 6.65856 4.95265 6.66049C4.72978 6.66243 4.51659 6.75182 4.35899 6.90942C4.2014 7.06702 4.112 7.28021 4.11006 7.50307C4.10813 7.72594 4.1938 7.94065 4.34864 8.10097L6.04864 9.80097C6.20804 9.96032 6.4242 10.0498 6.64959 10.0498C6.87498 10.0498 7.09114 9.96032 7.25054 9.80097L10.6505 6.40097Z" fill="#2CBF81"/>
</svg>
