<svg width="18" height="16" viewBox="0 0 18 16" fill="none" xmlns="http://www.w3.org/2000/svg">
<path fill-rule="evenodd" clip-rule="evenodd" d="M12.5632 9.58801C12.3483 9.48868 11.2943 9.01001 11.0981 8.94335C10.9019 8.87735 10.759 8.84468 10.6155 9.04335C10.4726 9.24068 10.0621 9.68734 9.93734 9.81934C9.81181 9.95201 9.68701 9.96801 9.47275 9.86934C9.2585 9.76934 8.56739 9.56068 7.7486 8.88601C7.1116 8.36068 6.68092 7.71202 6.55612 7.51335C6.43131 7.31535 6.54241 7.20802 6.6499 7.10935C6.74657 7.02068 6.86416 6.87802 6.97165 6.76268C7.07913 6.64668 7.11448 6.56402 7.1859 6.43135C7.25804 6.29935 7.22197 6.18402 7.16787 6.08468C7.11448 5.98535 6.68597 5.01002 6.50706 4.61335C6.3332 4.22735 6.15646 4.28002 6.02516 4.27335C5.89964 4.26802 5.7568 4.26669 5.61396 4.26669C5.47113 4.26669 5.23883 4.31602 5.04261 4.51469C4.84567 4.71269 4.29235 5.19202 4.29235 6.16735C4.29235 7.14202 5.05993 8.08401 5.16742 8.21668C5.2749 8.34868 6.67876 10.35 8.82926 11.208C9.34146 11.412 9.74039 11.534 10.0513 11.6247C10.565 11.776 11.0324 11.7547 11.4018 11.7033C11.813 11.6467 12.67 11.224 12.8489 10.7613C13.0271 10.2987 13.0271 9.90201 12.9737 9.81934C12.9203 9.73668 12.7775 9.68734 12.5625 9.58801H12.5632ZM8.65179 14.5233H8.64891C7.37161 14.5236 6.11777 14.2062 5.01881 13.6047L4.7591 13.462L2.05961 14.1167L2.78029 11.6847L2.61076 11.4353C1.89667 10.3849 1.51877 9.1692 1.52072 7.92868C1.52216 4.29535 4.72087 1.33936 8.65468 1.33936C10.5592 1.33936 12.3497 2.02602 13.6959 3.27136C14.3598 3.88241 14.8861 4.60906 15.2442 5.40928C15.6023 6.2095 15.7851 7.0674 15.7821 7.93335C15.7807 11.5667 12.582 14.5233 8.65179 14.5233ZM14.7202 2.32536C13.9254 1.58597 12.9797 0.999717 11.9379 0.60056C10.896 0.201403 9.77887 -0.00271749 8.65107 2.73183e-05C3.92299 2.73183e-05 0.0735832 3.55669 0.0721404 7.92801C0.071419 9.32535 0.466027 10.6893 1.21701 11.8913L0 16L4.54773 14.8973C5.80577 15.5307 7.21555 15.8626 8.64819 15.8627H8.65179C13.3799 15.8627 17.2293 12.306 17.2307 7.93401C17.2342 6.8922 17.0141 5.86008 16.5832 4.89737C16.1523 3.93466 15.5191 3.06047 14.7202 2.32536Z" fill="white"/>
</svg>
