<svg width="14" height="14" viewBox="0 0 14 14" fill="none" xmlns="http://www.w3.org/2000/svg">
<path d="M5.6032 1.60092C6.70783 1.60092 7.70841 2.04918 8.43682 2.76959L6.40366 4.80275H11.2064V6.26299e-06L9.56547 1.64094C9.04575 1.1198 8.42814 0.706537 7.74815 0.424924C7.06816 0.143312 6.3392 -0.00109601 5.6032 6.26299e-06C2.77759 6.26299e-06 0.456261 2.0892 0.0640365 4.80275H1.68096C1.86549 3.89874 2.35669 3.08625 3.07143 2.50279C3.78617 1.91933 4.68055 1.60073 5.6032 1.60092ZM10.1178 8.9171C10.6634 8.17772 11.0156 7.31375 11.1424 6.40367H9.52544C9.34091 7.30767 8.84971 8.12016 8.13497 8.70362C7.42023 9.28709 6.52585 9.60568 5.6032 9.6055C4.49857 9.6055 3.498 9.15724 2.76958 8.43683L4.80274 6.40367H0V11.2064L1.64094 9.56547C2.16065 10.0866 2.77826 10.4999 3.45826 10.7815C4.13825 11.0631 4.8672 11.2075 5.6032 11.2064C6.84391 11.2064 7.98857 10.7982 8.9171 10.1178L12.8073 14L14 12.8073L10.1178 8.9171Z" fill="#545454"/>
</svg>
