<svg width="224" height="35" viewBox="0 0 224 35" fill="none" xmlns="http://www.w3.org/2000/svg">
<path d="M49.568 10.64C50.312 10.64 50.912 10.04 50.912 9.296C50.912 8.552 50.312 7.952 49.568 7.952C48.824 7.952 48.224 8.552 48.224 9.296C48.224 10.04 48.824 10.64 49.568 10.64ZM50.768 26V12.128H48.368V26H50.768ZM59.7073 26C63.9073 26 67.8193 23.504 67.8193 17.264C67.8193 11.768 64.8913 9.152 60.1393 9.152H54.0913V26H59.7073ZM56.4913 9.512H59.0353C63.4033 9.488 65.4193 11.84 65.4193 17.264C65.4193 23.84 62.7313 25.64 58.6273 25.64H56.4913V9.512ZM77.5919 26.336C79.4639 26.336 81.4559 25.688 83.2799 24.248L82.7759 22.568C80.9279 24.92 79.0319 26.024 77.3759 26.024C74.7119 26.024 72.6479 23.408 72.5519 19.184H83.0879C83.2319 18.584 83.3039 18.032 83.3039 17.504C83.3039 13.616 80.3519 11.72 77.2559 11.72C73.7999 11.72 70.1519 14.096 70.1519 18.752C70.1519 23.36 73.5839 26.336 77.5919 26.336ZM72.5519 18.848C72.5759 14.36 75.0239 12.056 77.2799 12.056C79.2959 12.056 81.1439 13.784 81.1439 17.336C81.1439 17.84 81.0959 18.32 80.9999 18.848H72.5519ZM90.1552 26.384C93.2032 26.384 96.2992 25.328 96.3952 22.52C96.3952 18.176 86.5312 16.616 86.5312 14.168C86.5312 12.848 87.9712 12.2 89.8672 12.2C91.6192 12.2 93.9952 12.92 95.6992 13.976L95.9632 12.296C94.4992 11.912 92.8672 11.72 91.3312 11.72C87.9952 11.72 84.8512 12.68 84.8512 15.056C84.8512 18.56 94.8832 20.144 94.8832 23.576C94.7872 24.944 93.2272 25.808 91.1632 25.808C89.6752 25.808 87.6592 25.376 85.4992 23.816L85.0912 25.496C86.5792 26.048 88.4032 26.384 90.1552 26.384ZM100.052 10.64C100.796 10.64 101.396 10.04 101.396 9.296C101.396 8.552 100.796 7.952 100.052 7.952C99.3084 7.952 98.7084 8.552 98.7084 9.296C98.7084 10.04 99.3084 10.64 100.052 10.64ZM101.252 26V12.128H98.8524V26H101.252ZM107.056 31.88C112.216 31.88 115.744 28.616 115.744 23.432V12.128H113.344V13.088C112.024 12.152 110.704 11.744 109.528 11.744C106.215 11.744 103.648 14.816 103.648 19.16C103.648 24.32 106.312 26.408 108.904 26.408C110.728 26.408 112.456 25.232 113.272 23.144H113.344V24.776C113.344 28.64 111.688 31.448 108.568 31.448C107.344 31.448 105.808 30.944 103.984 29.768L103.624 31.448C104.824 31.736 105.976 31.88 107.056 31.88ZM109.576 25.688C107.56 25.688 105.928 23.216 105.928 19.112C105.928 15.608 107.464 12.272 110.248 12.272C111.136 12.272 112.192 12.656 113.344 13.496V21.464C112.96 24.224 111.232 25.688 109.576 25.688ZM127.964 11.72C125.828 11.72 123.14 13.304 121.124 16.784V12.128H118.724V26H121.124V17.384C122.708 14.384 125.156 12.512 126.884 12.512C127.964 12.512 128.756 13.304 128.756 15.152V26H131.156V15.224C131.156 12.776 129.62 11.72 127.964 11.72ZM135.064 26.408C135.784 26.408 136.36 25.832 136.36 25.112C136.36 24.368 135.784 23.816 135.064 23.816C134.32 23.816 133.768 24.368 133.768 25.112C133.768 25.832 134.32 26.408 135.064 26.408ZM139.749 26C139.557 24.056 139.677 22.04 139.965 19.64L141.117 9.8L146.805 26H148.413L153.333 11.408L155.325 26H157.725L155.397 9.152H153.717L148.605 24.224L143.301 9.152H140.901L139.653 19.616C139.341 21.944 138.861 23.864 138.093 26H139.749ZM164.459 26.36C166.259 26.36 168.155 25.352 169.523 23.864V26H171.923V15.968C171.923 12.824 169.643 11.696 166.859 11.696C164.987 11.696 162.899 12.2 161.195 12.992L161.675 14.84C163.163 13.112 165.179 11.984 166.931 11.984C168.467 11.984 169.523 12.92 169.523 14.912C164.627 16.04 159.923 17.96 159.923 22.136C159.923 24.632 161.627 26.36 164.459 26.36ZM165.395 25.592C163.691 25.592 162.323 24.344 162.323 21.776C162.323 18.728 164.123 16.424 169.523 15.248V23.528C168.467 24.68 166.811 25.592 165.395 25.592ZM177.304 26V20.024C178.552 14.888 181 12.248 184.288 13.808L184.624 12.128C181.312 11.024 178.6 13.928 177.328 19.064H177.304V12.128H174.904V26H177.304ZM188.812 26V17.888C190.204 17.192 191.62 16.712 192.243 18.056L195.796 26H198.196L194.764 18.056C194.092 16.52 192.316 16.256 190.564 16.832V16.808C192.724 15.56 195.7 14.12 197.548 14.144V12.512L188.812 17.48V9.152H186.412V26H188.812ZM206.17 26.336C208.042 26.336 210.034 25.688 211.858 24.248L211.354 22.568C209.506 24.92 207.61 26.024 205.954 26.024C203.29 26.024 201.226 23.408 201.13 19.184H211.666C211.81 18.584 211.882 18.032 211.882 17.504C211.882 13.616 208.93 11.72 205.834 11.72C202.378 11.72 198.73 14.096 198.73 18.752C198.73 23.36 202.162 26.336 206.17 26.336ZM201.13 18.848C201.154 14.36 203.602 12.056 205.858 12.056C207.874 12.056 209.722 13.784 209.722 17.336C209.722 17.84 209.674 18.32 209.578 18.848H201.13ZM219.325 26.456C220.933 26.456 222.565 25.688 223.477 24.032L222.805 22.568C221.821 24.872 220.285 26.168 218.989 26.168C217.885 26.168 216.973 25.28 216.973 23.504V12.464H220.645V12.128H216.973L216.949 6.752H216.637C216.637 8.888 216.085 10.832 214.909 12.128H213.133V12.464H214.573V21.92C214.573 24.8 216.925 26.456 219.325 26.456Z" fill="black"/>
<path d="M30.9967 19.8181V19.8455C31.0007 19.8706 31.0007 19.896 30.9967 19.9211C30.8514 22.2746 30.105 24.5583 28.8225 26.5728C27.3298 28.8965 25.1607 30.7547 22.5803 31.9203C22.0077 32.1787 21.4211 32.4078 20.823 32.6068C20.6721 32.6651 20.5212 32.7132 20.3523 32.7647C18.3713 33.3816 16.3048 33.7113 14.2214 33.7429L1.09017 34.0003C1.09017 33.863 1.09017 33.7257 1.09017 33.585C0.939235 27.7844 4.0801 22.6017 9.01781 19.4131L9.37718 19.6293C12.8566 21.5298 16.8163 22.4797 20.823 22.3751C24.0177 22.3028 27.1583 21.5722 30.03 20.2334C30.3606 20.0721 30.6337 19.9314 30.853 19.8181H30.9967Z" fill="url(#paint0_linear_915_25929)"/>
<path d="M30.7818 17.974L0 2.35465L13.3232 2.01136C17.6168 1.90151 21.1517 2.58808 23.9278 4.07106C24.6086 4.43672 25.2547 4.85827 25.8589 5.33091C29.9691 8.54403 30.4007 13.7448 30.638 16.2095C30.674 16.6318 30.6955 16.9751 30.7063 17.1879C30.7063 17.3252 30.7243 17.4728 30.7423 17.6239C30.7603 17.7749 30.7674 17.8607 30.7818 17.974Z" fill="url(#paint1_linear_915_25929)"/>
<path d="M0.0338222 3.33691C0.00147097 3.84662 -0.00931539 4.37011 0.00865749 4.89359C0.217143 10.6622 3.66434 15.6835 8.7938 18.697L9.17123 18.9106C12.6474 20.818 16.6048 21.7713 20.6092 21.6657C23.8026 21.5919 26.9417 20.8577 29.8113 19.5132C30.1348 19.3548 30.4152 19.2136 30.6309 19.1C30.6848 19.0655 30.7387 19.0414 30.7818 19.0139L0.0338222 3.33691Z" fill="url(#paint2_linear_915_25929)"/>
<defs>
<linearGradient id="paint0_linear_915_25929" x1="30.9997" y1="21.1851" x2="-3.23416" y2="37.6467" gradientUnits="userSpaceOnUse">
<stop stop-color="#174E86"/>
<stop offset="1" stop-color="#49B7CF"/>
</linearGradient>
<linearGradient id="paint1_linear_915_25929" x1="31.0799" y1="17.5117" x2="-1.87278" y2="-0.793245" gradientUnits="userSpaceOnUse">
<stop stop-color="#174E86"/>
<stop offset="1" stop-color="#49B7CF"/>
</linearGradient>
<linearGradient id="paint2_linear_915_25929" x1="0" y1="3.33691" x2="20.1078" y2="31.0108" gradientUnits="userSpaceOnUse">
<stop stop-color="#174E86"/>
<stop offset="1" stop-color="white"/>
</linearGradient>
</defs>
</svg>
