<svg width="131" height="49" viewBox="0 0 131 49" fill="none" xmlns="http://www.w3.org/2000/svg">
<path d="M33.996 13.2995C34.864 13.2995 35.564 12.5995 35.564 11.7315C35.564 10.8635 34.864 10.1635 33.996 10.1635C33.128 10.1635 32.428 10.8635 32.428 11.7315C32.428 12.5995 33.128 13.2995 33.996 13.2995ZM35.396 31.2195V15.0355H32.596V31.2195H35.396ZM45.8251 31.2195C50.7251 31.2195 55.2891 28.3075 55.2891 21.0275C55.2891 14.6155 51.8731 11.5635 46.3291 11.5635H39.2731V31.2195H45.8251ZM42.0731 11.9835H45.0411C50.1371 11.9555 52.4891 14.6995 52.4891 21.0275C52.4891 28.6995 49.3531 30.7995 44.5651 30.7995H42.0731V11.9835ZM66.6906 31.6115C68.8746 31.6115 71.1986 30.8555 73.3266 29.1755L72.7386 27.2155C70.5826 29.9595 68.3706 31.2475 66.4386 31.2475C63.3306 31.2475 60.9226 28.1955 60.8106 23.2675H73.1026C73.2706 22.5675 73.3546 21.9235 73.3546 21.3075C73.3546 16.7715 69.9106 14.5595 66.2986 14.5595C62.2666 14.5595 58.0106 17.3315 58.0106 22.7635C58.0106 28.1395 62.0146 31.6115 66.6906 31.6115ZM60.8106 22.8755C60.8386 17.6395 63.6946 14.9515 66.3266 14.9515C68.6786 14.9515 70.8346 16.9675 70.8346 21.1115C70.8346 21.6995 70.7786 22.2595 70.6666 22.8755H60.8106ZM81.3477 31.6675C84.9037 31.6675 88.5157 30.4355 88.6277 27.1595C88.6277 22.0915 77.1197 20.2715 77.1197 17.4155C77.1197 15.8755 78.7997 15.1195 81.0117 15.1195C83.0557 15.1195 85.8277 15.9595 87.8157 17.1915L88.1237 15.2315C86.4157 14.7835 84.5117 14.5595 82.7197 14.5595C78.8277 14.5595 75.1597 15.6795 75.1597 18.4515C75.1597 22.5395 86.8637 24.3875 86.8637 28.3915C86.7517 29.9875 84.9317 30.9955 82.5237 30.9955C80.7877 30.9955 78.4357 30.4915 75.9157 28.6715L75.4397 30.6315C77.1757 31.2755 79.3037 31.6675 81.3477 31.6675ZM92.8944 13.2995C93.7624 13.2995 94.4624 12.5995 94.4624 11.7315C94.4624 10.8635 93.7624 10.1635 92.8944 10.1635C92.0264 10.1635 91.3264 10.8635 91.3264 11.7315C91.3264 12.5995 92.0264 13.2995 92.8944 13.2995ZM94.2944 31.2195V15.0355H91.4944V31.2195H94.2944ZM101.065 38.0795C107.085 38.0795 111.201 34.2715 111.201 28.2235V15.0355H108.401V16.1555C106.861 15.0635 105.321 14.5875 103.949 14.5875C100.085 14.5875 97.0888 18.1715 97.0888 23.2395C97.0888 29.2595 100.197 31.6955 103.221 31.6955C105.349 31.6955 107.365 30.3235 108.317 27.8875H108.401V29.7915C108.401 34.2995 106.469 37.5755 102.829 37.5755C101.401 37.5755 99.6088 36.9875 97.4808 35.6155L97.0608 37.5755C98.4608 37.9115 99.8048 38.0795 101.065 38.0795ZM104.005 30.8555C101.653 30.8555 99.7488 27.9715 99.7488 23.1835C99.7488 19.0955 101.541 15.2035 104.789 15.2035C105.825 15.2035 107.057 15.6515 108.401 16.6315V25.9275C107.953 29.1475 105.937 30.8555 104.005 30.8555ZM125.458 14.5595C122.966 14.5595 119.83 16.4075 117.478 20.4675V15.0355H114.678V31.2195H117.478V21.1675C119.326 17.6675 122.182 15.4835 124.198 15.4835C125.458 15.4835 126.382 16.4075 126.382 18.5635V31.2195H129.182V18.6475C129.182 15.7915 127.39 14.5595 125.458 14.5595Z" fill="black"/>
<path d="M30.997 22.8178V22.8453C31.0009 22.8703 31.0009 22.8958 30.997 22.9208C30.8517 25.2743 30.1052 27.5581 28.8228 29.5726C27.33 31.8963 25.1609 33.7545 22.5806 34.9201C22.0079 35.1784 21.4213 35.4076 20.8233 35.6065C20.6723 35.6649 20.5214 35.7129 20.3525 35.7644C18.3716 36.3813 16.305 36.711 14.2217 36.7426L1.09041 37C1.09041 36.8627 1.09041 36.7254 1.09041 36.5847C0.939479 30.7842 4.08035 25.6014 9.01805 22.4128L9.37742 22.6291C12.8568 24.5296 16.8165 25.4795 20.8233 25.3749C24.0179 25.3026 27.1586 24.572 30.0303 23.2332C30.3609 23.0718 30.634 22.9311 30.8532 22.8178H30.997Z" fill="url(#paint0_linear_433_18311)"/>
<path d="M30.7818 20.974L0 5.35465L13.3232 5.01136C17.6168 4.90151 21.1517 5.58808 23.9278 7.07106C24.6086 7.43672 25.2547 7.85827 25.8589 8.33091C29.9691 11.544 30.4007 16.7448 30.638 19.2095C30.674 19.6318 30.6955 19.9751 30.7063 20.1879C30.7063 20.3252 30.7243 20.4728 30.7423 20.6239C30.7603 20.7749 30.7674 20.8607 30.7818 20.974Z" fill="url(#paint1_linear_433_18311)"/>
<path d="M0.0338222 6.33691C0.00147097 6.84662 -0.00931539 7.37011 0.00865749 7.89359C0.217143 13.6622 3.66434 18.6835 8.7938 21.697L9.17123 21.9106C12.6474 23.818 16.6048 24.7713 20.6092 24.6657C23.8026 24.5919 26.9417 23.8577 29.8113 22.5132C30.1348 22.3548 30.4152 22.2136 30.6309 22.1C30.6848 22.0655 30.7387 22.0414 30.7818 22.0139L0.0338222 6.33691Z" fill="url(#paint2_linear_433_18311)"/>
<defs>
<linearGradient id="paint0_linear_433_18311" x1="30.9999" y1="24.1849" x2="-3.23392" y2="40.6464" gradientUnits="userSpaceOnUse">
<stop stop-color="#174E86"/>
<stop offset="1" stop-color="#49B7CF"/>
</linearGradient>
<linearGradient id="paint1_linear_433_18311" x1="31.0799" y1="20.5117" x2="-1.87278" y2="2.20676" gradientUnits="userSpaceOnUse">
<stop stop-color="#174E86"/>
<stop offset="1" stop-color="#49B7CF"/>
</linearGradient>
<linearGradient id="paint2_linear_433_18311" x1="0" y1="6.33691" x2="20.1078" y2="34.0108" gradientUnits="userSpaceOnUse">
<stop stop-color="#174E86"/>
<stop offset="1" stop-color="white"/>
</linearGradient>
</defs>
</svg>
