<svg width="15" height="15" viewBox="0 0 15 15" fill="none" xmlns="http://www.w3.org/2000/svg">
<path d="M8.13075 9.825L7.5 8.25L6.86925 9.825L5.25 9.969L6.48 11.0858L6.1095 12.75L7.5 11.8657L8.8905 12.75L8.52 11.0858L9.75 9.969L8.13075 9.825Z" fill="#545454"/>
<path d="M3 0H12V1.5H3V0Z" fill="#545454"/>
<path d="M1.5 3H13.5V4.5H1.5V3Z" fill="#545454"/>
<path d="M13.5 7.5V13.5H1.5V7.5H13.5ZM13.5 6H1.5C1.10218 6 0.720644 6.15804 0.43934 6.43934C0.158035 6.72064 0 7.10218 0 7.5V13.5C0 13.8978 0.158035 14.2794 0.43934 14.5607C0.720644 14.842 1.10218 15 1.5 15H13.5C13.8978 15 14.2794 14.842 14.5607 14.5607C14.842 14.2794 15 13.8978 15 13.5V7.5C15 7.10218 14.842 6.72064 14.5607 6.43934C14.2794 6.15804 13.8978 6 13.5 6Z" fill="#545454"/>
</svg>
