<svg width="45" height="45" viewBox="0 0 45 45" fill="none" xmlns="http://www.w3.org/2000/svg">
<path d="M45 22.5C45 10.0736 34.9264 0 22.5 0C10.0736 0 0 10.0736 0 22.5C0 34.9264 10.0736 45 22.5 45C34.9264 45 45 34.9264 45 22.5Z" fill="#49B7CF"/>
<path d="M22.5008 36.354C23.2539 36.3519 23.9756 36.0518 24.5081 35.5193C25.0406 34.9868 25.3407 34.2651 25.3428 33.512H19.6588C19.6587 33.8853 19.7321 34.2549 19.8749 34.5998C20.0177 34.9446 20.227 35.258 20.4909 35.5219C20.7549 35.7859 21.0682 35.9952 21.4131 36.138C21.7579 36.2807 22.1276 36.3542 22.5008 36.354V36.354ZM31.0268 27.828V20.728C31.0268 16.366 28.6968 12.714 24.6328 11.747V10.776C24.6328 10.2107 24.4082 9.66857 24.0085 9.26883C23.6088 8.8691 23.0666 8.64453 22.5013 8.64453C21.936 8.64453 21.3938 8.8691 20.9941 9.26883C20.5944 9.66857 20.3698 10.2107 20.3698 10.776V11.745C16.2918 12.711 13.9758 16.345 13.9758 20.726V27.826L11.1328 30.67V32.091H33.8688V30.67L31.0268 27.828Z" fill="white"/>
<circle cx="35.5" cy="9.5" r="9.5" fill="#174E86"/>
<path d="M37.3253 5.27273V14H35.7443V6.81108H35.6932L33.652 8.11506V6.66619L35.821 5.27273H37.3253Z" fill="white"/>
</svg>
