<svg width="17" height="13" viewBox="0 0 17 13" fill="none" xmlns="http://www.w3.org/2000/svg">
<path d="M13.6094 13H2.64062C1.96614 13 1.3172 12.742 0.826937 12.2788C0.336673 11.8155 0.0422489 11.1823 0.00406261 10.5089L1.38114e-08 10.3594V1.82812C-5.68928e-05 1.3649 0.17574 0.91892 0.491863 0.580325C0.807985 0.241731 1.24086 0.035768 1.703 0.00406261L1.82812 1.38115e-08H11.9844C12.4476 -5.68928e-05 12.8936 0.17574 13.2322 0.491862C13.5708 0.807985 13.7767 1.24086 13.8084 1.703L13.8125 1.82812V2.4375H14.4219C14.8851 2.43744 15.3311 2.61324 15.6697 2.92936C16.0083 3.24548 16.2142 3.67836 16.2459 4.1405L16.25 4.26562V10.3594C16.25 11.0339 15.992 11.6828 15.5288 12.1731C15.0655 12.6633 14.4323 12.9578 13.7589 12.9959L13.6094 13H2.64062H13.6094ZM2.64062 11.7812H13.6094C13.9663 11.7812 14.3102 11.6469 14.5728 11.405C14.8353 11.1631 14.9972 10.8313 15.0264 10.4756L15.0312 10.3594V4.26562C15.0312 4.11837 14.9779 3.9761 14.8811 3.86512C14.7843 3.75414 14.6506 3.68196 14.5047 3.66194L14.4219 3.65625H13.8125V9.95312C13.8125 10.1004 13.7592 10.2427 13.6624 10.3536C13.5656 10.4646 13.4319 10.5368 13.286 10.5568L13.2031 10.5625C13.0559 10.5625 12.9136 10.5092 12.8026 10.4124C12.6916 10.3156 12.6195 10.1819 12.5994 10.036L12.5938 9.95312V1.82812C12.5937 1.68087 12.5404 1.5386 12.4436 1.42762C12.3468 1.31664 12.2131 1.24446 12.0672 1.22444L11.9844 1.21875H1.82812C1.68087 1.21876 1.5386 1.27208 1.42762 1.36887C1.31664 1.46566 1.24446 1.59936 1.22444 1.74525L1.21875 1.82812V10.3594C1.21876 10.7162 1.35295 11.06 1.59468 11.3225C1.8364 11.585 2.16799 11.747 2.52362 11.7764L2.64062 11.7812H13.6094H2.64062ZM8.32488 8.53125H10.7672C10.9216 8.5313 11.0703 8.58995 11.1831 8.69535C11.2959 8.80076 11.3645 8.94506 11.375 9.09909C11.3855 9.25313 11.3372 9.40541 11.2398 9.52518C11.1423 9.64495 11.0031 9.72327 10.8501 9.74431L10.7672 9.75H8.32488C8.17048 9.74995 8.02186 9.6913 7.90904 9.5859C7.79623 9.48049 7.72763 9.33619 7.7171 9.18216C7.70658 9.02812 7.75492 8.87584 7.85235 8.75607C7.94978 8.6363 8.08905 8.55798 8.242 8.53694L8.32488 8.53125H10.7672H8.32488ZM5.88494 5.69156C6.04655 5.69156 6.20155 5.75576 6.31583 5.87004C6.43011 5.98432 6.49431 6.13932 6.49431 6.30094V9.14062C6.49431 9.30224 6.43011 9.45724 6.31583 9.57152C6.20155 9.6858 6.04655 9.75 5.88494 9.75H3.04525C2.88363 9.75 2.72864 9.6858 2.61436 9.57152C2.50008 9.45724 2.43588 9.30224 2.43588 9.14062V6.30094C2.43588 6.13932 2.50008 5.98432 2.61436 5.87004C2.72864 5.75576 2.88363 5.69156 3.04525 5.69156H5.88494ZM5.27556 6.91031H3.65463V8.53125H5.27556V6.91031ZM8.32488 5.69156H10.7672C10.9216 5.69161 11.0703 5.75026 11.1831 5.85567C11.2959 5.96107 11.3645 6.10537 11.375 6.2594C11.3855 6.41344 11.3372 6.56572 11.2398 6.68549C11.1423 6.80526 11.0031 6.88358 10.8501 6.90463L10.7672 6.91031H8.32488C8.16938 6.91189 8.01917 6.85397 7.90499 6.7484C7.79081 6.64284 7.72131 6.49762 7.71072 6.34248C7.70013 6.18734 7.74925 6.03402 7.84802 5.91391C7.94679 5.79381 8.08773 5.716 8.242 5.69644L8.32488 5.69156H10.7672H8.32488ZM3.04525 2.84537H10.7672C10.9227 2.84379 11.073 2.90172 11.1871 3.00728C11.3013 3.11285 11.3708 3.25807 11.3814 3.41321C11.392 3.56835 11.3429 3.72167 11.2441 3.84178C11.1453 3.96188 11.0044 4.03968 10.8501 4.05925L10.7672 4.06412H3.04525C2.89086 4.06408 2.74224 4.00543 2.62942 3.90002C2.5166 3.79462 2.448 3.65032 2.43748 3.49628C2.42696 3.34225 2.47529 3.18996 2.57273 3.07019C2.67016 2.95043 2.80942 2.87211 2.96237 2.85106L3.04525 2.84537H10.7672H3.04525V2.84537Z" fill="#545454"/>
</svg>
