<svg width="16" height="16" viewBox="0 0 16 16" fill="none" xmlns="http://www.w3.org/2000/svg">
<path d="M11.8328 4.1675C11.7578 4.09246 11.6634 4.03977 11.5601 4.01535C11.4569 3.99092 11.3489 3.99573 11.2482 4.02922L6.10535 5.7435C6.02112 5.77158 5.94459 5.81889 5.8818 5.88167C5.81902 5.94445 5.77172 6.02099 5.74363 6.10522L4.02935 11.2481C3.99577 11.3488 3.9909 11.4568 4.01528 11.5601C4.03965 11.6634 4.09232 11.7579 4.16737 11.8329C4.24242 11.908 4.33688 11.9606 4.44018 11.985C4.54348 12.0094 4.65152 12.0045 4.75221 11.9709L9.89506 10.2566C9.97929 10.2286 10.0558 10.1813 10.1186 10.1185C10.1814 10.0557 10.2287 9.97916 10.2568 9.89493L11.9711 4.75207C12.0046 4.6514 12.0094 4.5434 11.9849 4.44015C11.9605 4.3369 11.9078 4.2425 11.8328 4.1675ZM5.47506 10.5258L6.73792 6.73836L9.26306 9.2635L5.47506 10.5258Z" fill="#545454"/>
<path d="M8 16C6.41775 16 4.87103 15.5308 3.55544 14.6518C2.23985 13.7727 1.21447 12.5233 0.608967 11.0615C0.00346627 9.59966 -0.15496 7.99113 0.153721 6.43928C0.462403 4.88743 1.22433 3.46197 2.34315 2.34315C3.46197 1.22433 4.88743 0.462403 6.43928 0.153721C7.99113 -0.15496 9.59966 0.00346627 11.0615 0.608967C12.5233 1.21447 13.7727 2.23985 14.6518 3.55544C15.5308 4.87103 16 6.41775 16 8C15.9976 10.121 15.154 12.1544 13.6542 13.6542C12.1544 15.154 10.121 15.9976 8 16ZM8 1.14286C6.64379 1.14286 5.31803 1.54503 4.19038 2.2985C3.06273 3.05197 2.18383 4.12291 1.66483 5.37589C1.14583 6.62887 1.01003 8.00761 1.27462 9.33777C1.5392 10.6679 2.19228 11.8897 3.15127 12.8487C4.11026 13.8077 5.33209 14.4608 6.66224 14.7254C7.9924 14.99 9.37114 14.8542 10.6241 14.3352C11.8771 13.8162 12.948 12.9373 13.7015 11.8096C14.455 10.682 14.8571 9.35622 14.8571 8C14.855 6.18203 14.1319 4.43912 12.8464 3.15361C11.5609 1.8681 9.81798 1.14498 8 1.14286Z" fill="#545454"/>
</svg>
