<svg width="176" height="26" viewBox="0 0 176 26" fill="none" xmlns="http://www.w3.org/2000/svg">
<path d="M1.568 4.64C2.312 4.64 2.912 4.04 2.912 3.296C2.912 2.552 2.312 1.952 1.568 1.952C0.824 1.952 0.224 2.552 0.224 3.296C0.224 4.04 0.824 4.64 1.568 4.64ZM2.768 20V6.128H0.368V20H2.768ZM11.7073 20C15.9073 20 19.8193 17.504 19.8193 11.264C19.8193 5.768 16.8913 3.152 12.1393 3.152H6.09125V20H11.7073ZM8.49125 3.512H11.0353C15.4033 3.488 17.4193 5.84 17.4193 11.264C17.4193 17.84 14.7313 19.64 10.6273 19.64H8.49125V3.512ZM29.5919 20.336C31.4639 20.336 33.4559 19.688 35.2799 18.248L34.7759 16.568C32.9279 18.92 31.0319 20.024 29.3759 20.024C26.7119 20.024 24.6479 17.408 24.5519 13.184H35.0879C35.2319 12.584 35.3039 12.032 35.3039 11.504C35.3039 7.616 32.3519 5.72 29.2559 5.72C25.7999 5.72 22.1519 8.096 22.1519 12.752C22.1519 17.36 25.5839 20.336 29.5919 20.336ZM24.5519 12.848C24.5759 8.36 27.0239 6.056 29.2799 6.056C31.2959 6.056 33.1439 7.784 33.1439 11.336C33.1439 11.84 33.0959 12.32 32.9999 12.848H24.5519ZM42.1552 20.384C45.2032 20.384 48.2992 19.328 48.3952 16.52C48.3952 12.176 38.5312 10.616 38.5312 8.168C38.5312 6.848 39.9712 6.2 41.8672 6.2C43.6192 6.2 45.9952 6.92 47.6992 7.976L47.9632 6.296C46.4992 5.912 44.8672 5.72 43.3312 5.72C39.9952 5.72 36.8512 6.68 36.8512 9.056C36.8512 12.56 46.8832 14.144 46.8832 17.576C46.7872 18.944 45.2272 19.808 43.1632 19.808C41.6752 19.808 39.6592 19.376 37.4992 17.816L37.0912 19.496C38.5792 20.048 40.4032 20.384 42.1552 20.384ZM52.0524 4.64C52.7964 4.64 53.3964 4.04 53.3964 3.296C53.3964 2.552 52.7964 1.952 52.0524 1.952C51.3084 1.952 50.7084 2.552 50.7084 3.296C50.7084 4.04 51.3084 4.64 52.0524 4.64ZM53.2524 20V6.128H50.8524V20H53.2524ZM59.0555 25.88C64.2155 25.88 67.7435 22.616 67.7435 17.432V6.128H65.3435V7.088C64.0235 6.152 62.7035 5.744 61.5275 5.744C58.2155 5.744 55.6475 8.816 55.6475 13.16C55.6475 18.32 58.3115 20.408 60.9035 20.408C62.7275 20.408 64.4555 19.232 65.2715 17.144H65.3435V18.776C65.3435 22.64 63.6875 25.448 60.5675 25.448C59.3435 25.448 57.8075 24.944 55.9835 23.768L55.6235 25.448C56.8235 25.736 57.9755 25.88 59.0555 25.88ZM61.5755 19.688C59.5595 19.688 57.9275 17.216 57.9275 13.112C57.9275 9.608 59.4635 6.272 62.2475 6.272C63.1355 6.272 64.1915 6.656 65.3435 7.496V15.464C64.9595 18.224 63.2315 19.688 61.5755 19.688ZM79.964 5.72C77.828 5.72 75.14 7.304 73.124 10.784V6.128H70.724V20H73.124V11.384C74.708 8.384 77.156 6.512 78.884 6.512C79.964 6.512 80.756 7.304 80.756 9.152V20H83.156V9.224C83.156 6.776 81.62 5.72 79.964 5.72ZM87.0635 20.408C87.7835 20.408 88.3595 19.832 88.3595 19.112C88.3595 18.368 87.7835 17.816 87.0635 17.816C86.3195 17.816 85.7675 18.368 85.7675 19.112C85.7675 19.832 86.3195 20.408 87.0635 20.408ZM91.7493 20C91.5573 18.056 91.6773 16.04 91.9653 13.64L93.1173 3.8L98.8053 20H100.413L105.333 5.408L107.325 20H109.725L107.397 3.152H105.717L100.605 18.224L95.3013 3.152H92.9013L91.6533 13.616C91.3413 15.944 90.8613 17.864 90.0933 20H91.7493ZM116.459 20.36C118.259 20.36 120.155 19.352 121.523 17.864V20H123.923V9.968C123.923 6.824 121.643 5.696 118.859 5.696C116.987 5.696 114.899 6.2 113.195 6.992L113.675 8.84C115.163 7.112 117.179 5.984 118.931 5.984C120.467 5.984 121.523 6.92 121.523 8.912C116.627 10.04 111.923 11.96 111.923 16.136C111.923 18.632 113.627 20.36 116.459 20.36ZM117.395 19.592C115.691 19.592 114.323 18.344 114.323 15.776C114.323 12.728 116.123 10.424 121.523 9.248V17.528C120.467 18.68 118.811 19.592 117.395 19.592ZM129.304 20V14.024C130.552 8.888 133 6.248 136.288 7.808L136.624 6.128C133.312 5.024 130.6 7.928 129.328 13.064H129.304V6.128H126.904V20H129.304ZM140.812 20V11.888C142.204 11.192 143.62 10.712 144.243 12.056L147.796 20H150.196L146.764 12.056C146.092 10.52 144.316 10.256 142.564 10.832V10.808C144.724 9.56 147.7 8.12 149.548 8.144V6.512L140.812 11.48V3.152H138.412V20H140.812ZM158.17 20.336C160.042 20.336 162.034 19.688 163.858 18.248L163.354 16.568C161.506 18.92 159.61 20.024 157.954 20.024C155.29 20.024 153.226 17.408 153.13 13.184H163.666C163.81 12.584 163.882 12.032 163.882 11.504C163.882 7.616 160.93 5.72 157.834 5.72C154.378 5.72 150.73 8.096 150.73 12.752C150.73 17.36 154.162 20.336 158.17 20.336ZM153.13 12.848C153.154 8.36 155.602 6.056 157.858 6.056C159.874 6.056 161.722 7.784 161.722 11.336C161.722 11.84 161.674 12.32 161.578 12.848H153.13ZM171.325 20.456C172.933 20.456 174.565 19.688 175.477 18.032L174.805 16.568C173.821 18.872 172.285 20.168 170.989 20.168C169.885 20.168 168.973 19.28 168.973 17.504V6.464H172.645V6.128H168.973L168.949 0.751999H168.637C168.637 2.888 168.085 4.832 166.909 6.128H165.133V6.464H166.573V15.92C166.573 18.8 168.925 20.456 171.325 20.456Z" fill="black"/>
</svg>
