<svg width="217" height="56" viewBox="0 0 187 26" fill="none" xmlns="http://www.w3.org/2000/svg">
<path d="M2.12 5.14148C3.224 5.14148 4.088 4.27748 4.088 3.17348C4.088 2.06948 3.224 1.20548 2.12 1.20548C1.016 1.20548 0.152 2.06948 0.152 3.17348C0.152 4.27748 1.016 5.14148 2.12 5.14148ZM4.04 20.0215V6.14948H0.2V20.0215H4.04ZM13.4797 20.0215C17.5117 20.0215 21.7837 17.5255 21.7837 11.2855C21.7837 5.78948 18.7117 3.17348 13.6477 3.17348H6.87969V20.0215H13.4797ZM10.7197 3.65348H12.6397C15.7357 3.62948 17.9437 5.54948 17.9437 11.2855C17.9437 17.9095 15.4717 19.5655 12.0397 19.5655H10.7197V3.65348ZM31.9029 20.3815C33.9429 20.3815 36.0549 19.7335 37.8309 18.3895L37.0389 15.9895C35.0949 18.6295 33.1509 19.9255 31.5429 19.9255C29.3109 19.9255 27.6789 17.5495 27.5829 13.1335H37.6869C37.8549 12.5095 37.9269 11.9095 37.9269 11.3575C37.9269 7.61348 34.7589 5.74148 31.4229 5.74148C27.6789 5.74148 23.7429 8.09348 23.7429 12.7735C23.7429 17.5735 27.6549 20.3815 31.9029 20.3815ZM27.5829 12.7255C27.6549 8.45348 29.6229 6.22148 31.4229 6.22148C32.9589 6.22148 34.3749 7.82948 34.3749 11.1895C34.3749 11.6935 34.3269 12.1975 34.2309 12.7255H27.5829ZM45.0504 20.4295C48.2184 20.4295 51.4344 19.3975 51.4824 16.5175C51.4824 12.3895 41.9544 9.86948 41.9544 7.78148C41.9544 6.82148 42.8904 6.36548 44.2104 6.36548C46.0344 6.36548 48.9384 7.42148 50.6664 8.71748L51.0504 6.31748C49.5144 5.95748 47.8344 5.78948 46.2264 5.78948C42.5544 5.78948 38.9544 6.74948 38.9544 9.05348C38.9544 12.7975 48.6984 15.0775 48.6984 18.3895C48.6504 19.1575 47.7624 19.7575 46.2744 19.7575C44.8824 19.7575 42.5544 19.3015 39.7944 17.0935L39.1944 19.4935C41.0424 20.0455 43.1064 20.4295 45.0504 20.4295ZM55.3466 5.14148C56.4506 5.14148 57.3146 4.27748 57.3146 3.17348C57.3146 2.06948 56.4506 1.20548 55.3466 1.20548C54.2426 1.20548 53.3786 2.06948 53.3786 3.17348C53.3786 4.27748 54.2426 5.14148 55.3466 5.14148ZM57.2666 20.0215V6.14948H53.4266V20.0215H57.2666ZM63.1644 25.9015C68.8524 25.9015 72.7644 22.6375 72.7644 17.4535V6.14948H68.9244V6.77348C67.7964 6.12548 66.6444 5.81348 65.5644 5.81348C62.1084 5.81348 59.2284 8.66948 59.2284 13.2295C59.2284 18.4135 61.9644 20.3815 64.5804 20.3815C66.3564 20.3815 68.0604 19.4215 68.8764 17.7415H68.9244V19.9735C68.9244 23.0935 67.7484 25.3495 65.2764 25.3495C63.9804 25.3495 62.2764 24.6535 60.0924 23.0695L59.3724 25.4695C60.7164 25.7575 61.9644 25.9015 63.1644 25.9015ZM65.9724 19.2535C64.0764 19.2535 62.8284 16.5415 62.8284 13.1335C62.8284 9.82148 64.1244 6.53348 66.6444 6.53348C67.3164 6.53348 68.0844 6.74948 68.9244 7.30148V16.4935C68.3724 18.3415 67.1484 19.2535 65.9724 19.2535ZM85.6835 5.74148C83.5955 5.74148 81.1955 7.03748 79.1795 10.0855V6.17348H75.3395V20.0215H79.1795V10.7815C80.5715 8.52548 82.4675 6.96548 83.8115 6.96548C84.7955 6.96548 85.4675 7.78148 85.4675 9.72548V20.0215H89.3075V9.50948C89.3075 6.82148 87.3635 5.74148 85.6835 5.74148ZM93.2349 20.4055C94.3149 20.4055 95.1789 19.5415 95.1789 18.4615C95.1789 17.3575 94.3149 16.4935 93.2349 16.4935C92.1309 16.4935 91.2669 17.3575 91.2669 18.4615C91.2669 19.5415 92.1309 20.4055 93.2349 20.4055ZM98.3386 20.0215C98.0506 17.9815 98.1226 16.1815 98.3866 13.6615L99.3706 3.98948L104.915 20.0215H107.123L111.155 7.25348L112.931 20.0215H116.771L114.395 3.17348H111.971L107.651 16.8295L102.923 3.17348H99.0826L97.9786 13.6375C97.7386 15.8695 97.1146 17.9095 96.2506 20.0215H98.3386ZM123.116 20.3815C124.988 20.3815 126.836 19.1575 127.988 17.7895V20.0215H131.828V9.98948C131.828 6.89348 129.356 5.69348 126.26 5.69348C124.244 5.69348 121.964 6.19748 119.948 7.01348L120.668 9.77348C122.156 7.54148 124.148 6.10148 125.948 6.10148C127.268 6.10148 127.988 7.08548 127.988 8.93348C123.524 10.2535 118.412 11.9815 118.412 16.3495C118.412 18.4135 119.9 20.3815 123.116 20.3815ZM124.916 19.0375C123.404 19.0375 122.252 17.6695 122.252 15.5095C122.252 12.3655 123.98 10.5655 127.988 9.34148V17.3815C127.052 18.3175 125.924 19.0375 124.916 19.0375ZM138.242 20.0215V13.9495C139.37 9.24548 141.626 6.98948 145.034 8.54948L145.442 6.14948C142.274 4.75748 139.37 7.99748 138.266 12.7735H138.242V6.14948H134.402V20.0215H138.242ZM150.664 20.0215V11.6695C151.648 11.3095 152.488 11.4055 152.92 12.3655L156.256 20.0215H160.096L156.784 12.2455C156.112 10.6135 154.024 10.1335 151.912 10.8775V10.8055C153.424 9.91748 157.168 8.33348 159.28 8.66948V6.29348L150.664 11.1175V3.17348H146.824V20.0215H150.664ZM168.333 20.3815C170.373 20.3815 172.485 19.7335 174.261 18.3895L173.469 15.9895C171.525 18.6295 169.581 19.9255 167.973 19.9255C165.741 19.9255 164.109 17.5495 164.013 13.1335H174.117C174.285 12.5095 174.357 11.9095 174.357 11.3575C174.357 7.61348 171.189 5.74148 167.853 5.74148C164.109 5.74148 160.173 8.09348 160.173 12.7735C160.173 17.5735 164.085 20.3815 168.333 20.3815ZM164.013 12.7255C164.085 8.45348 166.053 6.22148 167.853 6.22148C169.389 6.22148 170.805 7.82948 170.805 11.1895C170.805 11.6935 170.757 12.1975 170.661 12.7255H164.013ZM182.287 20.4775C183.919 20.4775 185.599 19.7815 186.727 18.3415L185.887 16.0375C184.663 18.4855 183.103 20.0695 181.831 20.0695C180.991 20.0695 180.343 19.3015 180.343 17.6695V6.55748H183.823V6.14948H180.343V0.773483H179.911C179.911 2.62148 178.927 5.11748 177.199 6.14948H175.062V6.55748H176.503V15.2695C176.503 18.4855 179.383 20.4775 182.287 20.4775Z" fill="#D0D0D0"/>
</svg>
