<svg width="25" height="25" viewBox="0 0 17 17" fill="none" xmlns="http://www.w3.org/2000/svg">
<g clip-path="url(#clip0_433_17722)">
<path d="M8.35938 1.44157C10.4969 1.44157 10.75 1.45095 11.5906 1.48848C12.3719 1.52287 12.7938 1.65421 13.075 1.76366C13.4469 1.9075 13.7156 2.08262 13.9938 2.36092C14.275 2.64236 14.4469 2.90816 14.5906 3.28028C14.7 3.56171 14.8313 3.98699 14.8656 4.76563C14.9031 5.60993 14.9125 5.86322 14.9125 7.999C14.9125 10.1379 14.9031 10.3912 14.8656 11.2324C14.8313 12.0141 14.7 12.4363 14.5906 12.7177C14.4469 13.0898 14.2719 13.3588 13.9938 13.6371C13.7125 13.9185 13.4469 14.0905 13.075 14.2343C12.7938 14.3438 12.3688 14.4751 11.5906 14.5095C10.7469 14.547 10.4938 14.5564 8.35938 14.5564C6.22188 14.5564 5.96875 14.547 5.12813 14.5095C4.34688 14.4751 3.925 14.3438 3.64375 14.2343C3.27188 14.0905 3.00313 13.9154 2.725 13.6371C2.44375 13.3556 2.27188 13.0898 2.12813 12.7177C2.01875 12.4363 1.8875 12.011 1.85313 11.2324C1.81563 10.3881 1.80625 10.1348 1.80625 7.999C1.80625 5.86009 1.81563 5.6068 1.85313 4.76563C1.8875 3.98386 2.01875 3.56171 2.12813 3.28028C2.27188 2.90816 2.44688 2.63923 2.725 2.36092C3.00625 2.07949 3.27188 1.9075 3.64375 1.76366C3.925 1.65421 4.35 1.52287 5.12813 1.48848C5.96875 1.45095 6.22188 1.44157 8.35938 1.44157ZM8.35938 0C6.1875 0 5.91563 0.00938115 5.0625 0.0469058C4.2125 0.0844304 3.62813 0.222021 3.12188 0.419025C2.59375 0.62541 2.14688 0.897464 1.70313 1.34463C1.25625 1.78867 0.984375 2.23584 0.778125 2.76119C0.58125 3.2709 0.44375 3.85253 0.40625 4.70308C0.36875 5.5599 0.359375 5.83195 0.359375 8.00525C0.359375 10.1786 0.36875 10.4506 0.40625 11.3043C0.44375 12.1548 0.58125 12.7396 0.778125 13.2462C0.984375 13.7747 1.25625 14.2218 1.70313 14.6659C2.14688 15.1099 2.59375 15.3851 3.11875 15.5884C3.62813 15.7854 4.20938 15.9229 5.05938 15.9605C5.9125 15.998 6.18438 16.0074 8.35625 16.0074C10.5281 16.0074 10.8 15.998 11.6531 15.9605C12.5031 15.9229 13.0875 15.7854 13.5938 15.5884C14.1188 15.3851 14.5656 15.1099 15.0094 14.6659C15.4531 14.2218 15.7281 13.7747 15.9313 13.2493C16.1281 12.7396 16.2656 12.158 16.3031 11.3074C16.3406 10.4537 16.35 10.1817 16.35 8.00838C16.35 5.83508 16.3406 5.56302 16.3031 4.70934C16.2656 3.85878 16.1281 3.27402 15.9313 2.76744C15.7344 2.23584 15.4625 1.78867 15.0156 1.34463C14.5719 0.900591 14.125 0.62541 13.6 0.422152C13.0906 0.225148 12.5094 0.0875574 11.6594 0.0500328C10.8031 0.00938116 10.5313 0 8.35938 0Z" fill="#D0D0D0"/>
<path d="M8.35938 3.89319C6.09063 3.89319 4.25 5.73502 4.25 8.00526C4.25 10.2755 6.09063 12.1173 8.35938 12.1173C10.6281 12.1173 12.4688 10.2755 12.4688 8.00526C12.4688 5.73502 10.6281 3.89319 8.35938 3.89319ZM8.35938 10.6726C6.8875 10.6726 5.69375 9.4781 5.69375 8.00526C5.69375 6.53242 6.8875 5.33789 8.35938 5.33789C9.83125 5.33789 11.025 6.53242 11.025 8.00526C11.025 9.4781 9.83125 10.6726 8.35938 10.6726Z" fill="#D0D0D0"/>
<path d="M13.5906 3.73057C13.5906 4.26217 13.1594 4.69058 12.6313 4.69058C12.1 4.69058 11.6719 4.25905 11.6719 3.73057C11.6719 3.19898 12.1031 2.77057 12.6313 2.77057C13.1594 2.77057 13.5906 3.2021 13.5906 3.73057Z" fill="#D0D0D0"/>
</g>
<defs>
<clipPath id="clip0_433_17722">
<rect width="16" height="16.0105" fill="white" transform="translate(0.359375)"/>
</clipPath>
</defs>
</svg>
