<svg width="25" height="25" viewBox="0 0 17 17" fill="none" xmlns="http://www.w3.org/2000/svg">
<g clip-path="url(#clip0_433_17723)">
<path d="M15.5344 0H1.9C1.24687 0 0.71875 0.515963 0.71875 1.15388V14.8535C0.71875 15.4914 1.24687 16.0105 1.9 16.0105H15.5344C16.1875 16.0105 16.7188 15.4914 16.7188 14.8566V1.15388C16.7188 0.515963 16.1875 0 15.5344 0ZM5.46562 13.6433H3.09063V6.00081H5.46562V13.6433ZM4.27813 4.9595C3.51563 4.9595 2.9 4.34347 2.9 3.5836C2.9 2.82373 3.51563 2.2077 4.27813 2.2077C5.0375 2.2077 5.65312 2.82373 5.65312 3.5836C5.65312 4.34035 5.0375 4.9595 4.27813 4.9595ZM14.3531 13.6433H11.9812V9.92839C11.9812 9.04343 11.9656 7.90206 10.7469 7.90206C9.5125 7.90206 9.325 8.86832 9.325 9.86585V13.6433H6.95625V6.00081H9.23125V7.04525H9.2625C9.57812 6.44485 10.3531 5.81006 11.5063 5.81006C13.9094 5.81006 14.3531 7.39235 14.3531 9.44995V13.6433Z" fill="#D0D0D0"/>
</g>
<defs>
<clipPath id="clip0_433_17723">
<rect width="16" height="16.0105" fill="white" transform="translate(0.71875)"/>
</clipPath>
</defs>
</svg>
