<svg width="25" height="25" viewBox="0 0 17 17" fill="none" xmlns="http://www.w3.org/2000/svg">
<g clip-path="url(#clip0_433_17724)">
<path d="M15.9187 4.80319C15.9187 4.80319 15.7625 3.69934 15.2812 3.21465C14.6719 2.57673 13.9906 2.57361 13.6781 2.53608C11.4406 2.37347 8.08125 2.37347 8.08125 2.37347H8.075C8.075 2.37347 4.71563 2.37347 2.47813 2.53608C2.16563 2.57361 1.48438 2.57673 0.875 3.21465C0.39375 3.69934 0.240625 4.80319 0.240625 4.80319C0.240625 4.80319 0.078125 6.10092 0.078125 7.39552V8.60881C0.078125 9.90341 0.2375 11.2011 0.2375 11.2011C0.2375 11.2011 0.39375 12.305 0.871875 12.7897C1.48125 13.4276 2.28125 13.4057 2.6375 13.4745C3.91875 13.5965 8.07812 13.634 8.07812 13.634C8.07812 13.634 11.4406 13.6277 13.6781 13.4683C13.9906 13.4307 14.6719 13.4276 15.2812 12.7897C15.7625 12.305 15.9187 11.2011 15.9187 11.2011C15.9187 11.2011 16.0781 9.90654 16.0781 8.60881V7.39552C16.0781 6.10092 15.9187 4.80319 15.9187 4.80319ZM6.425 10.0817V5.58183L10.7469 7.83956L6.425 10.0817Z" fill="#D0D0D0"/>
</g>
<defs>
<clipPath id="clip0_433_17724">
<rect width="16" height="16.0105" fill="white" transform="translate(0.078125)"/>
</clipPath>
</defs>
</svg>
