<svg width="1" height="1" viewBox="0 0 13 13" fill="none" xmlns="http://www.w3.org/2000/svg">
<path d="M12.3785 0H7.40656C7.06515 0 6.58702 0.198049 6.34588 0.439189L0.181488 6.60358C0.065254 6.72036 0 6.87841 0 7.04318C0 7.20794 0.065254 7.366 0.181488 7.48278L5.51722 12.8185C5.634 12.9347 5.79206 13 5.95682 13C6.12159 13 6.27965 12.9347 6.39642 12.8185L12.5608 6.65412C12.8028 6.41216 13 5.93485 13 5.59344V0.621494C12.9993 0.456865 12.9337 0.299166 12.8172 0.182754C12.7008 0.0663434 12.5431 0.000654595 12.3785 0V0ZM9.27104 4.97195C9.10775 4.97189 8.94608 4.93968 8.79524 4.87714C8.64441 4.8146 8.50736 4.72297 8.39194 4.60747C8.27652 4.49197 8.18498 4.35487 8.12254 4.20399C8.0601 4.05312 8.028 3.89142 8.02805 3.72813C8.02811 3.56485 8.06032 3.40317 8.12286 3.25234C8.1854 3.1015 8.27703 2.96446 8.39253 2.84904C8.50803 2.73361 8.64513 2.64207 8.79601 2.57964C8.94688 2.5172 9.10858 2.48509 9.27187 2.48515C9.60164 2.48526 9.91786 2.61636 10.151 2.84962C10.3841 3.08288 10.515 3.39919 10.5149 3.72896C10.5147 4.05873 10.3836 4.37495 10.1504 4.60806C9.91712 4.84116 9.60081 4.97206 9.27104 4.97195Z" fill="#545454"/>
</svg>
