<svg width="15" height="15" viewBox="0 0 15 15" fill="none" xmlns="http://www.w3.org/2000/svg">
<path d="M14.5085 13.5734C14.5085 13.6867 14.4448 13.7906 14.3172 13.8851C14.1897 13.9796 13.9937 14.0575 13.7293 14.1189C13.4648 14.1803 13.1932 14.237 12.9146 14.2889C12.6359 14.3409 12.2793 14.381 11.8448 14.4093C11.4103 14.4377 11.0325 14.4589 10.7114 14.4731C10.3902 14.4873 9.97697 14.4991 9.47163 14.5085C8.96628 14.518 8.58373 14.5227 8.32398 14.5227H6.18454L5.03689 14.5085L3.79715 14.4731L2.66367 14.4093L1.59395 14.2889L0.779266 14.1189L0.191274 13.8851L0 13.5734C0.0188913 12.7422 0.538402 12.0078 1.55853 11.3702C2.57866 10.7326 3.87272 10.3099 5.44069 10.1021V9.63456C4.94952 9.41731 4.52447 9.11033 4.16553 8.71361C3.8066 8.31689 3.52323 7.8517 3.31542 7.31802C3.10762 6.78434 2.95649 6.21288 2.86203 5.60363C2.76758 4.99439 2.72035 4.33555 2.72035 3.62713C2.72035 3.02261 2.83842 2.48421 3.07456 2.01192C3.3107 1.53964 3.63658 1.15945 4.05218 0.871361C4.46779 0.583269 4.9448 0.366019 5.4832 0.219611C6.0216 0.0732038 6.61196 0 7.25426 0C7.89656 0 8.48692 0.0732038 9.02532 0.219611C9.56372 0.366019 10.0407 0.583269 10.4563 0.871361C10.8719 1.15945 11.1978 1.53964 11.434 2.01192C11.6701 2.48421 11.7882 3.02261 11.7882 3.62713C11.7882 6.93311 10.8814 8.94503 9.06782 9.6629V10.1021C10.6358 10.3099 11.9299 10.7326 12.95 11.3702C13.9701 12.0078 14.4896 12.7422 14.5085 13.5734Z" fill="#545454"/>
</svg>
