<svg width="1607" height="851" viewBox="0 0 1607 851" fill="none" xmlns="http://www.w3.org/2000/svg">
<g opacity="0.2" clip-path="url(#clip0_3740_2250)">
<path d="M64.5768 242.052C64.1269 240.444 63.1499 239.216 61.646 238.37C60.1421 237.524 58.5861 237.326 56.9781 237.776C55.3082 238.243 54.0656 239.224 53.2503 240.72C52.4349 242.215 52.2522 243.767 52.7022 245.375C53.1695 247.044 54.1353 248.291 55.5997 249.115C57.064 249.939 58.6311 250.118 60.301 249.65C61.909 249.2 63.1405 248.239 63.9954 246.766C64.8503 245.293 65.0441 243.722 64.5768 242.052ZM66.1284 190.4L82.743 249.773C83.193 251.381 82.9949 252.937 82.1486 254.441C81.3024 255.944 80.0752 256.921 78.4672 257.371L51.7493 264.848C50.1413 265.298 48.5853 265.1 47.0814 264.254C45.5775 263.407 44.6005 262.18 44.1505 260.572L27.5359 201.199C27.0859 199.591 27.284 198.035 28.1303 196.531C28.9766 195.027 30.2037 194.05 31.8117 193.6L58.5296 186.124C60.1376 185.674 61.6936 185.872 63.1975 186.718C64.7014 187.564 65.6784 188.792 66.1284 190.4ZM175.969 159.662C177.457 164.981 177.046 170.065 174.734 174.913C176.423 177.375 177.545 179.595 178.099 181.574C179.6 186.223 179.455 190.831 177.666 195.4C179.687 198.569 180.699 202.187 180.704 206.254C180.762 210.039 179.906 213.413 178.134 216.376C180.629 223.148 180.68 229.169 178.287 234.44C175.645 240.248 170.228 244.365 162.037 246.79L150.069 250.139C145.987 251.281 141.4 252.048 136.308 252.439C131.216 252.831 127.207 252.985 124.283 252.903C121.359 252.821 117.291 252.643 112.079 252.367C103.728 251.836 98.4611 251.843 96.2791 252.387C94.6538 252.775 93.0935 252.562 91.5982 251.746C90.1029 250.931 89.1303 249.719 88.6803 248.111L72.0397 188.645C71.607 187.099 71.7872 185.598 72.5803 184.142C73.3734 182.687 74.5257 181.681 76.0373 181.124C77.487 180.585 79.3266 178.103 81.5561 173.678C83.7857 169.253 85.8619 164.637 87.7847 159.831C90.4846 153.273 92.5695 148.688 94.0393 146.076C94.841 144.652 95.3843 142.899 95.6691 140.819C95.9539 138.738 96.0754 137.087 96.0335 135.865C95.9916 134.643 95.8856 132.655 95.7153 129.902C95.4732 127.369 95.3319 125.374 95.2913 123.918C95.2507 122.462 95.4038 120.686 95.7504 118.588C96.0971 116.49 96.7158 114.65 97.6066 113.067C98.4528 111.563 99.68 110.586 101.288 110.136C104.133 109.34 106.775 108.951 109.214 108.968C111.653 108.986 113.734 109.271 115.455 109.823C117.177 110.375 118.764 111.281 120.218 112.542C121.671 113.802 122.802 114.986 123.612 116.093C124.422 117.2 125.226 118.643 126.024 120.42C126.821 122.198 127.365 123.546 127.656 124.465C127.946 125.384 128.299 126.586 128.714 128.07C129.372 130.42 129.736 132.853 129.806 135.367C129.876 137.882 129.808 139.902 129.601 141.427C129.394 142.952 129.029 144.921 128.504 147.336C128.422 147.759 128.269 148.402 128.043 149.265C127.818 150.129 127.668 150.904 127.594 151.592C127.52 152.279 127.48 153.091 127.475 154.026L153.172 146.835C157.996 145.485 162.664 146.079 167.176 148.618C171.688 151.157 174.619 154.838 175.969 159.662Z" fill="#3B5998"/>
</g>
<g opacity="0.2" clip-path="url(#clip1_3740_2250)">
<path d="M1215.58 801.052C1215.13 799.444 1214.15 798.216 1212.65 797.37C1211.14 796.524 1209.59 796.326 1207.98 796.776C1206.31 797.243 1205.07 798.224 1204.25 799.72C1203.43 801.215 1203.25 802.767 1203.7 804.375C1204.17 806.044 1205.14 807.291 1206.6 808.115C1208.06 808.939 1209.63 809.118 1211.3 808.65C1212.91 808.2 1214.14 807.239 1215 805.766C1215.85 804.293 1216.04 802.722 1215.58 801.052ZM1217.13 749.4L1233.74 808.773C1234.19 810.381 1233.99 811.937 1233.15 813.441C1232.3 814.944 1231.08 815.921 1229.47 816.371L1202.75 823.848C1201.14 824.298 1199.59 824.1 1198.08 823.254C1196.58 822.407 1195.6 821.18 1195.15 819.572L1178.54 760.199C1178.09 758.591 1178.28 757.035 1179.13 755.531C1179.98 754.027 1181.2 753.05 1182.81 752.6L1209.53 745.124C1211.14 744.674 1212.69 744.872 1214.2 745.718C1215.7 746.564 1216.68 747.792 1217.13 749.4ZM1326.97 718.662C1328.46 723.981 1328.05 729.065 1325.73 733.913C1327.42 736.375 1328.54 738.595 1329.1 740.574C1330.6 745.223 1330.46 749.831 1328.67 754.4C1330.69 757.569 1331.7 761.187 1331.7 765.254C1331.76 769.039 1330.91 772.413 1329.13 775.376C1331.63 782.148 1331.68 788.169 1329.29 793.44C1326.64 799.248 1321.23 803.365 1313.04 805.79L1301.07 809.139C1296.99 810.281 1292.4 811.048 1287.31 811.439C1282.22 811.831 1278.21 811.985 1275.28 811.903C1272.36 811.821 1268.29 811.643 1263.08 811.367C1254.73 810.836 1249.46 810.843 1247.28 811.387C1245.65 811.775 1244.09 811.562 1242.6 810.746C1241.1 809.931 1240.13 808.719 1239.68 807.111L1223.04 747.645C1222.61 746.099 1222.79 744.598 1223.58 743.142C1224.37 741.687 1225.53 740.681 1227.04 740.124C1228.49 739.585 1230.33 737.103 1232.56 732.678C1234.79 728.253 1236.86 723.637 1238.78 718.831C1241.48 712.273 1243.57 707.688 1245.04 705.076C1245.84 703.652 1246.38 701.899 1246.67 699.819C1246.95 697.738 1247.08 696.087 1247.03 694.865C1246.99 693.643 1246.89 691.655 1246.72 688.902C1246.47 686.369 1246.33 684.374 1246.29 682.918C1246.25 681.462 1246.4 679.686 1246.75 677.588C1247.1 675.49 1247.72 673.65 1248.61 672.067C1249.45 670.563 1250.68 669.586 1252.29 669.136C1255.13 668.34 1257.78 667.951 1260.21 667.968C1262.65 667.986 1264.73 668.271 1266.46 668.823C1268.18 669.375 1269.76 670.281 1271.22 671.542C1272.67 672.802 1273.8 673.986 1274.61 675.093C1275.42 676.2 1276.23 677.643 1277.02 679.42C1277.82 681.198 1278.37 682.546 1278.66 683.465C1278.95 684.384 1279.3 685.586 1279.71 687.07C1280.37 689.42 1280.74 691.853 1280.81 694.367C1280.88 696.882 1280.81 698.902 1280.6 700.427C1280.39 701.952 1280.03 703.921 1279.5 706.336C1279.42 706.759 1279.27 707.402 1279.04 708.265C1278.82 709.129 1278.67 709.904 1278.59 710.592C1278.52 711.279 1278.48 712.091 1278.47 713.026L1304.17 705.835C1309 704.485 1313.66 705.079 1318.18 707.618C1322.69 710.157 1325.62 713.838 1326.97 718.662Z" fill="#3B5998"/>
</g>
<g opacity="0.2" clip-path="url(#clip2_3740_2250)">
<path d="M1504.42 449.197C1504.11 448.091 1503.44 447.247 1502.4 446.665C1501.37 446.083 1500.3 445.947 1499.19 446.256C1498.04 446.578 1497.19 447.253 1496.63 448.281C1496.07 449.309 1495.94 450.377 1496.25 451.483C1496.57 452.631 1497.23 453.489 1498.24 454.056C1499.25 454.622 1500.33 454.745 1501.48 454.424C1502.58 454.114 1503.43 453.453 1504.02 452.44C1504.6 451.427 1504.74 450.346 1504.42 449.197ZM1505.48 413.671L1516.91 454.508C1517.22 455.614 1517.08 456.684 1516.5 457.718C1515.92 458.753 1515.08 459.425 1513.97 459.734L1495.59 464.877C1494.49 465.186 1493.42 465.05 1492.38 464.468C1491.35 463.886 1490.68 463.042 1490.37 461.936L1478.94 421.099C1478.63 419.993 1478.77 418.922 1479.35 417.888C1479.93 416.854 1480.77 416.182 1481.88 415.872L1500.26 410.73C1501.36 410.42 1502.43 410.556 1503.47 411.138C1504.5 411.721 1505.17 412.565 1505.48 413.671ZM1581.03 392.529C1582.06 396.188 1581.77 399.684 1580.18 403.019C1581.35 404.712 1582.12 406.239 1582.5 407.6C1583.53 410.798 1583.43 413.968 1582.2 417.11C1583.59 419.29 1584.29 421.778 1584.29 424.575C1584.33 427.179 1583.74 429.499 1582.52 431.538C1584.24 436.195 1584.27 440.336 1582.63 443.962C1580.81 447.957 1577.08 450.788 1571.45 452.456L1563.22 454.76C1560.41 455.545 1557.26 456.073 1553.75 456.342C1550.25 456.611 1547.49 456.717 1545.48 456.661C1543.47 456.605 1540.67 456.482 1537.09 456.292C1531.34 455.927 1527.72 455.932 1526.22 456.306C1525.1 456.573 1524.03 456.426 1523 455.865C1521.97 455.304 1521.3 454.471 1521 453.365L1509.55 412.464C1509.25 411.401 1509.38 410.368 1509.92 409.367C1510.47 408.366 1511.26 407.674 1512.3 407.291C1513.3 406.92 1514.56 405.213 1516.09 402.169C1517.63 399.126 1519.06 395.951 1520.38 392.645C1522.24 388.135 1523.67 384.981 1524.68 383.185C1525.23 382.205 1525.61 380.999 1525.8 379.569C1526 378.138 1526.08 377.002 1526.05 376.161C1526.02 375.321 1525.95 373.954 1525.83 372.06C1525.67 370.318 1525.57 368.946 1525.54 367.944C1525.51 366.943 1525.62 365.721 1525.86 364.278C1526.1 362.835 1526.52 361.57 1527.13 360.481C1527.72 359.446 1528.56 358.774 1529.67 358.465C1531.62 357.917 1533.44 357.65 1535.12 357.662C1536.8 357.674 1538.23 357.87 1539.41 358.249C1540.6 358.629 1541.69 359.252 1542.69 360.119C1543.69 360.986 1544.46 361.801 1545.02 362.562C1545.58 363.324 1546.13 364.316 1546.68 365.538C1547.23 366.761 1547.6 367.688 1547.8 368.32C1548 368.953 1548.24 369.779 1548.53 370.8C1548.98 372.417 1549.23 374.09 1549.28 375.819C1549.33 377.549 1549.28 378.938 1549.14 379.987C1549 381.036 1548.75 382.391 1548.39 384.051C1548.33 384.342 1548.22 384.784 1548.07 385.378C1547.91 385.972 1547.81 386.505 1547.76 386.978C1547.71 387.451 1547.68 388.009 1547.68 388.653L1565.35 383.707C1568.67 382.778 1571.88 383.187 1574.98 384.933C1578.09 386.679 1580.1 389.211 1581.03 392.529Z" fill="#263238"/>
</g>
<g opacity="0.2" clip-path="url(#clip3_3740_2250)">
<path d="M552.467 69.2854C552.275 68.6015 551.86 68.0795 551.22 67.7196C550.58 67.3596 549.919 67.2754 549.235 67.4667C548.524 67.6655 547.996 68.0829 547.649 68.7189C547.302 69.3548 547.225 70.0148 547.416 70.6987C547.615 71.409 548.026 71.9394 548.648 72.2898C549.271 72.6403 549.938 72.7162 550.648 72.5174C551.332 72.326 551.856 71.9171 552.219 71.2905C552.583 70.664 552.665 69.9956 552.467 69.2854ZM553.127 47.3161L560.193 72.5694C560.385 73.2533 560.3 73.9151 559.94 74.5548C559.581 75.1944 559.059 75.61 558.375 75.8014L547.011 78.9814C546.327 79.1728 545.665 79.0885 545.025 78.7286C544.386 78.3686 543.97 77.8467 543.779 77.1628L536.712 51.9095C536.521 51.2255 536.605 50.5637 536.965 49.9241C537.325 49.2844 537.847 48.8689 538.531 48.6775L549.895 45.4974C550.578 45.306 551.24 45.3903 551.88 45.7503C552.52 46.1102 552.935 46.6321 553.127 47.3161ZM599.845 34.2426C600.478 36.5049 600.303 38.6671 599.32 40.7292C600.039 41.7762 600.516 42.7206 600.751 43.5624C601.39 45.5395 601.328 47.4997 600.567 49.443C601.427 50.7909 601.857 52.3298 601.859 54.0596C601.884 55.6694 601.52 57.1045 600.766 58.3649C601.827 61.2449 601.849 63.8059 600.831 66.0479C599.707 68.5182 597.403 70.2692 593.919 71.3009L588.829 72.7253C587.093 73.2111 585.142 73.5372 582.976 73.7037C580.81 73.8701 579.105 73.9359 577.862 73.901C576.618 73.8661 574.888 73.79 572.671 73.6729C569.119 73.4472 566.879 73.45 565.951 73.6813C565.259 73.8464 564.596 73.7556 563.96 73.4088C563.324 73.062 562.91 72.5466 562.719 71.8627L555.641 46.5699C555.457 45.9123 555.533 45.2739 555.871 44.6548C556.208 44.0356 556.698 43.6077 557.341 43.3711C557.958 43.1418 558.74 42.0861 559.688 40.2039C560.637 38.3217 561.52 36.3584 562.338 34.3142C563.486 31.525 564.373 29.575 564.998 28.464C565.339 27.858 565.57 27.1125 565.691 26.2277C565.812 25.3428 565.864 24.6405 565.846 24.1207C565.828 23.601 565.783 22.7555 565.711 21.5844C565.608 20.507 565.548 19.6587 565.53 19.0395C565.513 18.4203 565.578 17.6645 565.726 16.7723C565.873 15.8801 566.136 15.0973 566.515 14.424C566.875 13.7843 567.397 13.3688 568.081 13.1774C569.291 12.8388 570.415 12.6732 571.452 12.6808C572.49 12.6883 573.375 12.8094 574.107 13.0442C574.839 13.2789 575.514 13.6644 576.132 14.2006C576.75 14.7367 577.232 15.2403 577.576 15.7112C577.921 16.1821 578.263 16.7955 578.602 17.5516C578.941 18.3076 579.172 18.8811 579.296 19.272C579.42 19.6629 579.57 20.174 579.746 20.8053C580.026 21.805 580.181 22.8395 580.211 23.9091C580.241 24.9786 580.211 25.8377 580.124 26.4864C580.036 27.135 579.88 27.9728 579.657 28.9997C579.622 29.1796 579.557 29.4531 579.461 29.8203C579.365 30.1875 579.301 30.5174 579.27 30.8099C579.238 31.1024 579.221 31.4475 579.219 31.8452L590.149 28.7866C592.201 28.2125 594.186 28.4653 596.105 29.5451C598.024 30.6249 599.271 32.1908 599.845 34.2426Z" fill="#263238"/>
</g>
<g opacity="0.2" clip-path="url(#clip4_3740_2250)">
<path d="M61.82 759.764C61.6247 758.59 61.0267 757.645 60.0261 756.93C59.0256 756.215 57.9384 755.956 56.7645 756.151C55.5456 756.354 54.5898 756.954 53.8974 757.95C53.2049 758.947 52.9564 760.033 53.1518 761.206C53.3547 762.425 53.9432 763.383 54.9175 764.079C55.8917 764.775 56.9883 765.022 58.2073 764.819C59.3811 764.624 60.3274 764.037 61.0462 763.059C61.765 762.081 62.0229 760.983 61.82 759.764ZM66.8843 723.287L74.0981 766.629C74.2935 767.802 74.0337 768.89 73.3186 769.89C72.6036 770.891 71.6592 771.489 70.4854 771.684L50.9818 774.93C49.808 775.126 48.7208 774.866 47.7202 774.151C46.7196 773.436 46.1217 772.491 45.9263 771.317L38.7125 727.976C38.5171 726.802 38.777 725.715 39.492 724.715C40.207 723.714 41.1514 723.116 42.3253 722.921L61.8288 719.674C63.0027 719.479 64.0899 719.739 65.0904 720.454C66.091 721.169 66.689 722.113 66.8843 723.287ZM147.066 709.942C147.712 713.824 147.03 717.395 145.021 720.652C146.028 722.526 146.653 724.185 146.893 725.63C147.6 729.038 147.144 732.293 145.525 735.392C146.713 737.793 147.153 740.434 146.844 743.316C146.595 746.002 145.729 748.326 144.247 750.29C145.494 755.279 145.068 759.549 142.968 763.1C140.65 767.012 136.496 769.513 130.507 770.602L121.771 772.056C118.791 772.552 115.482 772.744 111.844 772.63C108.206 772.516 105.354 772.318 103.289 772.035C101.224 771.753 98.3553 771.314 94.6836 770.719C88.8074 769.702 85.0754 769.302 83.4877 769.52C82.3064 769.67 81.2173 769.399 80.2205 768.707C79.2237 768.014 78.6276 767.081 78.4322 765.907L71.2072 722.498C71.0193 721.369 71.2622 720.32 71.9359 719.349C72.6095 718.379 73.5031 717.755 74.6168 717.476C75.6853 717.206 77.1792 715.588 79.0985 712.624C81.0179 709.66 82.8432 706.549 84.5745 703.292C86.9907 698.853 88.8198 695.765 90.0617 694.027C90.7391 693.079 91.2585 691.879 91.62 690.427C91.9815 688.975 92.1943 687.814 92.2584 686.945C92.3226 686.076 92.4 684.66 92.4907 682.696C92.5137 680.882 92.5667 679.458 92.6497 678.424C92.7327 677.389 92.9775 676.142 93.3841 674.683C93.7908 673.223 94.3704 671.967 95.1231 670.913C95.8381 669.913 96.7825 669.315 97.9563 669.119C100.033 668.774 101.935 668.701 103.662 668.901C105.388 669.1 106.841 669.462 108.018 669.985C109.195 670.508 110.25 671.272 111.183 672.277C112.116 673.282 112.827 674.207 113.316 675.054C113.805 675.9 114.263 676.984 114.692 678.305C115.121 679.625 115.403 680.622 115.538 681.296C115.673 681.969 115.831 682.848 116.011 683.931C116.297 685.647 116.368 687.398 116.225 689.185C116.081 690.972 115.878 692.398 115.614 693.462C115.351 694.527 114.94 695.894 114.383 697.565C114.293 697.858 114.135 698.302 113.909 698.896C113.683 699.491 113.517 700.029 113.412 700.51C113.306 700.992 113.216 701.564 113.141 702.226L131.899 699.103C135.421 698.517 138.682 699.297 141.684 701.442C144.686 703.587 146.48 706.42 147.066 709.942Z" fill="#263238"/>
</g>
<g opacity="0.6" clip-path="url(#clip5_3740_2250)">
<path d="M1164.24 149.238C1164.51 148.683 1164.54 148.103 1164.34 147.499C1164.13 146.896 1163.74 146.459 1163.19 146.189C1162.61 145.908 1162.03 145.875 1161.43 146.089C1160.84 146.302 1160.41 146.687 1160.14 147.243C1159.86 147.82 1159.82 148.403 1160.02 148.991C1160.23 149.578 1160.62 150.012 1161.19 150.293C1161.75 150.563 1162.33 150.599 1162.93 150.401C1163.52 150.203 1163.96 149.816 1164.24 149.238ZM1177.36 135.315L1167.38 155.837C1167.11 156.393 1166.67 156.775 1166.07 156.984C1165.46 157.192 1164.89 157.162 1164.33 156.891L1155.09 152.402C1154.54 152.132 1154.16 151.695 1153.95 151.092C1153.74 150.488 1153.77 149.908 1154.04 149.352L1164.02 128.83C1164.29 128.274 1164.72 127.892 1165.33 127.683C1165.93 127.475 1166.51 127.505 1167.07 127.776L1176.3 132.265C1176.86 132.535 1177.24 132.972 1177.45 133.576C1177.66 134.179 1177.63 134.759 1177.36 135.315ZM1215.32 153.77C1214.43 155.609 1213.07 156.916 1211.23 157.691C1211.1 158.787 1210.86 159.678 1210.53 160.362C1209.81 162.017 1208.63 163.258 1207.02 164.084C1206.8 165.458 1206.19 166.709 1205.19 167.836C1204.28 168.899 1203.21 169.623 1202 170.009C1201.02 172.496 1199.56 174.176 1197.6 175.049C1195.45 176.008 1192.93 175.818 1190.07 174.479L1185.93 172.468C1184.52 171.782 1183.06 170.869 1181.56 169.727C1180.05 168.585 1178.9 167.643 1178.11 166.903C1177.33 166.162 1176.24 165.114 1174.87 163.758C1172.68 161.561 1171.22 160.269 1170.49 159.884C1169.94 159.593 1169.56 159.15 1169.35 158.557C1169.13 157.965 1169.16 157.39 1169.43 156.834L1179.42 136.28C1179.68 135.746 1180.1 135.374 1180.68 135.166C1181.26 134.957 1181.82 134.962 1182.38 135.179C1182.91 135.385 1184.03 135.15 1185.73 134.472C1187.44 133.793 1189.15 133.025 1190.86 132.166C1193.22 131.013 1194.92 130.255 1195.97 129.892C1196.54 129.695 1197.12 129.343 1197.71 128.836C1198.3 128.33 1198.74 127.903 1199.03 127.554C1199.31 127.205 1199.77 126.629 1200.4 125.824C1200.96 125.063 1201.41 124.476 1201.75 124.063C1202.1 123.65 1202.58 123.196 1203.19 122.7C1203.8 122.204 1204.42 121.846 1205.06 121.626C1205.66 121.418 1206.24 121.449 1206.8 121.719C1207.78 122.197 1208.61 122.738 1209.28 123.341C1209.95 123.945 1210.46 124.535 1210.8 125.11C1211.14 125.686 1211.36 126.327 1211.45 127.032C1211.54 127.738 1211.57 128.344 1211.52 128.85C1211.47 129.355 1211.34 129.952 1211.12 130.64C1210.91 131.328 1210.73 131.835 1210.58 132.161C1210.44 132.487 1210.24 132.906 1209.99 133.419C1209.6 134.231 1209.1 134.994 1208.5 135.708C1207.9 136.422 1207.39 136.964 1206.96 137.336C1206.53 137.707 1205.94 138.163 1205.2 138.703C1205.08 138.8 1204.88 138.94 1204.6 139.124C1204.33 139.308 1204.09 139.486 1203.91 139.658C1203.72 139.83 1203.51 140.045 1203.27 140.303L1212.16 144.621C1213.82 145.431 1214.97 146.742 1215.6 148.553C1216.22 150.364 1216.13 152.103 1215.32 153.77Z" fill="#3B5998"/>
</g>
<g opacity="0.6" clip-path="url(#clip6_3740_2250)">
<path d="M355.245 584.238C355.515 583.683 355.546 583.103 355.337 582.499C355.128 581.896 354.746 581.459 354.19 581.189C353.613 580.908 353.028 580.875 352.435 581.089C351.842 581.302 351.41 581.687 351.14 582.243C350.86 582.82 350.821 583.403 351.024 583.991C351.227 584.578 351.618 585.012 352.195 585.293C352.751 585.563 353.328 585.599 353.926 585.401C354.525 585.203 354.964 584.816 355.245 584.238ZM368.356 570.315L358.38 590.837C358.11 591.393 357.673 591.775 357.069 591.984C356.466 592.192 355.886 592.162 355.33 591.891L346.095 587.402C345.539 587.132 345.157 586.695 344.948 586.092C344.74 585.488 344.77 584.908 345.041 584.352L355.017 563.83C355.287 563.274 355.724 562.892 356.327 562.683C356.931 562.475 357.511 562.505 358.066 562.776L367.301 567.265C367.857 567.535 368.239 567.972 368.448 568.576C368.657 569.179 368.626 569.759 368.356 570.315ZM406.322 588.77C405.428 590.609 404.066 591.916 402.236 592.691C402.099 593.787 401.865 594.678 401.532 595.362C400.807 597.017 399.635 598.258 398.018 599.084C397.799 600.458 397.191 601.709 396.194 602.836C395.281 603.899 394.216 604.623 392.997 605.009C392.026 607.496 390.562 609.176 388.605 610.049C386.447 611.008 383.936 610.818 381.072 609.479L376.935 607.468C375.525 606.782 374.066 605.869 372.56 604.727C371.053 603.585 369.905 602.643 369.116 601.903C368.326 601.162 367.243 600.114 365.867 598.758C363.685 596.561 362.225 595.269 361.487 594.884C360.941 594.593 360.562 594.15 360.348 593.557C360.134 592.965 360.162 592.39 360.432 591.834L370.424 571.28C370.684 570.746 371.102 570.374 371.679 570.166C372.256 569.957 372.822 569.962 373.377 570.179C373.911 570.385 375.03 570.15 376.734 569.472C378.438 568.793 380.146 568.025 381.859 567.166C384.217 566.013 385.92 565.255 386.968 564.892C387.54 564.695 388.121 564.343 388.71 563.836C389.3 563.33 389.739 562.903 390.027 562.554C390.316 562.205 390.774 561.629 391.403 560.824C391.958 560.063 392.409 559.476 392.755 559.063C393.101 558.65 393.58 558.196 394.191 557.7C394.802 557.204 395.425 556.846 396.06 556.626C396.664 556.418 397.244 556.449 397.8 556.719C398.783 557.197 399.61 557.738 400.281 558.341C400.952 558.945 401.459 559.535 401.8 560.11C402.141 560.686 402.358 561.327 402.451 562.032C402.544 562.738 402.567 563.344 402.519 563.85C402.472 564.355 402.34 564.952 402.125 565.64C401.909 566.328 401.729 566.835 401.584 567.161C401.439 567.487 401.241 567.906 400.992 568.419C400.597 569.231 400.101 569.994 399.503 570.708C398.905 571.422 398.39 571.964 397.958 572.336C397.526 572.707 396.942 573.163 396.203 573.703C396.077 573.8 395.877 573.94 395.602 574.124C395.328 574.308 395.096 574.486 394.907 574.658C394.717 574.83 394.507 575.045 394.276 575.303L403.158 579.621C404.826 580.431 405.972 581.742 406.599 583.553C407.225 585.364 407.133 587.103 406.322 588.77Z" fill="#3B5998"/>
</g>
<defs>
<clipPath id="clip0_3740_2250">
<rect width="172.631" height="172.631" fill="white" transform="translate(0 125.676) rotate(-15.6335)"/>
</clipPath>
<clipPath id="clip1_3740_2250">
<rect width="172.631" height="172.631" fill="white" transform="translate(1151 684.676) rotate(-15.6335)"/>
</clipPath>
<clipPath id="clip2_3740_2250">
<rect width="118.737" height="118.737" fill="white" transform="translate(1460 369.152) rotate(-15.6335)"/>
</clipPath>
<clipPath id="clip3_3740_2250">
<rect width="73.4255" height="73.4255" fill="white" transform="translate(525 19.7871) rotate(-15.6335)"/>
</clipPath>
<clipPath id="clip4_3740_2250">
<rect width="123.025" height="123.025" fill="white" transform="translate(25 672.354) rotate(-9.44976)"/>
</clipPath>
<clipPath id="clip5_3740_2250">
<rect width="63.8915" height="63.8915" fill="white" transform="translate(1174.93 101.154) rotate(25.9248)"/>
</clipPath>
<clipPath id="clip6_3740_2250">
<rect width="63.8915" height="63.8915" fill="white" transform="translate(365.934 536.154) rotate(25.9248)"/>
</clipPath>
</defs>
</svg>
