<svg width="415" height="503" viewBox="0 0 415 503" fill="none" xmlns="http://www.w3.org/2000/svg">
<path d="M0 6.00001C0 2.6863 2.68629 0 6 0H407C410.314 0 413 2.68629 413 6V497C413 500.314 410.314 503 407 503H6C2.6863 503 0 500.314 0 497V6.00001Z" fill="url(#paint0_linear_433_13766)"/>
<path d="M37.5537 171.16C37.0097 171.16 36.4817 171.093 35.9697 170.96C35.4577 170.821 34.9937 170.616 34.5777 170.344C34.1617 170.072 33.815 169.736 33.5377 169.336C33.2657 168.931 33.095 168.461 33.0257 167.928H34.5777C34.6737 168.365 34.863 168.733 35.1457 169.032C35.4337 169.331 35.783 169.555 36.1937 169.704C36.6097 169.853 37.0603 169.928 37.5457 169.928C38.0897 169.928 38.575 169.853 39.0017 169.704C39.4337 169.549 39.7723 169.331 40.0177 169.048C40.2683 168.765 40.3937 168.427 40.3937 168.032C40.3937 167.685 40.3137 167.384 40.1537 167.128C39.999 166.872 39.7723 166.659 39.4737 166.488C39.175 166.317 38.8123 166.184 38.3857 166.088L36.1137 165.56C35.2603 165.373 34.591 165.04 34.1057 164.56C33.6257 164.08 33.3803 163.445 33.3697 162.656C33.3697 161.989 33.5457 161.403 33.8977 160.896C34.255 160.389 34.743 159.995 35.3617 159.712C35.9857 159.429 36.6977 159.288 37.4977 159.288C38.4203 159.288 39.1963 159.445 39.8257 159.76C40.455 160.075 40.9297 160.488 41.2497 161C41.5697 161.512 41.7323 162.059 41.7377 162.64H40.2097C40.1617 162.117 40.007 161.704 39.7457 161.4C39.4897 161.091 39.167 160.872 38.7777 160.744C38.3883 160.611 37.9643 160.544 37.5057 160.544C37.175 160.544 36.855 160.587 36.5457 160.672C36.2417 160.752 35.967 160.875 35.7217 161.04C35.4817 161.205 35.2897 161.411 35.1457 161.656C35.0017 161.901 34.9297 162.187 34.9297 162.512C34.9297 162.928 35.071 163.267 35.3537 163.528C35.6417 163.789 36.1617 164.013 36.9137 164.2L39.1137 164.728C39.6897 164.851 40.159 165.032 40.5217 165.272C40.8897 165.512 41.1723 165.784 41.3697 166.088C41.5723 166.392 41.711 166.709 41.7857 167.04C41.8657 167.371 41.9057 167.696 41.9057 168.016C41.9057 168.597 41.7323 169.128 41.3857 169.608C41.039 170.083 40.5403 170.461 39.8897 170.744C39.2443 171.021 38.4657 171.16 37.5537 171.16ZM48.0868 163.808H46.2228V168.952C46.2228 169.245 46.2521 169.461 46.3108 169.6C46.3748 169.733 46.4788 169.819 46.6228 169.856C46.7721 169.893 46.9748 169.912 47.2308 169.912H48.1348V170.904C48.0334 170.941 47.8788 170.973 47.6708 171C47.4681 171.027 47.2148 171.04 46.9108 171.04C46.3401 171.04 45.8974 170.963 45.5828 170.808C45.2681 170.653 45.0468 170.424 44.9188 170.12C44.7961 169.816 44.7348 169.443 44.7348 169V163.808H43.3908V162.728H44.7748L45.1348 160.32H46.2228V162.72H48.0868V163.808ZM51.8123 162.728V171H50.3803V162.728H51.8123ZM51.8443 159.44V160.976H50.3323V159.44H51.8443ZM56.5972 171.104C56.1492 171.104 55.7865 171.043 55.5092 170.92C55.2372 170.797 55.0265 170.632 54.8772 170.424C54.7332 170.216 54.6345 169.979 54.5812 169.712C54.5332 169.44 54.5092 169.16 54.5092 168.872V159.112H55.9652V168.728C55.9652 169.144 56.0452 169.456 56.2052 169.664C56.3705 169.872 56.5998 169.987 56.8932 170.008L57.3412 170.016V170.976C57.2185 171.013 57.0905 171.043 56.9572 171.064C56.8238 171.091 56.7038 171.104 56.5972 171.104ZM61.1284 171.104C60.6804 171.104 60.3177 171.043 60.0404 170.92C59.7684 170.797 59.5577 170.632 59.4084 170.424C59.2644 170.216 59.1657 169.979 59.1124 169.712C59.0644 169.44 59.0404 169.16 59.0404 168.872V159.112H60.4964V168.728C60.4964 169.144 60.5764 169.456 60.7364 169.664C60.9017 169.872 61.1311 169.987 61.4244 170.008L61.8724 170.016V170.976C61.7497 171.013 61.6217 171.043 61.4884 171.064C61.3551 171.091 61.2351 171.104 61.1284 171.104ZM67.4935 171V162.728H68.9255V163.928C69.0589 163.699 69.2429 163.483 69.4775 163.28C69.7175 163.077 70.0055 162.915 70.3415 162.792C70.6829 162.669 71.0749 162.608 71.5175 162.608C72.0402 162.608 72.5202 162.712 72.9575 162.92C73.4002 163.128 73.7522 163.453 74.0135 163.896C74.2802 164.333 74.4135 164.899 74.4135 165.592V171H72.9335V165.736C72.9335 165.091 72.7629 164.613 72.4215 164.304C72.0855 163.989 71.6482 163.832 71.1095 163.832C70.7362 163.832 70.3869 163.893 70.0615 164.016C69.7362 164.133 69.4722 164.315 69.2695 164.56C69.0669 164.8 68.9655 165.104 68.9655 165.472V171H67.4935ZM80.0159 171.16C79.2532 171.16 78.5866 170.997 78.0159 170.672C77.4452 170.341 77.0026 169.859 76.6879 169.224C76.3732 168.589 76.2159 167.813 76.2159 166.896C76.2159 166.032 76.3626 165.275 76.6559 164.624C76.9492 163.973 77.3786 163.469 77.9439 163.112C78.5146 162.749 79.2052 162.568 80.0159 162.568C80.7786 162.568 81.4399 162.736 81.9999 163.072C82.5652 163.403 83.0026 163.891 83.3119 164.536C83.6212 165.181 83.7759 165.968 83.7759 166.896C83.7759 167.739 83.6319 168.48 83.3439 169.12C83.0612 169.76 82.6399 170.261 82.0799 170.624C81.5252 170.981 80.8372 171.16 80.0159 171.16ZM80.0159 169.992C80.5119 169.992 80.9306 169.867 81.2719 169.616C81.6132 169.365 81.8719 169.005 82.0479 168.536C82.2239 168.067 82.3119 167.509 82.3119 166.864C82.3119 166.272 82.2346 165.741 82.0799 165.272C81.9252 164.797 81.6772 164.421 81.3359 164.144C80.9999 163.867 80.5599 163.728 80.0159 163.728C79.5146 163.728 79.0906 163.853 78.7439 164.104C78.3972 164.349 78.1332 164.707 77.9519 165.176C77.7759 165.645 77.6879 166.208 77.6879 166.864C77.6879 167.445 77.7679 167.973 77.9279 168.448C78.0879 168.923 78.3386 169.299 78.6799 169.576C79.0212 169.853 79.4666 169.992 80.0159 169.992ZM89.6493 163.808H87.7853V168.952C87.7853 169.245 87.8146 169.461 87.8733 169.6C87.9373 169.733 88.0413 169.819 88.1853 169.856C88.3346 169.893 88.5373 169.912 88.7933 169.912H89.6973V170.904C89.5959 170.941 89.4413 170.973 89.2333 171C89.0306 171.027 88.7773 171.04 88.4733 171.04C87.9026 171.04 87.4599 170.963 87.1453 170.808C86.8306 170.653 86.6093 170.424 86.4813 170.12C86.3586 169.816 86.2973 169.443 86.2973 169V163.808H84.9533V162.728H86.3373L86.6973 160.32H87.7853V162.72H89.6493V163.808ZM98.3983 171.16C97.8223 171.16 97.2863 171.072 96.7903 170.896C96.2996 170.715 95.8916 170.435 95.5663 170.056C95.2409 169.672 95.0356 169.184 94.9503 168.592H96.2943C96.3689 168.917 96.5023 169.189 96.6943 169.408C96.8916 169.621 97.1369 169.784 97.4303 169.896C97.7236 170.003 98.0436 170.056 98.3903 170.056C98.9449 170.056 99.3929 169.952 99.7343 169.744C100.076 169.536 100.246 169.216 100.246 168.784C100.246 168.48 100.156 168.237 99.9743 168.056C99.7983 167.869 99.5236 167.733 99.1503 167.648L97.4383 167.224C96.7716 167.064 96.2383 166.813 95.8383 166.472C95.4383 166.131 95.2383 165.653 95.2383 165.04C95.2329 164.555 95.3476 164.128 95.5823 163.76C95.8169 163.392 96.1689 163.101 96.6383 162.888C97.1076 162.675 97.6916 162.568 98.3903 162.568C99.2863 162.568 100.009 162.771 100.558 163.176C101.113 163.576 101.401 164.165 101.422 164.944H100.118C100.065 164.549 99.8863 164.237 99.5823 164.008C99.2836 163.773 98.8809 163.656 98.3743 163.656C97.8463 163.656 97.4169 163.763 97.0863 163.976C96.7556 164.184 96.5903 164.509 96.5903 164.952C96.5903 165.245 96.7076 165.477 96.9423 165.648C97.1769 165.813 97.5236 165.952 97.9823 166.064L99.6383 166.48C100.022 166.581 100.337 166.715 100.582 166.88C100.833 167.045 101.03 167.229 101.174 167.432C101.324 167.635 101.428 167.848 101.486 168.072C101.55 168.291 101.582 168.501 101.582 168.704C101.582 169.211 101.454 169.648 101.198 170.016C100.948 170.379 100.585 170.661 100.11 170.864C99.6409 171.061 99.0703 171.16 98.3983 171.16ZM106.69 171.16C106.258 171.155 105.85 171.093 105.466 170.976C105.087 170.853 104.751 170.675 104.458 170.44C104.164 170.205 103.932 169.915 103.762 169.568C103.596 169.216 103.514 168.808 103.514 168.344V162.728H104.994V168.192C104.994 168.731 105.159 169.168 105.49 169.504C105.826 169.84 106.33 170.008 107.002 170.008C107.61 170.008 108.098 169.851 108.466 169.536C108.839 169.216 109.026 168.741 109.026 168.112V162.728H110.498V171H109.322L109.17 169.416C109.068 169.832 108.895 170.168 108.65 170.424C108.41 170.68 108.119 170.869 107.778 170.992C107.442 171.109 107.079 171.165 106.69 171.16ZM112.9 171V162.728H114.308V164.32C114.446 163.925 114.641 163.6 114.892 163.344C115.142 163.083 115.428 162.888 115.748 162.76C116.073 162.632 116.409 162.568 116.756 162.568C116.878 162.568 116.998 162.576 117.116 162.592C117.233 162.608 117.324 162.635 117.388 162.672V164.104C117.308 164.067 117.204 164.043 117.076 164.032C116.953 164.016 116.849 164.008 116.764 164.008C116.433 163.987 116.124 164.008 115.836 164.072C115.548 164.131 115.294 164.235 115.076 164.384C114.857 164.533 114.684 164.731 114.556 164.976C114.433 165.216 114.372 165.509 114.372 165.856V171H112.9ZM119.987 167.208C119.987 167.731 120.072 168.205 120.243 168.632C120.419 169.053 120.683 169.389 121.035 169.64C121.392 169.891 121.838 170.016 122.371 170.016C122.899 170.016 123.352 169.893 123.731 169.648C124.115 169.403 124.36 169.048 124.467 168.584H125.867C125.766 169.144 125.542 169.616 125.195 170C124.848 170.384 124.43 170.675 123.939 170.872C123.448 171.064 122.936 171.16 122.403 171.16C121.63 171.16 120.95 170.992 120.363 170.656C119.776 170.32 119.318 169.837 118.987 169.208C118.656 168.579 118.491 167.824 118.491 166.944C118.491 166.075 118.64 165.312 118.939 164.656C119.238 164 119.67 163.488 120.235 163.12C120.806 162.752 121.491 162.568 122.291 162.568C123.07 162.568 123.728 162.736 124.267 163.072C124.806 163.408 125.214 163.883 125.491 164.496C125.774 165.104 125.915 165.827 125.915 166.664V167.208H119.987ZM119.995 166.208H124.491C124.491 165.733 124.411 165.307 124.251 164.928C124.091 164.544 123.846 164.243 123.515 164.024C123.19 163.8 122.779 163.688 122.283 163.688C121.766 163.688 121.336 163.813 120.995 164.064C120.659 164.309 120.406 164.627 120.235 165.016C120.07 165.4 119.99 165.797 119.995 166.208ZM131.342 169.136V171H129.59V169.136H131.342ZM126.934 161.584C127.276 160.859 127.78 160.293 128.446 159.888C129.118 159.477 129.884 159.272 130.742 159.272C131.457 159.272 132.081 159.392 132.614 159.632C133.148 159.867 133.558 160.195 133.846 160.616C134.14 161.032 134.286 161.509 134.286 162.048C134.286 162.592 134.18 163.064 133.966 163.464C133.753 163.859 133.486 164.221 133.166 164.552C132.852 164.883 132.534 165.213 132.214 165.544C131.9 165.869 131.633 166.232 131.414 166.632C131.201 167.027 131.094 167.491 131.094 168.024H129.83C129.83 167.416 129.929 166.891 130.126 166.448C130.324 166 130.569 165.6 130.862 165.248C131.156 164.891 131.446 164.555 131.734 164.24C132.028 163.92 132.273 163.592 132.47 163.256C132.673 162.915 132.774 162.533 132.774 162.112C132.774 161.584 132.585 161.168 132.206 160.864C131.828 160.555 131.334 160.4 130.726 160.4C130.38 160.4 130.038 160.469 129.702 160.608C129.372 160.747 129.076 160.936 128.814 161.176C128.558 161.411 128.372 161.677 128.254 161.976L126.934 161.584ZM34.2097 181.648H37.1617V196.48H44.9977V199H34.1977L34.2097 181.648ZM49.6863 193.468C49.6783 194.172 49.7903 194.796 50.0223 195.34C50.2543 195.884 50.5983 196.312 51.0543 196.624C51.5103 196.928 52.0743 197.08 52.7463 197.08C53.4343 197.08 54.0303 196.928 54.5343 196.624C55.0463 196.312 55.3863 195.84 55.5543 195.208H58.2303C58.0863 196.072 57.7423 196.804 57.1983 197.404C56.6543 198.004 55.9943 198.46 55.2183 198.772C54.4503 199.084 53.6503 199.24 52.8183 199.24C51.6183 199.24 50.5623 198.988 49.6503 198.484C48.7463 197.972 48.0383 197.244 47.5263 196.3C47.0223 195.356 46.7703 194.232 46.7703 192.928C46.7703 191.656 47.0023 190.528 47.4663 189.544C47.9303 188.552 48.5983 187.772 49.4703 187.204C50.3503 186.636 51.4063 186.352 52.6383 186.352C53.8623 186.352 54.8903 186.612 55.7223 187.132C56.5623 187.652 57.1943 188.38 57.6183 189.316C58.0503 190.244 58.2663 191.332 58.2663 192.58V193.468H49.6863ZM49.6863 191.656H55.5063C55.5063 191.056 55.4023 190.516 55.1943 190.036C54.9863 189.548 54.6663 189.164 54.2343 188.884C53.8103 188.596 53.2743 188.452 52.6263 188.452C51.9863 188.452 51.4463 188.608 51.0063 188.92C50.5663 189.232 50.2343 189.636 50.0103 190.132C49.7863 190.62 49.6783 191.128 49.6863 191.656ZM67.5753 188.656H64.8033L64.8153 195.772C64.8153 196.14 64.8553 196.412 64.9353 196.588C65.0233 196.756 65.1593 196.868 65.3433 196.924C65.5353 196.972 65.7913 196.996 66.1113 196.996H67.6353V198.844C67.4753 198.908 67.2313 198.964 66.9033 199.012C66.5833 199.068 66.1513 199.096 65.6073 199.096C64.6233 199.096 63.8593 198.968 63.3153 198.712C62.7793 198.448 62.4073 198.076 62.1993 197.596C61.9913 197.116 61.8873 196.544 61.8873 195.88V188.656H59.8713V186.592H61.9713L62.7033 182.908H64.8033V186.58H67.5753V188.656ZM78.7422 186.592V199H75.9342V186.592H78.7422ZM78.7782 181.66V184.42H75.8862V181.66H78.7782ZM86.8173 199.24C85.1773 199.24 83.8893 198.676 82.9533 197.548C82.0173 196.42 81.5493 194.816 81.5493 192.736C81.5493 191.44 81.7373 190.316 82.1133 189.364C82.4973 188.404 83.0573 187.664 83.7933 187.144C84.5373 186.616 85.4573 186.352 86.5533 186.352C87.0653 186.352 87.5293 186.416 87.9453 186.544C88.3693 186.664 88.7453 186.824 89.0733 187.024C89.4013 187.224 89.6773 187.444 89.9013 187.684C90.1333 187.924 90.3133 188.164 90.4413 188.404V181.168H93.3693V199H91.2093L90.8853 196.456C90.7893 196.752 90.6453 197.064 90.4533 197.392C90.2693 197.712 90.0173 198.012 89.6973 198.292C89.3853 198.572 88.9933 198.8 88.5213 198.976C88.0493 199.152 87.4813 199.24 86.8173 199.24ZM87.4173 197.092C88.4653 197.092 89.2293 196.752 89.7093 196.072C90.1973 195.384 90.4413 194.248 90.4413 192.664C90.4333 191.76 90.3213 191 90.1053 190.384C89.8973 189.768 89.5733 189.304 89.1333 188.992C88.7013 188.68 88.1413 188.524 87.4533 188.524C86.5733 188.524 85.8493 188.848 85.2813 189.496C84.7133 190.144 84.4293 191.2 84.4293 192.664C84.4293 194.12 84.6893 195.224 85.2093 195.976C85.7293 196.72 86.4653 197.092 87.4173 197.092ZM98.9753 193.468C98.9673 194.172 99.0793 194.796 99.3113 195.34C99.5433 195.884 99.8873 196.312 100.343 196.624C100.799 196.928 101.363 197.08 102.035 197.08C102.723 197.08 103.319 196.928 103.823 196.624C104.335 196.312 104.675 195.84 104.843 195.208H107.519C107.375 196.072 107.031 196.804 106.487 197.404C105.943 198.004 105.283 198.46 104.507 198.772C103.739 199.084 102.939 199.24 102.107 199.24C100.907 199.24 99.8513 198.988 98.9393 198.484C98.0353 197.972 97.3273 197.244 96.8153 196.3C96.3113 195.356 96.0593 194.232 96.0593 192.928C96.0593 191.656 96.2913 190.528 96.7553 189.544C97.2193 188.552 97.8873 187.772 98.7593 187.204C99.6393 186.636 100.695 186.352 101.927 186.352C103.151 186.352 104.179 186.612 105.011 187.132C105.851 187.652 106.483 188.38 106.907 189.316C107.339 190.244 107.555 191.332 107.555 192.58V193.468H98.9753ZM98.9753 191.656H104.795C104.795 191.056 104.691 190.516 104.483 190.036C104.275 189.548 103.955 189.164 103.523 188.884C103.099 188.596 102.563 188.452 101.915 188.452C101.275 188.452 100.735 188.608 100.295 188.92C99.8553 189.232 99.5233 189.636 99.2993 190.132C99.0753 190.62 98.9673 191.128 98.9753 191.656ZM114.898 199.24C114.034 199.24 113.214 199.104 112.438 198.832C111.67 198.552 111.022 198.116 110.494 197.524C109.974 196.932 109.646 196.168 109.51 195.232H112.078C112.19 195.688 112.386 196.06 112.666 196.348C112.954 196.636 113.294 196.848 113.686 196.984C114.078 197.112 114.478 197.176 114.886 197.176C115.63 197.176 116.23 197.048 116.686 196.792C117.15 196.536 117.382 196.14 117.382 195.604C117.382 195.212 117.254 194.9 116.998 194.668C116.742 194.436 116.334 194.26 115.774 194.14L113.41 193.6C112.362 193.368 111.518 192.984 110.878 192.448C110.246 191.912 109.926 191.156 109.918 190.18C109.91 189.444 110.094 188.788 110.47 188.212C110.846 187.636 111.406 187.184 112.15 186.856C112.894 186.52 113.814 186.352 114.91 186.352C116.358 186.352 117.518 186.676 118.39 187.324C119.262 187.964 119.71 188.88 119.734 190.072H117.25C117.162 189.536 116.91 189.12 116.494 188.824C116.078 188.52 115.538 188.368 114.874 188.368C114.186 188.368 113.622 188.5 113.182 188.764C112.742 189.028 112.522 189.432 112.522 189.976C112.522 190.352 112.69 190.648 113.026 190.864C113.362 191.08 113.866 191.264 114.538 191.416L116.77 191.956C117.41 192.116 117.934 192.332 118.342 192.604C118.75 192.876 119.07 193.176 119.302 193.504C119.534 193.824 119.694 194.156 119.782 194.5C119.878 194.836 119.926 195.148 119.926 195.436C119.926 196.236 119.718 196.92 119.302 197.488C118.894 198.048 118.314 198.48 117.562 198.784C116.81 199.088 115.922 199.24 114.898 199.24ZM125.688 186.592V199H122.88V186.592H125.688ZM125.724 181.66V184.42H122.832V181.66H125.724ZM134.652 203.104C132.564 203.104 130.96 202.824 129.84 202.264C128.72 201.704 128.16 200.936 128.16 199.96C128.16 199.52 128.268 199.152 128.484 198.856C128.7 198.56 128.956 198.316 129.252 198.124C129.548 197.932 129.82 197.784 130.068 197.68C130.316 197.576 130.476 197.5 130.548 197.452C130.412 197.372 130.232 197.268 130.008 197.14C129.784 197.012 129.58 196.836 129.396 196.612C129.22 196.388 129.132 196.096 129.132 195.736C129.132 195.32 129.328 194.936 129.72 194.584C130.12 194.232 130.716 193.98 131.508 193.828C130.732 193.452 130.136 192.944 129.72 192.304C129.304 191.664 129.096 191 129.096 190.312C129.096 189.496 129.332 188.796 129.804 188.212C130.284 187.628 130.948 187.18 131.796 186.868C132.652 186.556 133.64 186.4 134.76 186.4C135.592 186.4 136.28 186.492 136.824 186.676C137.368 186.86 137.876 187.108 138.348 187.42C138.508 187.356 138.732 187.268 139.02 187.156C139.316 187.036 139.636 186.908 139.98 186.772C140.324 186.628 140.652 186.492 140.964 186.364C141.284 186.228 141.556 186.116 141.78 186.028L141.756 188.44L139.608 188.824C139.712 189.056 139.792 189.308 139.848 189.58C139.912 189.852 139.944 190.092 139.944 190.3C139.944 191.02 139.74 191.688 139.332 192.304C138.932 192.912 138.328 193.4 137.52 193.768C136.72 194.136 135.72 194.32 134.52 194.32C134.4 194.32 134.236 194.316 134.028 194.308C133.82 194.3 133.652 194.292 133.524 194.284C132.876 194.308 132.432 194.384 132.192 194.512C131.952 194.64 131.832 194.78 131.832 194.932C131.832 195.148 132.012 195.292 132.372 195.364C132.732 195.436 133.308 195.5 134.1 195.556C134.38 195.572 134.748 195.592 135.204 195.616C135.66 195.64 136.168 195.672 136.728 195.712C138.144 195.8 139.216 196.156 139.944 196.78C140.672 197.396 141.036 198.196 141.036 199.18C141.036 200.324 140.508 201.264 139.452 202C138.396 202.736 136.796 203.104 134.652 203.104ZM135.144 201.388C136.192 201.388 136.968 201.244 137.472 200.956C137.976 200.668 138.228 200.244 138.228 199.684C138.228 199.252 138.056 198.9 137.712 198.628C137.368 198.356 136.856 198.196 136.176 198.148L133.044 197.956C132.7 197.932 132.372 197.996 132.06 198.148C131.756 198.292 131.508 198.496 131.316 198.76C131.124 199.016 131.028 199.3 131.028 199.612C131.028 200.196 131.364 200.636 132.036 200.932C132.708 201.236 133.744 201.388 135.144 201.388ZM134.616 192.604C135.376 192.604 135.992 192.412 136.464 192.028C136.936 191.636 137.172 191.084 137.172 190.372C137.172 189.636 136.936 189.064 136.464 188.656C135.992 188.24 135.376 188.032 134.616 188.032C133.84 188.032 133.212 188.24 132.732 188.656C132.26 189.072 132.024 189.644 132.024 190.372C132.024 191.06 132.252 191.604 132.708 192.004C133.164 192.404 133.8 192.604 134.616 192.604ZM144.121 199V186.592H146.977V188.368C147.169 188.048 147.429 187.74 147.757 187.444C148.093 187.148 148.505 186.908 148.993 186.724C149.481 186.54 150.053 186.448 150.709 186.448C151.477 186.448 152.189 186.6 152.845 186.904C153.509 187.208 154.041 187.684 154.441 188.332C154.849 188.98 155.053 189.816 155.053 190.84V199H152.125V191.188C152.125 190.372 151.901 189.768 151.453 189.376C151.005 188.976 150.441 188.776 149.761 188.776C149.297 188.776 148.857 188.856 148.441 189.016C148.025 189.168 147.685 189.404 147.421 189.724C147.165 190.036 147.037 190.428 147.037 190.9V199H144.121ZM168.148 199.24C167.284 199.24 166.464 199.104 165.688 198.832C164.92 198.552 164.272 198.116 163.744 197.524C163.224 196.932 162.896 196.168 162.76 195.232H165.328C165.44 195.688 165.636 196.06 165.916 196.348C166.204 196.636 166.544 196.848 166.936 196.984C167.328 197.112 167.728 197.176 168.136 197.176C168.88 197.176 169.48 197.048 169.936 196.792C170.4 196.536 170.632 196.14 170.632 195.604C170.632 195.212 170.504 194.9 170.248 194.668C169.992 194.436 169.584 194.26 169.024 194.14L166.66 193.6C165.612 193.368 164.768 192.984 164.128 192.448C163.496 191.912 163.176 191.156 163.168 190.18C163.16 189.444 163.344 188.788 163.72 188.212C164.096 187.636 164.656 187.184 165.4 186.856C166.144 186.52 167.064 186.352 168.16 186.352C169.608 186.352 170.768 186.676 171.64 187.324C172.512 187.964 172.96 188.88 172.984 190.072H170.5C170.412 189.536 170.16 189.12 169.744 188.824C169.328 188.52 168.788 188.368 168.124 188.368C167.436 188.368 166.872 188.5 166.432 188.764C165.992 189.028 165.772 189.432 165.772 189.976C165.772 190.352 165.94 190.648 166.276 190.864C166.612 191.08 167.116 191.264 167.788 191.416L170.02 191.956C170.66 192.116 171.184 192.332 171.592 192.604C172 192.876 172.32 193.176 172.552 193.504C172.784 193.824 172.944 194.156 173.032 194.5C173.128 194.836 173.176 195.148 173.176 195.436C173.176 196.236 172.968 196.92 172.552 197.488C172.144 198.048 171.564 198.48 170.812 198.784C170.06 199.088 169.172 199.24 168.148 199.24ZM178.218 193.468C178.21 194.172 178.322 194.796 178.554 195.34C178.786 195.884 179.13 196.312 179.586 196.624C180.042 196.928 180.606 197.08 181.278 197.08C181.966 197.08 182.562 196.928 183.066 196.624C183.578 196.312 183.918 195.84 184.086 195.208H186.762C186.618 196.072 186.274 196.804 185.73 197.404C185.186 198.004 184.526 198.46 183.75 198.772C182.982 199.084 182.182 199.24 181.35 199.24C180.15 199.24 179.094 198.988 178.182 198.484C177.278 197.972 176.57 197.244 176.058 196.3C175.554 195.356 175.302 194.232 175.302 192.928C175.302 191.656 175.534 190.528 175.998 189.544C176.462 188.552 177.13 187.772 178.002 187.204C178.882 186.636 179.938 186.352 181.17 186.352C182.394 186.352 183.422 186.612 184.254 187.132C185.094 187.652 185.726 188.38 186.15 189.316C186.582 190.244 186.798 191.332 186.798 192.58V193.468H178.218ZM178.218 191.656H184.038C184.038 191.056 183.934 190.516 183.726 190.036C183.518 189.548 183.198 189.164 182.766 188.884C182.342 188.596 181.806 188.452 181.158 188.452C180.518 188.452 179.978 188.608 179.538 188.92C179.098 189.232 178.766 189.636 178.542 190.132C178.318 190.62 178.21 191.128 178.218 191.656ZM189.519 199V186.592H192.375V188.368C192.567 188.048 192.827 187.74 193.155 187.444C193.491 187.148 193.903 186.908 194.391 186.724C194.879 186.54 195.451 186.448 196.107 186.448C196.875 186.448 197.587 186.6 198.243 186.904C198.907 187.208 199.439 187.684 199.839 188.332C200.247 188.98 200.451 189.816 200.451 190.84V199H197.523V191.188C197.523 190.372 197.299 189.768 196.851 189.376C196.403 188.976 195.839 188.776 195.159 188.776C194.695 188.776 194.255 188.856 193.839 189.016C193.423 189.168 193.083 189.404 192.819 189.724C192.563 190.036 192.435 190.428 192.435 190.9V199H189.519ZM208.13 199.24C206.49 199.24 205.202 198.676 204.266 197.548C203.33 196.42 202.862 194.816 202.862 192.736C202.862 191.44 203.05 190.316 203.426 189.364C203.81 188.404 204.37 187.664 205.106 187.144C205.85 186.616 206.77 186.352 207.866 186.352C208.378 186.352 208.842 186.416 209.258 186.544C209.682 186.664 210.058 186.824 210.386 187.024C210.714 187.224 210.99 187.444 211.214 187.684C211.446 187.924 211.626 188.164 211.754 188.404V181.168H214.682V199H212.522L212.198 196.456C212.102 196.752 211.958 197.064 211.766 197.392C211.582 197.712 211.33 198.012 211.01 198.292C210.698 198.572 210.306 198.8 209.834 198.976C209.362 199.152 208.794 199.24 208.13 199.24ZM208.73 197.092C209.778 197.092 210.542 196.752 211.022 196.072C211.51 195.384 211.754 194.248 211.754 192.664C211.746 191.76 211.634 191 211.418 190.384C211.21 189.768 210.886 189.304 210.446 188.992C210.014 188.68 209.454 188.524 208.766 188.524C207.886 188.524 207.162 188.848 206.594 189.496C206.026 190.144 205.742 191.2 205.742 192.664C205.742 194.12 206.002 195.224 206.522 195.976C207.042 196.72 207.778 197.092 208.73 197.092ZM224.784 202.96C223.992 202.96 223.436 202.896 223.116 202.768C222.804 202.648 222.648 202.588 222.648 202.588V200.716L223.896 200.752C224.4 200.776 224.808 200.748 225.12 200.668C225.44 200.588 225.688 200.476 225.864 200.332C226.04 200.196 226.168 200.048 226.248 199.888C226.336 199.736 226.404 199.604 226.452 199.492L226.776 198.58L221.94 186.592H224.856L228.144 195.364L231.432 186.592H234.288L229.176 199.456C228.792 200.392 228.376 201.112 227.928 201.616C227.488 202.128 227.004 202.48 226.476 202.672C225.956 202.864 225.392 202.96 224.784 202.96ZM241.05 199.24C239.866 199.24 238.834 198.988 237.954 198.484C237.074 197.972 236.39 197.24 235.902 196.288C235.422 195.336 235.182 194.192 235.182 192.856C235.182 191.56 235.414 190.424 235.878 189.448C236.35 188.472 237.026 187.712 237.906 187.168C238.786 186.624 239.838 186.352 241.062 186.352C242.246 186.352 243.274 186.612 244.146 187.132C245.018 187.652 245.69 188.396 246.162 189.364C246.642 190.332 246.882 191.496 246.882 192.856C246.882 194.112 246.654 195.22 246.198 196.18C245.75 197.132 245.09 197.88 244.218 198.424C243.354 198.968 242.298 199.24 241.05 199.24ZM241.062 197.02C241.734 197.02 242.286 196.836 242.718 196.468C243.158 196.1 243.482 195.596 243.69 194.956C243.906 194.316 244.014 193.588 244.014 192.772C244.014 192.012 243.918 191.312 243.726 190.672C243.542 190.032 243.23 189.52 242.79 189.136C242.358 188.744 241.782 188.548 241.062 188.548C240.382 188.548 239.818 188.728 239.37 189.088C238.93 189.44 238.598 189.936 238.374 190.576C238.158 191.208 238.05 191.94 238.05 192.772C238.05 193.524 238.146 194.224 238.338 194.872C238.538 195.512 238.858 196.032 239.298 196.432C239.738 196.824 240.326 197.02 241.062 197.02ZM253.868 199.24C253.26 199.24 252.672 199.152 252.104 198.976C251.544 198.792 251.04 198.528 250.592 198.184C250.144 197.832 249.788 197.4 249.524 196.888C249.26 196.376 249.128 195.78 249.128 195.1V186.592H252.056V194.764C252.056 195.436 252.268 195.988 252.692 196.42C253.124 196.852 253.772 197.068 254.636 197.068C255.42 197.068 256.048 196.864 256.52 196.456C256.992 196.04 257.228 195.444 257.228 194.668V186.592H260.132V199H257.888L257.564 196.576C257.412 197.256 257.144 197.792 256.76 198.184C256.384 198.568 255.94 198.84 255.428 199C254.924 199.16 254.404 199.24 253.868 199.24ZM271.563 186.592V199H268.755V186.592H271.563ZM271.599 181.66V184.42H268.707V181.66H271.599ZM275.207 199V186.592H278.063V188.368C278.255 188.048 278.515 187.74 278.843 187.444C279.179 187.148 279.591 186.908 280.079 186.724C280.567 186.54 281.139 186.448 281.795 186.448C282.563 186.448 283.275 186.6 283.931 186.904C284.595 187.208 285.127 187.684 285.527 188.332C285.935 188.98 286.139 189.816 286.139 190.84V199H283.211V191.188C283.211 190.372 282.987 189.768 282.539 189.376C282.091 188.976 281.527 188.776 280.847 188.776C280.383 188.776 279.943 188.856 279.527 189.016C279.111 189.168 278.771 189.404 278.507 189.724C278.251 190.036 278.123 190.428 278.123 190.9V199H275.207ZM293.773 199.24C292.909 199.24 292.089 199.104 291.313 198.832C290.545 198.552 289.897 198.116 289.369 197.524C288.849 196.932 288.521 196.168 288.385 195.232H290.953C291.065 195.688 291.261 196.06 291.541 196.348C291.829 196.636 292.169 196.848 292.561 196.984C292.953 197.112 293.353 197.176 293.761 197.176C294.505 197.176 295.105 197.048 295.561 196.792C296.025 196.536 296.257 196.14 296.257 195.604C296.257 195.212 296.129 194.9 295.873 194.668C295.617 194.436 295.209 194.26 294.649 194.14L292.285 193.6C291.237 193.368 290.393 192.984 289.753 192.448C289.121 191.912 288.801 191.156 288.793 190.18C288.785 189.444 288.969 188.788 289.345 188.212C289.721 187.636 290.281 187.184 291.025 186.856C291.769 186.52 292.689 186.352 293.785 186.352C295.233 186.352 296.393 186.676 297.265 187.324C298.137 187.964 298.585 188.88 298.609 190.072H296.125C296.037 189.536 295.785 189.12 295.369 188.824C294.953 188.52 294.413 188.368 293.749 188.368C293.061 188.368 292.497 188.5 292.057 188.764C291.617 189.028 291.397 189.432 291.397 189.976C291.397 190.352 291.565 190.648 291.901 190.864C292.237 191.08 292.741 191.264 293.413 191.416L295.645 191.956C296.285 192.116 296.809 192.332 297.217 192.604C297.625 192.876 297.945 193.176 298.177 193.504C298.409 193.824 298.569 194.156 298.657 194.5C298.753 194.836 298.801 195.148 298.801 195.436C298.801 196.236 298.593 196.92 298.177 197.488C297.769 198.048 297.189 198.48 296.437 198.784C295.685 199.088 294.797 199.24 293.773 199.24ZM308.325 188.656H305.553L305.565 195.772C305.565 196.14 305.605 196.412 305.685 196.588C305.773 196.756 305.909 196.868 306.093 196.924C306.285 196.972 306.541 196.996 306.861 196.996H308.385V198.844C308.225 198.908 307.981 198.964 307.653 199.012C307.333 199.068 306.901 199.096 306.357 199.096C305.373 199.096 304.609 198.968 304.065 198.712C303.529 198.448 303.157 198.076 302.949 197.596C302.741 197.116 302.637 196.544 302.637 195.88V188.656H300.621V186.592H302.721L303.453 182.908H305.553V186.58H308.325V188.656ZM314.652 199.24C313.86 199.24 313.148 199.096 312.516 198.808C311.892 198.512 311.4 198.092 311.04 197.548C310.688 196.996 310.512 196.328 310.512 195.544C310.512 194.176 311.004 193.144 311.988 192.448C312.98 191.752 314.56 191.388 316.728 191.356L318.576 191.308V190.468C318.576 189.812 318.38 189.3 317.988 188.932C317.604 188.556 317.004 188.372 316.188 188.38C315.588 188.388 315.036 188.532 314.532 188.812C314.036 189.084 313.708 189.544 313.548 190.192H311.064C311.112 189.344 311.356 188.636 311.796 188.068C312.244 187.492 312.856 187.064 313.632 186.784C314.408 186.496 315.304 186.352 316.32 186.352C317.504 186.352 318.468 186.508 319.212 186.82C319.956 187.132 320.504 187.584 320.856 188.176C321.208 188.76 321.384 189.468 321.384 190.3V199H318.924L318.696 196.768C318.248 197.704 317.68 198.352 316.992 198.712C316.312 199.064 315.532 199.24 314.652 199.24ZM315.6 197.26C315.96 197.26 316.316 197.196 316.668 197.068C317.02 196.932 317.34 196.752 317.628 196.528C317.916 196.296 318.144 196.04 318.312 195.76C318.488 195.48 318.576 195.188 318.576 194.884V192.928L317.052 192.952C316.3 192.96 315.644 193.04 315.084 193.192C314.524 193.344 314.084 193.588 313.764 193.924C313.452 194.252 313.296 194.692 313.296 195.244C313.296 195.876 313.516 196.372 313.956 196.732C314.396 197.084 314.944 197.26 315.6 197.26ZM324.801 199V186.592H327.657V188.368C327.849 188.048 328.109 187.74 328.437 187.444C328.773 187.148 329.185 186.908 329.673 186.724C330.161 186.54 330.733 186.448 331.389 186.448C332.157 186.448 332.869 186.6 333.525 186.904C334.189 187.208 334.721 187.684 335.121 188.332C335.529 188.98 335.733 189.816 335.733 190.84V199H332.805V191.188C332.805 190.372 332.581 189.768 332.133 189.376C331.685 188.976 331.121 188.776 330.441 188.776C329.977 188.776 329.537 188.856 329.121 189.016C328.705 189.168 328.365 189.404 328.101 189.724C327.845 190.036 327.717 190.428 327.717 190.9V199H324.801ZM345.286 188.656H342.514L342.526 195.772C342.526 196.14 342.566 196.412 342.646 196.588C342.734 196.756 342.87 196.868 343.054 196.924C343.246 196.972 343.502 196.996 343.822 196.996H345.346V198.844C345.186 198.908 344.942 198.964 344.614 199.012C344.294 199.068 343.862 199.096 343.318 199.096C342.334 199.096 341.57 198.968 341.026 198.712C340.49 198.448 340.118 198.076 339.91 197.596C339.702 197.116 339.598 196.544 339.598 195.88V188.656H337.582V186.592H339.682L340.414 182.908H342.514V186.58H345.286V188.656ZM33.7537 227V214.592H36.5497V217.28C36.7497 216.664 37.0337 216.14 37.4017 215.708C37.7777 215.268 38.2177 214.932 38.7217 214.7C39.2257 214.468 39.7737 214.352 40.3657 214.352C40.5097 214.352 40.6497 214.36 40.7857 214.376C40.9217 214.392 41.0217 214.42 41.0857 214.46V217.256C40.9977 217.216 40.8817 217.188 40.7377 217.172C40.6017 217.156 40.4817 217.148 40.3777 217.148C39.7777 217.1 39.2457 217.124 38.7817 217.22C38.3257 217.316 37.9377 217.48 37.6177 217.712C37.3057 217.936 37.0697 218.224 36.9097 218.576C36.7497 218.92 36.6697 219.324 36.6697 219.788V227H33.7537ZM45.4675 221.468C45.4595 222.172 45.5715 222.796 45.8035 223.34C46.0355 223.884 46.3795 224.312 46.8355 224.624C47.2915 224.928 47.8555 225.08 48.5275 225.08C49.2155 225.08 49.8115 224.928 50.3155 224.624C50.8275 224.312 51.1675 223.84 51.3355 223.208H54.0115C53.8675 224.072 53.5235 224.804 52.9795 225.404C52.4355 226.004 51.7755 226.46 50.9995 226.772C50.2315 227.084 49.4315 227.24 48.5995 227.24C47.3995 227.24 46.3435 226.988 45.4315 226.484C44.5275 225.972 43.8195 225.244 43.3075 224.3C42.8035 223.356 42.5515 222.232 42.5515 220.928C42.5515 219.656 42.7835 218.528 43.2475 217.544C43.7115 216.552 44.3795 215.772 45.2515 215.204C46.1315 214.636 47.1875 214.352 48.4195 214.352C49.6435 214.352 50.6715 214.612 51.5035 215.132C52.3435 215.652 52.9755 216.38 53.3995 217.316C53.8315 218.244 54.0475 219.332 54.0475 220.58V221.468H45.4675ZM45.4675 219.656H51.2875C51.2875 219.056 51.1835 218.516 50.9755 218.036C50.7675 217.548 50.4475 217.164 50.0155 216.884C49.5915 216.596 49.0555 216.452 48.4075 216.452C47.7675 216.452 47.2275 216.608 46.7875 216.92C46.3475 217.232 46.0155 217.636 45.7915 218.132C45.5675 218.62 45.4595 219.128 45.4675 219.656ZM61.9173 214.352C62.8853 214.352 63.7373 214.544 64.4733 214.928C65.2093 215.312 65.7973 215.844 66.2373 216.524C66.6853 217.204 66.9533 217.976 67.0413 218.84H64.5453C64.4893 218.464 64.3533 218.108 64.1373 217.772C63.9213 217.428 63.6293 217.152 63.2613 216.944C62.8933 216.728 62.4493 216.62 61.9293 216.62C61.0013 216.62 60.2453 216.964 59.6613 217.652C59.0853 218.34 58.7973 219.396 58.7973 220.82C58.7973 222.132 59.0733 223.176 59.6253 223.952C60.1773 224.728 60.9653 225.116 61.9893 225.116C62.5013 225.116 62.9373 225.004 63.2973 224.78C63.6653 224.548 63.9533 224.264 64.1613 223.928C64.3773 223.584 64.5173 223.24 64.5813 222.896H67.0053C66.9333 223.736 66.6693 224.484 66.2133 225.14C65.7653 225.796 65.1733 226.312 64.4373 226.688C63.7093 227.056 62.8693 227.24 61.9173 227.24C60.7813 227.24 59.7693 226.992 58.8813 226.496C58.0013 225.992 57.3093 225.264 56.8053 224.312C56.3013 223.352 56.0493 222.196 56.0493 220.844C56.0493 219.556 56.2853 218.428 56.7573 217.46C57.2293 216.484 57.9053 215.724 58.7853 215.18C59.6653 214.628 60.7093 214.352 61.9173 214.352ZM74.8782 227.24C73.6942 227.24 72.6622 226.988 71.7822 226.484C70.9022 225.972 70.2182 225.24 69.7302 224.288C69.2502 223.336 69.0102 222.192 69.0102 220.856C69.0102 219.56 69.2422 218.424 69.7062 217.448C70.1782 216.472 70.8542 215.712 71.7342 215.168C72.6142 214.624 73.6662 214.352 74.8902 214.352C76.0742 214.352 77.1022 214.612 77.9742 215.132C78.8462 215.652 79.5182 216.396 79.9902 217.364C80.4702 218.332 80.7102 219.496 80.7102 220.856C80.7102 222.112 80.4822 223.22 80.0262 224.18C79.5782 225.132 78.9182 225.88 78.0462 226.424C77.1822 226.968 76.1262 227.24 74.8782 227.24ZM74.8902 225.02C75.5622 225.02 76.1142 224.836 76.5462 224.468C76.9862 224.1 77.3102 223.596 77.5182 222.956C77.7342 222.316 77.8422 221.588 77.8422 220.772C77.8422 220.012 77.7462 219.312 77.5542 218.672C77.3702 218.032 77.0582 217.52 76.6182 217.136C76.1862 216.744 75.6102 216.548 74.8902 216.548C74.2102 216.548 73.6462 216.728 73.1982 217.088C72.7582 217.44 72.4262 217.936 72.2022 218.576C71.9862 219.208 71.8782 219.94 71.8782 220.772C71.8782 221.524 71.9742 222.224 72.1662 222.872C72.3662 223.512 72.6862 224.032 73.1262 224.432C73.5662 224.824 74.1542 225.02 74.8902 225.02ZM83.3005 227V214.592H86.1445V216.368C86.5045 215.824 86.9925 215.352 87.6085 214.952C88.2325 214.552 89.0245 214.352 89.9845 214.352C90.4245 214.352 90.8685 214.428 91.3165 214.58C91.7725 214.732 92.1925 214.956 92.5765 215.252C92.9685 215.548 93.2805 215.916 93.5125 216.356C93.9045 215.772 94.4245 215.292 95.0725 214.916C95.7285 214.54 96.4645 214.352 97.2805 214.352C97.7285 214.352 98.1885 214.424 98.6605 214.568C99.1405 214.712 99.5805 214.952 99.9805 215.288C100.381 215.624 100.705 216.084 100.953 216.668C101.201 217.244 101.325 217.968 101.325 218.84V227H98.4085V219.188C98.4085 218.572 98.3005 218.088 98.0845 217.736C97.8685 217.384 97.5885 217.136 97.2445 216.992C96.9085 216.84 96.5485 216.764 96.1645 216.764C95.8205 216.764 95.4605 216.832 95.0845 216.968C94.7165 217.104 94.4005 217.328 94.1365 217.64C93.8805 217.952 93.7525 218.372 93.7525 218.9V227H90.8365V218.72C90.8365 218.288 90.7245 217.928 90.5005 217.64C90.2765 217.352 89.9925 217.136 89.6485 216.992C89.3125 216.84 88.9685 216.764 88.6165 216.764C88.2565 216.764 87.8885 216.84 87.5125 216.992C87.1445 217.144 86.8365 217.376 86.5885 217.688C86.3405 218 86.2165 218.404 86.2165 218.9V227H83.3005ZM104.465 227V214.592H107.309V216.368C107.669 215.824 108.157 215.352 108.773 214.952C109.397 214.552 110.189 214.352 111.149 214.352C111.589 214.352 112.033 214.428 112.481 214.58C112.937 214.732 113.357 214.956 113.741 215.252C114.133 215.548 114.445 215.916 114.677 216.356C115.069 215.772 115.589 215.292 116.237 214.916C116.893 214.54 117.629 214.352 118.445 214.352C118.893 214.352 119.353 214.424 119.825 214.568C120.305 214.712 120.745 214.952 121.145 215.288C121.545 215.624 121.869 216.084 122.117 216.668C122.365 217.244 122.489 217.968 122.489 218.84V227H119.573V219.188C119.573 218.572 119.465 218.088 119.249 217.736C119.033 217.384 118.753 217.136 118.409 216.992C118.073 216.84 117.713 216.764 117.329 216.764C116.985 216.764 116.625 216.832 116.249 216.968C115.881 217.104 115.565 217.328 115.301 217.64C115.045 217.952 114.917 218.372 114.917 218.9V227H112.001V218.72C112.001 218.288 111.889 217.928 111.665 217.64C111.441 217.352 111.157 217.136 110.813 216.992C110.477 216.84 110.133 216.764 109.781 216.764C109.421 216.764 109.053 216.84 108.677 216.992C108.309 217.144 108.001 217.376 107.753 217.688C107.505 218 107.381 218.404 107.381 218.9V227H104.465ZM127.921 221.468C127.913 222.172 128.025 222.796 128.257 223.34C128.489 223.884 128.833 224.312 129.289 224.624C129.745 224.928 130.309 225.08 130.981 225.08C131.669 225.08 132.265 224.928 132.769 224.624C133.281 224.312 133.621 223.84 133.789 223.208H136.465C136.321 224.072 135.977 224.804 135.433 225.404C134.889 226.004 134.229 226.46 133.453 226.772C132.685 227.084 131.885 227.24 131.053 227.24C129.853 227.24 128.797 226.988 127.885 226.484C126.981 225.972 126.273 225.244 125.761 224.3C125.257 223.356 125.005 222.232 125.005 220.928C125.005 219.656 125.237 218.528 125.701 217.544C126.165 216.552 126.833 215.772 127.705 215.204C128.585 214.636 129.641 214.352 130.873 214.352C132.097 214.352 133.125 214.612 133.957 215.132C134.797 215.652 135.429 216.38 135.853 217.316C136.285 218.244 136.501 219.332 136.501 220.58V221.468H127.921ZM127.921 219.656H133.741C133.741 219.056 133.637 218.516 133.429 218.036C133.221 217.548 132.901 217.164 132.469 216.884C132.045 216.596 131.509 216.452 130.861 216.452C130.221 216.452 129.681 216.608 129.241 216.92C128.801 217.232 128.469 217.636 128.245 218.132C128.021 218.62 127.913 219.128 127.921 219.656ZM139.222 227V214.592H142.078V216.368C142.27 216.048 142.53 215.74 142.858 215.444C143.194 215.148 143.606 214.908 144.094 214.724C144.582 214.54 145.154 214.448 145.81 214.448C146.578 214.448 147.29 214.6 147.946 214.904C148.61 215.208 149.142 215.684 149.542 216.332C149.95 216.98 150.154 217.816 150.154 218.84V227H147.226V219.188C147.226 218.372 147.002 217.768 146.554 217.376C146.106 216.976 145.542 216.776 144.862 216.776C144.398 216.776 143.958 216.856 143.542 217.016C143.126 217.168 142.786 217.404 142.522 217.724C142.266 218.036 142.138 218.428 142.138 218.9V227H139.222ZM157.833 227.24C156.193 227.24 154.905 226.676 153.969 225.548C153.033 224.42 152.565 222.816 152.565 220.736C152.565 219.44 152.753 218.316 153.129 217.364C153.513 216.404 154.073 215.664 154.809 215.144C155.553 214.616 156.473 214.352 157.569 214.352C158.081 214.352 158.545 214.416 158.961 214.544C159.385 214.664 159.761 214.824 160.089 215.024C160.417 215.224 160.693 215.444 160.917 215.684C161.149 215.924 161.329 216.164 161.457 216.404V209.168H164.385V227H162.225L161.901 224.456C161.805 224.752 161.661 225.064 161.469 225.392C161.285 225.712 161.033 226.012 160.713 226.292C160.401 226.572 160.009 226.8 159.537 226.976C159.065 227.152 158.497 227.24 157.833 227.24ZM158.433 225.092C159.481 225.092 160.245 224.752 160.725 224.072C161.213 223.384 161.457 222.248 161.457 220.664C161.449 219.76 161.337 219 161.121 218.384C160.913 217.768 160.589 217.304 160.149 216.992C159.717 216.68 159.157 216.524 158.469 216.524C157.589 216.524 156.865 216.848 156.297 217.496C155.729 218.144 155.445 219.2 155.445 220.664C155.445 222.12 155.705 223.224 156.225 223.976C156.745 224.72 157.481 225.092 158.433 225.092ZM171.215 227.24C170.423 227.24 169.711 227.096 169.079 226.808C168.455 226.512 167.963 226.092 167.603 225.548C167.251 224.996 167.075 224.328 167.075 223.544C167.075 222.176 167.567 221.144 168.551 220.448C169.543 219.752 171.123 219.388 173.291 219.356L175.139 219.308V218.468C175.139 217.812 174.943 217.3 174.551 216.932C174.167 216.556 173.567 216.372 172.751 216.38C172.151 216.388 171.599 216.532 171.095 216.812C170.599 217.084 170.271 217.544 170.111 218.192H167.627C167.675 217.344 167.919 216.636 168.359 216.068C168.807 215.492 169.419 215.064 170.195 214.784C170.971 214.496 171.867 214.352 172.883 214.352C174.067 214.352 175.031 214.508 175.775 214.82C176.519 215.132 177.067 215.584 177.419 216.176C177.771 216.76 177.947 217.468 177.947 218.3V227H175.487L175.259 224.768C174.811 225.704 174.243 226.352 173.555 226.712C172.875 227.064 172.095 227.24 171.215 227.24ZM172.163 225.26C172.523 225.26 172.879 225.196 173.231 225.068C173.583 224.932 173.903 224.752 174.191 224.528C174.479 224.296 174.707 224.04 174.875 223.76C175.051 223.48 175.139 223.188 175.139 222.884V220.928L173.615 220.952C172.863 220.96 172.207 221.04 171.647 221.192C171.087 221.344 170.647 221.588 170.327 221.924C170.015 222.252 169.859 222.692 169.859 223.244C169.859 223.876 170.079 224.372 170.519 224.732C170.959 225.084 171.507 225.26 172.163 225.26ZM187.786 216.656H185.014L185.026 223.772C185.026 224.14 185.066 224.412 185.146 224.588C185.234 224.756 185.37 224.868 185.554 224.924C185.746 224.972 186.002 224.996 186.322 224.996H187.846V226.844C187.686 226.908 187.442 226.964 187.114 227.012C186.794 227.068 186.362 227.096 185.818 227.096C184.834 227.096 184.07 226.968 183.526 226.712C182.99 226.448 182.618 226.076 182.41 225.596C182.202 225.116 182.098 224.544 182.098 223.88V216.656H180.082V214.592H182.182L182.914 210.908H185.014V214.58H187.786V216.656ZM193.656 214.592V227H190.848V214.592H193.656ZM193.692 209.66V212.42H190.8V209.66H193.692ZM202.331 227.24C201.147 227.24 200.115 226.988 199.235 226.484C198.355 225.972 197.671 225.24 197.183 224.288C196.703 223.336 196.463 222.192 196.463 220.856C196.463 219.56 196.695 218.424 197.159 217.448C197.631 216.472 198.307 215.712 199.187 215.168C200.067 214.624 201.119 214.352 202.343 214.352C203.527 214.352 204.555 214.612 205.427 215.132C206.299 215.652 206.971 216.396 207.443 217.364C207.923 218.332 208.163 219.496 208.163 220.856C208.163 222.112 207.935 223.22 207.479 224.18C207.031 225.132 206.371 225.88 205.499 226.424C204.635 226.968 203.579 227.24 202.331 227.24ZM202.343 225.02C203.015 225.02 203.567 224.836 203.999 224.468C204.439 224.1 204.763 223.596 204.971 222.956C205.187 222.316 205.295 221.588 205.295 220.772C205.295 220.012 205.199 219.312 205.007 218.672C204.823 218.032 204.511 217.52 204.071 217.136C203.639 216.744 203.063 216.548 202.343 216.548C201.663 216.548 201.099 216.728 200.651 217.088C200.211 217.44 199.879 217.936 199.655 218.576C199.439 219.208 199.331 219.94 199.331 220.772C199.331 221.524 199.427 222.224 199.619 222.872C199.819 223.512 200.139 224.032 200.579 224.432C201.019 224.824 201.607 225.02 202.343 225.02ZM210.754 227V214.592H213.61V216.368C213.802 216.048 214.062 215.74 214.39 215.444C214.726 215.148 215.138 214.908 215.626 214.724C216.114 214.54 216.686 214.448 217.342 214.448C218.11 214.448 218.822 214.6 219.478 214.904C220.142 215.208 220.674 215.684 221.074 216.332C221.482 216.98 221.686 217.816 221.686 218.84V227H218.758V219.188C218.758 218.372 218.534 217.768 218.086 217.376C217.638 216.976 217.074 216.776 216.394 216.776C215.93 216.776 215.49 216.856 215.074 217.016C214.658 217.168 214.318 217.404 214.054 217.724C213.798 218.036 213.67 218.428 213.67 218.9V227H210.754ZM229.32 227.24C228.456 227.24 227.636 227.104 226.86 226.832C226.092 226.552 225.444 226.116 224.916 225.524C224.396 224.932 224.068 224.168 223.932 223.232H226.5C226.612 223.688 226.808 224.06 227.088 224.348C227.376 224.636 227.716 224.848 228.108 224.984C228.5 225.112 228.9 225.176 229.308 225.176C230.052 225.176 230.652 225.048 231.108 224.792C231.572 224.536 231.804 224.14 231.804 223.604C231.804 223.212 231.676 222.9 231.42 222.668C231.164 222.436 230.756 222.26 230.196 222.14L227.832 221.6C226.784 221.368 225.94 220.984 225.3 220.448C224.668 219.912 224.348 219.156 224.34 218.18C224.332 217.444 224.516 216.788 224.892 216.212C225.268 215.636 225.828 215.184 226.572 214.856C227.316 214.52 228.236 214.352 229.332 214.352C230.78 214.352 231.94 214.676 232.812 215.324C233.684 215.964 234.132 216.88 234.156 218.072H231.672C231.584 217.536 231.332 217.12 230.916 216.824C230.5 216.52 229.96 216.368 229.296 216.368C228.608 216.368 228.044 216.5 227.604 216.764C227.164 217.028 226.944 217.432 226.944 217.976C226.944 218.352 227.112 218.648 227.448 218.864C227.784 219.08 228.288 219.264 228.96 219.416L231.192 219.956C231.832 220.116 232.356 220.332 232.764 220.604C233.172 220.876 233.492 221.176 233.724 221.504C233.956 221.824 234.116 222.156 234.204 222.5C234.3 222.836 234.348 223.148 234.348 223.436C234.348 224.236 234.14 224.92 233.724 225.488C233.316 226.048 232.736 226.48 231.984 226.784C231.232 227.088 230.344 227.24 229.32 227.24ZM236.689 227V223.64H239.989V227H236.689Z" fill="white"/>
<g clip-path="url(#clip0_433_13766)">
<path opacity="0.5" d="M422.077 428.303C421.627 444.855 415.822 459.179 404.662 471.275C393.501 483.371 380.131 489.419 364.551 489.419C360.206 489.419 355.712 488.782 351.068 487.509C352.267 492.443 354.776 496.541 358.596 499.804C362.416 503.066 366.798 504.698 371.741 504.698L393.314 527.616L411.74 547.908C418.631 555.229 422.077 564.023 422.077 574.288C422.077 584.554 418.631 593.307 411.74 600.549C404.849 607.791 396.572 611.411 386.909 611.411C377.247 611.411 368.97 607.83 362.079 600.668L342.978 581.092L321.406 558.174C321.406 551.808 319.309 546.396 315.114 541.94C310.92 537.484 305.826 535.255 299.834 535.255L298.261 533.584V533.346L242.757 609.501C241.259 610.934 234.78 611.65 223.32 611.65C211.86 611.65 205.455 610.934 204.107 609.501L193.995 598.997C192.647 597.406 191.973 590.522 191.973 578.347C191.973 566.171 192.647 559.288 193.995 557.696L288.374 480.108L239.836 428.303H213.545L191.973 382.466L206.354 367.188L249.499 390.106V417.799L299.385 471.036L314.215 458.861C314.215 458.702 314.29 458.622 314.44 458.622H314.665C309.571 449.073 307.025 438.967 307.025 428.303C307.025 411.751 312.68 397.507 323.99 385.57C335.301 373.633 348.821 367.506 364.551 367.188V376.259L346.124 394.881C339.233 402.202 335.788 410.995 335.788 421.261C335.788 431.526 339.233 440.319 346.124 447.64C353.016 454.962 361.33 458.622 371.067 458.622C380.805 458.622 389.119 454.962 396.01 447.64L413.313 428.303H422.077ZM220.736 565.813C216.691 565.813 213.283 567.285 210.511 570.23C207.74 573.174 206.354 576.755 206.354 580.973C206.354 585.19 207.74 588.811 210.511 591.835C213.283 594.859 216.691 596.371 220.736 596.371C224.78 596.371 228.189 594.859 230.96 591.835C233.731 588.811 235.117 585.19 235.117 580.973C235.117 576.755 233.731 573.174 230.96 570.23C228.189 567.285 224.78 565.813 220.736 565.813Z" fill="#F5F5F5"/>
</g>
<defs>
<linearGradient id="paint0_linear_433_13766" x1="413" y1="38.6023" x2="-6.79613" y2="44.8292" gradientUnits="userSpaceOnUse">
<stop stop-color="#49B7CF"/>
<stop offset="1" stop-color="#174E86"/>
</linearGradient>
<clipPath id="clip0_433_13766">
<rect width="230.104" height="144.425" fill="white" transform="translate(183.992 358.574)"/>
</clipPath>
</defs>
</svg>
