<svg width="360" height="141" viewBox="0 0 360 141" fill="none" xmlns="http://www.w3.org/2000/svg">
<g filter="url(#filter0_d_433_13766)">
<path d="M-1 0H360V141H-1V0Z" fill="url(#paint0_linear_433_13766)"/>
</g>
<path d="M15.092 27.12C14.684 27.12 14.288 27.07 13.904 26.97C13.52 26.866 13.172 26.712 12.86 26.508C12.548 26.304 12.288 26.052 12.08 25.752C11.876 25.448 11.748 25.096 11.696 24.696H12.86C12.932 25.024 13.074 25.3 13.286 25.524C13.502 25.748 13.764 25.916 14.072 26.028C14.384 26.14 14.722 26.196 15.086 26.196C15.494 26.196 15.858 26.14 16.178 26.028C16.502 25.912 16.756 25.748 16.94 25.536C17.128 25.324 17.222 25.07 17.222 24.774C17.222 24.514 17.162 24.288 17.042 24.096C16.926 23.904 16.756 23.744 16.532 23.616C16.308 23.488 16.036 23.388 15.716 23.316L14.012 22.92C13.372 22.78 12.87 22.53 12.506 22.17C12.146 21.81 11.962 21.334 11.954 20.742C11.954 20.242 12.086 19.802 12.35 19.422C12.618 19.042 12.984 18.746 13.448 18.534C13.916 18.322 14.45 18.216 15.05 18.216C15.742 18.216 16.324 18.334 16.796 18.57C17.268 18.806 17.624 19.116 17.864 19.5C18.104 19.884 18.226 20.294 18.23 20.73H17.084C17.048 20.338 16.932 20.028 16.736 19.8C16.544 19.568 16.302 19.404 16.01 19.308C15.718 19.208 15.4 19.158 15.056 19.158C14.808 19.158 14.568 19.19 14.336 19.254C14.108 19.314 13.902 19.406 13.718 19.53C13.538 19.654 13.394 19.808 13.286 19.992C13.178 20.176 13.124 20.39 13.124 20.634C13.124 20.946 13.23 21.2 13.442 21.396C13.658 21.592 14.048 21.76 14.612 21.9L16.262 22.296C16.694 22.388 17.046 22.524 17.318 22.704C17.594 22.884 17.806 23.088 17.954 23.316C18.106 23.544 18.21 23.782 18.266 24.03C18.326 24.278 18.356 24.522 18.356 24.762C18.356 25.198 18.226 25.596 17.966 25.956C17.706 26.312 17.332 26.596 16.844 26.808C16.36 27.016 15.776 27.12 15.092 27.12ZM22.9918 21.606H21.5938V25.464C21.5938 25.684 21.6158 25.846 21.6598 25.95C21.7078 26.05 21.7858 26.114 21.8938 26.142C22.0058 26.17 22.1578 26.184 22.3498 26.184H23.0278V26.928C22.9518 26.956 22.8358 26.98 22.6798 27C22.5278 27.02 22.3378 27.03 22.1098 27.03C21.6818 27.03 21.3498 26.972 21.1138 26.856C20.8778 26.74 20.7118 26.568 20.6158 26.34C20.5238 26.112 20.4778 25.832 20.4778 25.5V21.606H19.4698V20.796H20.5078L20.7778 18.99H21.5938V20.79H22.9918V21.606ZM25.786 20.796V27H24.712V20.796H25.786ZM25.81 18.33V19.482H24.676V18.33H25.81ZM29.3746 27.078C29.0386 27.078 28.7666 27.032 28.5586 26.94C28.3546 26.848 28.1966 26.724 28.0846 26.568C27.9766 26.412 27.9026 26.234 27.8626 26.034C27.8266 25.83 27.8086 25.62 27.8086 25.404V18.084H28.9006V25.296C28.9006 25.608 28.9606 25.842 29.0806 25.998C29.2046 26.154 29.3766 26.24 29.5966 26.256L29.9326 26.262V26.982C29.8406 27.01 29.7446 27.032 29.6446 27.048C29.5446 27.068 29.4546 27.078 29.3746 27.078ZM32.7731 27.078C32.4371 27.078 32.1651 27.032 31.9571 26.94C31.7531 26.848 31.5951 26.724 31.4831 26.568C31.3751 26.412 31.3011 26.234 31.2611 26.034C31.2251 25.83 31.2071 25.62 31.2071 25.404V18.084H32.2991V25.296C32.2991 25.608 32.3591 25.842 32.4791 25.998C32.6031 26.154 32.7751 26.24 32.9951 26.256L33.3311 26.262V26.982C33.2391 27.01 33.1431 27.032 33.0431 27.048C32.9431 27.068 32.8531 27.078 32.7731 27.078ZM37.5469 27V20.796H38.6209V21.696C38.7209 21.524 38.8589 21.362 39.0349 21.21C39.2149 21.058 39.4309 20.936 39.6829 20.844C39.9389 20.752 40.2329 20.706 40.5649 20.706C40.9569 20.706 41.3169 20.784 41.6449 20.94C41.9769 21.096 42.2409 21.34 42.4369 21.672C42.6369 22 42.7369 22.424 42.7369 22.944V27H41.6269V23.052C41.6269 22.568 41.4989 22.21 41.2429 21.978C40.9909 21.742 40.6629 21.624 40.2589 21.624C39.9789 21.624 39.7169 21.67 39.4729 21.762C39.2289 21.85 39.0309 21.986 38.8789 22.17C38.7269 22.35 38.6509 22.578 38.6509 22.854V27H37.5469ZM46.9387 27.12C46.3667 27.12 45.8667 26.998 45.4387 26.754C45.0107 26.506 44.6787 26.144 44.4427 25.668C44.2067 25.192 44.0887 24.61 44.0887 23.922C44.0887 23.274 44.1987 22.706 44.4187 22.218C44.6387 21.73 44.9607 21.352 45.3847 21.084C45.8127 20.812 46.3307 20.676 46.9387 20.676C47.5107 20.676 48.0067 20.802 48.4267 21.054C48.8507 21.302 49.1787 21.668 49.4107 22.152C49.6427 22.636 49.7587 23.226 49.7587 23.922C49.7587 24.554 49.6507 25.11 49.4347 25.59C49.2227 26.07 48.9067 26.446 48.4867 26.718C48.0707 26.986 47.5547 27.12 46.9387 27.12ZM46.9387 26.244C47.3107 26.244 47.6247 26.15 47.8807 25.962C48.1367 25.774 48.3307 25.504 48.4627 25.152C48.5947 24.8 48.6607 24.382 48.6607 23.898C48.6607 23.454 48.6027 23.056 48.4867 22.704C48.3707 22.348 48.1847 22.066 47.9287 21.858C47.6767 21.65 47.3467 21.546 46.9387 21.546C46.5627 21.546 46.2447 21.64 45.9847 21.828C45.7247 22.012 45.5267 22.28 45.3907 22.632C45.2587 22.984 45.1927 23.406 45.1927 23.898C45.1927 24.334 45.2527 24.73 45.3727 25.086C45.4927 25.442 45.6807 25.724 45.9367 25.932C46.1927 26.14 46.5267 26.244 46.9387 26.244ZM54.1637 21.606H52.7657V25.464C52.7657 25.684 52.7877 25.846 52.8317 25.95C52.8797 26.05 52.9577 26.114 53.0657 26.142C53.1777 26.17 53.3297 26.184 53.5217 26.184H54.1997V26.928C54.1237 26.956 54.0077 26.98 53.8517 27C53.6997 27.02 53.5097 27.03 53.2817 27.03C52.8537 27.03 52.5217 26.972 52.2857 26.856C52.0497 26.74 51.8837 26.568 51.7877 26.34C51.6957 26.112 51.6497 25.832 51.6497 25.5V21.606H50.6417V20.796H51.6797L51.9497 18.99H52.7657V20.79H54.1637V21.606ZM60.7255 27.12C60.2935 27.12 59.8915 27.054 59.5195 26.922C59.1515 26.786 58.8455 26.576 58.6015 26.292C58.3575 26.004 58.2035 25.638 58.1395 25.194H59.1475C59.2035 25.438 59.3035 25.642 59.4475 25.806C59.5955 25.966 59.7795 26.088 59.9995 26.172C60.2195 26.252 60.4595 26.292 60.7195 26.292C61.1355 26.292 61.4715 26.214 61.7275 26.058C61.9835 25.902 62.1115 25.662 62.1115 25.338C62.1115 25.11 62.0435 24.928 61.9075 24.792C61.7755 24.652 61.5695 24.55 61.2895 24.486L60.0055 24.168C59.5055 24.048 59.1055 23.86 58.8055 23.604C58.5055 23.348 58.3555 22.99 58.3555 22.53C58.3515 22.166 58.4375 21.846 58.6135 21.57C58.7895 21.294 59.0535 21.076 59.4055 20.916C59.7575 20.756 60.1955 20.676 60.7195 20.676C61.3915 20.676 61.9335 20.828 62.3455 21.132C62.7615 21.432 62.9775 21.874 62.9935 22.458H62.0155C61.9755 22.162 61.8415 21.928 61.6135 21.756C61.3895 21.58 61.0875 21.492 60.7075 21.492C60.3115 21.492 59.9895 21.572 59.7415 21.732C59.4935 21.888 59.3695 22.132 59.3695 22.464C59.3695 22.684 59.4575 22.858 59.6335 22.986C59.8095 23.11 60.0695 23.214 60.4135 23.298L61.6555 23.61C61.9435 23.686 62.1795 23.786 62.3635 23.91C62.5515 24.034 62.6995 24.172 62.8075 24.324C62.9195 24.476 62.9975 24.636 63.0415 24.804C63.0895 24.968 63.1135 25.126 63.1135 25.278C63.1135 25.658 63.0175 25.986 62.8255 26.262C62.6375 26.534 62.3655 26.746 62.0095 26.898C61.6575 27.046 61.2295 27.12 60.7255 27.12ZM66.9441 27.12C66.6201 27.116 66.3141 27.07 66.0261 26.982C65.7421 26.89 65.4901 26.756 65.2701 26.58C65.0501 26.404 64.8761 26.186 64.7481 25.926C64.6241 25.662 64.5621 25.356 64.5621 25.008V20.796H65.6721V24.894C65.6721 25.298 65.7961 25.626 66.0441 25.878C66.2961 26.13 66.6741 26.256 67.1781 26.256C67.6341 26.256 68.0001 26.138 68.2761 25.902C68.5561 25.662 68.6961 25.306 68.6961 24.834V20.796H69.8001V27H68.9181L68.8041 25.812C68.7281 26.124 68.5981 26.376 68.4141 26.568C68.2341 26.76 68.0161 26.902 67.7601 26.994C67.5081 27.082 67.2361 27.124 66.9441 27.12ZM71.6016 27V20.796H72.6576V21.99C72.7616 21.694 72.9076 21.45 73.0956 21.258C73.2836 21.062 73.4976 20.916 73.7376 20.82C73.9816 20.724 74.2336 20.676 74.4936 20.676C74.5856 20.676 74.6756 20.682 74.7636 20.694C74.8516 20.706 74.9196 20.726 74.9676 20.754V21.828C74.9076 21.8 74.8296 21.782 74.7336 21.774C74.6416 21.762 74.5636 21.756 74.4996 21.756C74.2516 21.74 74.0196 21.756 73.8036 21.804C73.5876 21.848 73.3976 21.926 73.2336 22.038C73.0696 22.15 72.9396 22.298 72.8436 22.482C72.7516 22.662 72.7056 22.882 72.7056 23.142V27H71.6016ZM76.917 24.156C76.917 24.548 76.981 24.904 77.109 25.224C77.241 25.54 77.439 25.792 77.703 25.98C77.971 26.168 78.305 26.262 78.705 26.262C79.101 26.262 79.441 26.17 79.725 25.986C80.013 25.802 80.197 25.536 80.277 25.188H81.327C81.251 25.608 81.083 25.962 80.823 26.25C80.563 26.538 80.249 26.756 79.881 26.904C79.513 27.048 79.129 27.12 78.729 27.12C78.149 27.12 77.639 26.994 77.199 26.742C76.759 26.49 76.415 26.128 76.167 25.656C75.919 25.184 75.795 24.618 75.795 23.958C75.795 23.306 75.907 22.734 76.131 22.242C76.355 21.75 76.679 21.366 77.103 21.09C77.531 20.814 78.045 20.676 78.645 20.676C79.229 20.676 79.723 20.802 80.127 21.054C80.531 21.306 80.837 21.662 81.045 22.122C81.257 22.578 81.363 23.12 81.363 23.748V24.156H76.917ZM76.923 23.406H80.295C80.295 23.05 80.235 22.73 80.115 22.446C79.995 22.158 79.811 21.932 79.563 21.768C79.319 21.6 79.011 21.516 78.639 21.516C78.251 21.516 77.929 21.61 77.673 21.798C77.421 21.982 77.231 22.22 77.103 22.512C76.979 22.8 76.919 23.098 76.923 23.406ZM85.4336 25.602V27H84.1196V25.602H85.4336ZM82.1276 19.938C82.3836 19.394 82.7616 18.97 83.2616 18.666C83.7656 18.358 84.3396 18.204 84.9836 18.204C85.5196 18.204 85.9876 18.294 86.3876 18.474C86.7876 18.65 87.0956 18.896 87.3116 19.212C87.5316 19.524 87.6416 19.882 87.6416 20.286C87.6416 20.694 87.5616 21.048 87.4016 21.348C87.2416 21.644 87.0416 21.916 86.8016 22.164C86.5656 22.412 86.3276 22.66 86.0876 22.908C85.8516 23.152 85.6516 23.424 85.4876 23.724C85.3276 24.02 85.2476 24.368 85.2476 24.768H84.2996C84.2996 24.312 84.3736 23.918 84.5216 23.586C84.6696 23.25 84.8536 22.95 85.0736 22.686C85.2936 22.418 85.5116 22.166 85.7276 21.93C85.9476 21.69 86.1316 21.444 86.2796 21.192C86.4316 20.936 86.5076 20.65 86.5076 20.334C86.5076 19.938 86.3656 19.626 86.0816 19.398C85.7976 19.166 85.4276 19.05 84.9716 19.05C84.7116 19.05 84.4556 19.102 84.2036 19.206C83.9556 19.31 83.7336 19.452 83.5376 19.632C83.3456 19.808 83.2056 20.008 83.1176 20.232L82.1276 19.938ZM12.76 36.54H15.22V48.9H21.75V51H12.75L12.76 36.54ZM25.6572 46.39C25.6505 46.9767 25.7439 47.4967 25.9372 47.95C26.1305 48.4033 26.4172 48.76 26.7972 49.02C27.1772 49.2733 27.6472 49.4 28.2072 49.4C28.7805 49.4 29.2772 49.2733 29.6972 49.02C30.1239 48.76 30.4072 48.3667 30.5472 47.84H32.7772C32.6572 48.56 32.3705 49.17 31.9172 49.67C31.4639 50.17 30.9139 50.55 30.2672 50.81C29.6272 51.07 28.9605 51.2 28.2672 51.2C27.2672 51.2 26.3872 50.99 25.6272 50.57C24.8739 50.1433 24.2839 49.5367 23.8572 48.75C23.4372 47.9633 23.2272 47.0267 23.2272 45.94C23.2272 44.88 23.4205 43.94 23.8072 43.12C24.1939 42.2933 24.7505 41.6433 25.4772 41.17C26.2105 40.6967 27.0905 40.46 28.1172 40.46C29.1372 40.46 29.9939 40.6767 30.6872 41.11C31.3872 41.5433 31.9139 42.15 32.2672 42.93C32.6272 43.7033 32.8072 44.61 32.8072 45.65V46.39H25.6572ZM25.6572 44.88H30.5072C30.5072 44.38 30.4205 43.93 30.2472 43.53C30.0739 43.1233 29.8072 42.8033 29.4472 42.57C29.0939 42.33 28.6472 42.21 28.1072 42.21C27.5739 42.21 27.1239 42.34 26.7572 42.6C26.3905 42.86 26.1139 43.1967 25.9272 43.61C25.7405 44.0167 25.6505 44.44 25.6572 44.88ZM40.5647 42.38H38.2547L38.2647 48.31C38.2647 48.6167 38.298 48.8433 38.3647 48.99C38.438 49.13 38.5514 49.2233 38.7047 49.27C38.8647 49.31 39.078 49.33 39.3447 49.33H40.6147V50.87C40.4814 50.9233 40.278 50.97 40.0047 51.01C39.738 51.0567 39.378 51.08 38.9247 51.08C38.1047 51.08 37.468 50.9733 37.0147 50.76C36.568 50.54 36.258 50.23 36.0847 49.83C35.9114 49.43 35.8247 48.9533 35.8247 48.4V42.38H34.1447V40.66H35.8947L36.5047 37.59H38.2547V40.65H40.5647V42.38ZM49.8705 40.66V51H47.5305V40.66H49.8705ZM49.9005 36.55V38.85H47.4905V36.55H49.9005ZM53.1797 36.54C53.2397 36.54 53.4164 36.54 53.7097 36.54C54.003 36.54 54.3497 36.54 54.7497 36.54C55.1564 36.54 55.5664 36.5433 55.9797 36.55C56.3997 36.55 56.763 36.5533 57.0697 36.56C58.8297 36.5933 60.2597 36.8967 61.3597 37.47C62.4664 38.0367 63.2764 38.8467 63.7897 39.9C64.3097 40.9467 64.5697 42.21 64.5697 43.69C64.5697 45.2367 64.293 46.5533 63.7397 47.64C63.193 48.7267 62.353 49.56 61.2197 50.14C60.093 50.7133 58.6597 51 56.9197 51H53.1797V36.54ZM55.6497 38.55V48.99H56.9597C57.953 48.99 58.8297 48.82 59.5897 48.48C60.3497 48.1333 60.943 47.5733 61.3697 46.8C61.803 46.0267 62.0197 44.9933 62.0197 43.7C62.0197 42.4467 61.8197 41.4433 61.4197 40.69C61.0197 39.9367 60.4464 39.3933 59.6997 39.06C58.953 38.72 58.0597 38.55 57.0197 38.55H55.6497ZM68.8798 46.39C68.8732 46.9767 68.9665 47.4967 69.1598 47.95C69.3532 48.4033 69.6398 48.76 70.0198 49.02C70.3998 49.2733 70.8698 49.4 71.4298 49.4C72.0032 49.4 72.4998 49.2733 72.9198 49.02C73.3465 48.76 73.6298 48.3667 73.7698 47.84H75.9998C75.8798 48.56 75.5932 49.17 75.1398 49.67C74.6865 50.17 74.1365 50.55 73.4898 50.81C72.8498 51.07 72.1832 51.2 71.4898 51.2C70.4898 51.2 69.6098 50.99 68.8498 50.57C68.0965 50.1433 67.5065 49.5367 67.0798 48.75C66.6598 47.9633 66.4498 47.0267 66.4498 45.94C66.4498 44.88 66.6432 43.94 67.0298 43.12C67.4165 42.2933 67.9732 41.6433 68.6998 41.17C69.4332 40.6967 70.3132 40.46 71.3398 40.46C72.3598 40.46 73.2165 40.6767 73.9098 41.11C74.6098 41.5433 75.1365 42.15 75.4898 42.93C75.8498 43.7033 76.0298 44.61 76.0298 45.65V46.39H68.8798ZM68.8798 44.88H73.7298C73.7298 44.38 73.6432 43.93 73.4698 43.53C73.2965 43.1233 73.0298 42.8033 72.6698 42.57C72.3165 42.33 71.8698 42.21 71.3298 42.21C70.7965 42.21 70.3465 42.34 69.9798 42.6C69.6132 42.86 69.3365 43.1967 69.1498 43.61C68.9632 44.0167 68.8732 44.44 68.8798 44.88ZM82.1489 51.2C81.4289 51.2 80.7456 51.0867 80.0989 50.86C79.4589 50.6267 78.9189 50.2633 78.4789 49.77C78.0456 49.2767 77.7722 48.64 77.6589 47.86H79.7989C79.8922 48.24 80.0556 48.55 80.2889 48.79C80.5289 49.03 80.8122 49.2067 81.1389 49.32C81.4656 49.4267 81.7989 49.48 82.1389 49.48C82.7589 49.48 83.2589 49.3733 83.6389 49.16C84.0256 48.9467 84.2189 48.6167 84.2189 48.17C84.2189 47.8433 84.1122 47.5833 83.8989 47.39C83.6856 47.1967 83.3456 47.05 82.8789 46.95L80.9089 46.5C80.0356 46.3067 79.3322 45.9867 78.7989 45.54C78.2722 45.0933 78.0056 44.4633 77.9989 43.65C77.9922 43.0367 78.1456 42.49 78.4589 42.01C78.7722 41.53 79.2389 41.1533 79.8589 40.88C80.4789 40.6 81.2456 40.46 82.1589 40.46C83.3656 40.46 84.3322 40.73 85.0589 41.27C85.7856 41.8033 86.1589 42.5667 86.1789 43.56H84.1089C84.0356 43.1133 83.8256 42.7667 83.4789 42.52C83.1322 42.2667 82.6822 42.14 82.1289 42.14C81.5556 42.14 81.0856 42.25 80.7189 42.47C80.3522 42.69 80.1689 43.0267 80.1689 43.48C80.1689 43.7933 80.3089 44.04 80.5889 44.22C80.8689 44.4 81.2889 44.5533 81.8489 44.68L83.7089 45.13C84.2422 45.2633 84.6789 45.4433 85.0189 45.67C85.3589 45.8967 85.6256 46.1467 85.8189 46.42C86.0122 46.6867 86.1456 46.9633 86.2189 47.25C86.2989 47.53 86.3389 47.79 86.3389 48.03C86.3389 48.6967 86.1656 49.2667 85.8189 49.74C85.4789 50.2067 84.9956 50.5667 84.3689 50.82C83.7422 51.0733 83.0022 51.2 82.1489 51.2ZM91.14 40.66V51H88.8V40.66H91.14ZM91.17 36.55V38.85H88.76V36.55H91.17ZM98.6106 54.42C96.8706 54.42 95.534 54.1867 94.6006 53.72C93.6673 53.2533 93.2006 52.6133 93.2006 51.8C93.2006 51.4333 93.2906 51.1267 93.4706 50.88C93.6506 50.6333 93.864 50.43 94.1106 50.27C94.3573 50.11 94.584 49.9867 94.7906 49.9C94.9973 49.8133 95.1306 49.75 95.1906 49.71C95.0773 49.6433 94.9273 49.5567 94.7406 49.45C94.554 49.3433 94.384 49.1967 94.2306 49.01C94.084 48.8233 94.0106 48.58 94.0106 48.28C94.0106 47.9333 94.174 47.6133 94.5006 47.32C94.834 47.0267 95.3306 46.8167 95.9906 46.69C95.344 46.3767 94.8473 45.9533 94.5006 45.42C94.154 44.8867 93.9806 44.3333 93.9806 43.76C93.9806 43.08 94.1773 42.4967 94.5706 42.01C94.9706 41.5233 95.524 41.15 96.2306 40.89C96.944 40.63 97.7673 40.5 98.7006 40.5C99.394 40.5 99.9673 40.5767 100.421 40.73C100.874 40.8833 101.297 41.09 101.691 41.35C101.824 41.2967 102.011 41.2233 102.251 41.13C102.497 41.03 102.764 40.9233 103.051 40.81C103.337 40.69 103.611 40.5767 103.871 40.47C104.137 40.3567 104.364 40.2633 104.551 40.19L104.531 42.2L102.741 42.52C102.827 42.7133 102.894 42.9233 102.941 43.15C102.994 43.3767 103.021 43.5767 103.021 43.75C103.021 44.35 102.851 44.9067 102.511 45.42C102.177 45.9267 101.674 46.3333 101.001 46.64C100.334 46.9467 99.5006 47.1 98.5006 47.1C98.4006 47.1 98.264 47.0967 98.0906 47.09C97.9173 47.0833 97.7773 47.0767 97.6706 47.07C97.1306 47.09 96.7606 47.1533 96.5606 47.26C96.3606 47.3667 96.2606 47.4833 96.2606 47.61C96.2606 47.79 96.4106 47.91 96.7106 47.97C97.0106 48.03 97.4906 48.0833 98.1506 48.13C98.384 48.1433 98.6906 48.16 99.0706 48.18C99.4506 48.2 99.874 48.2267 100.341 48.26C101.521 48.3333 102.414 48.63 103.021 49.15C103.627 49.6633 103.931 50.33 103.931 51.15C103.931 52.1033 103.491 52.8867 102.611 53.5C101.731 54.1133 100.397 54.42 98.6106 54.42ZM99.0206 52.99C99.894 52.99 100.541 52.87 100.961 52.63C101.381 52.39 101.591 52.0367 101.591 51.57C101.591 51.21 101.447 50.9167 101.161 50.69C100.874 50.4633 100.447 50.33 99.8806 50.29L97.2706 50.13C96.984 50.11 96.7106 50.1633 96.4506 50.29C96.1973 50.41 95.9906 50.58 95.8306 50.8C95.6706 51.0133 95.5906 51.25 95.5906 51.51C95.5906 51.9967 95.8706 52.3633 96.4306 52.61C96.9906 52.8633 97.854 52.99 99.0206 52.99ZM98.5806 45.67C99.214 45.67 99.7273 45.51 100.121 45.19C100.514 44.8633 100.711 44.4033 100.711 43.81C100.711 43.1967 100.514 42.72 100.121 42.38C99.7273 42.0333 99.214 41.86 98.5806 41.86C97.934 41.86 97.4106 42.0333 97.0106 42.38C96.6173 42.7267 96.4206 43.2033 96.4206 43.81C96.4206 44.3833 96.6106 44.8367 96.9906 45.17C97.3706 45.5033 97.9006 45.67 98.5806 45.67ZM106.501 51V40.66H108.881V42.14C109.041 41.8733 109.258 41.6167 109.531 41.37C109.811 41.1233 110.154 40.9233 110.561 40.77C110.968 40.6167 111.444 40.54 111.991 40.54C112.631 40.54 113.224 40.6667 113.771 40.92C114.324 41.1733 114.768 41.57 115.101 42.11C115.441 42.65 115.611 43.3467 115.611 44.2V51H113.171V44.49C113.171 43.81 112.984 43.3067 112.611 42.98C112.238 42.6467 111.768 42.48 111.201 42.48C110.814 42.48 110.448 42.5467 110.101 42.68C109.754 42.8067 109.471 43.0033 109.251 43.27C109.038 43.53 108.931 43.8567 108.931 44.25V51H106.501ZM126.524 51.2C125.804 51.2 125.121 51.0867 124.474 50.86C123.834 50.6267 123.294 50.2633 122.854 49.77C122.421 49.2767 122.147 48.64 122.034 47.86H124.174C124.267 48.24 124.431 48.55 124.664 48.79C124.904 49.03 125.187 49.2067 125.514 49.32C125.841 49.4267 126.174 49.48 126.514 49.48C127.134 49.48 127.634 49.3733 128.014 49.16C128.401 48.9467 128.594 48.6167 128.594 48.17C128.594 47.8433 128.487 47.5833 128.274 47.39C128.061 47.1967 127.721 47.05 127.254 46.95L125.284 46.5C124.411 46.3067 123.707 45.9867 123.174 45.54C122.647 45.0933 122.381 44.4633 122.374 43.65C122.367 43.0367 122.521 42.49 122.834 42.01C123.147 41.53 123.614 41.1533 124.234 40.88C124.854 40.6 125.621 40.46 126.534 40.46C127.741 40.46 128.707 40.73 129.434 41.27C130.161 41.8033 130.534 42.5667 130.554 43.56H128.484C128.411 43.1133 128.201 42.7667 127.854 42.52C127.507 42.2667 127.057 42.14 126.504 42.14C125.931 42.14 125.461 42.25 125.094 42.47C124.727 42.69 124.544 43.0267 124.544 43.48C124.544 43.7933 124.684 44.04 124.964 44.22C125.244 44.4 125.664 44.5533 126.224 44.68L128.084 45.13C128.617 45.2633 129.054 45.4433 129.394 45.67C129.734 45.8967 130.001 46.1467 130.194 46.42C130.387 46.6867 130.521 46.9633 130.594 47.25C130.674 47.53 130.714 47.79 130.714 48.03C130.714 48.6967 130.541 49.2667 130.194 49.74C129.854 50.2067 129.371 50.5667 128.744 50.82C128.117 51.0733 127.377 51.2 126.524 51.2ZM134.915 46.39C134.908 46.9767 135.002 47.4967 135.195 47.95C135.388 48.4033 135.675 48.76 136.055 49.02C136.435 49.2733 136.905 49.4 137.465 49.4C138.038 49.4 138.535 49.2733 138.955 49.02C139.382 48.76 139.665 48.3667 139.805 47.84H142.035C141.915 48.56 141.628 49.17 141.175 49.67C140.722 50.17 140.172 50.55 139.525 50.81C138.885 51.07 138.218 51.2 137.525 51.2C136.525 51.2 135.645 50.99 134.885 50.57C134.132 50.1433 133.542 49.5367 133.115 48.75C132.695 47.9633 132.485 47.0267 132.485 45.94C132.485 44.88 132.678 43.94 133.065 43.12C133.452 42.2933 134.008 41.6433 134.735 41.17C135.468 40.6967 136.348 40.46 137.375 40.46C138.395 40.46 139.252 40.6767 139.945 41.11C140.645 41.5433 141.172 42.15 141.525 42.93C141.885 43.7033 142.065 44.61 142.065 45.65V46.39H134.915ZM134.915 44.88H139.765C139.765 44.38 139.678 43.93 139.505 43.53C139.332 43.1233 139.065 42.8033 138.705 42.57C138.352 42.33 137.905 42.21 137.365 42.21C136.832 42.21 136.382 42.34 136.015 42.6C135.648 42.86 135.372 43.1967 135.185 43.61C134.998 44.0167 134.908 44.44 134.915 44.88ZM144.333 51V40.66H146.713V42.14C146.873 41.8733 147.09 41.6167 147.363 41.37C147.643 41.1233 147.986 40.9233 148.393 40.77C148.8 40.6167 149.276 40.54 149.823 40.54C150.463 40.54 151.056 40.6667 151.603 40.92C152.156 41.1733 152.6 41.57 152.933 42.11C153.273 42.65 153.443 43.3467 153.443 44.2V51H151.003V44.49C151.003 43.81 150.816 43.3067 150.443 42.98C150.07 42.6467 149.6 42.48 149.033 42.48C148.646 42.48 148.28 42.5467 147.933 42.68C147.586 42.8067 147.303 43.0033 147.083 43.27C146.87 43.53 146.763 43.8567 146.763 44.25V51H144.333ZM159.842 51.2C158.475 51.2 157.402 50.73 156.622 49.79C155.842 48.85 155.452 47.5133 155.452 45.78C155.452 44.7 155.609 43.7633 155.922 42.97C156.242 42.17 156.709 41.5533 157.322 41.12C157.942 40.68 158.709 40.46 159.622 40.46C160.049 40.46 160.435 40.5133 160.782 40.62C161.135 40.72 161.449 40.8533 161.722 41.02C161.995 41.1867 162.225 41.37 162.412 41.57C162.605 41.77 162.755 41.97 162.862 42.17V36.14H165.302V51H163.502L163.232 48.88C163.152 49.1267 163.032 49.3867 162.872 49.66C162.719 49.9267 162.509 50.1767 162.242 50.41C161.982 50.6433 161.655 50.8333 161.262 50.98C160.869 51.1267 160.395 51.2 159.842 51.2ZM160.342 49.41C161.215 49.41 161.852 49.1267 162.252 48.56C162.659 47.9867 162.862 47.04 162.862 45.72C162.855 44.9667 162.762 44.3333 162.582 43.82C162.409 43.3067 162.139 42.92 161.772 42.66C161.412 42.4 160.945 42.27 160.372 42.27C159.639 42.27 159.035 42.54 158.562 43.08C158.089 43.62 157.852 44.5 157.852 45.72C157.852 46.9333 158.069 47.8533 158.502 48.48C158.935 49.1 159.549 49.41 160.342 49.41ZM173.72 54.3C173.06 54.3 172.597 54.2467 172.33 54.14C172.07 54.04 171.94 53.99 171.94 53.99V52.43L172.98 52.46C173.4 52.48 173.74 52.4567 174 52.39C174.267 52.3233 174.473 52.23 174.62 52.11C174.767 51.9967 174.873 51.8733 174.94 51.74C175.013 51.6133 175.07 51.5033 175.11 51.41L175.38 50.65L171.35 40.66H173.78L176.52 47.97L179.26 40.66H181.64L177.38 51.38C177.06 52.16 176.713 52.76 176.34 53.18C175.973 53.6067 175.57 53.9 175.13 54.06C174.697 54.22 174.227 54.3 173.72 54.3ZM187.275 51.2C186.289 51.2 185.429 50.99 184.695 50.57C183.962 50.1433 183.392 49.5333 182.985 48.74C182.585 47.9467 182.385 46.9933 182.385 45.88C182.385 44.8 182.579 43.8533 182.965 43.04C183.359 42.2267 183.922 41.5933 184.655 41.14C185.389 40.6867 186.265 40.46 187.285 40.46C188.272 40.46 189.129 40.6767 189.855 41.11C190.582 41.5433 191.142 42.1633 191.535 42.97C191.935 43.7767 192.135 44.7467 192.135 45.88C192.135 46.9267 191.945 47.85 191.565 48.65C191.192 49.4433 190.642 50.0667 189.915 50.52C189.195 50.9733 188.315 51.2 187.275 51.2ZM187.285 49.35C187.845 49.35 188.305 49.1967 188.665 48.89C189.032 48.5833 189.302 48.1633 189.475 47.63C189.655 47.0967 189.745 46.49 189.745 45.81C189.745 45.1767 189.665 44.5933 189.505 44.06C189.352 43.5267 189.092 43.1 188.725 42.78C188.365 42.4533 187.885 42.29 187.285 42.29C186.719 42.29 186.249 42.44 185.875 42.74C185.509 43.0333 185.232 43.4467 185.045 43.98C184.865 44.5067 184.775 45.1167 184.775 45.81C184.775 46.4367 184.855 47.02 185.015 47.56C185.182 48.0933 185.449 48.5267 185.815 48.86C186.182 49.1867 186.672 49.35 187.285 49.35ZM197.957 51.2C197.451 51.2 196.961 51.1267 196.487 50.98C196.021 50.8267 195.601 50.6067 195.227 50.32C194.854 50.0267 194.557 49.6667 194.337 49.24C194.117 48.8133 194.007 48.3167 194.007 47.75V40.66H196.447V47.47C196.447 48.03 196.624 48.49 196.977 48.85C197.337 49.21 197.877 49.39 198.597 49.39C199.251 49.39 199.774 49.22 200.167 48.88C200.561 48.5333 200.757 48.0367 200.757 47.39V40.66H203.177V51H201.307L201.037 48.98C200.911 49.5467 200.687 49.9933 200.367 50.32C200.054 50.64 199.684 50.8667 199.257 51C198.837 51.1333 198.404 51.2 197.957 51.2ZM212.703 40.66V51H210.363V40.66H212.703ZM212.733 36.55V38.85H210.323V36.55H212.733ZM215.739 51V40.66H218.119V42.14C218.279 41.8733 218.496 41.6167 218.769 41.37C219.049 41.1233 219.393 40.9233 219.799 40.77C220.206 40.6167 220.683 40.54 221.229 40.54C221.869 40.54 222.463 40.6667 223.009 40.92C223.563 41.1733 224.006 41.57 224.339 42.11C224.679 42.65 224.849 43.3467 224.849 44.2V51H222.409V44.49C222.409 43.81 222.223 43.3067 221.849 42.98C221.476 42.6467 221.006 42.48 220.439 42.48C220.053 42.48 219.686 42.5467 219.339 42.68C218.993 42.8067 218.709 43.0033 218.489 43.27C218.276 43.53 218.169 43.8567 218.169 44.25V51H215.739ZM231.211 51.2C230.491 51.2 229.808 51.0867 229.161 50.86C228.521 50.6267 227.981 50.2633 227.541 49.77C227.108 49.2767 226.835 48.64 226.721 47.86H228.861C228.955 48.24 229.118 48.55 229.351 48.79C229.591 49.03 229.875 49.2067 230.201 49.32C230.528 49.4267 230.861 49.48 231.201 49.48C231.821 49.48 232.321 49.3733 232.701 49.16C233.088 48.9467 233.281 48.6167 233.281 48.17C233.281 47.8433 233.175 47.5833 232.961 47.39C232.748 47.1967 232.408 47.05 231.941 46.95L229.971 46.5C229.098 46.3067 228.395 45.9867 227.861 45.54C227.335 45.0933 227.068 44.4633 227.061 43.65C227.055 43.0367 227.208 42.49 227.521 42.01C227.835 41.53 228.301 41.1533 228.921 40.88C229.541 40.6 230.308 40.46 231.221 40.46C232.428 40.46 233.395 40.73 234.121 41.27C234.848 41.8033 235.221 42.5667 235.241 43.56H233.171C233.098 43.1133 232.888 42.7667 232.541 42.52C232.195 42.2667 231.745 42.14 231.191 42.14C230.618 42.14 230.148 42.25 229.781 42.47C229.415 42.69 229.231 43.0267 229.231 43.48C229.231 43.7933 229.371 44.04 229.651 44.22C229.931 44.4 230.351 44.5533 230.911 44.68L232.771 45.13C233.305 45.2633 233.741 45.4433 234.081 45.67C234.421 45.8967 234.688 46.1467 234.881 46.42C235.075 46.6867 235.208 46.9633 235.281 47.25C235.361 47.53 235.401 47.79 235.401 48.03C235.401 48.6967 235.228 49.2667 234.881 49.74C234.541 50.2067 234.058 50.5667 233.431 50.82C232.805 51.0733 232.065 51.2 231.211 51.2ZM243.338 42.38H241.028L241.038 48.31C241.038 48.6167 241.071 48.8433 241.138 48.99C241.211 49.13 241.325 49.2233 241.478 49.27C241.638 49.31 241.851 49.33 242.118 49.33H243.388V50.87C243.255 50.9233 243.051 50.97 242.778 51.01C242.511 51.0567 242.151 51.08 241.698 51.08C240.878 51.08 240.241 50.9733 239.788 50.76C239.341 50.54 239.031 50.23 238.858 49.83C238.685 49.43 238.598 48.9533 238.598 48.4V42.38H236.918V40.66H238.668L239.278 37.59H241.028V40.65H243.338V42.38ZM248.611 51.2C247.951 51.2 247.357 51.08 246.831 50.84C246.311 50.5933 245.901 50.2433 245.601 49.79C245.307 49.33 245.161 48.7733 245.161 48.12C245.161 46.98 245.571 46.12 246.391 45.54C247.217 44.96 248.534 44.6567 250.341 44.63L251.881 44.59V43.89C251.881 43.3433 251.717 42.9167 251.391 42.61C251.071 42.2967 250.571 42.1433 249.891 42.15C249.391 42.1567 248.931 42.2767 248.511 42.51C248.097 42.7367 247.824 43.12 247.691 43.66H245.621C245.661 42.9533 245.864 42.3633 246.231 41.89C246.604 41.41 247.114 41.0533 247.761 40.82C248.407 40.58 249.154 40.46 250.001 40.46C250.987 40.46 251.791 40.59 252.411 40.85C253.031 41.11 253.487 41.4867 253.781 41.98C254.074 42.4667 254.221 43.0567 254.221 43.75V51H252.171L251.981 49.14C251.607 49.92 251.134 50.46 250.561 50.76C249.994 51.0533 249.344 51.2 248.611 51.2ZM249.401 49.55C249.701 49.55 249.997 49.4967 250.291 49.39C250.584 49.2767 250.851 49.1267 251.091 48.94C251.331 48.7467 251.521 48.5333 251.661 48.3C251.807 48.0667 251.881 47.8233 251.881 47.57V45.94L250.611 45.96C249.984 45.9667 249.437 46.0333 248.971 46.16C248.504 46.2867 248.137 46.49 247.871 46.77C247.611 47.0433 247.481 47.41 247.481 47.87C247.481 48.3967 247.664 48.81 248.031 49.11C248.397 49.4033 248.854 49.55 249.401 49.55ZM257.068 51V40.66H259.448V42.14C259.608 41.8733 259.824 41.6167 260.098 41.37C260.378 41.1233 260.721 40.9233 261.128 40.77C261.534 40.6167 262.011 40.54 262.558 40.54C263.198 40.54 263.791 40.6667 264.338 40.92C264.891 41.1733 265.334 41.57 265.668 42.11C266.008 42.65 266.178 43.3467 266.178 44.2V51H263.738V44.49C263.738 43.81 263.551 43.3067 263.178 42.98C262.804 42.6467 262.334 42.48 261.768 42.48C261.381 42.48 261.014 42.5467 260.668 42.68C260.321 42.8067 260.038 43.0033 259.818 43.27C259.604 43.53 259.498 43.8567 259.498 44.25V51H257.068ZM274.139 42.38H271.829L271.839 48.31C271.839 48.6167 271.872 48.8433 271.939 48.99C272.012 49.13 272.126 49.2233 272.279 49.27C272.439 49.31 272.652 49.33 272.919 49.33H274.189V50.87C274.056 50.9233 273.852 50.97 273.579 51.01C273.312 51.0567 272.952 51.08 272.499 51.08C271.679 51.08 271.042 50.9733 270.589 50.76C270.142 50.54 269.832 50.23 269.659 49.83C269.486 49.43 269.399 48.9533 269.399 48.4V42.38H267.719V40.66H269.469L270.079 37.59H271.829V40.65H274.139V42.38ZM12.38 75V64.66H14.71V66.9C14.8767 66.3867 15.1133 65.95 15.42 65.59C15.7333 65.2233 16.1 64.9433 16.52 64.75C16.94 64.5567 17.3967 64.46 17.89 64.46C18.01 64.46 18.1267 64.4667 18.24 64.48C18.3533 64.4933 18.4367 64.5167 18.49 64.55V66.88C18.4167 66.8467 18.32 66.8233 18.2 66.81C18.0867 66.7967 17.9867 66.79 17.9 66.79C17.4 66.75 16.9567 66.77 16.57 66.85C16.19 66.93 15.8667 67.0667 15.6 67.26C15.34 67.4467 15.1433 67.6867 15.01 67.98C14.8767 68.2667 14.81 68.6033 14.81 68.99V75H12.38ZM22.1416 70.39C22.1349 70.9767 22.2282 71.4967 22.4216 71.95C22.6149 72.4033 22.9016 72.76 23.2816 73.02C23.6616 73.2733 24.1316 73.4 24.6916 73.4C25.2649 73.4 25.7616 73.2733 26.1816 73.02C26.6082 72.76 26.8916 72.3667 27.0316 71.84H29.2616C29.1416 72.56 28.8549 73.17 28.4016 73.67C27.9482 74.17 27.3982 74.55 26.7516 74.81C26.1116 75.07 25.4449 75.2 24.7516 75.2C23.7516 75.2 22.8716 74.99 22.1116 74.57C21.3582 74.1433 20.7682 73.5367 20.3416 72.75C19.9216 71.9633 19.7116 71.0267 19.7116 69.94C19.7116 68.88 19.9049 67.94 20.2916 67.12C20.6782 66.2933 21.2349 65.6433 21.9616 65.17C22.6949 64.6967 23.5749 64.46 24.6016 64.46C25.6216 64.46 26.4782 64.6767 27.1716 65.11C27.8716 65.5433 28.3982 66.15 28.7516 66.93C29.1116 67.7033 29.2916 68.61 29.2916 69.65V70.39H22.1416ZM22.1416 68.88H26.9916C26.9916 68.38 26.9049 67.93 26.7316 67.53C26.5582 67.1233 26.2916 66.8033 25.9316 66.57C25.5782 66.33 25.1316 66.21 24.5916 66.21C24.0582 66.21 23.6082 66.34 23.2416 66.6C22.8749 66.86 22.5982 67.1967 22.4116 67.61C22.2249 68.0167 22.1349 68.44 22.1416 68.88ZM35.8497 64.46C36.6564 64.46 37.3664 64.62 37.9797 64.94C38.593 65.26 39.083 65.7033 39.4497 66.27C39.823 66.8367 40.0464 67.48 40.1197 68.2H38.0397C37.993 67.8867 37.8797 67.59 37.6997 67.31C37.5197 67.0233 37.2764 66.7933 36.9697 66.62C36.663 66.44 36.293 66.35 35.8597 66.35C35.0864 66.35 34.4564 66.6367 33.9697 67.21C33.4897 67.7833 33.2497 68.6633 33.2497 69.85C33.2497 70.9433 33.4797 71.8133 33.9397 72.46C34.3997 73.1067 35.0564 73.43 35.9097 73.43C36.3364 73.43 36.6997 73.3367 36.9997 73.15C37.3064 72.9567 37.5464 72.72 37.7197 72.44C37.8997 72.1533 38.0164 71.8667 38.0697 71.58H40.0897C40.0297 72.28 39.8097 72.9033 39.4297 73.45C39.0564 73.9967 38.563 74.4267 37.9497 74.74C37.343 75.0467 36.643 75.2 35.8497 75.2C34.903 75.2 34.0597 74.9933 33.3197 74.58C32.5864 74.16 32.0097 73.5533 31.5897 72.76C31.1697 71.96 30.9597 70.9967 30.9597 69.87C30.9597 68.7967 31.1564 67.8567 31.5497 67.05C31.943 66.2367 32.5064 65.6033 33.2397 65.15C33.973 64.69 34.843 64.46 35.8497 64.46ZM46.6505 75.2C45.6638 75.2 44.8038 74.99 44.0705 74.57C43.3371 74.1433 42.7671 73.5333 42.3605 72.74C41.9605 71.9467 41.7605 70.9933 41.7605 69.88C41.7605 68.8 41.9538 67.8533 42.3405 67.04C42.7338 66.2267 43.2971 65.5933 44.0305 65.14C44.7638 64.6867 45.6405 64.46 46.6605 64.46C47.6471 64.46 48.5038 64.6767 49.2305 65.11C49.9571 65.5433 50.5171 66.1633 50.9105 66.97C51.3105 67.7767 51.5105 68.7467 51.5105 69.88C51.5105 70.9267 51.3205 71.85 50.9405 72.65C50.5671 73.4433 50.0171 74.0667 49.2905 74.52C48.5705 74.9733 47.6905 75.2 46.6505 75.2ZM46.6605 73.35C47.2205 73.35 47.6805 73.1967 48.0405 72.89C48.4071 72.5833 48.6771 72.1633 48.8505 71.63C49.0305 71.0967 49.1205 70.49 49.1205 69.81C49.1205 69.1767 49.0405 68.5933 48.8805 68.06C48.7271 67.5267 48.4671 67.1 48.1005 66.78C47.7405 66.4533 47.2605 66.29 46.6605 66.29C46.0938 66.29 45.6238 66.44 45.2505 66.74C44.8838 67.0333 44.6071 67.4467 44.4205 67.98C44.2405 68.5067 44.1505 69.1167 44.1505 69.81C44.1505 70.4367 44.2305 71.02 44.3905 71.56C44.5571 72.0933 44.8238 72.5267 45.1905 72.86C45.5571 73.1867 46.0471 73.35 46.6605 73.35ZM53.6691 75V64.66H56.0391V66.14C56.3391 65.6867 56.7457 65.2933 57.2591 64.96C57.7791 64.6267 58.4391 64.46 59.2391 64.46C59.6057 64.46 59.9757 64.5233 60.3491 64.65C60.7291 64.7767 61.0791 64.9633 61.3991 65.21C61.7257 65.4567 61.9857 65.7633 62.1791 66.13C62.5057 65.6433 62.9391 65.2433 63.4791 64.93C64.0257 64.6167 64.6391 64.46 65.3191 64.46C65.6924 64.46 66.0757 64.52 66.4691 64.64C66.8691 64.76 67.2357 64.96 67.5691 65.24C67.9024 65.52 68.1724 65.9033 68.3791 66.39C68.5857 66.87 68.6891 67.4733 68.6891 68.2V75H66.2591V68.49C66.2591 67.9767 66.1691 67.5733 65.9891 67.28C65.8091 66.9867 65.5757 66.78 65.2891 66.66C65.0091 66.5333 64.7091 66.47 64.3891 66.47C64.1024 66.47 63.8024 66.5267 63.4891 66.64C63.1824 66.7533 62.9191 66.94 62.6991 67.2C62.4857 67.46 62.3791 67.81 62.3791 68.25V75H59.9491V68.1C59.9491 67.74 59.8557 67.44 59.6691 67.2C59.4824 66.96 59.2457 66.78 58.9591 66.66C58.6791 66.5333 58.3924 66.47 58.0991 66.47C57.7991 66.47 57.4924 66.5333 57.1791 66.66C56.8724 66.7867 56.6157 66.98 56.4091 67.24C56.2024 67.5 56.0991 67.8367 56.0991 68.25V75H53.6691ZM71.3058 75V64.66H73.6758V66.14C73.9758 65.6867 74.3824 65.2933 74.8958 64.96C75.4158 64.6267 76.0758 64.46 76.8758 64.46C77.2424 64.46 77.6124 64.5233 77.9858 64.65C78.3658 64.7767 78.7158 64.9633 79.0358 65.21C79.3624 65.4567 79.6224 65.7633 79.8158 66.13C80.1424 65.6433 80.5758 65.2433 81.1158 64.93C81.6624 64.6167 82.2758 64.46 82.9558 64.46C83.3291 64.46 83.7124 64.52 84.1058 64.64C84.5058 64.76 84.8724 64.96 85.2058 65.24C85.5391 65.52 85.8091 65.9033 86.0158 66.39C86.2224 66.87 86.3258 67.4733 86.3258 68.2V75H83.8958V68.49C83.8958 67.9767 83.8058 67.5733 83.6258 67.28C83.4458 66.9867 83.2124 66.78 82.9258 66.66C82.6458 66.5333 82.3458 66.47 82.0258 66.47C81.7391 66.47 81.4391 66.5267 81.1258 66.64C80.8191 66.7533 80.5558 66.94 80.3358 67.2C80.1224 67.46 80.0158 67.81 80.0158 68.25V75H77.5858V68.1C77.5858 67.74 77.4924 67.44 77.3058 67.2C77.1191 66.96 76.8824 66.78 76.5958 66.66C76.3158 66.5333 76.0291 66.47 75.7358 66.47C75.4358 66.47 75.1291 66.5333 74.8158 66.66C74.5091 66.7867 74.2524 66.98 74.0458 67.24C73.8391 67.5 73.7358 67.8367 73.7358 68.25V75H71.3058ZM90.8525 70.39C90.8458 70.9767 90.9392 71.4967 91.1325 71.95C91.3258 72.4033 91.6125 72.76 91.9925 73.02C92.3725 73.2733 92.8425 73.4 93.4025 73.4C93.9758 73.4 94.4725 73.2733 94.8925 73.02C95.3192 72.76 95.6025 72.3667 95.7425 71.84H97.9725C97.8525 72.56 97.5658 73.17 97.1125 73.67C96.6592 74.17 96.1092 74.55 95.4625 74.81C94.8225 75.07 94.1558 75.2 93.4625 75.2C92.4625 75.2 91.5825 74.99 90.8225 74.57C90.0692 74.1433 89.4792 73.5367 89.0525 72.75C88.6325 71.9633 88.4225 71.0267 88.4225 69.94C88.4225 68.88 88.6158 67.94 89.0025 67.12C89.3892 66.2933 89.9458 65.6433 90.6725 65.17C91.4058 64.6967 92.2858 64.46 93.3125 64.46C94.3325 64.46 95.1892 64.6767 95.8825 65.11C96.5825 65.5433 97.1092 66.15 97.4625 66.93C97.8225 67.7033 98.0025 68.61 98.0025 69.65V70.39H90.8525ZM90.8525 68.88H95.7025C95.7025 68.38 95.6158 67.93 95.4425 67.53C95.2692 67.1233 95.0025 66.8033 94.6425 66.57C94.2892 66.33 93.8425 66.21 93.3025 66.21C92.7692 66.21 92.3192 66.34 91.9525 66.6C91.5858 66.86 91.3092 67.1967 91.1225 67.61C90.9358 68.0167 90.8458 68.44 90.8525 68.88ZM100.271 75V64.66H102.651V66.14C102.811 65.8733 103.027 65.6167 103.301 65.37C103.581 65.1233 103.924 64.9233 104.331 64.77C104.737 64.6167 105.214 64.54 105.761 64.54C106.401 64.54 106.994 64.6667 107.541 64.92C108.094 65.1733 108.537 65.57 108.871 66.11C109.211 66.65 109.381 67.3467 109.381 68.2V75H106.941V68.49C106.941 67.81 106.754 67.3067 106.381 66.98C106.007 66.6467 105.537 66.48 104.971 66.48C104.584 66.48 104.217 66.5467 103.871 66.68C103.524 66.8067 103.241 67.0033 103.021 67.27C102.807 67.53 102.701 67.8567 102.701 68.25V75H100.271ZM115.779 75.2C114.413 75.2 113.339 74.73 112.559 73.79C111.779 72.85 111.389 71.5133 111.389 69.78C111.389 68.7 111.546 67.7633 111.859 66.97C112.179 66.17 112.646 65.5533 113.259 65.12C113.879 64.68 114.646 64.46 115.559 64.46C115.986 64.46 116.373 64.5133 116.719 64.62C117.073 64.72 117.386 64.8533 117.659 65.02C117.933 65.1867 118.163 65.37 118.349 65.57C118.543 65.77 118.693 65.97 118.799 66.17V60.14H121.239V75H119.439L119.169 72.88C119.089 73.1267 118.969 73.3867 118.809 73.66C118.656 73.9267 118.446 74.1767 118.179 74.41C117.919 74.6433 117.593 74.8333 117.199 74.98C116.806 75.1267 116.333 75.2 115.779 75.2ZM116.279 73.41C117.153 73.41 117.789 73.1267 118.189 72.56C118.596 71.9867 118.799 71.04 118.799 69.72C118.793 68.9667 118.699 68.3333 118.519 67.82C118.346 67.3067 118.076 66.92 117.709 66.66C117.349 66.4 116.883 66.27 116.309 66.27C115.576 66.27 114.973 66.54 114.499 67.08C114.026 67.62 113.789 68.5 113.789 69.72C113.789 70.9333 114.006 71.8533 114.439 72.48C114.873 73.1 115.486 73.41 116.279 73.41ZM126.931 75.2C126.271 75.2 125.678 75.08 125.151 74.84C124.631 74.5933 124.221 74.2433 123.921 73.79C123.628 73.33 123.481 72.7733 123.481 72.12C123.481 70.98 123.891 70.12 124.711 69.54C125.538 68.96 126.854 68.6567 128.661 68.63L130.201 68.59V67.89C130.201 67.3433 130.038 66.9167 129.711 66.61C129.391 66.2967 128.891 66.1433 128.211 66.15C127.711 66.1567 127.251 66.2767 126.831 66.51C126.418 66.7367 126.144 67.12 126.011 67.66H123.941C123.981 66.9533 124.184 66.3633 124.551 65.89C124.924 65.41 125.434 65.0533 126.081 64.82C126.728 64.58 127.474 64.46 128.321 64.46C129.308 64.46 130.111 64.59 130.731 64.85C131.351 65.11 131.808 65.4867 132.101 65.98C132.394 66.4667 132.541 67.0567 132.541 67.75V75H130.491L130.301 73.14C129.928 73.92 129.454 74.46 128.881 74.76C128.314 75.0533 127.664 75.2 126.931 75.2ZM127.721 73.55C128.021 73.55 128.318 73.4967 128.611 73.39C128.904 73.2767 129.171 73.1267 129.411 72.94C129.651 72.7467 129.841 72.5333 129.981 72.3C130.128 72.0667 130.201 71.8233 130.201 71.57V69.94L128.931 69.96C128.304 69.9667 127.758 70.0333 127.291 70.16C126.824 70.2867 126.458 70.49 126.191 70.77C125.931 71.0433 125.801 71.41 125.801 71.87C125.801 72.3967 125.984 72.81 126.351 73.11C126.718 73.4033 127.174 73.55 127.721 73.55ZM140.74 66.38H138.43L138.44 72.31C138.44 72.6167 138.474 72.8433 138.54 72.99C138.614 73.13 138.727 73.2233 138.88 73.27C139.04 73.31 139.254 73.33 139.52 73.33H140.79V74.87C140.657 74.9233 140.454 74.97 140.18 75.01C139.914 75.0567 139.554 75.08 139.1 75.08C138.28 75.08 137.644 74.9733 137.19 74.76C136.744 74.54 136.434 74.23 136.26 73.83C136.087 73.43 136 72.9533 136 72.4V66.38H134.32V64.66H136.07L136.68 61.59H138.43V64.65H140.74V66.38ZM145.632 64.66V75H143.292V64.66H145.632ZM145.662 60.55V62.85H143.252V60.55H145.662ZM152.861 75.2C151.875 75.2 151.015 74.99 150.281 74.57C149.548 74.1433 148.978 73.5333 148.571 72.74C148.171 71.9467 147.971 70.9933 147.971 69.88C147.971 68.8 148.165 67.8533 148.551 67.04C148.945 66.2267 149.508 65.5933 150.241 65.14C150.975 64.6867 151.851 64.46 152.871 64.46C153.858 64.46 154.715 64.6767 155.441 65.11C156.168 65.5433 156.728 66.1633 157.121 66.97C157.521 67.7767 157.721 68.7467 157.721 69.88C157.721 70.9267 157.531 71.85 157.151 72.65C156.778 73.4433 156.228 74.0667 155.501 74.52C154.781 74.9733 153.901 75.2 152.861 75.2ZM152.871 73.35C153.431 73.35 153.891 73.1967 154.251 72.89C154.618 72.5833 154.888 72.1633 155.061 71.63C155.241 71.0967 155.331 70.49 155.331 69.81C155.331 69.1767 155.251 68.5933 155.091 68.06C154.938 67.5267 154.678 67.1 154.311 66.78C153.951 66.4533 153.471 66.29 152.871 66.29C152.305 66.29 151.835 66.44 151.461 66.74C151.095 67.0333 150.818 67.4467 150.631 67.98C150.451 68.5067 150.361 69.1167 150.361 69.81C150.361 70.4367 150.441 71.02 150.601 71.56C150.768 72.0933 151.035 72.5267 151.401 72.86C151.768 73.1867 152.258 73.35 152.871 73.35ZM159.88 75V64.66H162.26V66.14C162.42 65.8733 162.637 65.6167 162.91 65.37C163.19 65.1233 163.533 64.9233 163.94 64.77C164.347 64.6167 164.823 64.54 165.37 64.54C166.01 64.54 166.603 64.6667 167.15 64.92C167.703 65.1733 168.147 65.57 168.48 66.11C168.82 66.65 168.99 67.3467 168.99 68.2V75H166.55V68.49C166.55 67.81 166.363 67.3067 165.99 66.98C165.617 66.6467 165.147 66.48 164.58 66.48C164.193 66.48 163.827 66.5467 163.48 66.68C163.133 66.8067 162.85 67.0033 162.63 67.27C162.417 67.53 162.31 67.8567 162.31 68.25V75H159.88ZM175.352 75.2C174.632 75.2 173.949 75.0867 173.302 74.86C172.662 74.6267 172.122 74.2633 171.682 73.77C171.249 73.2767 170.975 72.64 170.862 71.86H173.002C173.095 72.24 173.259 72.55 173.492 72.79C173.732 73.03 174.015 73.2067 174.342 73.32C174.669 73.4267 175.002 73.48 175.342 73.48C175.962 73.48 176.462 73.3733 176.842 73.16C177.229 72.9467 177.422 72.6167 177.422 72.17C177.422 71.8433 177.315 71.5833 177.102 71.39C176.889 71.1967 176.549 71.05 176.082 70.95L174.112 70.5C173.239 70.3067 172.535 69.9867 172.002 69.54C171.475 69.0933 171.209 68.4633 171.202 67.65C171.195 67.0367 171.349 66.49 171.662 66.01C171.975 65.53 172.442 65.1533 173.062 64.88C173.682 64.6 174.449 64.46 175.362 64.46C176.569 64.46 177.535 64.73 178.262 65.27C178.989 65.8033 179.362 66.5667 179.382 67.56H177.312C177.239 67.1133 177.029 66.7667 176.682 66.52C176.335 66.2667 175.885 66.14 175.332 66.14C174.759 66.14 174.289 66.25 173.922 66.47C173.555 66.69 173.372 67.0267 173.372 67.48C173.372 67.7933 173.512 68.04 173.792 68.22C174.072 68.4 174.492 68.5533 175.052 68.68L176.912 69.13C177.445 69.2633 177.882 69.4433 178.222 69.67C178.562 69.8967 178.829 70.1467 179.022 70.42C179.215 70.6867 179.349 70.9633 179.422 71.25C179.502 71.53 179.542 71.79 179.542 72.03C179.542 72.6967 179.369 73.2667 179.022 73.74C178.682 74.2067 178.199 74.5667 177.572 74.82C176.945 75.0733 176.205 75.2 175.352 75.2ZM181.493 75V72.2H184.243V75H181.493Z" fill="white"/>
<path d="M332 86.25C331.748 94.9844 328.494 102.543 322.237 108.926C315.98 115.309 308.484 118.5 299.75 118.5C297.314 118.5 294.795 118.164 292.191 117.492C292.863 120.096 294.27 122.258 296.412 123.98C298.553 125.702 301.01 126.562 303.781 126.562L315.875 138.656L326.205 149.364C330.068 153.228 332 157.868 332 163.285C332 168.702 330.068 173.321 326.205 177.142C322.342 180.963 317.702 182.874 312.285 182.874C306.868 182.874 302.228 180.984 298.364 177.205L287.656 166.875L275.562 154.781C275.562 151.422 274.387 148.566 272.035 146.215C269.684 143.863 266.828 142.688 263.469 142.688L262.587 141.806V141.68L231.471 181.866C230.631 182.622 226.999 183 220.574 183C214.149 183 210.559 182.622 209.803 181.866L204.134 176.323C203.378 175.483 203 171.851 203 165.426C203 159.001 203.378 155.369 204.134 154.529L257.044 113.587L229.833 86.25H215.094L203 62.0625L211.062 54L235.25 66.0938V80.707L263.217 108.8L271.531 102.375C271.531 102.291 271.573 102.249 271.657 102.249H271.783C268.928 97.21 267.5 91.877 267.5 86.25C267.5 77.5156 270.67 69.999 277.011 63.7002C283.352 57.4014 290.932 54.168 299.75 54V58.7871L289.42 68.6133C285.557 72.4766 283.625 77.1167 283.625 82.5337C283.625 87.9507 285.557 92.5908 289.42 96.4541C293.283 100.317 297.944 102.249 303.403 102.249C308.862 102.249 313.523 100.317 317.387 96.4541L327.087 86.25H332ZM219.125 158.812C216.857 158.812 214.947 159.589 213.393 161.143C211.839 162.697 211.062 164.586 211.062 166.812C211.062 169.038 211.839 170.948 213.393 172.544C214.947 174.14 216.857 174.938 219.125 174.938C221.393 174.938 223.303 174.14 224.857 172.544C226.411 170.948 227.188 169.038 227.188 166.812C227.188 164.586 226.411 162.697 224.857 161.143C223.303 159.589 221.393 158.812 219.125 158.812Z" fill="white" fill-opacity="0.18"/>
<defs>
<filter id="filter0_d_433_13766" x="-11" y="-10" width="381" height="161" filterUnits="userSpaceOnUse" color-interpolation-filters="sRGB">
<feFlood flood-opacity="0" result="BackgroundImageFix"/>
<feColorMatrix in="SourceAlpha" type="matrix" values="0 0 0 0 0 0 0 0 0 0 0 0 0 0 0 0 0 0 127 0" result="hardAlpha"/>
<feOffset/>
<feGaussianBlur stdDeviation="5"/>
<feComposite in2="hardAlpha" operator="out"/>
<feColorMatrix type="matrix" values="0 0 0 0 0 0 0 0 0 0 0 0 0 0 0 0 0 0 0.25 0"/>
<feBlend mode="normal" in2="BackgroundImageFix" result="effect1_dropShadow_433_13766"/>
<feBlend mode="normal" in="SourceGraphic" in2="effect1_dropShadow_433_13766" result="shape"/>
</filter>
<linearGradient id="paint0_linear_433_13766" x1="360" y1="10.8209" x2="-6.23767" y2="27.7605" gradientUnits="userSpaceOnUse">
<stop stop-color="#174E86"/>
<stop offset="1" stop-color="#49B7CF"/>
</linearGradient>
</defs>
</svg>
