<svg width="20" height="20" viewBox="0 0 20 20" fill="none" xmlns="http://www.w3.org/2000/svg">
<path d="M12.5 2.5C12.96 2.5 13.3333 2.87333 13.3333 3.33333V5H17.5C17.96 5 18.3333 5.37333 18.3333 5.83333V16.6667C18.3333 17.1267 17.96 17.5 17.5 17.5H2.50001C2.04001 17.5 1.66667 17.1267 1.66667 16.6667V5.83333C1.66667 5.37333 2.04001 5 2.50001 5H6.66667V3.33333C6.66667 2.87333 7.04001 2.5 7.50001 2.5H12.5ZM13.3333 6.66667H6.66667V15.8333H13.3333V6.66667ZM3.33334 6.66667V15.8333H5.00001V6.66667H3.33334ZM11.6667 4.16667H8.33334V5H11.6667V4.16667ZM15 6.66667V15.8333H16.6667V6.66667H15Z" fill="#7F8790"/>
</svg>
