<svg width="56" height="56" viewBox="0 0 56 56" fill="none" xmlns="http://www.w3.org/2000/svg">
<rect width="56" height="56" rx="4" fill="#F3F3F3"/>
<path d="M32.5444 12.0689C27.1569 12.6939 23.1382 17.3939 23.3944 22.7501C23.5257 25.3689 24.5382 27.7001 26.3444 29.5252C30.3694 33.6064 36.8819 33.6502 40.9319 29.6252C42.4757 28.0939 43.4507 26.2376 43.8569 24.0439C43.9882 23.3251 44.0069 21.4376 43.8882 20.7501C43.3257 17.5251 41.5132 14.9251 38.7319 13.3251C36.9444 12.3064 34.6007 11.8251 32.5444 12.0689ZM35.3132 14.0314C36.3632 14.2439 37.4944 14.7189 38.4382 15.3439C39.1507 15.8126 40.2194 16.9126 40.7132 17.6689C41.6882 19.1626 42.0944 20.5189 42.0944 22.3126C42.0944 23.0564 42.0632 23.4939 41.9819 23.8751C41.6132 25.6501 40.8632 27.0376 39.6007 28.2814C38.3444 29.5252 37.0069 30.2377 35.2507 30.6064C34.5132 30.7564 32.8632 30.7564 32.1257 30.6064C30.3569 30.2377 28.9882 29.4939 27.7194 28.2251C26.4819 26.9814 25.7632 25.6314 25.3944 23.8751C25.2444 23.1376 25.2444 21.4876 25.3944 20.7501C25.7632 18.9939 26.4819 17.6501 27.7194 16.4001C29.1257 14.9814 30.8007 14.1626 32.8132 13.9126C33.2319 13.8626 34.8507 13.9376 35.3132 14.0314Z" fill="#174E86"/>
<path d="M33.2382 15.8812C32.8632 16.075 32.7507 16.3687 32.7507 17.1375V17.7812L32.4257 17.9312C32.0194 18.1187 31.3882 18.7375 31.1944 19.1438C30.6382 20.3 30.8319 21.525 31.7194 22.4062C32.2382 22.9313 32.9757 23.25 33.6632 23.25C34.1632 23.25 34.6257 23.7 34.6257 24.1875C34.6257 24.5 34.4069 24.8562 34.1257 25C33.6444 25.2437 33.1694 25.1063 32.5694 24.5312C32.3507 24.325 32.1069 24.1562 31.9757 24.1188C31.3007 23.9313 30.6569 24.6188 30.8694 25.3125C30.9694 25.6562 31.7382 26.3625 32.3007 26.6312L32.7444 26.8438V27.4875C32.7507 28.2688 32.8632 28.5563 33.2507 28.75C33.5632 28.9062 33.8132 28.9062 34.1257 28.75C34.5132 28.55 34.6257 28.2688 34.6257 27.4875V26.8438L34.9569 26.6937C35.3569 26.5062 35.9757 25.8937 36.1819 25.4813C36.7382 24.3312 36.5444 23.1 35.6569 22.2125C35.1319 21.6875 34.4069 21.375 33.7069 21.375C33.2194 21.375 32.7507 20.9125 32.7507 20.425C32.7507 19.9563 33.2132 19.5 33.6882 19.5C33.9694 19.5 34.3382 19.6687 34.6694 19.9563C35.1132 20.325 35.5757 20.3375 35.9694 19.9937C36.2319 19.7625 36.3319 19.4437 36.2507 19.0938C36.1757 18.7625 35.6507 18.2688 35.0694 17.9875L34.6319 17.7812V17.1375C34.6257 16.3562 34.5132 16.0687 34.1257 15.875C33.8194 15.7188 33.5382 15.7188 33.2382 15.8812Z" fill="#174E86"/>
<path d="M22.35 30.5C21.3313 30.6625 20.225 31.1188 19.4813 31.6813L19.075 31.9875L18.7063 31.6313C18.5062 31.4375 18.2125 31.2125 18.0438 31.1313C17.4313 30.8375 17.2313 30.8125 14.9188 30.8125C12.8625 30.8125 12.7312 30.8188 12.5 30.9375C12.3375 31.0188 12.2062 31.15 12.125 31.3125C12 31.55 12 31.6688 12 37.4063C12 43.1438 12 43.2625 12.125 43.5C12.2062 43.6625 12.3375 43.7938 12.5 43.875C12.7312 43.9938 12.8625 44 14.8688 44C16.1937 44 17.1188 43.975 17.325 43.9313C17.7688 43.8375 18.2625 43.5875 18.6 43.2938L18.875 43.0563L19.8875 43.3063C21.125 43.6188 22.5 43.85 23.6188 43.9375C24.1062 43.975 26.5188 44 29.3188 44C34.5063 44 34.725 43.9875 35.6875 43.6813C36.2125 43.5125 36.9438 43.15 37.4438 42.8063C38.1938 42.3063 38.7188 41.6875 41.0125 38.5813C43.85 34.75 43.675 35.0063 43.825 34.5813C44.3937 32.9938 43.5 31.3375 41.8438 30.9063C41.375 30.7875 40.9375 30.7875 40.4688 30.9063C39.7938 31.0813 39.5125 31.3125 38.1375 32.7813C37.4312 33.5375 36.75 34.2625 36.625 34.4L36.3875 34.6438L36.2125 34.275C35.9937 33.825 35.3938 33.2 34.9813 33.0063C34.3563 32.7063 34.1938 32.6875 31.5312 32.6875C28.3563 32.6875 28.5125 32.7188 27.25 31.7625C26.15 30.925 24.9375 30.5063 23.5312 30.4688C23.0875 30.4563 22.55 30.4688 22.35 30.5ZM24.5312 32.4688C25.1313 32.6313 25.7563 32.9688 26.35 33.4375C26.6562 33.675 27.1062 33.9688 27.3438 34.0875C28.2 34.5125 28.2437 34.5188 31.25 34.5563C34.3062 34.6 34.2625 34.5938 34.5 35.0625C34.6625 35.3813 34.6562 35.6438 34.4875 35.95C34.2188 36.425 34.4062 36.4 30.3 36.4375C26.7188 36.4688 26.6313 36.4688 26.4625 36.6C26.15 36.8313 26.0375 37.0375 26.0375 37.375C26.0375 37.7125 26.15 37.9188 26.4625 38.15C26.6313 38.2813 26.7063 38.2813 30.55 38.3C34.5625 38.3188 34.9188 38.3 35.425 38.075C35.95 37.8375 36.225 37.575 38.35 35.2875C39.575 33.9813 40.6625 32.8563 40.7688 32.7938C41.5188 32.3813 42.4188 33.25 42.025 34.0063C41.8313 34.3875 37.3125 40.4188 36.9563 40.7688C36.4688 41.2563 35.8438 41.6375 35.125 41.8875L34.5312 42.0938H29.1562C22.9313 42.0938 22.825 42.0875 20.4875 41.525L19.5625 41.3V37.6688V34.0313L20.0063 33.6563C20.8562 32.9313 21.5188 32.5813 22.375 32.4C22.8875 32.2938 24.0188 32.3313 24.5312 32.4688ZM17.1875 32.8125C17.35 32.8938 17.4813 33.025 17.5625 33.1875C17.6813 33.425 17.6875 33.55 17.6875 37.4063C17.6875 41.2625 17.6813 41.3875 17.5625 41.625C17.4813 41.7875 17.35 41.9188 17.1875 42C16.9625 42.1125 16.825 42.125 15.4062 42.125H13.875V37.4063V32.6875H15.4062C16.825 32.6875 16.9625 32.7 17.1875 32.8125Z" fill="#174E86"/>
</svg>
