<svg width="160" height="160" viewBox="0 0 160 160" fill="none" xmlns="http://www.w3.org/2000/svg">
<rect width="160" height="160" rx="11.4286" fill="#F3F3F3"/>
<g clip-path="url(#clip0_915_27214)">
<path d="M92.9836 34.4827C77.5908 36.2684 66.1086 49.697 66.8408 65.0006C67.2158 72.4827 70.1086 79.1434 75.2693 84.3577C86.7693 96.0184 105.376 96.1434 116.948 84.6434C121.359 80.2684 124.144 74.9649 125.305 68.697C125.68 66.6434 125.734 61.2506 125.394 59.2863C123.787 50.072 118.609 42.6434 110.662 38.072C105.555 35.1613 98.8586 33.7863 92.9836 34.4827ZM100.894 40.0898C103.894 40.697 107.126 42.0541 109.823 43.8398C111.859 45.1791 114.912 48.322 116.323 50.4827C119.109 54.7506 120.269 58.6256 120.269 63.7506C120.269 65.8756 120.18 67.1256 119.948 68.2148C118.894 73.2863 116.751 77.2506 113.144 80.8041C109.555 84.3577 105.734 86.3934 100.716 87.447C98.6086 87.8756 93.8943 87.8756 91.7872 87.447C86.7336 86.3934 82.8229 84.2684 79.1979 80.6434C75.6622 77.0899 73.6086 73.2327 72.555 68.2148C72.1265 66.1077 72.1265 61.3934 72.555 59.2863C73.6086 54.2684 75.6622 50.4291 79.1979 46.8577C83.2158 42.8041 88.0015 40.4648 93.7515 39.7505C94.9479 39.6077 99.5729 39.822 100.894 40.0898Z" fill="#174E86"/>
<path d="M94.9659 45.3758C93.8945 45.9294 93.5731 46.7687 93.5731 48.9651V50.8044L92.6445 51.233C91.4838 51.7687 89.6802 53.5366 89.1266 54.6973C87.5373 58.0008 88.0909 61.5008 90.6266 64.0187C92.1088 65.5187 94.2159 66.4294 96.1802 66.4294C97.6088 66.4294 98.9302 67.7151 98.9302 69.108C98.9302 70.0008 98.3052 71.0187 97.5016 71.4294C96.1266 72.1258 94.7695 71.733 93.0552 70.0901C92.4302 69.5008 91.7338 69.0187 91.3588 68.9116C89.4302 68.3758 87.5909 70.3401 88.1981 72.3223C88.4838 73.3044 90.6802 75.3223 92.2873 76.0901L93.5552 76.6973V78.5366C93.5731 80.7687 93.8945 81.5901 95.0016 82.1437C95.8945 82.5901 96.6088 82.5901 97.5016 82.1437C98.6088 81.5723 98.9302 80.7687 98.9302 78.5366V76.6973L99.8766 76.2687C101.019 75.733 102.787 73.983 103.377 72.8044C104.966 69.5187 104.412 66.0008 101.877 63.4651C100.377 61.9651 98.3052 61.0723 96.3052 61.0723C94.9123 61.0723 93.5731 59.7508 93.5731 58.358C93.5731 57.0187 94.8945 55.7151 96.2516 55.7151C97.0552 55.7151 98.1088 56.1973 99.0552 57.0187C100.323 58.0723 101.644 58.108 102.769 57.1258C103.519 56.4651 103.805 55.5544 103.573 54.5544C103.359 53.608 101.859 52.1973 100.198 51.3937L98.9481 50.8044V48.9651C98.9302 46.733 98.6088 45.9116 97.5016 45.358C96.6266 44.9116 95.8231 44.9116 94.9659 45.3758Z" fill="#174E86"/>
<path d="M63.8568 87.1434C60.9461 87.6077 57.7854 88.9113 55.6604 90.5184L54.4997 91.3934L53.4461 90.3756C52.8747 89.822 52.0354 89.1791 51.5533 88.947C49.8033 88.1077 49.2318 88.0363 42.6247 88.0363C36.7497 88.0363 36.3747 88.0541 35.714 88.3934C35.2497 88.6256 34.8747 89.0006 34.6425 89.4648C34.2854 90.1434 34.2854 90.4827 34.2854 106.876C34.2854 123.268 34.2854 123.608 34.6425 124.286C34.8747 124.751 35.2497 125.126 35.714 125.358C36.3747 125.697 36.7497 125.715 42.4818 125.715C46.2675 125.715 48.9104 125.643 49.4997 125.518C50.7675 125.251 52.1783 124.536 53.1425 123.697L53.9283 123.018L56.8211 123.733C60.3568 124.626 64.2854 125.286 67.4818 125.536C68.8747 125.643 75.7675 125.715 83.7675 125.715C98.589 125.715 99.214 125.679 101.964 124.804C103.464 124.322 105.553 123.286 106.982 122.304C109.125 120.876 110.625 119.108 117.178 110.233C125.285 99.2863 124.785 100.018 125.214 98.8041C126.839 94.2684 124.285 89.5363 119.553 88.3041C118.214 87.9648 116.964 87.9648 115.625 88.3041C113.696 88.8041 112.893 89.4648 108.964 93.6613C106.946 95.822 105 97.8934 104.643 98.2863L103.964 98.9827L103.464 97.9291C102.839 96.6434 101.125 94.8577 99.9461 94.3041C98.1604 93.447 97.6961 93.3934 90.089 93.3934C81.0175 93.3934 81.464 93.4827 77.8568 90.7506C74.714 88.3577 71.2497 87.1613 67.2318 87.0541C65.964 87.0184 64.4283 87.0541 63.8568 87.1434ZM70.089 92.7684C71.8033 93.2327 73.589 94.197 75.2854 95.5363C76.1604 96.2148 77.4461 97.0541 78.1247 97.3934C80.5711 98.6077 80.6961 98.6256 89.2854 98.7327C98.0175 98.8577 97.8925 98.8398 98.5711 100.179C99.0354 101.09 99.0175 101.84 98.5354 102.715C97.7675 104.072 98.3033 104.001 86.5711 104.108C76.339 104.197 76.089 104.197 75.6068 104.572C74.714 105.233 74.3925 105.822 74.3925 106.786C74.3925 107.751 74.714 108.34 75.6068 109.001C76.089 109.376 76.3033 109.376 87.2854 109.429C98.7497 109.483 99.7675 109.429 101.214 108.786C102.714 108.108 103.5 107.358 109.571 100.822C113.071 97.0898 116.178 93.8756 116.482 93.697C118.625 92.5184 121.196 95.0006 120.071 97.1613C119.518 98.2506 106.607 115.483 105.589 116.483C104.196 117.876 102.41 118.965 100.357 119.679L98.6604 120.268H83.3033C65.5175 120.268 65.214 120.251 58.5354 118.643L55.8925 118.001V107.626V97.2327L57.1604 96.1613C59.589 94.0898 61.4818 93.0898 63.9283 92.572C65.3925 92.2684 68.6247 92.3756 70.089 92.7684ZM49.1068 93.7506C49.5711 93.9827 49.9461 94.3577 50.1783 94.822C50.5175 95.5006 50.5354 95.8577 50.5354 106.876C50.5354 117.893 50.5175 118.251 50.1783 118.929C49.9461 119.393 49.5711 119.768 49.1068 120.001C48.464 120.322 48.0711 120.358 44.0175 120.358H39.6425V106.876V93.3934H44.0175C48.0711 93.3934 48.464 93.4291 49.1068 93.7506Z" fill="#174E86"/>
</g>
<defs>
<clipPath id="clip0_915_27214">
<rect width="91.4286" height="91.4286" fill="white" transform="translate(34.2861 34.2861)"/>
</clipPath>
</defs>
</svg>
