<svg width="22" height="22" viewBox="0 0 22 22" fill="none" xmlns="http://www.w3.org/2000/svg">
<path d="M11.8649 1.99616C11.4796 1.33201 10.5205 1.33201 10.1351 1.99616L7.42103 6.67347C7.23065 7.00155 6.9016 7.22544 6.52654 7.28209L1.44023 8.05032C0.585945 8.17935 0.286285 9.25796 0.951591 9.80916L4.74068 12.9484C5.09142 13.239 5.25634 13.6973 5.17114 14.1448L4.17997 19.3499C4.02329 20.1727 4.88708 20.812 5.62823 20.4218L10.4176 17.9C10.7822 17.708 11.2179 17.708 11.5824 17.9L16.3718 20.4218C17.113 20.812 17.9767 20.1727 17.8201 19.3499L16.8289 14.1448C16.7437 13.6973 16.9086 13.239 17.2593 12.9484L21.0484 9.80916C21.7137 9.25796 21.4141 8.17935 20.5598 8.05032L15.4735 7.28209C15.0984 7.22544 14.7694 7.00155 14.579 6.67347L11.8649 1.99616Z" fill="white" stroke="#888888" stroke-linejoin="round"/>
</svg>
