<svg width="56" height="56" viewBox="0 0 56 56" fill="none" xmlns="http://www.w3.org/2000/svg">
<rect width="56" height="56" rx="4" fill="#F3F3F3"/>
<path d="M23.6938 14.007C22.8938 14.1633 22.0875 14.7883 21.75 15.5133C21.5188 16.007 21.4375 16.4258 21.4375 17.132V17.6883H17.0875H12.7375L12.4875 17.8258C12.3375 17.9133 12.1875 18.0633 12.1187 18.2008C12.0063 18.4258 12 18.7445 12 28.9258C12 35.8008 12.025 39.5383 12.0625 39.757C12.275 40.882 13.1812 41.7883 14.3063 42.0008C14.7687 42.0883 41.2313 42.0883 41.6938 42.0008C42.8188 41.7883 43.725 40.882 43.9375 39.757C43.975 39.5383 44 35.807 44 28.9445V18.4633L43.8625 18.1883C43.5938 17.6633 43.8687 17.6883 38.925 17.6883H34.5625V17.132C34.5625 16.832 34.5312 16.432 34.5 16.2445C34.2875 15.1195 33.3813 14.2133 32.2563 14.0008C31.8438 13.9258 24.0938 13.9258 23.6938 14.007ZM32.1875 15.9383C32.5625 16.132 32.6875 16.4258 32.6875 17.1258V17.6883H28H23.3125V17.1258C23.3125 16.4383 23.4375 16.132 23.8 15.9445C24.025 15.8258 24.175 15.8195 27.9875 15.8133C31.8313 15.8133 31.95 15.8195 32.1875 15.9383ZM41.7375 19.6383C41.7188 19.682 41.05 21.682 40.2563 24.082C39.2313 27.1445 38.7563 28.4945 38.6438 28.6258C38.5625 28.7258 38.3875 28.8383 38.2625 28.8758C38.1187 28.9133 36.9875 28.9383 35.3625 28.9383H32.6875V28.3758C32.6875 27.6758 32.5625 27.382 32.1875 27.1883C31.95 27.0695 31.825 27.0633 28 27.0633C24.175 27.0633 24.05 27.0695 23.8125 27.1883C23.4375 27.382 23.3125 27.6758 23.3125 28.3758V28.9383H20.6438C19.0125 28.9383 17.8812 28.9133 17.7375 28.8758C17.6125 28.8383 17.4375 28.7258 17.3563 28.6258C17.2438 28.4945 16.7688 27.1445 15.7438 24.082C14.95 21.682 14.2812 19.682 14.2625 19.6383C14.2438 19.582 17.0188 19.5633 28 19.5633C38.9813 19.5633 41.7563 19.582 41.7375 19.6383ZM15.5625 29.3133C15.7625 29.707 16.3187 30.2633 16.7125 30.4633C17.3812 30.8008 17.4875 30.8133 20.5188 30.8133H23.3125V31.3758C23.3125 32.0758 23.4375 32.3695 23.8125 32.5633C24.05 32.682 24.175 32.6883 28 32.6883C31.825 32.6883 31.95 32.682 32.1875 32.5633C32.5625 32.3695 32.6875 32.0758 32.6875 31.3758V30.8133H35.4875C38.5125 30.8133 38.6187 30.8008 39.2875 30.4633C39.6812 30.2633 40.2375 29.707 40.4375 29.3133C40.5188 29.157 40.925 28.007 41.35 26.7508L42.1125 24.4695L42.1187 31.957C42.125 39.3445 42.125 39.4445 42 39.6883C41.9188 39.8508 41.7875 39.982 41.625 40.0633C41.3813 40.1883 41.2875 40.1883 28 40.1883C14.7125 40.1883 14.6188 40.1883 14.375 40.0633C14.2125 39.982 14.0812 39.8508 14 39.6883C13.875 39.4445 13.875 39.3445 13.8813 31.957L13.8875 24.4695L14.65 26.7508C15.075 28.007 15.4813 29.157 15.5625 29.3133ZM30.8125 29.8758V30.8133H28H25.1875V29.8758V28.9383H28H30.8125V29.8758Z" fill="#174E86"/>
</svg>
