<svg width="160" height="160" viewBox="0 0 160 160" fill="none" xmlns="http://www.w3.org/2000/svg">
<rect width="160" height="160" rx="11.4286" fill="#F3F3F3"/>
<g clip-path="url(#clip0_915_27221)">
<path d="M67.6966 40.0198C65.4109 40.4662 63.1073 42.252 62.143 44.3234C61.4823 45.7341 61.2502 46.9305 61.2502 48.9484V50.5377H48.8216H36.393L35.6787 50.9305C35.2502 51.1805 34.8216 51.6091 34.6252 52.002C34.3037 52.6448 34.2859 53.5555 34.2859 82.6448C34.2859 102.288 34.3573 112.966 34.4645 113.591C35.0716 116.806 37.6609 119.395 40.8752 120.002C42.1966 120.252 117.804 120.252 119.125 120.002C122.339 119.395 124.929 116.806 125.536 113.591C125.643 112.966 125.714 102.306 125.714 82.6984V52.752L125.322 51.9662C124.554 50.4662 125.339 50.5377 111.214 50.5377H98.7502V48.9484C98.7502 48.0912 98.6609 46.9484 98.5716 46.4127C97.9645 43.1984 95.3752 40.6091 92.1609 40.002C90.9823 39.7877 68.8395 39.7877 67.6966 40.0198ZM91.9645 45.5377C93.0359 46.0912 93.393 46.9305 93.393 48.9305V50.5377H80.0002H66.6073V48.9305C66.6073 46.9662 66.9645 46.0912 68.0002 45.5555C68.643 45.2162 69.0716 45.1984 79.9645 45.1805C90.9466 45.1805 91.2859 45.1984 91.9645 45.5377ZM119.25 56.1091C119.197 56.2341 117.286 61.9484 115.018 68.8055C112.089 77.5555 110.732 81.4127 110.411 81.7877C110.179 82.0734 109.679 82.3948 109.322 82.502C108.911 82.6091 105.679 82.6805 101.036 82.6805H93.393V81.0734C93.393 79.0734 93.0359 78.2341 91.9645 77.6805C91.2859 77.3412 90.9287 77.3234 80.0002 77.3234C69.0716 77.3234 68.7145 77.3412 68.0359 77.6805C66.9645 78.2341 66.6073 79.0734 66.6073 81.0734V82.6805H58.9823C54.3216 82.6805 51.0895 82.6091 50.6787 82.502C50.3216 82.3948 49.8216 82.0734 49.5895 81.7877C49.268 81.4127 47.9109 77.5555 44.9823 68.8055C42.7145 61.9484 40.8037 56.2341 40.7502 56.1091C40.6966 55.9484 48.6252 55.8948 80.0002 55.8948C111.375 55.8948 119.304 55.9484 119.25 56.1091ZM44.4645 83.752C45.0359 84.877 46.6252 86.4662 47.7502 87.0377C49.6609 88.002 49.9645 88.0377 58.6252 88.0377H66.6073V89.6448C66.6073 91.6448 66.9645 92.4841 68.0359 93.0377C68.7145 93.377 69.0716 93.3948 80.0002 93.3948C90.9287 93.3948 91.2859 93.377 91.9645 93.0377C93.0359 92.4841 93.393 91.6448 93.393 89.6448V88.0377H101.393C110.036 88.0377 110.339 88.002 112.25 87.0377C113.375 86.4662 114.964 84.877 115.536 83.752C115.768 83.3055 116.929 80.0198 118.143 76.4305L120.322 69.9127L120.339 91.3055C120.357 112.413 120.357 112.698 120 113.395C119.768 113.859 119.393 114.234 118.929 114.466C118.232 114.823 117.964 114.823 80.0002 114.823C42.0359 114.823 41.768 114.823 41.0716 114.466C40.6073 114.234 40.2323 113.859 40.0002 113.395C39.643 112.698 39.643 112.413 39.6609 91.3055L39.6787 69.9127L41.8573 76.4305C43.0716 80.0198 44.2323 83.3055 44.4645 83.752ZM88.0359 85.3591V88.0377H80.0002H71.9645V85.3591V82.6805H80.0002H88.0359V85.3591Z" fill="#174E86"/>
</g>
<defs>
<clipPath id="clip0_915_27221">
<rect width="91.4286" height="91.4286" fill="white" transform="translate(34.2852 34.2852)"/>
</clipPath>
</defs>
</svg>
