<svg width="20" height="20" viewBox="0 0 20 20" fill="none" xmlns="http://www.w3.org/2000/svg">
<path d="M11.25 15H8.75C8.97336 14.1145 9.05443 13.307 9.36217 12.7625C9.52763 12.4736 10.2622 12.4026 10.4277 12.6536C10.7751 13.1697 10.9191 13.9748 11.25 15Z" fill="white"/>
<path d="M12.5 17.7087C12.5 18.9056 11.252 20.0162 9.94998 19.9998C9.28449 19.9761 8.65563 19.7173 8.19786 19.2787C7.74008 18.8401 7.48973 18.2565 7.50032 17.6527C7.52863 16.2809 8.74574 14.993 10.0092 15C11.1362 15.0047 12.5 16.4885 12.5 17.7087Z" fill="white"/>
<path d="M0.699645 3.93027C1.60357 6.08384 2.43915 8.0828 3.27936 10.0691C3.44595 10.462 3.61718 10.8138 3.27936 11.4575C2.65152 9.92715 2.02368 8.39729 1.39584 6.86796C1.18811 6.3631 0.997635 5.79197 0.762693 5.38176C0.115606 4.2679 -0.0649131 2.7959 0.0193741 0.964174C0.0532217 0.227384 0.138172 -0.00769755 0.439482 0.000190997C1.4788 0.0285898 2.51812 0.00965687 3.55877 0.00965687H19.3703C19.9815 0.00965687 19.9463 0.0175454 19.9921 1.4296C20.0412 2.94578 19.864 4.0628 19.3703 5.11513C18.4982 6.97367 17.7004 9.02943 16.8708 10.9984C16.7819 11.2082 16.6837 11.396 16.5894 11.5948L16.4773 11.3897C16.6697 10.6955 16.8244 9.91453 17.0626 9.32288C17.7788 7.54165 18.528 5.83614 19.3417 3.91607L0.699645 3.93027ZM10.0071 2.98364C13.064 2.98364 16.1209 2.97102 19.1778 3.001C19.5249 3.001 19.6331 2.78169 19.6384 1.93762C19.645 1.01781 19.5056 0.833222 19.1493 0.833222C13.0509 0.85531 6.95194 0.861097 0.85229 0.850579C0.778622 0.850579 0.687698 0.789046 0.633277 0.867932C0.539034 1.00677 0.411607 1.20556 0.393688 1.42486C0.285508 2.74383 0.374441 2.98207 0.924631 2.98207C3.95233 2.98838 6.97981 2.98996 10.0071 2.9868V2.98364Z" fill="#7F8790"/>
<path d="M10.4726 11.9605C10.6622 12.3361 10.6912 12.5566 10.8141 12.6068C12.0657 13.1436 12.1904 14.1093 12.1801 15.1921C12.1883 15.7203 12.2998 16.2432 12.5097 16.7373C12.9161 17.7425 12.6343 18.8816 11.7362 19.5081C11.2786 19.8192 10.7211 19.9915 10.1455 19.9997C9.56994 20.0079 9.00655 19.8516 8.53801 19.5538C7.55619 18.9074 7.2625 17.7851 7.69792 16.722C7.92386 16.1948 8.04408 15.6363 8.05308 15.072C8.04283 14.0227 8.1726 13.095 9.41055 12.6129C9.5352 12.5627 9.5813 12.3528 9.7845 12.0198H2.51561C2.41146 11.1925 2.84004 11.0845 3.45475 11.0891C5.46961 11.1043 7.48447 11.0891 9.67521 11.0891C9.67521 10.0534 9.64448 9.11204 9.6957 8.17371C9.70766 7.94407 9.98427 7.72508 10.1397 7.5C10.2899 7.73116 10.5563 7.95624 10.5682 8.195C10.6195 9.10747 10.5887 10.0199 10.5887 11.051H17.499C17.5247 11.889 17.0363 11.9711 16.3943 11.9635C14.4955 11.9483 12.5968 11.9605 10.4726 11.9605ZM11.7789 17.6801C11.7874 16.8848 10.8807 15.9176 10.126 15.9145C9.28761 15.9145 8.47996 16.7494 8.46117 17.6436C8.45274 18.037 8.61733 18.4177 8.91979 18.7044C9.22225 18.9911 9.63859 19.1611 10.0799 19.1781C10.9439 19.1781 11.7652 18.4603 11.7789 17.6801ZM11.4374 15.072C11.0959 14.4211 10.9541 13.904 10.5956 13.5649C10.4248 13.4037 9.66497 13.4493 9.49593 13.6349C9.17833 13.9846 9.09466 14.5032 8.86414 15.072H11.4374Z" fill="#7F8790"/>
<path d="M3.64844 11.3983C3.76244 11.2707 3.87508 11.035 3.98772 11.032C4.9461 10.9872 5.90541 11.0318 6.86012 11.1656C6.75494 11.3075 6.65179 11.5676 6.54458 11.5738C5.59458 11.6054 4.64458 11.5921 3.69865 11.5921L3.64844 11.3983Z" fill="#7F8790"/>
<path d="M13.4297 11.3431C13.5419 11.2352 13.6521 11.0405 13.7649 11.0324C14.5546 11.0052 15.345 11.0183 16.1347 11.0183C16.158 11.0788 16.1807 11.1404 16.2034 11.2019C16.0919 11.3321 15.9823 11.5691 15.8689 11.5742C15.0804 11.6065 14.2914 11.5913 13.5023 11.5913L13.4297 11.3431Z" fill="#7F8790"/>
<path d="M10.0106 3.16835H0.86735C0.312766 3.16835 0.223231 2.91415 0.332812 1.50678C0.350852 1.27278 0.479142 1.06067 0.574023 0.912526C0.628813 0.828354 0.720352 0.894011 0.794519 0.894011C6.93503 0.894011 13.0753 0.887835 19.2154 0.87549C19.5722 0.87549 19.7145 1.06909 19.7078 2.05391C19.7025 2.95455 19.5936 3.19192 19.2441 3.18855C16.1645 3.1532 13.0909 3.16667 10.0106 3.16835Z" fill="white"/>
</svg>
