<svg width="17" height="11" viewBox="0 0 17 11" fill="none" xmlns="http://www.w3.org/2000/svg">
<path d="M11.5236 5.39011e-05C11.6489 -0.000345677 11.7727 0.025559 11.8859 0.0758625C11.9991 0.126166 12.0988 0.199591 12.1777 0.290742L16.2286 5.00458C16.352 5.14516 16.4194 5.32149 16.4194 5.50346C16.4194 5.68544 16.352 5.86177 16.2286 6.00235L12.0352 10.7162C11.8928 10.8766 11.6882 10.9775 11.4665 10.9967C11.2447 11.0158 11.0239 10.9517 10.8526 10.8183C10.6813 10.685 10.5736 10.4933 10.5532 10.2856C10.5327 10.0779 10.6012 9.87101 10.7436 9.71057L14.4925 5.49954L10.8694 1.2885C10.7668 1.17318 10.7017 1.03276 10.6817 0.883841C10.6616 0.734924 10.6876 0.583747 10.7564 0.448203C10.8252 0.312658 10.934 0.198417 11.07 0.118997C11.2059 0.039576 11.3633 -0.00169992 11.5236 5.39011e-05Z" fill="#3B5998"/>
<path d="M6.63294 5.39011e-05C6.75823 -0.000345677 6.88203 0.025559 6.99524 0.0758625C7.10844 0.126166 7.20818 0.199591 7.28712 0.290742L11.338 5.00458C11.4614 5.14516 11.5288 5.32149 11.5288 5.50346C11.5288 5.68544 11.4614 5.86177 11.338 6.00235L7.14454 10.7162C7.00218 10.8766 6.79761 10.9775 6.57584 10.9967C6.35407 11.0158 6.13325 10.9517 5.96198 10.8183C5.7907 10.685 5.68299 10.4933 5.66255 10.2856C5.6421 10.0779 5.71059 9.87101 5.85295 9.71057L9.60192 5.49954L5.97875 1.2885C5.87619 1.17318 5.81105 1.03276 5.79102 0.883841C5.77099 0.734924 5.79692 0.583747 5.86574 0.448203C5.93456 0.312658 6.04339 0.198417 6.17935 0.118997C6.31531 0.039576 6.47272 -0.00169992 6.63294 5.39011e-05Z" fill="#3B5998" fill-opacity="0.75"/>
<path d="M1.74135 5.39011e-05C1.86665 -0.000345677 1.99045 0.025559 2.10365 0.0758625C2.21686 0.126166 2.3166 0.199591 2.39553 0.290742L6.44642 5.00458C6.56977 5.14516 6.63721 5.32149 6.63721 5.50346C6.63721 5.68544 6.56977 5.86177 6.44641 6.00235L2.25295 10.7162C2.1106 10.8766 1.90603 10.9775 1.68426 10.9967C1.46248 11.0158 1.24167 10.9517 1.0704 10.8183C0.899123 10.685 0.791415 10.4933 0.770968 10.2856C0.750521 10.0779 0.819009 9.87101 0.961368 9.71057L4.71032 5.49954L1.08717 1.2885C0.984615 1.17318 0.919468 1.03276 0.89944 0.883841C0.879413 0.734924 0.905342 0.583747 0.974162 0.448203C1.04298 0.312658 1.15181 0.198417 1.28777 0.118997C1.42373 0.039576 1.58113 -0.00169992 1.74135 5.39011e-05Z" fill="#3B5998" fill-opacity="0.5"/>
</svg>
