<svg width="20" height="20" viewBox="0 0 20 20" fill="none" xmlns="http://www.w3.org/2000/svg">
<circle cx="10" cy="10" r="10" fill="white"/>
<path d="M15.0747 5.88407C14.7815 5.6038 14.4333 5.38146 14.0502 5.22977C13.667 5.07808 13.2563 5 12.8415 5C12.4268 5 12.0161 5.07808 11.6329 5.22977C11.2497 5.38146 10.9016 5.6038 10.6084 5.88407L9.99985 6.46547L9.39132 5.88407C8.79905 5.3182 7.99576 5.00029 7.15816 5.00029C6.32057 5.00029 5.51728 5.3182 4.92501 5.88407C4.33273 6.44995 4 7.21744 4 8.0177C4 8.81797 4.33273 9.58546 4.92501 10.1513L5.53353 10.7327L9.99985 15L14.4662 10.7327L15.0747 10.1513C15.368 9.87119 15.6007 9.53857 15.7595 9.17247C15.9183 8.80638 16 8.41398 16 8.0177C16 7.62143 15.9183 7.22903 15.7595 6.86293C15.6007 6.49684 15.368 6.16422 15.0747 5.88407V5.88407Z" stroke="#7F8790" stroke-width="1.5" stroke-linecap="round" stroke-linejoin="round"/>
</svg>
