<svg width="20" height="20" viewBox="0 0 20 20" fill="none" xmlns="http://www.w3.org/2000/svg">
<g clip-path="url(#clip0_909_23250)">
<path d="M6.3148 11.8629H12.9266C12.6471 11.4891 12.7813 11.0681 12.7345 10.6567C12.6174 10.6567 12.5003 10.6606 12.3801 10.6567C12.3278 10.6567 12.2559 10.6567 12.2286 10.6197C12.2046 10.5948 12.1859 10.5653 12.1736 10.5329C12.1612 10.5005 12.1555 10.4659 12.1568 10.4313C12.1708 10.3763 12.252 10.337 12.3082 10.297C12.3239 10.2852 12.3535 10.297 12.3769 10.297C13.4923 10.297 14.6077 10.297 15.723 10.297C15.8105 10.297 15.887 10.3095 15.9307 10.3936C15.9994 10.5239 15.9073 10.6566 15.7457 10.6621C15.684 10.6621 15.6215 10.6621 15.5591 10.6621H15.3561C15.3561 10.871 15.3561 11.076 15.3561 11.2817C15.3541 11.4933 15.2888 11.6994 15.1687 11.8731H18.5632C18.7553 11.8731 18.8099 11.9288 18.8099 12.1236V19.7331C18.8099 19.9554 18.7615 20.0033 18.5351 20.0033H9.14952H1.8164C1.29177 20.0033 0.767137 20.0033 0.242506 20.0033C0.0582606 20.0033 0.000488281 19.9436 0.000488281 19.7583C0.000488281 16.9516 0.000488281 14.1449 0.000488281 11.3383C0.000488281 9.13945 0.000488281 6.94245 0.000488281 4.74728C0.000488281 4.51169 0.0473298 4.46143 0.287786 4.46143H6.04702C6.25469 4.46143 6.31168 4.52347 6.3109 4.73707C6.3109 7.09296 6.3109 9.44651 6.3109 11.7977C6.30934 11.8142 6.31246 11.833 6.3148 11.8629ZM5.93694 14.3248V4.8313H0.369761V14.3248H5.93694ZM5.93694 19.6279V14.6986H0.369761V19.6279H5.93694ZM11.9796 12.239V19.6248H18.4367V12.239H11.9796ZM6.31558 12.239V19.6271H11.5994V12.2382L6.31558 12.239ZM13.1077 10.6614C13.0975 10.889 13.0991 11.1171 13.1124 11.3446C13.1467 11.6846 13.3723 11.8676 13.7119 11.8676C13.9524 11.8676 14.1936 11.8676 14.4341 11.8676C14.5688 11.8667 14.6986 11.8164 14.7992 11.7262C14.8998 11.636 14.9643 11.5121 14.9806 11.3776C14.9978 11.142 14.9806 10.9064 14.9806 10.6606L13.1077 10.6614Z" fill="#7F8790"/>
<path d="M11.8707 5.91188C11.8707 5.71162 11.8707 5.52472 11.8707 5.33782C11.8707 5.16584 11.9293 5.10223 12.1049 5.10223C12.3852 5.10223 12.6647 5.10223 12.9442 5.10223C13.0019 5.10223 13.0589 5.09673 13.1198 5.09359C13.2174 4.57608 13.3127 4.06721 13.4087 3.55833C13.4873 3.13951 13.5653 2.71859 13.6429 2.29557C13.6477 2.25259 13.668 2.21287 13.6999 2.18392C13.7318 2.15498 13.7732 2.13882 13.8162 2.13851C14.4291 2.1338 15.0411 2.13851 15.6758 2.13851C15.6251 2.24296 15.4611 2.28615 15.5478 2.42358C15.5703 2.44737 15.5967 2.46704 15.6259 2.48169C15.6196 2.41965 15.59 2.33641 15.6134 2.31599C15.6915 2.25081 15.7321 2.33798 15.7828 2.38117C15.8054 2.4008 15.8312 2.41651 15.8554 2.43457L15.8804 2.4063C15.8368 2.36673 15.7971 2.32308 15.7617 2.27594C15.7494 2.23986 15.7441 2.20174 15.7461 2.16364C15.7852 2.16516 15.8236 2.17423 15.8593 2.19034C15.9058 2.22779 15.9489 2.26931 15.9881 2.31442L16.017 2.2885C15.9819 2.24453 15.9475 2.19977 15.9069 2.14794C15.9226 2.14162 15.9392 2.13817 15.9561 2.13773C16.1552 2.166 16.3535 2.12516 16.5526 2.13773C16.7087 2.14637 16.7595 2.18249 16.7868 2.33798C16.9564 3.23898 17.1272 4.14233 17.2989 5.04805C17.2989 5.06297 17.3059 5.07789 17.313 5.10694H17.74C17.9344 5.10694 18.1304 5.10694 18.3232 5.10694C18.4957 5.10694 18.5535 5.16663 18.5574 5.33861V5.91188C18.7846 5.91188 19.0016 5.92601 19.2163 5.91188C19.431 5.89774 19.5489 5.95507 19.6309 6.1561C19.7285 6.39719 19.8596 6.62728 19.9744 6.85895C20.0525 7.02464 19.9798 7.15029 19.7972 7.15029H14.5001C13.2213 7.15029 11.9431 7.15029 10.6653 7.15029C10.594 7.15381 10.5242 7.12963 10.4701 7.08276C10.4514 7.05361 10.4397 7.02049 10.4359 6.98601C10.4321 6.95153 10.4364 6.91663 10.4483 6.88408C10.5786 6.59666 10.7239 6.31709 10.8636 6.03438C10.8817 5.99531 10.9113 5.96283 10.9485 5.94145C10.9857 5.92007 11.0286 5.91084 11.0713 5.91502C11.3312 5.91188 11.592 5.91188 11.8707 5.91188ZM13.9724 2.50368C13.8092 3.37379 13.6491 4.23134 13.486 5.09516H16.925C16.9266 5.07399 16.9266 5.05273 16.925 5.03156C16.7743 4.22741 16.6205 3.42405 16.4745 2.6199C16.4565 2.5186 16.4175 2.49818 16.3246 2.50054C15.9983 2.50603 15.6727 2.50054 15.3464 2.50054L13.9724 2.50368ZM19.5278 6.78277L19.2772 6.29039L18.8494 6.27626H18.8143H11.9972C11.745 6.27626 11.4921 6.27626 11.2399 6.27626C11.2048 6.27626 11.1493 6.28254 11.1376 6.30452C11.0541 6.45609 10.9815 6.61236 10.8964 6.77963L19.5278 6.78277ZM18.1827 5.47132H12.2439V5.90638H18.1827V5.47132Z" fill="#7F8790"/>
<path d="M9.22608 4.64269C8.76823 4.64296 8.32065 4.50623 7.94028 4.24989C7.5599 3.99356 7.26392 3.6292 7.08999 3.20318C6.91606 2.77716 6.87205 2.30872 6.96354 1.85746C7.05504 1.4062 7.27791 0.992521 7.6038 0.669036C7.92969 0.345551 8.34388 0.126887 8.79367 0.0408592C9.24346 -0.0451685 9.70853 0.00532899 10.1297 0.185928C10.5509 0.366527 10.9091 0.669064 11.1589 1.05505C11.4087 1.44104 11.5386 1.89304 11.5323 2.35354C11.5269 2.9643 11.2813 3.54806 10.849 3.97707C10.4168 4.40608 9.83329 4.64541 9.22608 4.64269ZM11.1177 1.89414C11.0186 1.92712 10.9311 1.95697 10.8421 1.98445C10.8193 1.99528 10.7944 2.00108 10.7691 2.00148C10.7438 2.00188 10.7188 1.99686 10.6956 1.98675C10.6724 1.97665 10.6516 1.96169 10.6346 1.94288C10.6176 1.92407 10.6048 1.90183 10.597 1.87765C10.5587 1.76928 10.6087 1.68054 10.7344 1.63735L11.01 1.54311C10.894 1.2808 10.7246 1.0459 10.5127 0.85362C10.4455 0.944715 10.3886 1.02796 10.3261 1.10649C10.3124 1.12688 10.2947 1.14427 10.2741 1.15762C10.2535 1.17098 10.2305 1.18001 10.2064 1.18419C10.1822 1.18837 10.1575 1.18761 10.1337 1.18195C10.1099 1.17629 10.0874 1.16585 10.0677 1.15125C10.0294 1.12051 10.0047 1.07586 9.99881 1.02693C9.99297 0.978005 10.0065 0.928729 10.0365 0.889745C10.0927 0.806503 10.152 0.724832 10.2129 0.638449C9.96785 0.48821 9.69099 0.398337 9.40487 0.376158C9.40487 0.475891 9.40487 0.565416 9.40487 0.65494C9.40487 0.790011 9.33616 0.871683 9.23077 0.874039C9.12537 0.876395 9.04652 0.795509 9.04574 0.655726C9.04574 0.563061 9.04574 0.470395 9.04574 0.373018C8.76044 0.397098 8.48501 0.489451 8.2424 0.642375C8.27441 0.688707 8.29861 0.720905 8.32047 0.757814C8.34233 0.794723 8.3759 0.836345 8.39854 0.871683C8.47661 0.981625 8.4649 1.08607 8.3759 1.15125C8.2869 1.21643 8.18775 1.19523 8.10578 1.08764C8.04801 1.00911 7.99258 0.936077 7.93481 0.858332C7.71771 1.04504 7.54802 1.28114 7.43984 1.54704C7.54445 1.58159 7.63658 1.60986 7.72714 1.64206C7.75075 1.64815 7.77286 1.65905 7.79211 1.67408C7.81136 1.68911 7.82733 1.70796 7.83904 1.72946C7.85075 1.75096 7.85795 1.77465 7.86019 1.79906C7.86242 1.82347 7.85966 1.84808 7.85205 1.87137C7.84578 1.89498 7.83465 1.91701 7.81937 1.93601C7.8041 1.95502 7.78501 1.97058 7.76337 1.98169C7.74173 1.99279 7.718 1.9992 7.69374 2.00049C7.66947 2.00178 7.64521 1.99792 7.62253 1.98916C7.5226 1.96168 7.42501 1.92869 7.29853 1.89022V2.75404C7.41954 2.71556 7.50932 2.67551 7.60301 2.65981C7.65718 2.64344 7.71542 2.64734 7.76695 2.6708C7.79198 2.68897 7.81273 2.71246 7.82771 2.73961C7.84269 2.76675 7.85153 2.79689 7.85361 2.82786C7.84488 2.86166 7.82954 2.89337 7.8085 2.92115C7.78746 2.94892 7.76113 2.9722 7.73104 2.98963C7.63641 3.03387 7.53787 3.0691 7.43672 3.09486C7.55107 3.3579 7.72042 3.59307 7.93324 3.78436C7.99336 3.70583 8.04722 3.6273 8.10344 3.55427C8.18151 3.45218 8.28768 3.42705 8.37512 3.48908C8.46256 3.55112 8.47349 3.65949 8.39932 3.76708C8.34624 3.84561 8.29158 3.91786 8.23069 4.00267C8.47477 4.15026 8.74942 4.23921 9.03325 4.2626C9.0378 4.25147 9.0412 4.23989 9.0434 4.22805C9.0434 4.14559 9.0434 4.06392 9.0434 3.98147C9.0434 3.84483 9.10664 3.77101 9.22062 3.77022C9.33461 3.76944 9.40174 3.84326 9.40409 3.97833C9.40409 4.07099 9.40409 4.16366 9.40409 4.26575C9.68976 4.24261 9.96602 4.15223 10.2106 4.00188C10.1512 3.91864 10.0989 3.84483 10.0482 3.77258C9.9701 3.66264 9.97947 3.55584 10.0646 3.49301C10.1497 3.43019 10.266 3.45375 10.344 3.56212L10.5064 3.79142C10.7222 3.60086 10.8934 3.36459 11.0076 3.09958C10.9101 3.06738 10.8187 3.03832 10.7282 3.00613C10.6103 2.96372 10.5595 2.87498 10.5908 2.77054C10.622 2.66609 10.7227 2.6229 10.846 2.65981C10.9343 2.68651 11.0209 2.71399 11.1216 2.74619C11.187 2.46609 11.1857 2.17441 11.1177 1.89493V1.89414Z" fill="#7F8790"/>
<path d="M5.93964 19.6278H0.370117V14.6985H5.93964V19.6278Z" fill="white"/>
<path d="M11.9824 12.2388H18.4396V19.6245H11.9824V12.2388ZM15.2114 18.5675H17.3911C17.5886 18.5675 17.6448 18.511 17.6448 18.3099V15.0847C17.6448 14.7941 17.6113 14.758 17.3279 14.758H13.0051C12.849 14.758 12.7819 14.8287 12.7819 14.9889C12.7819 16.0956 12.7819 17.2021 12.7819 18.3083C12.7819 18.5094 12.8381 18.5675 13.0348 18.5675H15.2114ZM15.2169 12.4288C15.0688 12.4285 14.9239 12.4723 14.8005 12.5547C14.6771 12.637 14.5807 12.7543 14.5235 12.8916C14.4662 13.029 14.4506 13.1803 14.4787 13.3266C14.5068 13.4729 14.5773 13.6075 14.6813 13.7135C14.7853 13.8195 14.9182 13.8923 15.0632 13.9225C15.2082 13.9527 15.3588 13.9391 15.4961 13.8833C15.6335 13.8276 15.7513 13.7322 15.8349 13.6092C15.9184 13.4862 15.9639 13.3411 15.9656 13.1921C15.9667 13.0925 15.9482 12.9936 15.9111 12.9011C15.874 12.8087 15.819 12.7246 15.7494 12.6537C15.6797 12.5828 15.5968 12.5265 15.5054 12.488C15.414 12.4496 15.3159 12.4297 15.2169 12.4296V12.4288ZM17.6948 13.1851C17.6894 12.9894 17.6085 12.8035 17.4693 12.6667C17.33 12.5299 17.1434 12.453 16.9487 12.4522C16.7541 12.4513 16.5668 12.5267 16.4265 12.6623C16.2861 12.7979 16.2037 12.9831 16.1966 13.1788C16.193 13.2797 16.2096 13.3804 16.2454 13.4748C16.2812 13.5692 16.3355 13.6554 16.4051 13.7283C16.4747 13.8011 16.5581 13.8592 16.6504 13.899C16.7427 13.9388 16.8421 13.9595 16.9425 13.9599C17.0429 13.9603 17.1424 13.9404 17.2351 13.9014C17.3277 13.8624 17.4116 13.8051 17.4818 13.7328C17.552 13.6605 17.607 13.5748 17.6436 13.4807C17.6802 13.3866 17.6976 13.286 17.6948 13.1851ZM14.2246 13.1921C14.2272 12.9924 14.1508 12.7998 14.0122 12.6567C13.8736 12.5136 13.6842 12.4318 13.4857 12.4292C13.2871 12.4266 13.0956 12.5034 12.9534 12.6428C12.8112 12.7822 12.7298 12.9728 12.7272 13.1725C12.7259 13.2714 12.744 13.3696 12.7805 13.4614C12.8169 13.5533 12.871 13.637 12.9396 13.7079C13.0082 13.7787 13.09 13.8353 13.1804 13.8743C13.2707 13.9134 13.3678 13.9341 13.4661 13.9354C13.5645 13.9367 13.6621 13.9185 13.7534 13.8818C13.8447 13.8452 13.928 13.7908 13.9984 13.7218C14.0688 13.6527 14.1251 13.5705 14.1639 13.4796C14.2027 13.3887 14.2233 13.291 14.2246 13.1921Z" fill="white"/>
<path d="M13.1096 10.6604H14.9904C14.9904 10.9031 15.0036 11.141 14.9904 11.3774C14.974 11.5119 14.9096 11.6359 14.809 11.7261C14.7084 11.8162 14.5786 11.8665 14.4439 11.8674C14.2034 11.8674 13.9622 11.8674 13.7217 11.8674C13.3821 11.8674 13.1565 11.6844 13.1221 11.3444C13.1062 11.1168 13.102 10.8885 13.1096 10.6604Z" fill="white"/>
<path d="M13.9722 2.50269H15.347C15.6734 2.50269 15.9989 2.50269 16.3253 2.50269C16.4182 2.50269 16.4572 2.52075 16.4751 2.62205C16.6211 3.4262 16.7749 4.22956 16.9256 5.03371C16.9272 5.05488 16.9272 5.07614 16.9256 5.09731H13.4858C13.649 4.22799 13.8091 3.3728 13.9722 2.50269Z" fill="white"/>
<path d="M19.5276 6.78194H10.897C10.9805 6.61467 11.0531 6.4584 11.1382 6.30683C11.1499 6.28485 11.2054 6.27856 11.2405 6.27856C11.4926 6.27856 11.7456 6.27856 11.9978 6.27856H18.8148H18.85L19.2778 6.2927L19.5276 6.78194Z" fill="white"/>
<path d="M18.1824 5.47021V5.90527H12.2437V5.47021H18.1824Z" fill="white"/>
<path d="M9.65932 8.70188L9.44385 8.47021L9.66634 8.69638L9.65932 8.70188Z" fill="white"/>
<path d="M9.36458 8.58179C9.30291 8.72314 9.21313 8.75455 9.13037 8.6933L9.36458 8.58179Z" fill="white"/>
<path d="M3.21753 5.88184C3.58445 5.89833 3.92016 5.93367 4.23244 6.09779C4.28409 6.12511 4.33344 6.15663 4.37999 6.19203C4.65402 6.40406 4.65324 6.74174 4.37999 6.95455C4.15312 7.11467 3.88798 7.21116 3.61178 7.23412C3.2078 7.29779 2.79439 7.25837 2.4095 7.11947C2.28943 7.07437 2.17679 7.01137 2.07536 6.93257C1.82319 6.73153 1.8271 6.41662 2.07536 6.21088C2.30957 6.01848 2.59062 5.95016 2.88104 5.91089C3.00049 5.8944 3.1215 5.88969 3.21753 5.88184ZM3.14414 6.25328C2.89541 6.25129 2.64958 6.3072 2.42589 6.41662C2.36386 6.45989 2.30702 6.51022 2.25648 6.56662C2.31269 6.62159 2.35953 6.70404 2.42589 6.72368C2.62161 6.79529 2.82369 6.84788 3.02937 6.88074C3.36563 6.9296 3.70878 6.88196 4.01931 6.74331C4.09404 6.69409 4.16157 6.63462 4.21994 6.56662C4.16019 6.50319 4.09279 6.44753 4.01931 6.40092C3.77339 6.28391 3.50873 6.25171 3.14414 6.25328Z" fill="#7F8790"/>
<path d="M15.2168 12.4295C15.3655 12.4314 15.5102 12.4777 15.6327 12.5625C15.7552 12.6473 15.8498 12.7668 15.9047 12.9058C15.9595 13.0448 15.972 13.1971 15.9407 13.3432C15.9093 13.4894 15.8355 13.623 15.7286 13.7269C15.6216 13.8308 15.4864 13.9004 15.3401 13.9269C15.1938 13.9533 15.0429 13.9355 14.9067 13.8756C14.7705 13.8157 14.655 13.7164 14.575 13.5903C14.495 13.4643 14.454 13.3172 14.4572 13.1677C14.4617 12.9688 14.544 12.7798 14.6862 12.6416C14.8284 12.5034 15.0191 12.4272 15.2168 12.4295ZM15.2168 12.7954C15.1657 12.7946 15.115 12.804 15.0676 12.8232C15.0201 12.8423 14.977 12.8708 14.9406 12.9069C14.9043 12.943 14.8755 12.9861 14.8559 13.0336C14.8363 13.081 14.8263 13.132 14.8265 13.1834C14.8261 13.2349 14.8358 13.2861 14.855 13.3339C14.8742 13.3817 14.9026 13.4252 14.9386 13.4619C14.9746 13.4987 15.0174 13.528 15.0646 13.5481C15.1118 13.5682 15.1624 13.5788 15.2137 13.5792C15.265 13.5796 15.3158 13.5698 15.3633 13.5505C15.4108 13.5311 15.4541 13.5026 15.4906 13.4664C15.5272 13.4302 15.5563 13.3872 15.5763 13.3397C15.5963 13.2922 15.6068 13.2412 15.6072 13.1897C15.6086 13.1374 15.5994 13.0854 15.5801 13.0369C15.5609 12.9883 15.532 12.9442 15.4953 12.9072C15.4585 12.8703 15.4147 12.8412 15.3664 12.8219C15.3181 12.8025 15.2664 12.7933 15.2145 12.7947L15.2168 12.7954Z" fill="#7F8790"/>
<path d="M17.6945 13.1853C17.6973 13.2863 17.6798 13.3868 17.6432 13.4809C17.6067 13.575 17.5516 13.6607 17.4815 13.733C17.4113 13.8053 17.3274 13.8626 17.2347 13.9017C17.1421 13.9407 17.0426 13.9606 16.9422 13.9602C16.8417 13.9597 16.7424 13.939 16.6501 13.8992C16.5577 13.8594 16.4743 13.8014 16.4047 13.7285C16.3352 13.6556 16.2809 13.5694 16.245 13.475C16.2092 13.3807 16.1927 13.28 16.1963 13.179C16.2033 12.9834 16.2857 12.7982 16.4261 12.6626C16.5665 12.5269 16.7538 12.4516 16.9484 12.4524C17.143 12.4532 17.3297 12.5302 17.4689 12.6669C17.6082 12.8037 17.689 12.9896 17.6945 13.1853ZM16.9473 12.7926C16.8696 12.7917 16.7934 12.8142 16.7284 12.8571C16.6634 12.9 16.6127 12.9615 16.5827 13.0336C16.5526 13.1057 16.5447 13.1852 16.5599 13.2619C16.575 13.3386 16.6126 13.409 16.6678 13.464C16.723 13.5191 16.7933 13.5563 16.8696 13.571C16.946 13.5856 17.025 13.577 17.0964 13.5462C17.1679 13.5154 17.2286 13.4639 17.2707 13.3982C17.3129 13.3325 17.3345 13.2556 17.333 13.1774C17.3308 13.0756 17.2893 12.9786 17.2173 12.907C17.1454 12.8353 17.0486 12.7946 16.9473 12.7934V12.7926Z" fill="#7F8790"/>
<path d="M14.2244 13.1923C14.2224 13.341 14.1767 13.4857 14.093 13.6083C14.0094 13.7309 13.8915 13.8258 13.7543 13.8811C13.6171 13.9364 13.4667 13.9497 13.3221 13.9191C13.1774 13.8886 13.0449 13.8157 12.9414 13.7096C12.8379 13.6035 12.7679 13.4689 12.7403 13.3229C12.7126 13.1768 12.7286 13.0258 12.7861 12.8888C12.8437 12.7519 12.9402 12.6352 13.0636 12.5533C13.187 12.4715 13.3318 12.4282 13.4796 12.429C13.5788 12.4282 13.6771 12.4475 13.7688 12.4858C13.8604 12.5241 13.9434 12.5805 14.0129 12.6517C14.0824 12.7229 14.137 12.8075 14.1733 12.9004C14.2096 12.9932 14.227 13.0925 14.2244 13.1923ZM13.4811 12.7926C13.3792 12.792 13.281 12.8311 13.2069 12.9016C13.1329 12.9721 13.0888 13.0687 13.0838 13.1711C13.083 13.2226 13.0923 13.2739 13.1112 13.3218C13.1301 13.3697 13.1582 13.4134 13.194 13.4505C13.2297 13.4875 13.2723 13.517 13.3193 13.5375C13.3664 13.5579 13.417 13.5689 13.4683 13.5696C13.5195 13.5704 13.5704 13.561 13.6181 13.542C13.6657 13.523 13.7092 13.4947 13.746 13.4588C13.7828 13.4229 13.8122 13.38 13.8325 13.3327C13.8528 13.2853 13.8637 13.2344 13.8645 13.1829C13.8625 13.0808 13.8216 12.9833 13.7503 12.9107C13.679 12.8381 13.5826 12.7958 13.4811 12.7926Z" fill="#7F8790"/>
<path d="M8.96256 12.8223H10.8269C11.0408 12.8223 11.0869 12.867 11.0869 13.0822C11.0869 13.5361 11.0869 13.9895 11.0869 14.4423C11.0869 14.63 11.0291 14.6889 10.8331 14.6921C10.62 14.6921 10.4061 14.6921 10.1929 14.6921H7.09357C6.88903 14.6921 6.83203 14.6332 6.83203 14.4266V13.0579C6.83203 12.8859 6.89215 12.8223 7.06624 12.8223H8.96569H8.96256ZM10.7152 14.323V13.1914H7.20755V14.3245L10.7152 14.323Z" fill="#7F8790"/>
<path d="M3.20632 7.95337H4.33912C4.4695 7.95337 4.49526 7.98321 4.49526 8.12771V9.03944C4.49526 9.16508 4.46013 9.20513 4.33912 9.20749C4.21811 9.20985 4.07993 9.20749 3.94877 9.20749H2.07509C1.95173 9.20749 1.91895 9.16823 1.91895 9.03001V8.11043C1.91895 7.99499 1.95564 7.95337 2.05869 7.95337H3.21179H3.20632ZM4.26964 8.96012V8.19995H2.14144V8.96012H4.26964Z" fill="#7F8790"/>
<path d="M3.144 6.25346C3.50859 6.25346 3.77325 6.28408 4.01917 6.40188C4.09266 6.44848 4.16005 6.50415 4.21981 6.56758C4.16143 6.63558 4.0939 6.69505 4.01917 6.74427C3.70864 6.88292 3.3655 6.93056 3.02924 6.8817C2.82355 6.84884 2.62147 6.79625 2.42576 6.72464C2.3594 6.70265 2.31256 6.62019 2.25635 6.56758C2.30688 6.51118 2.36373 6.46085 2.42576 6.41758C2.64938 6.30789 2.89521 6.25171 3.144 6.25346Z" fill="white"/>
<path d="M13.147 18.1963V15.1289H17.273V18.1963H13.147ZM15.2026 16.6257C15.671 16.6257 16.1332 16.621 16.5985 16.6257C16.764 16.6257 16.8373 16.5589 16.8428 16.4411C16.8483 16.3233 16.7569 16.2645 16.6039 16.2637C16.2643 16.2637 15.9239 16.2597 15.5843 16.2597C14.9863 16.2597 14.3878 16.2597 13.7887 16.2597C13.6575 16.2597 13.5756 16.3383 13.5756 16.4427C13.5756 16.5472 13.6583 16.6194 13.7911 16.6194L15.2026 16.6257Z" fill="white"/>
<path d="M15.2142 12.7949C15.2653 12.7945 15.3159 12.8045 15.3631 12.8242C15.4103 12.8439 15.4531 12.8729 15.489 12.9095C15.5249 12.9461 15.5531 12.9895 15.572 13.0373C15.5909 13.085 15.6001 13.1361 15.5991 13.1875C15.5987 13.2391 15.5882 13.29 15.5682 13.3375C15.5482 13.385 15.5191 13.4281 15.4825 13.4642C15.446 13.5004 15.4027 13.529 15.3552 13.5483C15.3077 13.5677 15.2569 13.5774 15.2056 13.577C15.1543 13.5766 15.1037 13.566 15.0565 13.5459C15.0093 13.5258 14.9665 13.4965 14.9305 13.4598C14.8945 13.423 14.8661 13.3795 14.8469 13.3317C14.8277 13.2839 14.818 13.2328 14.8184 13.1812C14.8183 13.1295 14.8287 13.0783 14.8487 13.0306C14.8687 12.9829 14.8981 12.9398 14.935 12.9038C14.9719 12.8677 15.0156 12.8395 15.0636 12.8208C15.1116 12.8021 15.1628 12.7933 15.2142 12.7949Z" fill="white"/>
<path d="M16.9477 12.7935C17.0491 12.7947 17.146 12.8355 17.218 12.9073C17.29 12.9792 17.3313 13.0763 17.3334 13.1783C17.3349 13.2565 17.3132 13.3333 17.2711 13.399C17.2289 13.4647 17.1682 13.5163 17.0968 13.547C17.0253 13.5778 16.9464 13.5865 16.87 13.5718C16.7936 13.5572 16.7234 13.5199 16.6682 13.4649C16.613 13.4098 16.5754 13.3394 16.5602 13.2627C16.5451 13.1861 16.553 13.1066 16.583 13.0344C16.6131 12.9623 16.6638 12.9009 16.7288 12.8579C16.7937 12.815 16.87 12.7926 16.9477 12.7935Z" fill="white"/>
<path d="M13.4812 12.7925C13.5836 12.7949 13.6811 12.8372 13.7532 12.9104C13.8252 12.9836 13.8663 13.0821 13.8677 13.1851C13.8669 13.2367 13.856 13.2876 13.8357 13.3349C13.8154 13.3823 13.786 13.4251 13.7492 13.4611C13.7124 13.497 13.6689 13.5252 13.6213 13.5443C13.5736 13.5633 13.5227 13.5727 13.4715 13.5719C13.4202 13.5711 13.3696 13.5602 13.3225 13.5397C13.2755 13.5193 13.2329 13.4897 13.1971 13.4527C13.1614 13.4157 13.1333 13.372 13.1144 13.3241C13.0955 13.2761 13.0862 13.2249 13.087 13.1734C13.0914 13.071 13.1348 12.9744 13.2082 12.9035C13.2816 12.8325 13.3794 12.7928 13.4812 12.7925Z" fill="white"/>
<path d="M10.7152 14.3246H7.20752V13.1914H10.7152V14.3246ZM8.96253 13.5778C8.89227 13.5778 8.82279 13.5778 8.75331 13.5778C8.73176 13.5772 8.71032 13.5811 8.69027 13.589C8.67021 13.5969 8.65193 13.6088 8.63651 13.624C8.62108 13.6391 8.60883 13.6572 8.60046 13.6772C8.5921 13.6972 8.58779 13.7186 8.5878 13.7403C8.58328 13.7604 8.58293 13.7813 8.58678 13.8015C8.59063 13.8218 8.59859 13.8411 8.61017 13.8581C8.62174 13.8751 8.63669 13.8895 8.65406 13.9005C8.67144 13.9114 8.69087 13.9187 8.71115 13.9217C8.8761 13.9359 9.04194 13.9359 9.20689 13.9217C9.22746 13.9191 9.24726 13.9123 9.26506 13.9016C9.28286 13.8909 9.29825 13.8766 9.31028 13.8597C9.32232 13.8427 9.33072 13.8234 9.33496 13.803C9.3392 13.7826 9.33919 13.7615 9.33493 13.7411C9.33493 13.6974 9.31766 13.6554 9.28691 13.6245C9.25617 13.5936 9.21447 13.5762 9.17098 13.5762C9.1015 13.5754 9.03202 13.5778 8.96253 13.5778Z" fill="white"/>
<path d="M9.26126 16.5919C9.26126 16.522 9.26516 16.4607 9.26126 16.3995C9.25736 16.3382 9.26126 16.2927 9.33933 16.2935C9.4174 16.2943 9.45488 16.3092 9.45956 16.3948C9.47049 16.5762 9.43536 16.6154 9.26126 16.5919Z" fill="white"/>
<path d="M9.59232 16.5572C9.59174 16.4926 9.59803 16.4281 9.61106 16.3648C9.61817 16.3489 9.62896 16.3348 9.64254 16.3239C9.65611 16.313 9.67209 16.3055 9.68913 16.302C9.71255 16.302 9.75236 16.3499 9.75315 16.3805C9.75528 16.4389 9.74406 16.4969 9.72036 16.5502C9.70787 16.5769 9.65634 16.591 9.62043 16.5973C9.61106 16.5973 9.59154 16.5564 9.59232 16.5572Z" fill="white"/>
<path d="M9.36442 1.78406C9.31006 1.74846 9.25376 1.71595 9.19579 1.68668C9.05292 1.62464 9.03965 1.60815 9.08571 1.4401C9.33553 1.43303 9.40268 1.51863 9.36208 1.78641L9.36442 1.78406Z" fill="white"/>
<path d="M8.96243 13.578C9.03191 13.578 9.1014 13.578 9.17088 13.578C9.21436 13.578 9.25606 13.5954 9.28681 13.6263C9.31755 13.6572 9.33482 13.6992 9.33482 13.7429C9.33909 13.7633 9.3391 13.7844 9.33486 13.8048C9.33062 13.8252 9.32221 13.8445 9.31018 13.8614C9.29815 13.8784 9.28275 13.8927 9.26495 13.9034C9.24716 13.9141 9.22735 13.9209 9.20679 13.9235C9.04184 13.9376 8.87599 13.9376 8.71105 13.9235C8.69052 13.9205 8.67084 13.9132 8.65327 13.9021C8.63571 13.891 8.62064 13.8763 8.60903 13.859C8.59742 13.8417 8.58953 13.8222 8.58585 13.8017C8.58218 13.7811 8.5828 13.76 8.58769 13.7398C8.58769 13.7181 8.59199 13.6966 8.60036 13.6766C8.60872 13.6566 8.62098 13.6385 8.6364 13.6234C8.65182 13.6083 8.6701 13.5964 8.69016 13.5884C8.71022 13.5805 8.73165 13.5767 8.7532 13.5772C8.82268 13.5772 8.89217 13.5772 8.96243 13.5772V13.578Z" fill="#7F8790"/>
<path d="M8.96256 15.0996H10.8269C11.0408 15.0996 11.0869 15.1444 11.0869 15.3595C11.0869 15.8134 11.0869 16.2668 11.0869 16.7197C11.0869 16.9074 11.0291 16.9663 10.8331 16.9694C10.62 16.9694 10.4061 16.9694 10.1929 16.9694H7.09357C6.88903 16.9694 6.83203 16.9105 6.83203 16.704V15.3352C6.83203 15.1632 6.89215 15.0996 7.06624 15.0996H8.96569H8.96256ZM10.7152 16.6003V15.4687H7.20755V16.6019L10.7152 16.6003Z" fill="#7F8790"/>
<path d="M8.96243 15.8553C9.03191 15.8553 9.1014 15.8553 9.17088 15.8553C9.21436 15.8553 9.25606 15.8727 9.28681 15.9036C9.31755 15.9346 9.33482 15.9765 9.33482 16.0202C9.33909 16.0406 9.3391 16.0617 9.33486 16.0821C9.33062 16.1025 9.32221 16.1218 9.31018 16.1388C9.29815 16.1558 9.28275 16.17 9.26495 16.1807C9.24716 16.1914 9.22735 16.1983 9.20679 16.2009C9.04184 16.215 8.87599 16.215 8.71105 16.2009C8.69052 16.1978 8.67084 16.1905 8.65327 16.1794C8.63571 16.1683 8.62064 16.1537 8.60903 16.1364C8.59742 16.1191 8.58953 16.0995 8.58585 16.079C8.58218 16.0585 8.5828 16.0374 8.58769 16.0171C8.58769 15.9954 8.59199 15.974 8.60036 15.954C8.60872 15.934 8.62098 15.9159 8.6364 15.9007C8.65182 15.8856 8.6701 15.8737 8.69016 15.8658C8.71022 15.8578 8.73165 15.854 8.7532 15.8545C8.82268 15.8545 8.89217 15.8545 8.96243 15.8545V15.8553Z" fill="#7F8790"/>
<path d="M8.96256 17.2202H10.8269C11.0408 17.2202 11.0869 17.265 11.0869 17.4801C11.0869 17.9341 11.0869 18.3874 11.0869 18.8403C11.0869 19.028 11.0291 19.0869 10.8331 19.09C10.62 19.09 10.4061 19.09 10.1929 19.09H7.09357C6.88903 19.09 6.83203 19.0311 6.83203 18.8246V17.4558C6.83203 17.2838 6.89215 17.2202 7.06624 17.2202H8.96569H8.96256ZM10.7152 18.7209V17.5893H7.20755V18.7225L10.7152 18.7209Z" fill="#7F8790"/>
<path d="M8.96243 17.9754C9.03191 17.9754 9.1014 17.9754 9.17088 17.9754C9.19241 17.9754 9.21373 17.9797 9.23362 17.988C9.25351 17.9963 9.27158 18.0084 9.28681 18.0237C9.30203 18.0391 9.31411 18.0572 9.32234 18.0772C9.33058 18.0973 9.33482 18.1187 9.33482 18.1404C9.33909 18.1608 9.3391 18.1818 9.33486 18.2022C9.33062 18.2226 9.32221 18.2419 9.31018 18.2589C9.29815 18.2759 9.28275 18.2902 9.26495 18.3008C9.24716 18.3115 9.22735 18.3184 9.20679 18.321C9.04184 18.3351 8.87599 18.3351 8.71105 18.321C8.69052 18.318 8.67084 18.3107 8.65327 18.2996C8.63571 18.2885 8.62064 18.2738 8.60903 18.2565C8.59742 18.2392 8.58953 18.2197 8.58585 18.1991C8.58218 18.1786 8.5828 18.1575 8.58769 18.1372C8.58769 18.1155 8.59199 18.0941 8.60036 18.0741C8.60872 18.0541 8.62098 18.036 8.6364 18.0209C8.65182 18.0057 8.6701 17.9938 8.69016 17.9859C8.71022 17.978 8.73165 17.9741 8.7532 17.9747C8.82268 17.9747 8.89217 17.9747 8.96243 17.9747V17.9754Z" fill="#7F8790"/>
<path d="M17.2628 14.7073H13.1579C13.0518 14.7073 12.9658 14.7938 12.9658 14.9005V17.9694C12.9658 18.0761 13.0518 18.1626 13.1579 18.1626H17.2628C17.3689 18.1626 17.4549 18.0761 17.4549 17.9694V14.9005C17.4549 14.7938 17.3689 14.7073 17.2628 14.7073Z" stroke="#7F8790" stroke-width="0.5" stroke-miterlimit="10"/>
<path d="M16.7917 15.3352H13.6689C13.6042 15.3352 13.5518 15.3879 13.5518 15.453C13.5518 15.5181 13.6042 15.5708 13.6689 15.5708H16.7917C16.8563 15.5708 16.9088 15.5181 16.9088 15.453C16.9088 15.3879 16.8563 15.3352 16.7917 15.3352Z" fill="#7F8790"/>
<path d="M10.6629 8.34619H7.14974C7.02039 8.34619 6.91553 8.45167 6.91553 8.58178C6.91553 8.71189 7.02039 8.81737 7.14974 8.81737H10.6629C10.7922 8.81737 10.8971 8.71189 10.8971 8.58178C10.8971 8.45167 10.7922 8.34619 10.6629 8.34619Z" fill="#7F8790"/>
<path d="M10.6819 2.84107L9.47899 2.22162C9.36385 2.16232 9.22272 2.20815 9.16378 2.32396C9.10483 2.43978 9.15039 2.58174 9.26553 2.64103L10.4684 3.26049C10.5836 3.31978 10.7247 3.27396 10.7837 3.15814C10.8426 3.04232 10.797 2.90037 10.6819 2.84107Z" fill="#7F8790"/>
<path d="M9.49072 2.48547V1.32637C9.49072 1.20059 9.38936 1.09863 9.26432 1.09863C9.13928 1.09863 9.03792 1.20059 9.03792 1.32637V2.48547C9.03792 2.61124 9.13928 2.71321 9.26432 2.71321C9.38936 2.71321 9.49072 2.61124 9.49072 2.48547Z" fill="#7F8790"/>
<path d="M16.3231 2.26025H14.6836V2.33878H16.3231V2.26025Z" stroke="#7F8790" stroke-miterlimit="10"/>
</g>
<defs>
<clipPath id="clip0_909_23250">
<rect width="20" height="20" fill="white"/>
</clipPath>
</defs>
</svg>
