<svg width="17" height="17" viewBox="0 0 17 17" fill="none" xmlns="http://www.w3.org/2000/svg">
<path d="M14.1171 5.91464L11.5671 7.10464L9.91667 5.45422V4.46255L11.5671 2.81214L14.1171 4.00214C14.3862 4.12964 14.6979 4.00922 14.8254 3.74714C14.9529 3.47797 14.8325 3.1663 14.5704 3.0388L11.7937 1.74255C11.6621 1.68042 11.5144 1.66068 11.371 1.68606C11.2276 1.71143 11.0957 1.78067 10.9933 1.88422L9.76083 3.11672C9.69725 3.02964 9.61416 2.95866 9.51822 2.90946C9.42228 2.86026 9.31615 2.83421 9.20833 2.83339C8.81875 2.83339 8.5 3.15214 8.5 3.54172V4.25005H6.2475C5.95 3.42839 5.17083 2.83339 4.25 2.83339C3.07417 2.83339 2.125 3.78255 2.125 4.95839C2.125 5.73755 2.55 6.41047 3.17333 6.78589L5.015 12.7501H4.25C3.47083 12.7501 2.83333 13.3876 2.83333 14.1667V14.8751H12.0417V14.1667C12.0417 13.3876 11.4042 12.7501 10.625 12.7501H9.4775L5.95708 6.21214C6.0775 6.04214 6.17667 5.86505 6.2475 5.66672H8.5V6.37505C8.5 6.76464 8.81875 7.08339 9.20833 7.08339C9.435 7.08339 9.63333 6.97005 9.76083 6.80005L10.9933 8.03255C11.2058 8.24505 11.5246 8.30172 11.7937 8.17422L14.5704 6.87797C14.8396 6.75047 14.9529 6.4388 14.8254 6.16964C14.7651 6.04209 14.6567 5.94363 14.5239 5.89584C14.3912 5.84805 14.2449 5.85481 14.1171 5.91464V5.91464ZM4.25 5.66672C3.86042 5.66672 3.54167 5.34797 3.54167 4.95839C3.54167 4.5688 3.86042 4.25005 4.25 4.25005C4.63958 4.25005 4.95833 4.5688 4.95833 4.95839C4.95833 5.34797 4.63958 5.66672 4.25 5.66672ZM7.86958 12.7501H6.49542L4.75292 7.08339H4.82375L7.86958 12.7501Z" fill="#3B5998"/>
</svg>
