<svg width="20" height="20" viewBox="0 0 14 14" fill="none" xmlns="http://www.w3.org/2000/svg">
<path fill-rule="evenodd" clip-rule="evenodd" d="M3.73357 1.27302C4.29643 1.22808 4.83076 1.0067 5.26047 0.640388C5.74581 0.227024 6.36249 0 7 0C7.63751 0 8.25419 0.227024 8.73953 0.640388C9.16924 1.0067 9.70357 1.22808 10.2664 1.27302C10.9021 1.32382 11.4988 1.59937 11.9497 2.05027C12.4006 2.50117 12.6762 3.09793 12.727 3.73357C12.7716 4.2962 12.993 4.83084 13.3596 5.26047C13.773 5.74581 14 6.36249 14 7C14 7.63751 13.773 8.25419 13.3596 8.73953C12.9933 9.16924 12.7719 9.70357 12.727 10.2664C12.6762 10.9021 12.4006 11.4988 11.9497 11.9497C11.4988 12.4006 10.9021 12.6762 10.2664 12.727C9.70357 12.7719 9.16924 12.9933 8.73953 13.3596C8.25419 13.773 7.63751 14 7 14C6.36249 14 5.74581 13.773 5.26047 13.3596C4.83076 12.9933 4.29643 12.7719 3.73357 12.727C3.09793 12.6762 2.50117 12.4006 2.05027 11.9497C1.59937 11.4988 1.32382 10.9021 1.27302 10.2664C1.22808 9.70357 1.0067 9.16924 0.640388 8.73953C0.227024 8.25419 0 7.63751 0 7C0 6.36249 0.227024 5.74581 0.640388 5.26047C1.0067 4.83076 1.22808 4.29643 1.27302 3.73357C1.32382 3.09793 1.59937 2.50117 2.05027 2.05027C2.50117 1.59937 3.09793 1.32382 3.73357 1.27302ZM10.2437 5.86861C10.4031 5.70358 10.4913 5.48255 10.4893 5.25312C10.4873 5.02369 10.3953 4.80423 10.233 4.64199C10.0708 4.47976 9.85132 4.38773 9.6219 4.38574C9.39247 4.38375 9.17144 4.47194 9.00641 4.63133L6.12498 7.51276L4.99359 6.38136C4.82856 6.22197 4.60753 6.13378 4.3781 6.13577C4.14868 6.13776 3.92921 6.22979 3.76698 6.39202C3.60474 6.55426 3.51272 6.77372 3.51072 7.00315C3.50873 7.23258 3.59693 7.45361 3.75632 7.61864L5.50635 9.36867C5.67044 9.53271 5.89296 9.62486 6.12498 9.62486C6.35701 9.62486 6.57953 9.53271 6.74362 9.36867L10.2437 5.86861Z" fill="#174E86"/>
</svg>
