<svg width="10" height="8" viewBox="0 0 10 8" fill="none" xmlns="http://www.w3.org/2000/svg">
<path d="M5.36039 0.248319C5.19982 -0.0284105 4.80019 -0.0284116 4.63961 0.248319L3.50876 2.1972C3.42944 2.3339 3.29233 2.42719 3.13605 2.45079L1.01676 2.77088C0.660807 2.82465 0.535948 3.27407 0.813159 3.50373L2.39195 4.81174C2.53809 4.93282 2.60681 5.12381 2.57131 5.31024L2.15832 7.47905C2.09303 7.82189 2.45295 8.08827 2.76176 7.92567L4.75734 6.87491C4.90923 6.79494 5.09077 6.79493 5.24266 6.87491L7.23825 7.92567C7.54706 8.08827 7.90697 7.82189 7.84169 7.47905L7.4287 5.31024C7.3932 5.12381 7.46192 4.93282 7.60806 4.81174L9.18684 3.50373C9.46405 3.27407 9.3392 2.82465 8.98325 2.77088L6.86395 2.45079C6.70767 2.42719 6.57057 2.3339 6.49125 2.1972L5.36039 0.248319Z" fill="#174E86"/>
</svg>
