<svg width="56" height="56" viewBox="0 0 56 56" fill="none" xmlns="http://www.w3.org/2000/svg">
<rect width="56" height="56" rx="4" fill="#F3F3F3"/>
<path d="M15.8188 12.0682C14.85 12.2619 14.0625 12.6869 13.375 13.3744C12.7812 13.9619 12.4375 14.5369 12.175 15.3744L12.0312 15.8432V24.8119V33.7807L12.175 34.2494C12.6625 35.8057 13.7188 36.8869 15.2812 37.4244L15.7812 37.5932L25.6062 37.6119L35.4312 37.6244L35.45 40.3932L35.4688 43.1557L35.6187 43.3932C35.7 43.5244 35.8813 43.7057 36.0188 43.7994L36.2688 43.9682L38.1125 43.9869C40.3125 44.0119 40.65 43.9619 41.5625 43.5182C42.0562 43.2807 42.2437 43.1432 42.6938 42.6932C43.1438 42.2432 43.2812 42.0557 43.5188 41.5619C44.0312 40.5119 44.0063 41.0807 43.9875 31.4932L43.9688 23.0244L43.8 22.7682C43.5438 22.3744 43.2375 22.2182 42.7375 22.2182C42.375 22.2182 42.2875 22.2432 42.0562 22.4057C41.9125 22.5057 41.725 22.7182 41.6438 22.8682L41.5 23.1432V29.3557V35.5682L41.325 35.4744C41.2313 35.4244 40.9875 35.3369 40.7812 35.2744C40.425 35.1682 39.7563 35.1557 28.25 35.1244L16.0938 35.0932L15.7687 34.9432C15.375 34.7682 14.8625 34.2432 14.675 33.8307C14.4813 33.3994 14.4813 32.4744 14.675 32.0432C14.8625 31.6244 15.375 31.1057 15.7687 30.9307C16.075 30.7932 16.1875 30.7807 17.725 30.7494L19.3563 30.7182L19.6063 30.5494C19.7438 30.4557 19.925 30.2744 20.0062 30.1432L20.1562 29.9057L20.175 24.1744L20.1875 18.4432L24.5813 18.4244L28.9688 18.4057L29.2063 18.2557C29.3375 18.1744 29.5188 17.9932 29.6125 17.8557C29.7563 17.6432 29.7812 17.5307 29.7812 17.1869C29.7812 16.8432 29.7563 16.7307 29.6125 16.5182C29.5188 16.3807 29.3375 16.1994 29.2063 16.1182L28.9688 15.9682L24.5813 15.9494L20.1938 15.9307L20.175 14.3807L20.1562 12.8307L19.9875 12.5807C19.8938 12.4432 19.7125 12.2619 19.5813 12.1807C19.35 12.0307 19.3125 12.0307 17.7188 12.0182C16.825 12.0119 15.9688 12.0369 15.8188 12.0682ZM17.6875 21.3682V28.2307L16.7375 28.2619C15.8813 28.2932 15.725 28.3119 15.25 28.4807C14.9562 28.5807 14.6688 28.6869 14.6125 28.7119C14.5063 28.7619 14.5 28.4432 14.5 22.5494C14.5 15.6932 14.4813 15.9932 14.8937 15.4182C15.3688 14.7494 15.9313 14.5057 16.9875 14.4994H17.6875V21.3682ZM40.4563 37.8369C41.8438 38.5119 41.8375 40.6119 40.45 41.2932C40.1063 41.4619 40.05 41.4682 39.0188 41.4869L37.9375 41.5119V39.5619V37.6119L39.0188 37.6369C40.0562 37.6557 40.1063 37.6619 40.4563 37.8369Z" fill="#174E86"/>
<path d="M39.4384 12.0986C39.2134 12.1424 38.8196 12.2861 38.5634 12.4111C38.1259 12.6299 37.8759 12.8611 34.4259 16.2674C32.4071 18.2674 30.6821 19.9986 30.6009 20.1174C30.5134 20.2486 30.1321 21.3924 29.6821 22.8736C28.8196 25.6924 28.7759 25.9424 29.0571 26.3924C29.2571 26.7111 29.6009 26.9299 29.9759 26.9736C30.2384 27.0049 30.6821 26.8986 32.9071 26.2799C34.3509 25.8799 35.6196 25.5111 35.7196 25.4611C35.8259 25.4111 37.5884 23.6924 39.6384 21.6361C43.1946 18.0736 43.3696 17.8861 43.5884 17.4361C44.3196 15.9299 44.0509 14.2861 42.8821 13.1174C41.9509 12.1861 40.7134 11.8236 39.4384 12.0986ZM40.9384 14.7111C41.5821 15.1361 41.6759 16.0236 41.1384 16.6174L40.9071 16.8799L40.0134 15.9799L39.1134 15.0799L39.3821 14.8486C39.5321 14.7236 39.7384 14.5924 39.8446 14.5611C40.1571 14.4674 40.6759 14.5361 40.9384 14.7111ZM36.8384 20.9424L34.5509 23.2299L33.2946 23.5799C32.6009 23.7674 32.0259 23.9174 32.0134 23.9111C32.0071 23.8986 32.1571 23.3611 32.3509 22.7111L32.7009 21.5299L35.0259 19.2049L37.3446 16.8736L38.2321 17.7611L39.1259 18.6549L36.8384 20.9424Z" fill="#174E86"/>
</svg>
