<svg width="160" height="160" viewBox="0 0 160 160" fill="none" xmlns="http://www.w3.org/2000/svg">
<rect width="160" height="160" rx="11.4286" fill="#F3F3F3"/>
<g clip-path="url(#clip0_915_27208)">
<path d="M45.1964 34.48C42.4286 35.0336 40.1786 36.2478 38.2143 38.2121C36.5179 39.8907 35.5357 41.5336 34.7857 43.9264L34.375 45.2657V70.8907V96.5157L34.7857 97.855C36.1786 102.301 39.1964 105.391 43.6607 106.926L45.0893 107.409L73.1607 107.462L101.232 107.498L101.286 115.409L101.339 123.301L101.768 123.98C102 124.355 102.518 124.873 102.911 125.141L103.625 125.623L108.893 125.676C115.179 125.748 116.143 125.605 118.75 124.337C120.161 123.659 120.696 123.266 121.982 121.98C123.268 120.694 123.661 120.159 124.339 118.748C125.804 115.748 125.732 117.373 125.679 89.98L125.625 65.7836L125.143 65.0514C124.411 63.9264 123.536 63.48 122.107 63.48C121.071 63.48 120.821 63.5514 120.161 64.0157C119.75 64.3014 119.214 64.9086 118.982 65.3371L118.571 66.1228V83.8728V101.623L118.071 101.355C117.804 101.212 117.107 100.962 116.518 100.784C115.5 100.48 113.589 100.444 80.7143 100.355L45.9821 100.266L45.0536 99.8371C43.9286 99.3371 42.4643 97.8371 41.9286 96.6586C41.375 95.4264 41.375 92.7836 41.9286 91.5514C42.4643 90.355 43.9286 88.8728 45.0536 88.3728C45.9286 87.98 46.25 87.9443 50.6429 87.855L55.3036 87.7657L56.0179 87.2836C56.4107 87.0157 56.9286 86.4978 57.1607 86.1228L57.5893 85.4443L57.6429 69.0693L57.6786 52.6943L70.2321 52.6407L82.7679 52.5871L83.4464 52.1586C83.8214 51.9264 84.3393 51.4086 84.6071 51.0157C85.0179 50.4086 85.0893 50.0871 85.0893 49.105C85.0893 48.1228 85.0179 47.8014 84.6071 47.1943C84.3393 46.8014 83.8214 46.2836 83.4464 46.0514L82.7679 45.6228L70.2321 45.5693L57.6964 45.5157L57.6429 41.0871L57.5893 36.6586L57.1071 35.9443C56.8393 35.5514 56.3214 35.0336 55.9464 34.8014C55.2857 34.3728 55.1786 34.3728 50.625 34.3371C48.0714 34.3193 45.625 34.3907 45.1964 34.48ZM50.5357 61.0514V80.6586L47.8214 80.7478C45.375 80.8371 44.9286 80.8907 43.5714 81.3728C42.7321 81.6586 41.9107 81.9621 41.75 82.0336C41.4464 82.1764 41.4286 81.2657 41.4286 64.4264C41.4286 44.8371 41.375 45.6943 42.5536 44.0514C43.9107 42.1407 45.5179 41.4443 48.5357 41.4264H50.5357V61.0514ZM115.589 108.105C119.554 110.034 119.536 116.034 115.571 117.98C114.589 118.462 114.429 118.48 111.482 118.534L108.393 118.605V113.034V107.462L111.482 107.534C114.446 107.587 114.589 107.605 115.589 108.105Z" fill="#174E86"/>
<path d="M112.681 34.5671C112.038 34.6921 110.913 35.1028 110.181 35.46C108.931 36.085 108.217 36.7457 98.3596 46.4778C92.5918 52.1921 87.6632 57.1386 87.4311 57.4778C87.1811 57.8528 86.0918 61.1207 84.8061 65.3528C82.3418 73.4064 82.2168 74.1207 83.0203 75.4064C83.5918 76.3171 84.5739 76.9421 85.6453 77.0671C86.3953 77.1564 87.6632 76.8528 94.0203 75.085C98.1453 73.9421 101.77 72.8886 102.056 72.7457C102.36 72.6028 107.395 67.6921 113.252 61.8171C123.413 51.6386 123.913 51.1028 124.538 49.8171C126.627 45.5136 125.86 40.8171 122.52 37.4778C119.86 34.8171 116.324 33.7814 112.681 34.5671ZM116.967 42.0314C118.806 43.2457 119.074 45.7814 117.538 47.4778L116.877 48.2278L114.324 45.6564L111.752 43.085L112.52 42.4243C112.949 42.0671 113.538 41.6921 113.842 41.6028C114.735 41.335 116.217 41.5314 116.967 42.0314ZM105.252 59.835L98.7168 66.3707L95.1275 67.3707C93.1453 67.9064 91.5025 68.335 91.4668 68.3171C91.4489 68.2814 91.8775 66.7457 92.4311 64.8886L93.4311 61.5136L100.074 54.8707L106.699 48.21L109.235 50.7457L111.788 53.2993L105.252 59.835Z" fill="#174E86"/>
</g>
<defs>
<clipPath id="clip0_915_27208">
<rect width="91.4286" height="91.4286" fill="white" transform="translate(34.2861 34.2861)"/>
</clipPath>
</defs>
</svg>
