<svg width="20" height="20" viewBox="0 0 20 20" fill="none" xmlns="http://www.w3.org/2000/svg">
<path d="M18.4298 2.52968C20 2.75323 19.9989 2.75323 20 4.31068C20 5.02773 20 5.74582 20 6.46391C20 7.39712 19.7739 7.63332 18.8621 7.73877C16.1971 8.04668 13.5342 8.37146 10.8692 8.66776C10.4096 8.71943 10.2571 8.89553 10.2718 9.34579C10.2981 10.1894 10.2792 11.0277 10.2792 11.9609C10.5737 11.9609 10.8324 11.9683 11.0901 11.9609C11.4056 11.9503 11.5465 12.0853 11.5454 12.408C11.5391 14.4537 11.557 16.4993 11.5339 18.544C11.5207 18.9369 11.3548 19.309 11.0717 19.581C10.7887 19.8531 10.4108 20.0034 10.0187 19.9999C9.62664 19.9965 9.25143 19.8396 8.97315 19.5626C8.69487 19.2857 8.53555 18.9107 8.52919 18.5176C8.51131 16.5088 8.52919 14.499 8.51552 12.4892C8.51552 12.0937 8.65329 11.925 9.04873 11.9619C9.24329 11.9788 9.43996 11.9619 9.7176 11.9619V9.5261C9.7176 8.3472 9.87115 8.20063 11.0606 8.06777C13.6383 7.77884 16.2139 7.46039 18.7916 7.18096C19.2985 7.12613 19.4489 6.91734 19.4226 6.42596C19.3858 5.62034 19.4132 4.81156 19.4132 4.00067C19.4132 3.13389 19.3616 3.09066 18.4256 3.23618C18.4256 3.70331 18.4256 4.1852 18.4256 4.66077C18.4193 5.43475 18.1301 5.73738 17.3539 5.73949C14.5985 5.74582 11.842 5.73949 9.08659 5.73949H8.50711C8.49449 5.97148 8.4745 6.16128 8.47345 6.34898C8.47345 7.35389 8.48186 8.3588 8.47345 9.36371C8.46399 10.1672 7.96654 10.7082 7.25454 10.7229C6.54254 10.7377 6.00198 10.1672 5.9841 9.35212C5.9841 9.19078 5.9841 9.02945 5.9841 8.86811C5.9841 8.48639 5.79479 8.22699 5.41723 8.21856C5.00707 8.21012 4.81567 8.48745 4.80936 8.88604C4.80305 9.28463 4.80936 9.67478 4.80936 10.0702C4.79674 10.859 4.33399 11.3799 3.63777 11.401C2.91631 11.422 2.39783 10.9054 2.38521 10.0913C2.36628 8.87128 2.38521 7.65125 2.38521 6.43123V5.81436C1.12318 5.58027 1.12318 5.58027 0.962268 4.53529C0.932821 4.51525 0.905475 4.48256 0.874976 4.4794C0.0115366 4.38872 0.0125902 4.38871 0.0125902 3.49768C0.0125902 2.9947 0.0420368 2.49066 0.00522763 1.99084C-0.0347367 1.45412 0.150361 1.20948 0.701447 1.28646C0.794081 1.28609 0.886303 1.27404 0.975941 1.2506C0.989613 1.14516 1.00539 1.0608 1.01275 0.974332C1.07585 0.27838 1.34719 0.00421789 2.03079 0.00316342C7.16655 -0.00105447 12.3023 -0.00105447 17.4381 0.00316342C18.1332 0.00316342 18.4361 0.328995 18.4456 1.04076C18.434 1.53109 18.4298 2.00982 18.4298 2.52968ZM9.67238 5.17324C12.1964 5.17324 14.7205 5.1648 17.2446 5.18168C17.7094 5.18168 17.8819 5.03616 17.8756 4.56376C17.8524 3.43336 17.8524 2.30261 17.8756 1.17152C17.885 0.714931 17.6989 0.588395 17.2698 0.58945C12.2217 0.599292 7.17356 0.599292 2.12544 0.58945C1.71318 0.58945 1.54806 0.726532 1.55542 1.15043C1.57435 2.28188 1.58276 3.41333 1.55542 4.54267C1.5428 5.04987 1.73 5.18695 2.21483 5.18273C4.69578 5.16164 7.18408 5.17324 9.67238 5.17324ZM2.94155 5.80593C2.94155 7.24844 2.94155 8.65933 2.94155 10.0713C2.94155 10.5131 3.12034 10.8294 3.57257 10.8358C4.02479 10.8421 4.22462 10.5194 4.23093 10.0881C4.23724 9.65686 4.21725 9.19078 4.24039 8.74368C4.2536 8.45456 4.37531 8.18112 4.58113 7.97818C4.78695 7.77524 5.06167 7.6578 5.35021 7.64939C5.63876 7.64099 5.91981 7.74225 6.13703 7.93287C6.35425 8.12349 6.49159 8.38938 6.52151 8.67725C6.5457 8.88815 6.53203 9.10642 6.54044 9.32154C6.56358 9.86353 6.82124 10.1778 7.24508 10.144C7.73727 10.104 7.89712 9.77707 7.89607 9.3247C7.89607 8.24914 7.89607 7.17358 7.89607 6.09696C7.88584 5.99818 7.86576 5.90068 7.83613 5.80593H2.94155ZM9.08659 12.582C9.08659 14.6118 9.06976 16.5953 9.10762 18.5788C9.11288 18.8255 9.35477 19.1482 9.57878 19.2958C10.2045 19.706 10.9523 19.222 10.9649 18.4058C10.9838 17.0455 10.9702 15.6842 10.9702 14.324V12.5756L9.08659 12.582ZM0.575243 3.80243L0.718275 3.92369C0.80872 3.82352 0.96963 3.72756 0.975941 3.62317C1.00118 3.14442 1.00118 2.66467 0.975941 2.18592C0.970682 2.0868 0.835012 1.99401 0.760342 1.89911C0.69724 2.00455 0.583658 2.10473 0.580503 2.21017C0.567883 2.73425 0.578398 3.2657 0.578398 3.7961L0.575243 3.80243Z" fill="#7F8790"/>
</svg>
