<svg width="247" height="240" viewBox="0 0 247 240" fill="none" xmlns="http://www.w3.org/2000/svg">
<path d="M247 228.368L231.974 218.773H38.4675L29.9062 230.18L247 228.368Z" fill="#E0E0E0"/>
<path d="M139.119 36.9766H62.5905C59.0693 36.9766 56.2148 40.0636 56.2148 43.8716V101.084C56.2148 104.892 59.0693 107.979 62.5905 107.979H139.119C142.64 107.979 145.494 104.892 145.494 101.084V43.8716C145.494 40.0636 142.64 36.9766 139.119 36.9766Z" stroke="#171825" stroke-width="4" stroke-miterlimit="10"/>
<path d="M226.727 222.565L229.939 225.398V132.973H227.201C227.201 161.992 227.201 191.012 227.201 220.032C227.191 220.887 227.488 221.827 226.727 222.565Z" fill="#F0EFEF"/>
<path d="M63.1852 221.827L59.9727 224.66V132.213H62.7108C62.7108 161.233 62.7108 190.252 62.7108 219.272C62.7206 220.127 62.4142 221.1 63.1852 221.827Z" fill="#F0EFEF"/>
<path d="M146.531 72.5306L146.689 73.3645C146.663 75.336 147.03 77.2906 147.767 79.0943C148.281 80.3664 149.744 83.9154 152.541 85.1234C152.67 85.1875 152.808 85.2303 152.946 85.2837C155.526 86.1389 158.966 85.1555 162.031 82.6433C162.489 82.2666 162.927 81.8634 163.345 81.4354C163.933 80.8433 164.481 80.2075 164.986 79.5326L167.299 75.4597L168.861 72.4879L171.579 67.2712L148.113 63.6152C147.451 65.495 146.987 67.4493 146.729 69.4413C146.599 70.4507 146.532 71.4686 146.531 72.4879V72.5306Z" fill="#E9A95D"/>
<path d="M87.6774 70.2964C88.1321 70.6812 89.5951 70.0505 92.7088 69.7405C94.6857 69.5481 95.0811 69.7405 100.854 69.7405C105.895 69.8153 106.785 69.7405 107.062 69.345C107.477 68.7784 105.599 68.276 104.501 66.3411C103.631 64.8231 104.343 64.3207 103.513 63.8183C101.536 62.5569 94.8044 64.2459 90.6626 66.9504C88.9822 68.1049 87.0843 69.7833 87.6774 70.2964Z" fill="#35302A"/>
<path d="M107.932 75.1718H87.5L94.1129 72.9376V66.9727L101.022 69.5169V72.9376L101.764 73.1728L107.932 75.1718Z" fill="#B9822F"/>
<path d="M94.1135 68.554L93.125 67.4102L94.1135 67.7415L101.033 70.0399V72.9262L101.774 73.1721L94.1135 68.554Z" fill="#5E4119"/>
<path d="M104.721 55.1603C105.217 56.4464 105.569 57.7923 105.769 59.169C104.187 62.2584 100.678 64.4071 96.6057 64.4071C91.0504 64.4071 86.543 60.4198 86.543 55.5024C86.543 50.585 91.0504 46.5977 96.6057 46.5977C101.924 46.5977 106.283 50.2643 106.639 54.8931L104.721 55.1603Z" fill="url(#paint0_linear_915_29584)"/>
<path d="M105.917 61.2757L105.798 61.8423C105.816 63.2087 105.535 64.5602 104.978 65.7869C104.583 66.6635 103.485 69.1008 101.35 69.9346L101.044 70.0415C99.0669 70.6295 96.4573 69.956 94.1245 68.2242C93.7686 67.9676 93.4424 67.6897 93.136 67.4011C92.6968 66.9902 92.2809 66.5511 91.8905 66.0862L90.1409 63.2855L88.9547 61.233L86.8789 57.6519L104.751 55.1504C105.247 56.4365 105.599 57.7823 105.798 59.1591C105.899 59.8666 105.948 60.5814 105.947 61.2971L105.917 61.2757Z" fill="url(#paint1_linear_915_29584)"/>
<path d="M99.0671 59.4902C99.0186 59.7458 99.0254 60.0101 99.0871 60.2623C99.1489 60.5146 99.2638 60.7479 99.423 60.944C99.9666 61.5748 100.876 61.4999 101.054 62.013C101.143 62.2375 101.054 62.6117 100.352 63.2638" stroke="#61431B" stroke-width="1.5" stroke-miterlimit="10"/>
<path d="M95.9124 61.1147C96.3709 61.1147 96.7427 60.6408 96.7427 60.0563C96.7427 59.4719 96.3709 58.998 95.9124 58.998C95.4538 58.998 95.082 59.4719 95.082 60.0563C95.082 60.6408 95.4538 61.1147 95.9124 61.1147Z" fill="#61431B"/>
<path d="M102.041 60.4526C102.5 60.4526 102.872 59.9787 102.872 59.3942C102.872 58.8098 102.5 58.3359 102.041 58.3359C101.583 58.3359 101.211 58.8098 101.211 59.3942C101.211 59.9787 101.583 60.4526 102.041 60.4526Z" fill="#61431B"/>
<path d="M98.543 65.3477C98.9146 65.613 99.3418 65.7735 99.7855 65.8145C100.229 65.8556 100.675 65.776 101.083 65.5828" stroke="#61431B" stroke-width="1.5" stroke-miterlimit="10"/>
<path d="M94.1641 59.1376C94.3 58.8777 94.4892 58.6549 94.7171 58.4862C94.945 58.3176 95.2055 58.2077 95.4788 58.1648C95.912 58.0862 96.3572 58.1533 96.754 58.3572" stroke="#61431B" stroke-width="1.5" stroke-miterlimit="10"/>
<path d="M100.281 58.6336C100.42 58.3762 100.61 58.1554 100.837 57.9872C101.065 57.8189 101.324 57.7075 101.596 57.6608C102.029 57.5857 102.473 57.6527 102.871 57.8532" stroke="#61431B" stroke-width="1.5" stroke-miterlimit="10"/>
<path d="M91.7415 56.2192C92.6015 55.535 93.8964 55.7702 95.8832 55.9413C98.6944 56.1118 101.514 56.0439 104.315 55.7382C105.976 55.5778 106.292 55.4495 106.549 55.2037C107.755 53.985 105.758 50.9277 103.742 49.089C102.307 47.7217 100.565 46.7854 98.6905 46.3738C95.6718 45.7224 92.5374 46.2488 89.8436 47.8597C86.7793 49.8266 86.295 52.7129 85.3757 58.1862C84.9542 60.9639 85.0651 63.8056 85.7018 66.535C86.542 70.1803 87.5701 70.4903 87.8568 70.5437C89.3197 70.8537 91.2967 69.0151 92.1566 67.4223C92.6162 66.5377 92.878 65.5492 92.9209 64.5356C92.9638 63.5221 92.7867 62.5118 92.4038 61.5856C91.7711 60.0355 90.6838 58.9879 91.0792 57.3737C91.1677 56.9167 91.4022 56.508 91.7415 56.2192Z" fill="#181410"/>
<path d="M92.2674 63.5781C93.1449 63.1548 93.4848 61.9112 93.0267 60.8005C92.5685 59.6898 91.4859 59.1325 90.6084 59.5558C89.7309 59.9791 89.3909 61.2227 89.8491 62.3334C90.3072 63.4441 91.3899 64.0014 92.2674 63.5781Z" fill="url(#paint2_linear_915_29584)"/>
<path d="M170.673 56.3572C170.838 57.0861 171.053 57.8007 171.315 58.4952C171.315 58.6021 171.395 58.709 171.444 58.8159C171.44 58.837 171.44 58.8589 171.444 58.88C171.628 59.3209 171.843 59.7462 172.086 60.1521L172.403 60.6225C173.391 61.8946 174.093 61.7984 174.123 63.3377C174.031 65.1194 173.55 66.8521 172.719 68.3941C171.309 71.2869 169.587 73.989 167.589 76.4436L167.302 76.7964C166.61 77.6409 165.899 78.4747 165.157 79.2658C164.831 79.6292 164.505 79.9713 164.169 80.3348C163.833 80.6982 163.269 81.2327 162.815 81.6496L162.716 81.7458C162.33 82.0986 161.945 82.4513 161.559 82.8148C161.528 82.853 161.491 82.8855 161.45 82.911C161.342 82.3658 161.223 81.842 161.124 81.3289C160.857 80.0354 160.63 78.7954 160.422 77.6302L160.284 77.0743L160.106 76.3474L159.651 75.9946L158.594 75.1822C158.93 74.4339 159.246 73.6535 159.651 72.6594L159.77 72.3707L160.076 71.6011C160.254 71.1628 160.442 70.6817 160.67 70.1472C160.67 70.1472 160.67 70.1472 160.67 70.0938L161.272 68.5865L162.34 65.9461C162.518 65.5185 162.696 65.0695 162.894 64.6098L163.388 63.3912C163.457 63.2308 163.526 63.0812 163.586 62.9208L163.852 62.2794C163.901 62.1791 163.944 62.0755 163.981 61.9694L164.248 61.3387L164.475 60.7935C165.701 57.8645 166.6 55.7799 167.273 54.3795L167.797 53.3105L170.673 56.3572Z" fill="#593913"/>
<path d="M166.094 91.0039L162.99 89.8387L162.051 89.486V88.7484V80.8164L152.967 84.5151V89.486L151.988 89.8387L145.553 92.1371L143.883 92.7357H144.169H158.621H168.021L166.094 91.0039Z" fill="#E9A95D"/>
<path d="M151.988 89.8376L152.967 89.1855V89.4956L151.988 89.8376Z" fill="#905F25"/>
<path d="M155.537 69.9453C155.603 70.3163 155.596 70.698 155.518 71.0662C155.44 71.4343 155.291 71.7807 155.082 72.0833C154.351 72.9919 153.105 72.885 152.917 73.5906C152.818 73.9113 152.917 74.4564 153.846 75.3972" stroke="#61431B" stroke-width="2" stroke-miterlimit="10"/>
<path d="M159.679 72.3072C160.285 72.3072 160.776 71.618 160.776 70.7679C160.776 69.9177 160.285 69.2285 159.679 69.2285C159.073 69.2285 158.582 69.9177 158.582 70.7679C158.582 71.618 159.073 72.3072 159.679 72.3072Z" fill="#61431B"/>
<path d="M151.632 71.3443C152.238 71.3443 152.73 70.6551 152.73 69.805C152.73 68.9548 152.238 68.2656 151.632 68.2656C151.026 68.2656 150.535 68.9548 150.535 69.805C150.535 70.6551 151.026 71.3443 151.632 71.3443Z" fill="#61431B"/>
<path d="M156.238 78.4531C155.763 78.8386 155.198 79.0745 154.607 79.1349C154.015 79.1952 153.42 79.0777 152.887 78.7952" stroke="#61431B" stroke-width="2" stroke-miterlimit="10"/>
<path d="M161.992 69.4202C161.82 69.058 161.574 68.7429 161.272 68.4985C160.971 68.2541 160.622 68.0867 160.253 68.0091C159.683 67.902 159.096 67.9996 158.582 68.287" stroke="#61431B" stroke-width="2" stroke-miterlimit="10"/>
<path d="M153.945 68.6936C153.773 68.3315 153.527 68.0163 153.225 67.7719C152.924 67.5275 152.575 67.3602 152.206 67.2825C151.636 67.1754 151.049 67.2731 150.535 67.5605" stroke="#61431B" stroke-width="2" stroke-miterlimit="10"/>
<path d="M168.024 92.7358C170.221 94.9402 172.269 97.3123 174.152 99.8339C174.132 100.135 174.004 100.415 173.795 100.614C173.586 100.814 173.314 100.918 173.035 100.903H140.831C140.692 100.895 140.556 100.857 140.432 100.792C140.307 100.726 140.195 100.635 140.103 100.522C140.011 100.41 139.941 100.279 139.896 100.137C139.851 99.9949 139.833 99.8447 139.842 99.695L140.366 94.9807C140.393 94.7823 140.469 94.5954 140.585 94.4393C140.702 94.2833 140.855 94.1639 141.028 94.0934L144.182 92.7251L145.566 92.1265L150.646 89.9243C150.791 89.8608 150.945 89.8281 151.101 89.8281H162.963C163.081 89.8285 163.198 89.8502 163.309 89.8923L165.701 90.694L166.067 90.9933L168.024 92.7358Z" fill="#FFC340"/>
<path d="M167.818 73.6697C168.234 71.9749 167.575 70.315 166.345 69.9622C165.116 69.6095 163.782 70.6974 163.366 72.3922C162.95 74.087 163.61 75.7469 164.839 76.0997C166.069 76.4525 167.403 75.3645 167.818 73.6697Z" fill="#E9A95D"/>
<path d="M46.002 61.1572H23.7117C20.7463 61.1572 19.7578 60.163 19.7578 56.9454C19.7578 45.9419 19.7578 34.949 19.7578 23.9669C19.7578 20.7599 20.6969 19.7871 23.7117 19.7871H68.0846C71.228 19.7871 72.1275 20.7492 72.1275 24.1272C72.1275 35.0381 72.1275 45.949 72.1275 56.8598C72.1275 60.2165 71.228 61.1358 68.0451 61.1358L46.002 61.1572Z" fill="#2E337F"/>
<path d="M185.104 51.2803C183.829 52.6807 182.563 54.1025 181.268 55.4815C180.903 55.877 180.438 56.2832 179.855 55.9839C179.623 55.8415 179.438 55.6258 179.323 55.3659C179.208 55.106 179.169 54.8144 179.212 54.5301C179.212 45.5933 179.212 36.6458 179.212 27.709C179.19 27.2911 179.254 26.873 179.398 26.4845C179.542 26.096 179.764 25.7466 180.047 25.461C180.33 25.1754 180.667 24.9606 181.035 24.8318C181.404 24.703 181.794 24.6634 182.178 24.7158C192.339 24.7158 202.501 24.7158 212.663 24.7158C213.066 24.6731 213.473 24.7286 213.854 24.8781C214.236 25.0277 214.581 25.2675 214.865 25.5801C215.15 25.8927 215.366 26.2701 215.498 26.6847C215.63 27.0994 215.674 27.5406 215.628 27.9763C215.628 33.8023 215.628 39.6176 215.628 45.4436C215.628 47.8382 214.531 48.811 212.089 48.8217C204.587 48.8217 197.074 48.8217 189.572 48.8217C188.673 48.6388 187.744 48.8215 186.962 49.3348C184.858 49.6563 182.717 49.5585 180.646 49.0461C182.247 49.5806 183.967 49.7196 185.104 51.2803Z" fill="url(#paint3_linear_915_29584)"/>
<path d="M77.8021 103.02C89.9999 103.169 102.208 103.233 114.376 103.02C115.028 103.864 115.928 103.533 116.728 103.543C121.453 103.543 126.178 103.543 130.903 103.543C130.975 103.735 130.993 103.946 130.956 104.149C130.919 104.352 130.829 104.539 130.696 104.687C128.432 107.777 126.139 110.845 123.895 113.945C123.57 114.412 123.129 114.77 122.623 114.976C122.117 115.183 121.568 115.229 121.038 115.11C114.475 115.11 107.931 115.195 101.377 115.11H100.537C97.1467 115.056 93.7562 115.409 90.3756 114.885C90.1163 114.756 89.8736 114.591 89.654 114.394C80.6193 114.394 71.5747 114.276 62.5301 114.394C58.1906 114.479 53.7128 110.192 55.7689 103.501C56.3649 102.971 57.1239 102.703 57.8941 102.752C64.1413 102.699 70.3885 102.752 76.6753 102.752C77.061 102.781 77.4406 102.871 77.8021 103.02Z" fill="#F0EFF0"/>
<path d="M121.781 114.746C122.194 114.698 122.593 114.552 122.948 114.319C123.303 114.087 123.607 113.772 123.837 113.399C126.18 110.085 128.572 106.814 130.945 103.532C134.236 100.143 137.36 96.5514 141.393 94.1354C142.381 93.5368 143.37 93.0665 144.428 92.4785C144.912 94.3493 145.633 95.9848 147.798 96.1452C146.81 98.0159 145.9 99.6942 146.118 101.768C140.711 105.306 138.813 111.026 137.854 117.333C136.997 118.616 136.284 120.005 135.729 121.47C135.298 122.223 134.813 122.938 134.276 123.608C133.216 125.22 131.787 126.507 130.129 127.341C128.47 128.175 126.639 128.528 124.816 128.365C120.279 128.119 115.712 128.29 111.155 128.365C107.122 128.236 103.089 128.621 99.0662 128.151C97.8998 127.542 98.0777 126.483 98.3149 125.414C98.7307 123.675 99.3731 122.008 100.223 120.465C100.421 120.205 100.67 119.996 100.952 119.851C101.234 119.707 101.542 119.632 101.854 119.631C107.29 118.805 112.642 117.423 117.837 115.505C119.094 114.976 120.434 114.718 121.781 114.746Z" fill="#FFC340"/>
<path d="M101.756 120.187L100.303 120.679C100.201 120.887 100.042 121.055 99.848 121.16C98.3851 121.395 97.4757 122.731 96.2006 123.298C93.0473 124.217 89.983 125.436 86.7704 126.141C86.5798 126.14 86.3919 126.093 86.2208 126.002C86.0496 125.911 85.8996 125.78 85.782 125.618C85.7644 125.431 85.7971 125.243 85.876 125.076C85.9549 124.909 86.0767 124.771 86.2268 124.677C86.9851 124.197 87.6178 123.517 88.0653 122.699C88.4725 122.097 88.7832 121.425 88.9846 120.711L89.4295 119.257C89.8644 117.643 89.9533 115.943 90.3487 114.318H100.817C101.687 115.623 101.528 117.205 101.865 118.669C101.98 119.175 101.942 119.707 101.756 120.187Z" fill="white"/>
<path d="M95.6435 71.7506H100.082C100.89 71.8524 101.706 71.8524 102.513 71.7506C104.49 71.2482 105.093 72.1141 104.807 74.1024C104.579 74.3055 104.342 74.6582 104.105 74.6582C99.8149 74.701 95.5315 74.701 91.2547 74.6582C91.0175 74.6582 90.7802 74.3055 90.543 74.1237C90.7802 72.0713 91.7687 71.2375 93.7061 71.7185C94.3482 71.8164 94.999 71.8272 95.6435 71.7506Z" fill="url(#paint4_linear_915_29584)"/>
<path d="M85.8292 125.617L86.7485 125.681C86.9758 126.75 87.5887 127.017 88.5475 126.985C90.5245 126.921 92.5509 126.985 94.5575 126.985C95.5464 126.941 96.537 126.966 97.5229 127.06C97.887 127.145 98.2263 127.325 98.5114 127.584L111.283 127.734V128.076H79.8885C79.1175 126.547 79.5622 125.606 81.1537 125.735C82.7452 125.863 84.2674 125.083 85.8292 125.617Z" fill="#D8D8D8"/>
<path d="M45.0156 63.615C48.762 62.4926 52.3601 64.0213 55.9779 64.7802C57.3519 65.0689 59.3189 63.8395 59.5265 67.6665C59.5957 68.9814 60.4162 70.5528 59.6649 71.5256C58.5875 72.9367 56.6402 72.958 55.9186 71.9211C52.7752 67.4313 48.3666 67.5276 45.0156 63.615Z" fill="url(#paint5_linear_915_29584)"/>
<mask id="path-38-inside-1_915_29584" fill="white">
<path d="M12.2077 23.2719L0 20.3963L0.15813 19.5625C4.27863 20.2705 8.36307 21.2053 12.3955 22.3633L12.2077 23.2719Z"/>
</mask>
<path d="M12.2077 23.2719L0 20.3963L0.15813 19.5625C4.27863 20.2705 8.36307 21.2053 12.3955 22.3633L12.2077 23.2719Z" fill="#FFCA58"/>
<path d="M12.2077 23.2719L8.7685 37.8723L23.7762 41.4075L26.8972 26.3082L12.2077 23.2719ZM0 20.3963L-14.7373 17.6014L-17.4121 31.7053L-3.43921 34.9967L0 20.3963ZM0.15813 19.5625L2.69832 4.77915L-11.8321 2.28242L-14.5792 16.7676L0.15813 19.5625ZM12.3955 22.3633L27.085 25.3995L29.8994 11.7834L16.5356 7.94591L12.3955 22.3633ZM15.6469 8.6715L3.43921 5.79591L-3.43921 34.9967L8.7685 37.8723L15.6469 8.6715ZM14.7373 23.1912L14.8955 22.3574L-14.5792 16.7676L-14.7373 17.6014L14.7373 23.1912ZM-2.38206 34.3458C1.19702 34.9608 4.74742 35.7732 8.25548 36.7806L16.5356 7.94591C11.9787 6.63738 7.36024 5.5802 2.69832 4.77915L-2.38206 34.3458ZM-2.29397 19.327L-2.48178 20.2357L26.8972 26.3082L27.085 25.3995L-2.29397 19.327Z" fill="#E6B650" mask="url(#path-38-inside-1_915_29584)"/>
<mask id="path-40-inside-2_915_29584" fill="white">
<path d="M20.4329 10.9679L14.6602 0.545198L15.4806 0L21.2435 10.3906L20.4329 10.9679Z"/>
</mask>
<path d="M20.4329 10.9679L14.6602 0.545198L15.4806 0L21.2435 10.3906L20.4329 10.9679Z" fill="#FFCA58"/>
<path d="M20.4329 10.9679L7.31114 18.2356L15.4506 32.9314L29.1344 23.1861L20.4329 10.9679ZM14.6602 0.545198L6.35836 -11.948L-5.16525 -4.29051L1.53839 7.81288L14.6602 0.545198ZM15.4806 0L28.5982 -7.27528L20.7153 -21.4883L7.17881 -12.4932L15.4806 0ZM21.2435 10.3906L29.945 22.6088L40.8609 14.8347L34.361 3.11535L21.2435 10.3906ZM33.5547 3.70022L27.7819 -6.72248L1.53839 7.81288L7.31114 18.2356L33.5547 3.70022ZM22.962 13.0384L23.7824 12.4932L7.17881 -12.4932L6.35836 -11.948L22.962 13.0384ZM2.36305 7.27528L8.12592 17.6659L34.361 3.11535L28.5982 -7.27528L2.36305 7.27528ZM12.5419 -1.82753L11.7314 -1.25026L29.1344 23.1861L29.945 22.6088L12.5419 -1.82753Z" fill="#E6B650" mask="url(#path-40-inside-2_915_29584)"/>
<mask id="path-42-inside-3_915_29584" fill="white">
<path d="M5.23948 6.87305L14.8376 14.6446L14.3137 15.4143L4.65625 7.65339L5.23948 6.87305Z"/>
</mask>
<path d="M5.23948 6.87305L14.8376 14.6446L14.3137 15.4143L4.65625 7.65339L5.23948 6.87305Z" fill="#FFC854"/>
<path d="M5.23948 6.87305L14.6787 -4.78463L2.55979 -14.5973L-6.7755 -2.10695L5.23948 6.87305ZM14.8376 14.6446L27.2379 23.0846L35.0047 11.6733L24.2768 2.98695L14.8376 14.6446ZM14.3137 15.4143L4.91753 27.1067L17.5764 37.2796L26.714 23.8543L14.3137 15.4143ZM4.65625 7.65339L-7.35873 -1.3266L-16.0289 10.2738L-4.73994 19.3458L4.65625 7.65339ZM-4.19973 18.5307L5.39837 26.3023L24.2768 2.98695L14.6787 -4.78463L-4.19973 18.5307ZM2.4373 6.20466L1.91344 6.97434L26.714 23.8543L27.2379 23.0846L2.4373 6.20466ZM23.7099 3.72193L14.0524 -4.03898L-4.73994 19.3458L4.91753 27.1067L23.7099 3.72193ZM16.6712 16.6334L17.2545 15.853L-6.7755 -2.10695L-7.35873 -1.3266L16.6712 16.6334Z" fill="#E6B650" mask="url(#path-42-inside-3_915_29584)"/>
<path d="M185.103 51.2797L180.16 49.2593C182.483 49.1845 184.776 48.1903 187 49.3555C186.504 50.138 185.857 50.7945 185.103 51.2797Z" fill="#217E57"/>
<path d="M172.371 105.21C173.182 104.333 172.638 103.179 172.915 102.195C173.823 103.596 174.291 105.275 174.249 106.984C173.34 106.749 173.004 105.798 172.371 105.21Z" fill="#F9C451"/>
<path d="M5.7446 55.5126C4.99336 53.9947 5.25032 53.0539 5.3294 51.5039C6.3673 52.9257 6.14 53.9947 5.7446 55.5126Z" fill="#F2F2F2"/>
<path d="M90.3853 114.361C90.5506 116.07 90.2298 117.793 89.4659 119.3C89.199 117.611 89.98 116.029 89.9206 114.361H90.3853Z" fill="#E5E5E5"/>
<path d="M8.90625 42.3536C8.99351 42.0942 9.12853 41.8566 9.30311 41.6552C9.4777 41.4538 9.68824 41.2927 9.922 41.1818C10.1558 41.0709 10.4079 41.0124 10.6632 41.0099C10.9184 41.0073 11.1715 41.0608 11.4071 41.167L8.90625 42.3536Z" fill="#EFEFEF"/>
<path d="M88.112 122.73C88.0901 123.249 87.8891 123.74 87.5487 124.106C87.2082 124.473 86.7532 124.687 86.2734 124.708C86.7042 123.877 87.3409 123.192 88.112 122.73Z" fill="#E3E3E3"/>
<path d="M6.09721 46.5112C6.10409 46.9353 6.06427 47.3587 5.9786 47.7726C5.40528 47.8474 5.72159 47.3023 5.67217 47.035C5.67782 46.8179 5.72143 46.6039 5.80068 46.4043L6.09721 46.5112Z" fill="#EBEBEB"/>
<path d="M89.0208 120.754C89.0208 121.598 88.9418 122.368 88.1016 122.742C88.1164 122.359 88.2059 121.984 88.3644 121.642C88.5228 121.299 88.7466 120.996 89.0208 120.754Z" fill="#E2E2E2"/>
<path d="M75.332 206.476C80.8412 190.441 86.3404 174.406 91.8298 158.371C92.2955 156.846 93.0963 155.465 94.1638 154.348C95.2312 153.231 96.5333 152.41 97.9584 151.957C108.397 148.59 118.865 145.308 129.323 142.005C129.546 141.972 129.772 141.972 129.995 142.005C128.156 144.431 125.527 145.511 123.016 146.751C119.415 148.47 115.609 149.632 111.708 150.204C106.924 150.984 104.72 155.036 105.599 160.552C106.212 164.443 108.169 167.661 110.008 170.932C109.929 172.45 109.099 172.482 108.031 172.065C104.749 172.931 103.355 175.464 102.258 178.746C99.0457 188.367 95.5267 197.934 92.1362 207.523C91.9834 207.707 91.7956 207.853 91.5857 207.951C91.3758 208.049 91.1489 208.096 90.9204 208.09C85.8297 207.438 80.6699 207.908 75.6187 206.839L75.332 206.476Z" fill="#5067AF"/>
<path d="M108.05 172.022C108.439 172.016 108.822 171.91 109.165 171.713C109.509 171.516 109.805 171.234 110.027 170.889C113.497 174.865 117.204 178.489 121.82 180.873C120.502 189.917 119.214 198.96 117.955 208.004C117.826 208.881 117.273 209.843 118.588 210.473C119.477 210.901 118.528 211.692 118.479 212.323C118.4 213.167 117.807 213.392 117.006 213.392C112.469 213.392 107.942 213.392 103.227 213.392C103.731 211.885 103.533 210.27 104.956 209.426C106.686 210.057 108.475 209.522 110.225 209.714C112.36 210.249 114.564 209.65 116.69 210.249C114.713 209.65 112.597 210.196 110.571 209.779C108.713 209.426 106.795 210.057 104.956 209.426C105.793 199.741 106.63 190.049 107.467 180.349C107.685 177.57 107.853 174.79 108.05 172.022Z" fill="#344C9F"/>
<path d="M134.571 136.532C134.571 135.057 134.521 133.571 134.492 132.096V128.151C133.375 126.409 134.195 124.506 134.106 122.678L135.49 121.256C136.132 120.187 136.192 118.584 137.714 118.295C137.645 123.255 137.912 128.258 136.419 133.058C136.024 134.33 135.777 135.752 134.571 136.532Z" fill="#FFC341"/>
<path d="M137.716 118.294L135.492 121.255C135.536 120.435 135.777 119.642 136.191 118.954C136.606 118.266 137.179 117.707 137.855 117.332L137.716 118.294Z" fill="#F0AB1E"/>
<path d="M66.3484 225.163L68.0485 223.453C68.4149 222.455 68.9686 221.551 69.6747 220.796C70.3808 220.042 71.2239 219.454 72.1508 219.07C73.0861 218.389 73.9308 217.572 74.6615 216.643C78.477 210.539 83.5578 210.123 89.0043 210.625C90.408 210.753 90.7737 211.266 90.7441 213.03C90.6848 216.804 90.7441 220.588 90.8133 224.372C90.8133 226.008 90.4772 226.745 89.0142 226.724C81.7983 226.606 74.5725 226.724 67.3566 226.639C66.7635 226.639 65.3006 227.259 66.3484 225.163Z" fill="#2E337F"/>
<path d="M102.199 224.777C103.939 221.72 105.768 218.726 107.379 215.584C107.654 214.895 108.124 214.318 108.72 213.934C109.316 213.55 110.009 213.379 110.7 213.446C116.898 213.51 116.888 213.446 116.898 221.068C116.898 222.318 116.957 223.569 116.987 224.82C117.016 226.07 116.69 226.808 115.376 226.765C111.237 226.637 107.099 226.637 102.96 226.765C101.122 226.776 101.764 225.814 102.199 224.777Z" fill="#2E337F"/>
<path d="M106.725 91.2383V93.2801C106.112 92.7242 106.241 92.2218 106.725 91.2383Z" fill="#2E3E91"/>
<path d="M46.0051 34.5508C52.6081 34.5508 59.2112 34.6256 65.7747 34.5508C67.7516 34.5508 68.6512 35.0532 68.5721 37.4264C68.4238 42.4293 68.4535 47.4428 68.5721 52.4457C68.6215 54.5196 68.0976 55.3427 66.0317 55.332C52.6806 55.2465 39.3262 55.2465 25.9686 55.332C24.1498 55.332 23.359 54.8403 23.4084 52.713C23.5205 47.5391 23.5205 42.3687 23.4084 37.2019C23.4084 35.0639 24.13 34.5508 25.9587 34.5721C32.6111 34.6042 39.2933 34.5508 46.0051 34.5508Z" fill="#4C54A3"/>
<path d="M23.2695 30.3379H68.6309V30.8296H23.2695V30.3379Z" fill="#3A4192"/>
<path d="M23.8729 26.6508C23.637 26.5021 23.4413 26.2891 23.3053 26.033C23.1692 25.777 23.0977 25.4869 23.0977 25.1916C23.0977 24.8963 23.1692 24.6062 23.3053 24.3501C23.4413 24.0941 23.637 23.8811 23.8729 23.7324C24.0316 23.8966 24.1591 24.0927 24.2485 24.3097C24.4009 24.8861 24.4009 25.4971 24.2485 26.0735C24.162 26.2922 24.034 26.4889 23.8729 26.6508Z" fill="#404898"/>
<path d="M28.4276 26.6508C28.1917 26.5021 27.996 26.2891 27.8599 26.033C27.7239 25.777 27.6523 25.4869 27.6523 25.1916C27.6523 24.8963 27.7239 24.6062 27.8599 24.3501C27.996 24.0941 28.1917 23.8811 28.4276 23.7324C28.5892 23.8962 28.7201 24.0922 28.8131 24.3097C28.9614 24.8867 28.9614 25.4965 28.8131 26.0735C28.7237 26.2932 28.5923 26.49 28.4276 26.6508Z" fill="#404898"/>
<path d="M32.9862 26.6508C32.7503 26.5021 32.5546 26.2891 32.4185 26.033C32.2825 25.777 32.2109 25.4869 32.2109 25.1916C32.2109 24.8963 32.2825 24.6062 32.4185 24.3501C32.5546 24.0941 32.7503 23.8811 32.9862 23.7324C33.1449 23.8966 33.2725 24.0927 33.3618 24.3097C33.5143 24.8861 33.5143 25.4971 33.3618 26.0735C33.2754 26.2922 33.1474 26.4889 32.9862 26.6508Z" fill="#404898"/>
<path d="M33.0039 24.2552V23.7314C33.1747 23.5849 33.3727 23.4799 33.5845 23.4239C33.7962 23.3678 34.0167 23.3619 34.2308 23.4066C34.4448 23.4513 34.6474 23.5455 34.8246 23.6827C35.0019 23.82 35.1496 23.997 35.2577 24.2018C35.0995 24.39 34.9033 24.5364 34.6843 24.6294C34.3979 24.7263 34.0934 24.7428 33.7994 24.6773C33.5054 24.6119 33.2317 24.4666 33.0039 24.2552Z" fill="#404898"/>
<path d="M28.457 24.2562V23.7324C28.6292 23.5874 28.8281 23.4839 29.0403 23.4287C29.2525 23.3735 29.4731 23.368 29.6874 23.4126C29.9018 23.4571 30.1048 23.5507 30.283 23.6869C30.4612 23.8232 30.6104 23.9991 30.7206 24.2028C30.5587 24.3912 30.3593 24.5374 30.1375 24.6304C29.8511 24.7283 29.5463 24.7453 29.2522 24.6798C28.9581 24.6143 28.6843 24.4685 28.457 24.2562Z" fill="#404898"/>
<path d="M23.8711 26.6491V26.1253C24.0953 25.9184 24.3639 25.7758 24.6523 25.7104C24.9408 25.645 25.2398 25.659 25.5219 25.7511C25.7437 25.8441 25.9431 25.9903 26.1051 26.1788C25.9945 26.3776 25.8466 26.5491 25.6708 26.6822C25.4951 26.8153 25.2955 26.9069 25.0849 26.9513C24.8743 26.9956 24.6574 26.9917 24.4483 26.9396C24.2392 26.8875 24.0426 26.7886 23.8711 26.6491Z" fill="#404898"/>
<path d="M23.9023 24.2557V23.732C24.0737 23.5871 24.2718 23.4837 24.4832 23.4286C24.6947 23.3735 24.9146 23.3681 25.1282 23.4126C25.3417 23.4572 25.5439 23.5507 25.7212 23.687C25.8985 23.8232 26.0468 23.9989 26.156 24.2023C25.9941 24.3907 25.7947 24.5369 25.5729 24.6299C25.2879 24.7259 24.9851 24.7419 24.6929 24.6764C24.4006 24.611 24.1286 24.4662 23.9023 24.2557Z" fill="#404898"/>
<path d="M32.9844 26.6503V26.1265C33.2101 25.9187 33.4803 25.7755 33.7705 25.7102C34.0607 25.6448 34.3614 25.6593 34.645 25.7523C34.8653 25.8425 35.0621 25.9892 35.2184 26.1799C35.11 26.3814 34.9631 26.5555 34.7875 26.6905C34.6118 26.8256 34.4115 26.9185 34.2 26.9631C33.9885 27.0076 33.7706 27.0027 33.5609 26.9488C33.3513 26.8948 33.1547 26.7931 32.9844 26.6503Z" fill="#404898"/>
<path d="M28.4297 26.6491V26.1253C28.6539 25.9184 28.9225 25.7758 29.2109 25.7104C29.4994 25.645 29.7984 25.659 30.0805 25.7511C30.3023 25.8441 30.5017 25.9903 30.6637 26.1788C30.5531 26.3776 30.4051 26.5491 30.2294 26.6822C30.0536 26.8153 29.854 26.9069 29.6434 26.9513C29.4328 26.9956 29.216 26.9917 29.0069 26.9396C28.7978 26.8875 28.6012 26.7886 28.4297 26.6491Z" fill="#404898"/>
<path d="M30.6924 26.2005H30.2081C29.9885 25.9342 29.8672 25.5899 29.8672 25.2331C29.8672 24.8763 29.9885 24.5319 30.2081 24.2656H30.6924C30.8937 24.5411 31.0031 24.882 31.0031 25.2331C31.0031 25.5842 30.8937 25.925 30.6924 26.2005Z" fill="#414898"/>
<path d="M35.2411 26.2005H34.7667C34.5471 25.9342 34.4258 25.5899 34.4258 25.2331C34.4258 24.8763 34.5471 24.5319 34.7667 24.2656H35.2411C35.4457 24.5395 35.5574 24.881 35.5574 25.2331C35.5574 25.5852 35.4457 25.9266 35.2411 26.2005Z" fill="#414898"/>
<path d="M25.6526 24.2227H26.137C26.3518 24.4998 26.4695 24.8499 26.4695 25.2115C26.4695 25.5731 26.3518 25.9232 26.137 26.2003H25.6526C25.4261 25.9292 25.3008 25.5768 25.3008 25.2115C25.3008 24.8461 25.4261 24.4938 25.6526 24.2227Z" fill="#414898"/>
<path d="M167.457 100.059C167.793 99.2251 168.119 98.3806 168.544 97.3223C168.728 97.8418 168.717 98.4181 168.514 98.9291C168.311 99.44 167.932 99.8452 167.457 100.059Z" fill="#333C8C"/>
<path d="M205.148 33.0957C205.867 33.0958 206.57 33.3273 207.168 33.7608C207.766 34.1943 208.231 34.8102 208.504 35.5302C208.777 36.2502 208.846 37.0417 208.702 37.8042C208.558 38.5666 208.207 39.2655 207.695 39.812C207.182 40.3585 206.531 40.7278 205.824 40.8731C205.118 41.0184 204.387 40.9331 203.725 40.6279C203.063 40.3228 202.5 39.8116 202.107 39.1594C201.714 38.5073 201.51 37.7436 201.52 36.9655C201.53 35.9334 201.917 34.9475 202.597 34.2227C203.276 33.4979 204.193 33.0928 205.148 33.0957Z" fill="#FFF2D6"/>
<path d="M195.58 39.9798C193.969 39.6805 192.871 38.729 192.941 36.9224C192.989 36.1859 193.295 35.4971 193.798 34.9968C194.3 34.4965 194.96 34.2225 195.642 34.2306C196.325 34.2388 196.979 34.5287 197.471 35.0409C197.963 35.5531 198.255 36.2491 198.288 36.9866C198.288 38.8039 197.24 39.7232 195.58 39.9798Z" fill="#FFF2D6"/>
<path d="M187.793 38.9653C186.715 38.7408 186.004 38.078 186.113 36.8273C186.118 36.5817 186.171 36.34 186.267 36.1175C186.363 35.895 186.501 35.6966 186.672 35.5348C186.843 35.373 187.044 35.2514 187.26 35.1776C187.477 35.1038 187.706 35.0795 187.931 35.1062C188.182 35.0951 188.432 35.1454 188.663 35.2533C188.893 35.3612 189.099 35.524 189.263 35.7294C189.427 35.9349 189.547 36.1778 189.612 36.4401C189.678 36.7023 189.688 36.9772 189.641 37.2442C189.596 37.7328 189.379 38.1839 189.035 38.5042C188.691 38.8246 188.246 38.9897 187.793 38.9653Z" fill="#FFF1D2"/>
<path d="M101.755 120.187L101.32 119.289C102.2 117.643 100.47 116.008 101.32 114.361C107.35 114.361 113.37 114.361 119.4 114.361C120.2 114.361 121.06 114.073 121.782 114.736C115.199 117.066 108.724 119.621 101.755 120.187Z" fill="white"/>
<path d="M98.0178 108.995C97.9005 109.684 97.5884 110.316 97.1244 110.804C96.6605 111.293 96.0676 111.613 95.4279 111.721C94.311 111.86 92.6206 109.883 92.8875 108.749C93.2236 107.296 94.1528 106.088 95.5762 106.205C96.2126 106.309 96.7985 106.64 97.2409 107.146C97.6832 107.651 97.9567 108.302 98.0178 108.995Z" fill="#E0E0E0"/>
<path d="M101.36 114.361C101.063 116.008 102.605 117.643 101.36 119.289C101.36 117.622 100.638 116.082 100.895 114.361H101.36Z" fill="#E5E5E5"/>
<path d="M134.108 122.678C135.097 124.431 134.415 126.323 134.494 128.151L111.344 128.076V127.755C115.871 127.755 120.418 127.52 124.935 127.755C126.75 127.919 128.571 127.531 130.192 126.633C131.814 125.736 133.17 124.366 134.108 122.678Z" fill="white"/>
<path d="M98.5706 127.584H97.6909C96.9199 124.719 98.116 122.602 99.9545 120.742C99.9999 120.696 100.057 120.665 100.119 120.653C100.18 120.642 100.243 120.651 100.3 120.678C100.389 122.303 99.2428 123.479 98.9957 124.954C98.7481 125.807 98.6052 126.691 98.5706 127.584Z" fill="#F1AC1F"/>
<path d="M123.639 114.864C124.627 114.864 124.627 114.864 125.042 116.126C124.163 116.222 124.232 115.057 123.629 114.854L123.639 114.864Z" fill="#F2AF24"/>
<path d="M123.631 114.854L122.939 117.526C123.077 116.607 122.039 115.313 123.641 114.864L123.631 114.854Z" fill="#EFAA1F"/>
<path d="M94.5177 127.596C92.264 127.596 90.0102 127.542 87.7763 127.692C85.8981 127.82 85.9179 127.083 86.7878 125.714L96.3464 122.785C96.2962 124.575 95.6464 126.285 94.5177 127.596Z" fill="#E9A95D"/>
<path d="M94.5195 127.595C94.8693 125.897 95.4737 124.272 96.3087 122.785C97.2972 121.716 98.1769 120.262 99.9562 120.743C98.9677 122.935 97.8111 125.019 97.6925 127.585L94.5195 127.595Z" fill="#FDC240"/>
<path d="M92.2543 207.929C93.5986 208.667 92.3828 209.49 92.2543 210.238C91.9578 212.772 90.6826 213.552 88.3004 213.445C82.8835 213.2 77.4271 213.371 71.6445 213.371C73.0679 210.933 72.633 207.79 75.3315 206.465L75.4699 206.55C80.6001 207.406 85.7995 207.128 90.9495 207.705C91.3943 207.769 91.8589 207.63 92.2543 207.929Z" fill="#5067AF"/>
<path d="M92.2531 207.93C86.9026 207.946 81.5557 207.625 76.2398 206.968C75.9654 206.87 75.7056 206.73 75.4688 206.551C81.0438 206.551 86.599 207.053 92.1543 207.47C92.1938 207.63 92.2235 207.791 92.2531 207.93Z" fill="#465CA9"/>
<path d="M86.146 200.17C86.1772 200.597 86.0952 201.025 85.9097 201.404C85.7241 201.782 85.4426 202.096 85.0982 202.308C85.0895 201.884 85.1812 201.466 85.3646 201.091C85.5481 200.717 85.8171 200.4 86.146 200.17Z" fill="#465CA9"/>
<path d="M90.0312 188.219C90.1352 187.584 90.452 187.013 90.9209 186.615C91.0099 186.733 91.168 186.882 91.1482 186.925C90.911 187.417 90.654 187.887 90.3871 188.358C90.2648 188.323 90.1456 188.277 90.0312 188.219Z" fill="#465CA9"/>
<path d="M94.2603 177.666C94.4284 178.5 93.944 178.788 93.6277 179.184C93.5741 179.04 93.548 178.885 93.551 178.73C93.554 178.574 93.586 178.421 93.6451 178.279C93.7041 178.138 93.7891 178.01 93.8948 177.905C94.0006 177.799 94.1249 177.718 94.2603 177.666Z" fill="#475DA9"/>
<path d="M102.129 162.755L103.809 162.221C103.444 163.247 102.87 163.14 102.129 162.755Z" fill="#455CA8"/>
<path d="M98.5617 165.47C98.3442 164.753 98.71 164.016 99.0362 164.069C99.8863 164.187 99.0362 164.678 99.0362 165.01C99.0165 165.17 98.7594 165.288 98.5617 165.47Z" fill="#455CA8"/>
<path d="M87.6988 196.619L87.1255 197.271C87.0563 197.111 86.8883 196.908 86.9278 196.801C87.0513 196.533 87.2039 196.282 87.3825 196.053L87.6988 196.619Z" fill="#445AA7"/>
<path d="M92.7106 182.819L92.1372 183.481C92.0681 183.321 91.9 183.118 91.9395 183C92.0677 182.735 92.2201 182.484 92.3943 182.252L92.7106 182.819Z" fill="#445BA8"/>
<path d="M95.6435 173.326C95.9796 173.893 95.7819 174.481 95.4063 174.523C94.6946 174.609 95.1889 174.074 95.268 173.818C95.3471 173.561 95.5052 173.508 95.6435 173.326Z" fill="#465DA9"/>
<path d="M88.7673 192.836C88.4312 192.281 88.6388 191.693 89.0045 191.65C89.7261 191.564 89.222 192.099 89.1429 192.345C89.0638 192.591 88.9156 192.665 88.7673 192.836Z" fill="#445AA7"/>
<path d="M110.877 209.448C112.854 209.448 114.9 209.255 116.807 210.196C114.672 210.196 112.527 210.976 110.422 209.929C110.542 209.737 110.697 209.573 110.877 209.448Z" fill="#2E429A"/>
<path d="M110.878 209.448L110.433 209.929C108.605 209.673 106.697 210.496 104.938 209.416L110.878 209.448Z" fill="#2D4199"/>
<path d="M45.0824 49.787C38.9137 49.787 39.0593 49.787 38.874 42.987C38.7813 39.9521 39.6153 38.8355 42.4216 39.179C44.3352 39.4081 46.2664 39.4081 48.18 39.179C50.7216 38.8784 51.4629 40.1096 51.1452 42.5719C51.1319 42.7911 51.1319 43.0111 51.1452 43.2304C51.1452 49.787 51.1451 49.787 45.0824 49.787Z" fill="white"/>
<path d="M41.6016 53.0508C41.6016 51.4474 41.8796 50.5312 43.4283 50.4883C43.4428 51.0775 43.2691 51.654 42.9363 52.1208C42.6035 52.5875 42.1321 52.916 41.6016 53.0508Z" fill="white"/>
<path d="M46.7109 50.1875C48.1538 50.889 48.5906 51.6191 48.3524 52.8359C47.0286 52.6212 46.7506 51.7622 46.7109 50.1875Z" fill="white"/>
<path d="M25.6519 24.2227V26.2003H23.9023V24.3296L25.6519 24.2227Z" fill="#2D3480"/>
<path d="M30.1871 24.2227V26.2003H28.4375C28.4375 25.5803 28.4375 24.9496 28.4375 24.3296L30.1871 24.2227Z" fill="#2D3480"/>
<path d="M34.7634 24.2227V26.2003H33.0039V24.3296L34.7634 24.2227Z" fill="#2D3480"/>
<path d="M102.712 109.225C102.474 110.369 101.862 111.149 100.735 110.999C100.506 110.993 100.281 110.934 100.075 110.827C99.8684 110.72 99.6851 110.567 99.5368 110.379C99.3886 110.19 99.2787 109.97 99.2143 109.733C99.1499 109.495 99.1325 109.246 99.1631 109C99.1574 108.732 99.2072 108.465 99.309 108.22C99.4107 107.974 99.5618 107.757 99.7513 107.582C99.9407 107.408 100.164 107.282 100.404 107.213C100.644 107.144 100.896 107.134 101.14 107.183C101.594 107.242 102.009 107.487 102.301 107.866C102.593 108.246 102.74 108.732 102.712 109.225Z" fill="#272727"/>
<path d="M49.3322 47.0107H41.125C41.5201 45.8884 42.1937 44.9057 43.0718 44.1707C43.95 43.4357 44.9986 42.9769 46.1023 42.8448C47.8099 42.6301 48.0747 45.164 49.3322 47.0107Z" fill="#4C54A3"/>
<path d="M41.7609 43.7174C41.324 43.7174 40.9667 43.5312 40.9005 43.0159C40.8708 42.8836 40.8718 42.7454 40.9031 42.6136C40.9345 42.4818 40.9954 42.3603 41.0804 42.2599C41.1654 42.1595 41.2719 42.0832 41.3906 42.0378C41.5092 41.9924 41.6364 41.9792 41.7609 41.9995C41.8617 42.0011 41.9612 42.025 42.0532 42.0697C42.1453 42.1144 42.2279 42.1789 42.296 42.2593C42.3642 42.3397 42.4165 42.4344 42.4496 42.5374C42.4828 42.6404 42.4962 42.7496 42.489 42.8584C42.4962 43.0763 42.4239 43.2885 42.2876 43.4492C42.1514 43.6099 41.9622 43.7062 41.7609 43.7174Z" fill="#545BA7"/>
<path d="M173.022 64.7708C172.45 67.7449 171.374 70.579 169.849 73.1304C168.763 74.8441 167.592 76.4928 166.34 78.0691C165.866 78.6784 165.352 79.245 164.936 79.8009L164.254 80.6026V80.5278C164.095 80.0863 163.966 79.6325 163.869 79.1702C163.671 78.1914 163.601 77.1875 163.661 76.1877C163.661 75.867 163.661 75.557 163.76 75.2363C163.87 74.4641 164.059 73.7076 164.324 72.9807C164.749 71.8262 165.312 70.8427 165.727 69.8806C166.164 68.9462 166.283 67.8752 166.063 66.8554C166.032 66.702 165.989 66.5518 165.935 66.4064C165.799 65.9298 165.542 65.504 165.193 65.177C164.067 64.1829 162.366 64.5356 159.757 64.7815C159.757 64.7815 158.472 64.9098 156.277 64.9098C153.739 64.912 151.201 64.7728 148.676 64.4929L147.905 64.3967C146.393 64.1936 146.027 64.0118 145.75 63.7018C144.168 61.9273 146.738 57.4375 149.447 54.8185C151.281 52.8677 153.575 51.4994 156.08 50.8632C160.067 49.9122 164.241 50.6791 167.714 53.0012C171.095 55.4706 172.063 58.8807 173.022 64.7708Z" fill="#593913"/>
<path d="M150.17 63.6149C149.561 65.5036 149.137 67.4563 148.905 69.441C150.054 72.1427 152.019 74.3406 154.478 75.6727C156.936 77.0047 159.741 77.3914 162.43 76.769C165.119 76.1466 167.531 74.5522 169.27 72.2486C171.009 69.945 171.97 67.0696 171.996 64.096C171.987 60.7139 170.765 57.4673 168.588 55.0394C166.411 52.6114 163.448 51.1912 160.322 51.0777C157.197 50.9641 154.152 52.166 151.829 54.4305C149.506 56.695 148.086 59.8456 147.867 63.2194L150.17 63.6149Z" fill="#593913"/>
<path d="M151.769 65.7547C150.395 67.9568 150.88 70.5865 151.848 75.846C152.135 77.396 153.43 84.3979 155.891 84.3979C157.196 84.3979 158.125 82.4524 159.203 82.7517C160.28 83.051 160.013 85.328 160.834 85.4562C161.476 85.5524 162.356 84.291 163.394 82.3775C165.638 78.2084 165.282 77.1609 166.883 74.3815C168.742 71.1745 169.997 71.2493 170.56 69.0365C170.83 67.9731 170.848 66.8532 170.611 65.7806C170.374 64.708 169.891 63.7174 169.206 62.9004C165.608 58.8703 155.012 60.5807 151.769 65.7547Z" fill="#593913"/>
<path d="M185.131 128.921C185.052 130.92 184.617 132.459 183.361 132.641C180.139 133.111 173.477 124.324 171.035 121.16C167.852 116.991 164.264 112.202 162.475 105.617C162.13 104.344 161.846 103.052 161.625 101.747C161.486 100.934 161.368 100.122 161.279 99.2989C161.052 97.4665 161.025 95.6114 161.2 93.7722C161.281 92.7739 161.572 91.8089 162.05 90.9501C162.22 90.6578 162.449 90.4102 162.719 90.2253C162.989 90.0404 163.294 89.9228 163.612 89.8811C163.877 89.8391 164.147 89.8391 164.412 89.8811C165.68 90.2249 166.86 90.8755 167.862 91.7839L168.198 92.0832C168.828 92.6075 169.432 93.1677 170.007 93.7615C172.067 95.9175 173.983 98.2288 175.74 100.678C176.976 102.388 178.063 104.045 178.903 105.392C182.209 110.578 184.225 116.597 184.755 122.87C185.022 124.874 185.148 126.897 185.131 128.921Z" fill="#FFC340"/>
<path d="M232.232 128.076H61.0172C59.6033 128.076 58.457 129.316 58.457 130.845C58.457 132.374 59.6033 133.614 61.0172 133.614H232.232C233.646 133.614 234.792 132.374 234.792 130.845C234.792 129.316 233.646 128.076 232.232 128.076Z" fill="#2E337F"/>
<path d="M163.494 221.613H132.228C130.814 221.613 129.668 222.853 129.668 224.382V224.884C129.668 226.414 130.814 227.653 132.228 227.653H163.494C164.908 227.653 166.054 226.414 166.054 224.884V224.382C166.054 222.853 164.908 221.613 163.494 221.613Z" fill="#2E337F"/>
<path d="M177.898 102.367C182.245 108.67 185.436 115.815 187.299 123.416C187.417 123.918 187.467 124.485 187.931 124.763C188.63 125.922 189.032 127.261 189.098 128.643C189.535 130.211 189.689 131.855 189.552 133.486C185.984 138.232 181.931 142.626 180.498 148.869C179.747 152.183 179.766 155.571 179.45 158.917C178.916 164.743 177.088 169.906 173.045 173.883C168.34 178.49 163.022 180.201 156.992 177.005C153.848 175.348 150.675 175.583 147.433 176.556C142.491 178.02 138.151 180.65 133.802 183.397C133.211 183.834 132.574 184.193 131.904 184.466C128.534 184.263 125.617 182.542 122.593 181.174C117.667 178.435 113.298 174.659 109.742 170.067C107.395 166.764 105.766 162.931 104.978 158.853C103.94 152.792 106.411 148.676 111.897 147.404C117.136 146.196 122.276 144.753 127.011 141.931C128.374 141.207 129.635 140.279 130.758 139.173C132.814 137.462 134.909 135.784 135.937 133.026C138.379 128.996 138.319 124.335 138.715 119.792C138.863 118.082 138.715 116.339 138.784 114.618C138.796 114.199 138.852 113.783 138.952 113.378C139.328 111.625 139.545 109.84 139.941 108.086C140.498 105.617 141.505 103.292 142.901 101.248C144.298 99.2033 146.057 97.4799 148.076 96.1779C152.578 93.9313 157.532 92.9531 162.478 93.3343C167.456 93.6408 172.171 95.8496 175.783 99.5666C176.615 100.379 177.328 101.324 177.898 102.367Z" fill="#F0EFEF"/>
<path d="M142.873 186.24C139.186 185.62 135.41 185.588 131.852 184.102C137.99 179.473 144.544 175.849 152.076 174.844C153.684 174.672 155.298 175.099 156.653 176.052C163.75 181.098 173.111 175.111 176.422 168.259C178.356 163.88 179.327 159.076 179.259 154.223C179.407 147.253 182.225 141.748 186.287 136.852C187.276 135.719 187.434 133.56 189.421 133.57C189.421 141.492 189.737 149.413 187.72 157.206C184.033 171.434 175.592 180.253 162.583 184.123C161.595 184.412 160.527 184.38 159.697 185.192C156.267 186.806 152.61 186.988 148.962 186.999C146.827 186.999 144.731 187.619 142.873 186.24Z" fill="#E6E6E5"/>
<path d="M104.809 74.1239C111.244 76.1336 114.882 80.9014 116.582 87.7643C117.828 92.7458 118.826 97.7701 119.716 102.826C119.409 103.134 119.044 103.364 118.646 103.503C118.248 103.641 117.827 103.684 117.413 103.628C106.697 103.628 95.9725 103.692 85.2475 103.628C84.7954 103.627 84.3459 103.555 83.913 103.414C83.6587 103.347 83.4288 103.199 83.2526 102.99C83.0765 102.78 82.9623 102.519 82.9245 102.238C82.5659 99.9565 82.5659 97.6254 82.9245 95.3435C81.0167 99.6194 75.2144 101.341 71.2209 97.9732C67.1995 94.7614 63.971 90.5283 61.8205 85.6477C59.3097 81.3717 56.8781 77.0958 54.2883 72.8839C53.3591 71.3339 53.7644 70.9597 55.2767 71.0238C57.0857 71.0987 58.9045 71.0773 60.7134 71.0238C61.274 70.916 61.8517 71.0308 62.3403 71.347C62.8289 71.6633 63.1954 72.1597 63.3724 72.7449C61.5734 73.536 59.7051 72.7984 57.8863 73.1512C59.8633 72.9374 61.7414 73.3329 63.6689 72.9267C66.7081 77.0696 69.99 80.9973 73.4944 84.6856C74.7399 86.0539 75.3725 86.1287 76.5587 84.568C80.0967 79.6287 84.9621 75.9953 90.4864 74.1667C95.2706 73.9101 100.045 73.9743 104.809 74.1239Z" fill="url(#paint6_linear_915_29584)"/>
<path d="M141.699 186.016C144.941 185.674 147.709 185.225 149.884 184.819C154.381 183.974 155.676 183.429 156.892 182.595C158.869 181.27 159.581 179.901 159.976 180.168C160.559 180.553 159.877 184.134 157.673 186.326C156.872 187.117 156.21 187.299 151.554 188.389C145.969 189.704 144.823 189.896 143.647 189.095C142.68 188.351 141.99 187.259 141.699 186.016Z" fill="#2E337F"/>
<path d="M150.705 187.139H147.938C147.124 187.139 146.465 187.852 146.465 188.731V195.423C146.465 196.303 147.124 197.016 147.938 197.016H150.705C151.519 197.016 152.178 196.303 152.178 195.423V188.731C152.178 187.852 151.519 187.139 150.705 187.139Z" fill="#2E337F"/>
<path d="M147.847 223.966C147.847 224.845 148.507 225.559 149.32 225.559C150.134 225.559 150.793 224.845 150.793 223.966V194.13C150.793 193.25 150.134 192.537 149.32 192.537C148.507 192.537 147.847 193.25 147.847 194.13V223.966Z" fill="#2E337F"/>
<path d="M58.5878 38.0901C58.6611 38.0879 58.7191 38.036 58.7172 37.9744L58.7058 37.602C58.7039 37.5403 58.6428 37.4921 58.5695 37.4943L55.293 37.5936C55.2196 37.5959 55.1617 37.6477 55.1636 37.7094L55.1764 38.1259C55.1783 38.1876 55.2393 38.2358 55.3126 38.2336L56.2566 38.205C56.5589 38.1958 56.7937 38.2815 56.9393 38.4382L55.3204 38.4873C55.2471 38.4895 55.1891 38.5414 55.191 38.603L55.2025 38.9754C55.2044 39.0371 55.2654 39.0853 55.3387 39.0831L57.0961 39.0298C57.0376 39.3678 56.748 39.5867 56.2853 39.6007L55.3555 39.6289C55.2821 39.6311 55.2242 39.6829 55.2261 39.7446L55.2413 40.2381C55.2422 40.2693 55.2586 40.2986 55.2865 40.3189L57.1571 41.6818C57.1822 41.7001 57.2147 41.7097 57.2481 41.7087L58.162 41.681C58.2829 41.6774 58.3371 41.5508 58.2461 41.4845L56.5361 40.2386C57.3823 40.1911 57.9726 39.6975 58.0307 39.0015L58.6152 38.9838C58.6886 38.9815 58.7465 38.9297 58.7446 38.868L58.7332 38.4957C58.7313 38.434 58.6703 38.3858 58.5969 38.388L57.9473 38.4077C57.9054 38.3014 57.8493 38.2034 57.7804 38.1146L58.5878 38.0901Z" fill="white"/>
<defs>
<linearGradient id="paint0_linear_915_29584" x1="86.543" y1="55.5024" x2="106.639" y2="55.5024" gradientUnits="userSpaceOnUse">
<stop offset="0.02" stop-color="#C1986C"/>
<stop offset="0.98" stop-color="#B9822F"/>
</linearGradient>
<linearGradient id="paint1_linear_915_29584" x1="22207.3" y1="-22813.5" x2="22575.1" y2="-22813.5" gradientUnits="userSpaceOnUse">
<stop offset="0.02" stop-color="#BE904A"/>
<stop offset="0.98" stop-color="#B9822F"/>
</linearGradient>
<linearGradient id="paint2_linear_915_29584" x1="90.2806" y1="64.5575" x2="93.8996" y2="64.5418" gradientUnits="userSpaceOnUse">
<stop offset="0.32" stop-color="#B9822F"/>
<stop offset="1" stop-color="#C1986C"/>
</linearGradient>
<linearGradient id="paint3_linear_915_29584" x1="197.42" y1="24.6934" x2="197.42" y2="56.0874" gradientUnits="userSpaceOnUse">
<stop stop-color="#2CBF81"/>
<stop offset="1" stop-color="#217E57"/>
</linearGradient>
<linearGradient id="paint4_linear_915_29584" x1="90.5034" y1="73.1723" x2="104.876" y2="73.1723" gradientUnits="userSpaceOnUse">
<stop stop-color="#009348"/>
<stop offset="0.97" stop-color="#00584B"/>
</linearGradient>
<linearGradient id="paint5_linear_915_29584" x1="8574.36" y1="3232.59" x2="8800.92" y2="3232.59" gradientUnits="userSpaceOnUse">
<stop offset="0.02" stop-color="#C1986C"/>
<stop offset="0.98" stop-color="#B9822F"/>
</linearGradient>
<linearGradient id="paint6_linear_915_29584" x1="38213.2" y1="11642.9" x2="42611.6" y2="11642.9" gradientUnits="userSpaceOnUse">
<stop stop-color="#009348"/>
<stop offset="0.97" stop-color="#00584B"/>
</linearGradient>
</defs>
</svg>
