<svg width="20" height="20" viewBox="0 0 20 20" fill="none" xmlns="http://www.w3.org/2000/svg">
<circle cx="10" cy="10" r="10" fill="white"/>
<path d="M10.6015 7.52818V5.62424C10.6015 5.45868 10.6647 5.2999 10.7772 5.18284C10.8898 5.06577 11.0424 5 11.2016 5C11.359 5.00069 11.5099 5.06571 11.6217 5.18103L15.8225 9.55073C15.8787 9.60876 15.9234 9.6778 15.9538 9.75387C15.9843 9.82994 16 9.91153 16 9.99394C16 10.0763 15.9843 10.1579 15.9538 10.234C15.9234 10.3101 15.8787 10.3791 15.8225 10.4372L11.6217 14.8069C11.5374 14.8928 11.4307 14.9509 11.3148 14.9741C11.199 14.9972 11.0791 14.9844 10.9703 14.9371C10.8614 14.8898 10.7684 14.8102 10.7028 14.7082C10.6372 14.6062 10.6019 14.4864 10.6015 14.3636V12.4285H10.0914C9.14322 12.4138 8.20336 12.6139 7.33701 13.0149C6.47066 13.4159 5.69859 14.0082 5.07436 14.7507C4.99914 14.8548 4.89446 14.9319 4.775 14.9711C4.65555 15.0103 4.5273 15.0096 4.40823 14.9692C4.28707 14.9266 4.18213 14.8449 4.10872 14.736C4.03531 14.6271 3.99728 14.4966 4.00015 14.3636C4.00015 8.67055 8.84911 7.69673 10.6015 7.52818ZM10.0914 11.1675C10.4927 11.1662 10.8937 11.1933 11.2916 11.2487C11.4337 11.2711 11.5633 11.3458 11.6569 11.4592C11.7505 11.5726 11.8019 11.7172 11.8017 11.8667V12.8592L14.5502 9.99394L11.8017 7.12867V8.12121C11.8017 8.28677 11.7385 8.44555 11.6259 8.56262C11.5134 8.67969 11.3607 8.74546 11.2016 8.74546C10.6555 8.74546 6.33461 8.87031 5.39843 12.7593C6.75728 11.7172 8.40312 11.1589 10.0914 11.1675Z" fill="#7F8790"/>
</svg>
