<svg width="22" height="22" viewBox="0 0 22 22" fill="none" xmlns="http://www.w3.org/2000/svg">
<mask id="path-1-outside-1_909_23217" maskUnits="userSpaceOnUse" x="0" y="0" width="22" height="22" fill="black">
<rect fill="white" width="22" height="22"/>
<path d="M20.9462 1.09537C20.9462 1.09537 20.9366 1.09537 20.9366 1.08584C20.9271 1.0763 20.9271 1.0763 20.9175 1.06676C20.8889 1.03815 20.8602 1.02861 20.8221 1.02861H14.6348H14.4725L14.4152 1L14.4439 1.02861H7.42594H1.19096C1.16232 1.02861 1.10503 1.06676 1.06684 1.09537L1.05729 1.10491C1.04774 1.10491 1.04774 1.11445 1.04774 1.11445C1.0191 1.14306 1.00955 1.17167 1 1.19075C1 1.20029 1 1.20982 1 1.21936V7.39962V14.6004V20.8283C1 20.8665 1.0191 20.8951 1.03819 20.9142C1.04774 20.9237 1.04774 20.9332 1.05729 20.9332L1.06684 20.9428C1.07639 20.9523 1.07639 20.9619 1.08593 20.9619C1.11458 20.9905 1.14322 21 1.18142 21H7.3591H14.568H20.803C20.8412 21 20.8698 20.9905 20.8984 20.9619L20.9271 20.9332L20.9366 20.9237C20.9366 20.9237 20.9366 20.9237 20.9462 20.9237C20.9748 20.8951 20.9939 20.8569 20.9939 20.8188V14.6385V7.45684V1.21936C21.013 1.20029 20.9844 1.13352 20.9462 1.09537ZM14.6062 20.6662L8.07521 14.1426L10.997 11.2241L14.0142 14.238L17.5184 17.7382L14.6062 20.6662ZM13.9283 7.9051L11.0065 10.8236L7.97973 7.80973L4.47554 4.30949L7.39729 1.39103L13.9283 7.9051ZM1.2769 1.49595L3.06241 3.27945L4.1891 4.40486L7.69328 7.9051L4.77154 10.8236L1.2769 7.34239V1.49595ZM7.88425 8.10539L10.806 11.0238L7.77922 14.0472L4.27503 17.5474L1.35328 14.629L7.88425 8.10539ZM4.08407 17.7382L1.2769 20.5517V14.9342L4.08407 17.7382ZM20.7361 20.5517L14.3197 14.1426L17.2415 11.2241L20.7361 14.7148V20.5517ZM17.146 10.9285L14.1288 13.9423L11.207 11.0238L14.2242 8.01001L14.4916 7.74297L17.7284 4.50978L20.6502 7.42823L17.146 10.9285ZM17.9194 4.30949L20.5834 1.64855L20.7361 1.49595V7.1135L17.9194 4.30949ZM7.70283 1.3052H14.3006L11.0065 4.59561L7.70283 1.3052ZM4.57103 11.0238L1.2769 14.3238V7.73343L4.57103 11.0238ZM14.3102 20.752H7.70283L11.0065 17.4521L14.3102 20.752ZM17.4324 11.0238L20.7361 7.72389V14.3143L17.4324 11.0238ZM20.5452 1.3052L14.1288 7.71435L11.207 4.7959L14.7017 1.3052H20.5452ZM7.09175 1.3052L6.51886 1.87744L4.28458 4.11874L1.46786 1.3052H7.09175ZM1.45831 20.752L4.35142 17.8622L4.47554 17.9385L4.38006 17.8431L7.88425 14.3429L10.806 17.2613L7.31136 20.752H1.45831ZM14.9117 20.752L17.7284 17.9385L20.5452 20.752H14.9117Z"/>
</mask>
<path d="M20.9462 1.09537C20.9462 1.09537 20.9366 1.09537 20.9366 1.08584C20.9271 1.0763 20.9271 1.0763 20.9175 1.06676C20.8889 1.03815 20.8602 1.02861 20.8221 1.02861H14.6348H14.4725L14.4152 1L14.4439 1.02861H7.42594H1.19096C1.16232 1.02861 1.10503 1.06676 1.06684 1.09537L1.05729 1.10491C1.04774 1.10491 1.04774 1.11445 1.04774 1.11445C1.0191 1.14306 1.00955 1.17167 1 1.19075C1 1.20029 1 1.20982 1 1.21936V7.39962V14.6004V20.8283C1 20.8665 1.0191 20.8951 1.03819 20.9142C1.04774 20.9237 1.04774 20.9332 1.05729 20.9332L1.06684 20.9428C1.07639 20.9523 1.07639 20.9619 1.08593 20.9619C1.11458 20.9905 1.14322 21 1.18142 21H7.3591H14.568H20.803C20.8412 21 20.8698 20.9905 20.8984 20.9619L20.9271 20.9332L20.9366 20.9237C20.9366 20.9237 20.9366 20.9237 20.9462 20.9237C20.9748 20.8951 20.9939 20.8569 20.9939 20.8188V14.6385V7.45684V1.21936C21.013 1.20029 20.9844 1.13352 20.9462 1.09537ZM14.6062 20.6662L8.07521 14.1426L10.997 11.2241L14.0142 14.238L17.5184 17.7382L14.6062 20.6662ZM13.9283 7.9051L11.0065 10.8236L7.97973 7.80973L4.47554 4.30949L7.39729 1.39103L13.9283 7.9051ZM1.2769 1.49595L3.06241 3.27945L4.1891 4.40486L7.69328 7.9051L4.77154 10.8236L1.2769 7.34239V1.49595ZM7.88425 8.10539L10.806 11.0238L7.77922 14.0472L4.27503 17.5474L1.35328 14.629L7.88425 8.10539ZM4.08407 17.7382L1.2769 20.5517V14.9342L4.08407 17.7382ZM20.7361 20.5517L14.3197 14.1426L17.2415 11.2241L20.7361 14.7148V20.5517ZM17.146 10.9285L14.1288 13.9423L11.207 11.0238L14.2242 8.01001L14.4916 7.74297L17.7284 4.50978L20.6502 7.42823L17.146 10.9285ZM17.9194 4.30949L20.5834 1.64855L20.7361 1.49595V7.1135L17.9194 4.30949ZM7.70283 1.3052H14.3006L11.0065 4.59561L7.70283 1.3052ZM4.57103 11.0238L1.2769 14.3238V7.73343L4.57103 11.0238ZM14.3102 20.752H7.70283L11.0065 17.4521L14.3102 20.752ZM17.4324 11.0238L20.7361 7.72389V14.3143L17.4324 11.0238ZM20.5452 1.3052L14.1288 7.71435L11.207 4.7959L14.7017 1.3052H20.5452ZM7.09175 1.3052L6.51886 1.87744L4.28458 4.11874L1.46786 1.3052H7.09175ZM1.45831 20.752L4.35142 17.8622L4.47554 17.9385L4.38006 17.8431L7.88425 14.3429L10.806 17.2613L7.31136 20.752H1.45831ZM14.9117 20.752L17.7284 17.9385L20.5452 20.752H14.9117Z" fill="#7F8790"/>
<path d="M20.9462 1.09537C20.9462 1.09537 20.9366 1.09537 20.9366 1.08584C20.9271 1.0763 20.9271 1.0763 20.9175 1.06676C20.8889 1.03815 20.8602 1.02861 20.8221 1.02861H14.6348H14.4725L14.4152 1L14.4439 1.02861H7.42594H1.19096C1.16232 1.02861 1.10503 1.06676 1.06684 1.09537L1.05729 1.10491C1.04774 1.10491 1.04774 1.11445 1.04774 1.11445C1.0191 1.14306 1.00955 1.17167 1 1.19075C1 1.20029 1 1.20982 1 1.21936V7.39962V14.6004V20.8283C1 20.8665 1.0191 20.8951 1.03819 20.9142C1.04774 20.9237 1.04774 20.9332 1.05729 20.9332L1.06684 20.9428C1.07639 20.9523 1.07639 20.9619 1.08593 20.9619C1.11458 20.9905 1.14322 21 1.18142 21H7.3591H14.568H20.803C20.8412 21 20.8698 20.9905 20.8984 20.9619L20.9271 20.9332L20.9366 20.9237C20.9366 20.9237 20.9366 20.9237 20.9462 20.9237C20.9748 20.8951 20.9939 20.8569 20.9939 20.8188V14.6385V7.45684V1.21936C21.013 1.20029 20.9844 1.13352 20.9462 1.09537ZM14.6062 20.6662L8.07521 14.1426L10.997 11.2241L14.0142 14.238L17.5184 17.7382L14.6062 20.6662ZM13.9283 7.9051L11.0065 10.8236L7.97973 7.80973L4.47554 4.30949L7.39729 1.39103L13.9283 7.9051ZM1.2769 1.49595L3.06241 3.27945L4.1891 4.40486L7.69328 7.9051L4.77154 10.8236L1.2769 7.34239V1.49595ZM7.88425 8.10539L10.806 11.0238L7.77922 14.0472L4.27503 17.5474L1.35328 14.629L7.88425 8.10539ZM4.08407 17.7382L1.2769 20.5517V14.9342L4.08407 17.7382ZM20.7361 20.5517L14.3197 14.1426L17.2415 11.2241L20.7361 14.7148V20.5517ZM17.146 10.9285L14.1288 13.9423L11.207 11.0238L14.2242 8.01001L14.4916 7.74297L17.7284 4.50978L20.6502 7.42823L17.146 10.9285ZM17.9194 4.30949L20.5834 1.64855L20.7361 1.49595V7.1135L17.9194 4.30949ZM7.70283 1.3052H14.3006L11.0065 4.59561L7.70283 1.3052ZM4.57103 11.0238L1.2769 14.3238V7.73343L4.57103 11.0238ZM14.3102 20.752H7.70283L11.0065 17.4521L14.3102 20.752ZM17.4324 11.0238L20.7361 7.72389V14.3143L17.4324 11.0238ZM20.5452 1.3052L14.1288 7.71435L11.207 4.7959L14.7017 1.3052H20.5452ZM7.09175 1.3052L6.51886 1.87744L4.28458 4.11874L1.46786 1.3052H7.09175ZM1.45831 20.752L4.35142 17.8622L4.47554 17.9385L4.38006 17.8431L7.88425 14.3429L10.806 17.2613L7.31136 20.752H1.45831ZM14.9117 20.752L17.7284 17.9385L20.5452 20.752H14.9117Z" stroke="#7F8790" stroke-width="0.3" mask="url(#path-1-outside-1_909_23217)"/>
</svg>
