<svg width="14" height="14" viewBox="0 0 14 14" fill="none" xmlns="http://www.w3.org/2000/svg">
<g opacity="0.5">
<path d="M8.51666 4.66665H12.25C12.5594 4.66665 12.8562 4.78957 13.075 5.00836C13.2937 5.22715 13.4167 5.5239 13.4167 5.83332V7.06065C13.4168 7.21311 13.3871 7.36412 13.3292 7.50515L11.5237 11.8889C11.4797 11.9958 11.4049 12.0872 11.3088 12.1514C11.2128 12.2157 11.0998 12.25 10.9842 12.25H1.16666C1.01195 12.25 0.863579 12.1885 0.754183 12.0791C0.644786 11.9697 0.583328 11.8214 0.583328 11.6667V5.83332C0.583328 5.67861 0.644786 5.53023 0.754183 5.42084C0.863579 5.31144 1.01195 5.24998 1.16666 5.24998H3.19783C3.29122 5.25001 3.38325 5.22761 3.46618 5.18467C3.54911 5.14173 3.62053 5.07951 3.67441 5.00323L6.85533 0.495818C6.89554 0.438834 6.95484 0.398145 7.02248 0.381129C7.09011 0.364113 7.16161 0.371896 7.224 0.403068L8.28216 0.932151C8.57996 1.081 8.81786 1.32725 8.95634 1.63C9.09482 1.93275 9.12555 2.27377 9.04341 2.5964L8.51666 4.66665ZM4.08333 6.17632V11.0833H10.5933L12.25 7.06065V5.83332H8.51666C8.33898 5.83329 8.16365 5.79268 8.00405 5.71458C7.84445 5.63649 7.70479 5.52297 7.59574 5.38268C7.48669 5.2424 7.41112 5.07906 7.3748 4.90513C7.33848 4.7312 7.34236 4.55127 7.38616 4.37907L7.91291 2.3094C7.9294 2.24484 7.92328 2.17658 7.89558 2.11598C7.86788 2.05538 7.82027 2.0061 7.76066 1.97632L7.37508 1.78382L4.62758 5.67582C4.48175 5.88232 4.29508 6.05148 4.08333 6.17632ZM2.91666 6.41665H1.74999V11.0833H2.91666V6.41665Z" fill="#3F3F3F"/>
</g>
</svg>
