<svg width="20" height="20" viewBox="0 0 20 20" fill="none" xmlns="http://www.w3.org/2000/svg">
<path d="M10.0192 19.9907C6.85383 19.9907 3.68844 19.983 0.523047 20C0.106271 20 -0.00074972 19.8712 3.94419e-06 19.46C0.0115601 13.15 0.0115601 6.83946 3.94419e-06 0.52841C3.94419e-06 0.142712 0.102503 -0.000768305 0.499684 3.09196e-06C6.84403 0.0108026 13.1879 0.0108026 19.5312 3.09196e-06C19.9194 3.09196e-06 20.0007 0.144255 20 0.502183C19.993 6.82763 19.993 13.1531 20 19.4785C20 19.8642 19.908 20.0008 19.5056 19.9985C16.3477 19.9807 13.1839 19.9907 10.0192 19.9907ZM0.430346 5.1213V16.2441H9.80292V5.11976H7.65648C7.53589 5.51086 7.66929 5.72685 8.01824 5.87187C8.37171 6.02364 8.71271 6.20421 9.03794 6.41185C9.16833 6.49285 9.24596 6.66255 9.3477 6.79138C9.19245 6.86852 9.03795 7.00505 8.88118 7.00814C7.89087 7.02897 6.90055 7.02743 5.91024 7.012C5.77533 7.012 5.64193 6.89243 5.50778 6.8284C5.59822 6.69187 5.65852 6.5075 5.78438 6.42882C6.13349 6.20398 6.4994 6.00769 6.8787 5.84179C7.21483 5.69908 7.3309 5.49312 7.21257 5.12362H3.21061C3.09983 5.51549 3.23172 5.73379 3.5784 5.88036C3.94306 6.0397 4.29572 6.22638 4.63353 6.43885C4.7511 6.51059 4.81441 6.6749 4.90259 6.79678C4.77597 6.87392 4.65011 7.00737 4.52576 7.00968C3.49173 7.02743 2.45619 7.02588 1.42141 7.00968C1.30309 7.00968 1.18552 6.88857 1.06795 6.82378C1.14331 6.6965 1.19381 6.52139 1.3046 6.45196C1.6666 6.22079 2.04441 6.01661 2.43509 5.84102C2.77047 5.69522 2.88051 5.48926 2.76595 5.12285L0.430346 5.1213ZM10.2137 16.2448H19.5885V14.385H10.2137V16.2448ZM10.2084 2.79477H15.0989C15.0989 2.2548 15.1117 1.74259 15.0944 1.2327C15.0846 0.924137 15.1773 0.796085 15.4946 0.800713C16.5429 0.813827 17.592 0.816912 18.6404 0.800713C18.9856 0.795313 19.07 0.947278 19.0602 1.26355C19.0443 1.77113 19.0602 2.27948 19.0602 2.80017H19.6088V0.4181H10.2084V2.79477ZM9.821 3.21904H0.4311V4.70706H9.82326L9.821 3.21904ZM4.91088 16.6745H0.420548V19.595H4.91088V16.6745ZM14.7228 19.6058V16.6745H10.2174V19.6058H14.7228ZM5.34122 16.6745V19.5904H9.80141V16.6745H5.34122ZM19.6028 16.683H15.1743V19.595H19.6066L19.6028 16.683ZM19.6028 13.9831V11.5648H15.1162V13.9785L19.6028 13.9831ZM19.6028 3.22444H15.1238V5.61731H19.5975L19.6028 3.22444ZM10.2235 8.3928H14.6957V6.03618H10.2182L10.2235 8.3928ZM10.2415 8.81861V11.1559H14.6957V8.81321L10.2415 8.81861ZM19.6073 8.84098H15.1155V11.1552H19.6073V8.84098ZM9.82326 0.405758H0.424317V2.79709H0.951882V0.811512C2.21653 0.811512 3.4239 0.80457 4.63052 0.826169C4.71191 0.826169 4.85134 1.04062 4.85662 1.16018C4.88073 1.70016 4.86717 2.24014 4.86717 2.794H6.25542C6.25542 2.39133 6.26446 2.01566 6.25542 1.64076C6.24713 1.37232 6.34133 1.26509 6.61491 1.26972C7.41305 1.28361 8.21118 1.28669 9.00855 1.26972C9.31756 1.26278 9.38539 1.40317 9.37559 1.67933C9.36127 2.05115 9.37182 2.42373 9.37182 2.82563L9.82402 2.79632L9.82326 0.405758ZM14.3769 5.61963H14.6942V3.23447H10.2189V5.61886H10.7156C10.687 4.72635 10.8905 4.51499 11.7617 4.51422C12.3382 4.51422 12.914 4.50959 13.4906 4.51422C14.2216 4.52039 14.4854 4.83357 14.3739 5.61963H14.3769ZM14.6957 13.9885V11.5663H10.2189V13.9769H10.7133C10.6922 13.0613 10.9168 12.8322 11.8303 12.8353C12.3578 12.8353 12.8922 12.8561 13.4228 12.8546C14.2292 12.8546 14.4847 13.1384 14.3837 13.9715L14.6957 13.9885ZM19.6028 8.40128V6.04081H15.1125V8.37351H15.5051C15.3823 7.61909 15.6709 7.27581 16.4035 7.27427C17.0373 7.27427 17.6719 7.27427 18.3065 7.27427C18.9411 7.27427 19.1868 7.55429 19.1642 8.18992C19.1642 8.25935 19.1732 8.32954 19.1777 8.40051L19.6028 8.40128ZM18.6607 1.20338H15.4953V2.80711H18.6607V1.20338ZM1.33173 2.78937H4.49184V1.20878H1.33173V2.78937ZM8.96333 1.66699H6.6639V2.79709H8.96333V1.66699ZM12.5365 13.9939C12.9058 13.9939 13.2803 14.0317 13.6413 13.9754C13.7883 13.953 13.9051 13.727 14.0355 13.5936C13.9104 13.4755 13.7898 13.2595 13.6587 13.2541C12.9374 13.2202 12.2116 13.2187 11.4904 13.2541C11.3472 13.2611 11.2138 13.4809 11.0759 13.6028C11.2228 13.7332 11.3555 13.9469 11.5198 13.9762C11.8514 14.0363 12.1981 13.9947 12.5365 13.9939ZM17.2898 8.40977V8.40514C17.6584 8.40514 18.0322 8.44062 18.3939 8.38817C18.5447 8.3658 18.669 8.15675 18.8054 8.03101C18.6705 7.90219 18.5409 7.67077 18.4 7.66306C17.6926 7.62333 16.9835 7.62333 16.2761 7.66306C16.1254 7.67154 15.989 7.91762 15.8458 8.05415C15.9875 8.17218 16.1171 8.36734 16.2731 8.39202C16.6062 8.44371 16.9499 8.40977 17.2898 8.40977ZM12.5606 5.64122C12.899 5.64122 13.2389 5.63582 13.5758 5.64122C13.8313 5.64662 14.0189 5.56409 14.028 5.27481C14.0393 4.97088 13.8373 4.90223 13.5893 4.90223C12.8975 4.90223 12.2058 4.90223 11.5145 4.90223C11.2597 4.90223 11.0713 4.99325 11.0826 5.28793C11.0939 5.5826 11.2929 5.64894 11.5431 5.64431C11.883 5.63274 12.2222 5.63891 12.5606 5.63891V5.64122ZM4.1444 6.62167C2.97924 5.90042 2.73882 5.90659 1.8917 6.62167H4.1444ZM8.59102 6.62167C7.45073 5.90813 7.06636 5.91893 6.34736 6.62167H8.59102Z" fill="#7F8790"/>
<path d="M0.430664 5.12125H2.76702C2.88158 5.48766 2.77155 5.69363 2.43617 5.83942C2.04549 6.01501 1.66767 6.21919 1.30567 6.45037C1.19488 6.51979 1.14589 6.6949 1.06902 6.82218C1.18659 6.88698 1.30416 7.00654 1.42249 7.00809C2.45727 7.02351 3.4928 7.02506 4.52683 7.00809C4.6542 7.00809 4.78006 6.86924 4.90366 6.79518C4.81548 6.6733 4.75293 6.50899 4.6346 6.43725C4.29679 6.22478 3.94413 6.03811 3.57947 5.87876C3.23279 5.7322 3.1009 5.51389 3.21168 5.12202H7.21364C7.33121 5.49152 7.21364 5.69748 6.87977 5.84019C6.50047 6.00609 6.13456 6.20238 5.78545 6.42722C5.66034 6.50436 5.59929 6.69027 5.50885 6.82681C5.64301 6.89084 5.7764 7.00809 5.91131 7.0104C6.90162 7.02583 7.89194 7.02737 8.88225 7.00654C9.03902 7.00654 9.19352 6.86538 9.34877 6.78978C9.24703 6.66096 9.1694 6.49125 9.03902 6.41025C8.71378 6.20261 8.37279 6.02204 8.01931 5.87028C7.67036 5.72525 7.53696 5.50926 7.65755 5.11816H9.80398V16.244H0.430664V5.12125Z" fill="white"/>
<path d="M10.2139 16.2451V14.3853H19.5887V16.2451H10.2139Z" fill="white"/>
<path d="M10.209 2.79464V0.417969H19.6019V2.79927H19.0532C19.0532 2.27858 19.0412 1.77023 19.0532 1.26265C19.063 0.946376 18.9779 0.794411 18.6334 0.799811C17.5851 0.816782 16.536 0.813696 15.4877 0.799811C15.1704 0.795183 15.0777 0.926319 15.0875 1.23179C15.1048 1.74169 15.092 2.25389 15.092 2.79387L10.209 2.79464Z" fill="white"/>
<path d="M9.82283 3.21875V4.70677H0.430664V3.21875H9.82283Z" fill="white"/>
<path d="M4.91123 16.6748V19.5953H0.420898V16.6748H4.91123ZM4.3392 17.9569C4.35094 17.8215 4.34867 17.6852 4.33242 17.5503C4.31132 17.4516 4.22766 17.3675 4.17189 17.2765C4.10707 17.3598 3.99101 17.44 3.98498 17.528C3.96349 17.8292 3.96501 18.1318 3.9895 18.4328C3.99628 18.5215 4.10632 18.601 4.16963 18.6843C4.22615 18.5925 4.31282 18.5076 4.33242 18.4089C4.34865 18.2588 4.35092 18.1074 4.3392 17.9569Z" fill="white"/>
<path d="M14.7234 19.6032H10.2188V16.6719H14.7234V19.6032ZM13.7436 17.9509L13.819 17.9786C13.8071 18.0836 13.8089 18.1897 13.8243 18.2941C13.871 18.4342 13.9277 18.5706 13.9939 18.7022C14.0679 18.5772 14.1316 18.4461 14.1845 18.3103C14.212 18.2073 14.212 18.0986 14.1845 17.9956C14.125 17.7595 14.3647 17.4201 13.9795 17.3222C13.9509 17.3152 13.819 17.7318 13.7436 17.9509Z" fill="white"/>
<path d="M5.34082 16.6719H9.801V19.5878H5.34082V16.6719ZM6.18794 17.9478H6.19321C6.20482 17.7977 6.20205 17.6468 6.18493 17.4973C6.1691 17.4155 6.07188 17.3507 6.01083 17.2782C5.95129 17.3484 5.84352 17.4163 5.83899 17.4903C5.82204 17.821 5.82204 18.1524 5.83899 18.4831C5.84276 18.5518 5.9332 18.6158 5.9837 18.6829C6.05153 18.6181 6.16533 18.5618 6.17814 18.4885C6.19576 18.3088 6.19903 18.128 6.18794 17.9478Z" fill="white"/>
<path d="M19.6024 16.6807V19.595H15.1738V16.6807H19.6024ZM15.568 17.945C15.6645 18.2373 15.7413 18.4726 15.819 18.7071C16.2101 18.5606 16.0104 18.2196 16.0209 17.972C16.0307 17.7475 15.923 17.5176 15.8702 17.2901C15.7677 17.5076 15.6682 17.7244 15.568 17.945Z" fill="white"/>
<path d="M19.598 13.9786H15.1152V11.5649H19.598V13.9786Z" fill="white"/>
<path d="M19.5987 3.21973V5.61723H15.125V3.21973H19.5987Z" fill="white"/>
<path d="M10.2188 8.38686V6.03564H14.691V8.38686H10.2188Z" fill="white"/>
<path d="M10.2383 8.81299H14.6924V11.1557H10.2383V8.81299Z" fill="white"/>
<path d="M19.6012 8.83496V11.1492H15.1094V8.83496H19.6012Z" fill="white"/>
<path d="M9.82247 0.405273V2.7966L9.37027 2.82592C9.37027 2.42402 9.35972 2.05452 9.37403 1.67962C9.38459 1.40346 9.316 1.26307 9.007 1.27001C8.20962 1.28775 7.4115 1.28467 6.61337 1.27001C6.33979 1.26538 6.24558 1.3726 6.25387 1.64105C6.26592 2.01595 6.25387 2.39162 6.25387 2.79429H4.86863C4.86863 2.24043 4.8822 1.69968 4.85808 1.16047C4.85205 1.0409 4.71262 0.827998 4.63198 0.826455C3.42612 0.804856 2.22026 0.811799 0.953346 0.811799V2.80123H0.425781V0.409902L9.82247 0.405273Z" fill="white"/>
<path d="M14.3747 5.61953C14.4862 4.83348 14.2239 4.52029 13.4914 4.51412C12.9148 4.50949 12.339 4.51412 11.7625 4.51412C10.8912 4.51412 10.6878 4.72626 10.7164 5.61876H10.2197V3.23438H14.692V5.61953H14.3747Z" fill="white"/>
<path d="M14.6935 13.9886L14.3845 13.9716C14.4855 13.1385 14.2337 12.8523 13.4236 12.8546C12.896 12.8546 12.3616 12.8369 11.8311 12.8354C10.9176 12.8354 10.693 13.0614 10.7141 13.977H10.2197V11.5664H14.6935V13.9886Z" fill="white"/>
<path d="M19.5996 8.401H19.1776C19.1731 8.33003 19.1617 8.25983 19.164 8.19041C19.1866 7.55478 18.9326 7.27862 18.3063 7.27476C17.68 7.2709 17.0372 7.27476 16.4033 7.27476C15.6708 7.27476 15.3821 7.61958 15.505 8.374H15.1123V6.04053H19.5996V8.401Z" fill="white"/>
<path d="M18.6586 1.20312V2.80686H15.4932V1.20312H18.6586Z" fill="white"/>
<path d="M1.33203 2.78958V1.20898H4.49215V2.78958H1.33203Z" fill="white"/>
<path d="M8.96447 1.66748V2.79758H6.66504V1.66748H8.96447Z" fill="white"/>
<path d="M12.536 13.9944C12.1969 13.9944 11.8502 14.0361 11.5201 13.9767C11.3558 13.9474 11.2231 13.7337 11.0762 13.6033C11.2141 13.4814 11.3475 13.2616 11.4907 13.2546C12.2119 13.2184 12.9377 13.2199 13.659 13.2546C13.7894 13.26 13.91 13.476 14.0358 13.5941C13.9054 13.7275 13.7886 13.9535 13.6416 13.9759C13.2806 14.0314 12.9061 13.9936 12.536 13.9944Z" fill="white"/>
<path d="M17.2887 8.40924C16.9488 8.40924 16.6037 8.4455 16.2721 8.39304C16.116 8.36836 15.9864 8.17319 15.8447 8.05517C15.9879 7.91863 16.1251 7.66947 16.2751 7.66407C16.9825 7.62435 17.6915 7.62435 18.3989 7.66407C18.5398 7.67179 18.6695 7.9032 18.8044 8.03203C18.668 8.15622 18.5436 8.36681 18.3929 8.38918C18.0311 8.44164 17.6573 8.40616 17.2887 8.40616V8.40924Z" fill="white"/>
<path d="M12.5599 5.63906C12.2215 5.63906 11.8816 5.63443 11.5447 5.63906C11.2945 5.64368 11.0925 5.57503 11.0843 5.28267C11.076 4.99031 11.2614 4.89697 11.5161 4.89697C12.207 4.89697 12.8986 4.89697 13.5909 4.89697C13.8389 4.89697 14.0431 4.96563 14.0296 5.26956C14.0183 5.55806 13.8306 5.64137 13.5774 5.63597C13.2367 5.63289 12.8983 5.63906 12.5599 5.63906Z" fill="white"/>
<path d="M4.14333 6.62213H1.89062C2.73774 5.90704 2.97816 5.90087 4.14333 6.62213Z" fill="white"/>
<path d="M8.59229 6.62389H6.34863C7.06763 5.92115 7.452 5.91035 8.59229 6.62389Z" fill="white"/>
<path d="M14.1934 17.666C14.1934 17.5382 14.0922 17.4346 13.9673 17.4346C13.8424 17.4346 13.7412 17.5382 13.7412 17.666V18.5917C13.7412 18.7195 13.8424 18.8231 13.9673 18.8231C14.0922 18.8231 14.1934 18.7195 14.1934 18.5917V17.666Z" fill="#7F8790"/>
<path d="M16.0792 17.666C16.0792 17.5382 15.9779 17.4346 15.8531 17.4346C15.7282 17.4346 15.627 17.5382 15.627 17.666V18.5917C15.627 18.7195 15.7282 18.8231 15.8531 18.8231C15.9779 18.8231 16.0792 18.7195 16.0792 18.5917V17.666Z" fill="#7F8790"/>
<path d="M4.39751 17.666C4.39751 17.5382 4.29628 17.4346 4.17141 17.4346C4.04654 17.4346 3.94531 17.5382 3.94531 17.666V18.5917C3.94531 18.7195 4.04654 18.8231 4.17141 18.8231C4.29628 18.8231 4.39751 18.7195 4.39751 18.5917V17.666Z" fill="#7F8790"/>
<path d="M6.2813 17.666C6.2813 17.5382 6.18007 17.4346 6.0552 17.4346C5.93033 17.4346 5.8291 17.5382 5.8291 17.666V18.5917C5.8291 18.7195 5.93033 18.8231 6.0552 18.8231C6.18007 18.8231 6.2813 18.7195 6.2813 18.5917V17.666Z" fill="#7F8790"/>
</svg>
