<svg width="18" height="18" viewBox="0 0 18 18" fill="none" xmlns="http://www.w3.org/2000/svg">
<path d="M14.8975 3.10675C13.3258 1.53425 11.2358 0.667581 9.00913 0.666748C4.42079 0.666748 0.686626 4.39925 0.684959 8.98758C0.684126 10.4542 1.06746 11.8859 1.79579 13.1476L0.666626 17.3334L5.02746 16.3026C6.24329 16.9659 7.61163 17.3151 9.00496 17.3159H9.00829C13.5958 17.3159 17.33 13.5826 17.3325 8.99508C17.3341 6.77092 16.4691 4.68008 14.8975 3.10675ZM13.0816 11.9617C12.9083 12.4476 12.0591 12.9159 11.6775 12.9501C11.2958 12.9851 10.9383 13.1226 9.18163 12.4301C7.06746 11.5967 5.73246 9.42925 5.62913 9.29092C5.52496 9.15175 4.77996 8.16341 4.77996 7.14008C4.77996 6.11675 5.31746 5.61341 5.50829 5.40591C5.69913 5.19758 5.92413 5.14592 6.06329 5.14592C6.20163 5.14592 6.34079 5.14592 6.46163 5.15092C6.60996 5.15675 6.77413 5.16425 6.92996 5.51008C7.11496 5.92175 7.51913 6.95008 7.57079 7.05425C7.62246 7.15841 7.65746 7.28008 7.58829 7.41842C7.51913 7.55675 7.48413 7.64341 7.38079 7.76508C7.27663 7.88675 7.16246 8.03591 7.06913 8.12925C6.96496 8.23258 6.85663 8.34591 6.97746 8.55341C7.09913 8.76175 7.51579 9.44258 8.13413 9.99342C8.92913 10.7017 9.59829 10.9209 9.80663 11.0259C10.015 11.1301 10.1358 11.1126 10.2575 10.9734C10.3791 10.8351 10.7775 10.3667 10.9158 10.1584C11.0541 9.95008 11.1933 9.98508 11.3841 10.0542C11.575 10.1234 12.5975 10.6267 12.805 10.7309C13.0133 10.8351 13.1516 10.8867 13.2033 10.9734C13.255 11.0592 13.255 11.4759 13.0816 11.9617Z" fill="#174E86"/>
</svg>
