<svg width="20" height="20" viewBox="0 0 20 20" fill="none" xmlns="http://www.w3.org/2000/svg">
<path d="M15.8968 4.10699C14.3252 2.53449 12.2352 1.66783 10.0085 1.66699C5.42018 1.66699 1.68602 5.39949 1.68435 9.98783C1.68352 11.4545 2.06685 12.8862 2.79518 14.1478L1.66602 18.3337L6.02685 17.3028C7.24268 17.9662 8.61102 18.3153 10.0043 18.3162H10.0077C14.5952 18.3162 18.3293 14.5828 18.3319 9.99533C18.3335 7.77116 17.4685 5.68033 15.8968 4.10699ZM14.081 12.962C13.9077 13.4478 13.0585 13.9162 12.6768 13.9503C12.2952 13.9853 11.9377 14.1228 10.181 13.4303C8.06685 12.597 6.73185 10.4295 6.62852 10.2912C6.52435 10.152 5.77935 9.16366 5.77935 8.14033C5.77935 7.11699 6.31685 6.61366 6.50768 6.40616C6.69852 6.19783 6.92352 6.14616 7.06268 6.14616C7.20102 6.14616 7.34018 6.14616 7.46102 6.15116C7.60935 6.15699 7.77352 6.16449 7.92935 6.51033C8.11435 6.92199 8.51852 7.95033 8.57018 8.05449C8.62185 8.15866 8.65685 8.28033 8.58768 8.41866C8.51852 8.55699 8.48352 8.64366 8.38018 8.76533C8.27602 8.88699 8.16185 9.03616 8.06852 9.12949C7.96435 9.23283 7.85602 9.34616 7.97685 9.55366C8.09852 9.76199 8.51518 10.4428 9.13352 10.9937C9.92852 11.702 10.5977 11.9212 10.806 12.0262C11.0143 12.1303 11.1352 12.1128 11.2568 11.9737C11.3785 11.8353 11.7768 11.367 11.9152 11.1587C12.0535 10.9503 12.1927 10.9853 12.3835 11.0545C12.5743 11.1237 13.5968 11.627 13.8043 11.7312C14.0127 11.8353 14.151 11.887 14.2027 11.9737C14.2543 12.0595 14.2543 12.4762 14.081 12.962Z" fill="#F5F5F5"/>
</svg>
