<svg width="16" height="16" viewBox="0 0 16 16" fill="none" xmlns="http://www.w3.org/2000/svg">
<path d="M8 16C12.4183 16 16 12.4183 16 8C16 3.58172 12.4183 0 8 0C3.58172 0 0 3.58172 0 8C0 12.4183 3.58172 16 8 16ZM8.61231 12.2344L8.26856 10.6513C9.27577 10.4284 10.202 10.1384 10.127 9.01367H8.94336V4.80076H12.5088V8.73828C12.5075 11.8675 10.2101 12.1221 8.61231 12.2344ZM3.83593 12.2344L3.49121 10.6513C4.49843 10.4284 5.42461 10.1384 5.34961 9.01367H4.16601V4.80076H7.73144V8.73828C7.73019 11.8675 5.43373 12.1221 3.83593 12.2344Z" fill="#545454"/>
</svg>
